<svg id="Layer_1" data-name="Layer 1" xmlns="http://www.w3.org/2000/svg" viewBox="0 0 1985.87 386.85"><path d="M1103.9,215.22c20.36,9.52,41.17,18.23,60.81,29.06,5.94,3.28,11.78,12.28,12.07,18.9.46,10.4-8,13.22-18.72,14.7-14.82,2.06-29.2,8-43.46,13.12-33.27,11.93-66.22,24.73-99.67,36.12-4.25,1.45-12.13-2.05-15.63-5.78-2.8-3-1.93-9.78-1.86-14.88,0-3.27,2.47-6.58,2.28-9.78-2.64-45.2-5.64-90.38-8.35-135.57-.77-12.88-3.36-26.37-.49-38.49,1.92-8.1,10.85-16.68,18.84-20.48,5.48-2.61,15.75.91,22,4.71,10.9,6.59,19.62,16.78,30.58,23.2,23.66,13.86,49.79,21,76.81,25.81,5.5,1,12.51,8.54,13.83,14.22,1.91,8.16,2.18,18.74-9,23-6.07,2.32-12.66,3.43-18.57,6.06-7.92,3.53-15.41,8-23.08,12.09Zm-79.28,79.83c29.81-10.76,57-20.42,84-30.53,3.05-1.14,7.25-4.86,7.16-7.24-.11-2.77-3.9-6.89-6.89-7.8-13.32-4-25.34-12.61-40.47-10.87-3.83.44-9-2.45-12.07-5.35-6.61-6.22-9.93-13.55-6.07-23.32,4.14-10.49,10.25-16.52,22.12-16.6a29,29,0,0,0,13.51-4c3.43-2,5.77-5.82,8.59-8.83-3-2.7-5.55-6.33-9-7.93-11.38-5.22-23.56-8.84-34.55-14.72-10.82-5.78-20.56-13.56-33.41-22.25C1013.89,190.5,1018.35,241.46,1024.62,295.05Z"/><path d="M1483.32,179.28c8.72,4.52,15.66,8.67,23,11.82,18.34,7.83,37.36,14.27,55.11,23.24,6.76,3.41,12.51,11.56,15.26,18.84,1.18,3.13-5.5,11-10.31,14.16-8,5.21-16,1.83-22.26-4.85-15.88-16.94-38.3-21-58.57-29a129.84,129.84,0,0,0-33.33-7.67c-10.62-1.15-13.65,4.86-12.21,15.67,1.21,9.17,9.59,18.88.45,28.19-3.55,3.61-10.18,10.1-11.16,9.4-5.57-4-13.92-9.8-13.89-14.94.13-26.5,3.47-53,3.8-79.48.23-18.63-2.52-37.3-4.07-55.94-.63-7.59-3.16-15.38-2.08-22.67,1.47-10,5.35-16.33,19.46-13.44,31.9,6.53,64.41,10.14,96.68,14.83,9.69,1.4,19.7,1.49,29.06,4,6,1.61,14.55,5.78,15.57,10.25,1.42,6.19-.93,17.13-5.55,20.17-26.43,17.35-48.58,41.42-79.6,51.74C1487.29,174.14,1486.35,176.06,1483.32,179.28Zm42.32-57.82c-.49-1.5-1-3-1.45-4.49-22.65-3.88-45.3-7.82-68-11.62-6.85-1.14-10.65,1.12-10.76,8.92-.2,13-1.46,25.87-1.65,38.81-.07,4.15,1.84,8.32,3.6,15.61Z"/><path d="M89.51,68.71l11,8.69,11.53-6.16c1.68,2.18,5.33,4.92,4.9,6.66-4.77,19.22,11.76,26.7,21.48,36.56,16.31,16.55,35.91,29.86,52.46,46.21,14.12,13.94,30.13,19.22,49.27,21.37,6,.68,13,11.11,15.33,18.42,1.54,4.8-3.09,13.26-7.38,17.82-6.13,6.51-14.9,10.46-21.81,16.35-29.52,25.19-57.94,51.76-88.62,75.44-9.72,7.51-22.77,11.14-31.47,21.24-1.41,1.62-8,1.64-9.16.12a57.93,57.93,0,0,1-9.48-17.52c-1.48-4.81-.58-10.49-.06-15.72.63-6.24,1.87-12.43,3-18.6.79-4.11,2.73-8.13,2.81-12.21.62-32.82.59-65.66,1.46-98.47.41-15.42,3.35-30.8,3.14-46.18-.08-6.45-3.68-14.88-8.58-18.85C73.87,91.27,73,84.41,89.51,68.71ZM214.44,210.76l-98.06-79.32C115,185,113.3,236.65,116,288.29l5.58,2.55Z"/><path d="M604.09,101.5c4.69,2.66,8.5,3.64,10.39,6.08,17.13,22.16,36.72,43.08,49.79,67.45,7.93,14.78,19.87,23.45,30.34,34.37,9.63,10,7.57,24.42-3.32,33.26-13.44,10.9-27.2,23.11-35.95,37.67-12.32,20.49-19.63,43.93-30.3,65.5-2.74,5.53-10.3,12.38-15.26,12.09-5.15-.3-12.9-7.8-14.22-13.39C588.37,314.11,572.84,288,555.31,263c-9.49-13.57-20.67-26-31.21-38.8-5.36-6.54-3.07-24.94,4-29.54,16.34-10.58,28.47-25,38.41-41.42,8.65-14.29,16.9-28.83,26-42.8C595.06,106.61,600.09,104.49,604.09,101.5Zm62.34,115.55c-7.17-8.48-14.4-16.56-21.11-25.05-11-14-21.58-28.29-32.62-42.25-7.91-10-12.87-7.24-16.5,3.86-1.39,4.26-5.14,7.75-7.81,11.6-9.85,14.15-20.06,28.07-29.26,42.63-2,3.18-2.32,10-.24,12.79A366.86,366.86,0,0,1,603,298.83c1.53,3.66,5.48,6.32,7.9,9Z"/><path d="M755.82,195.93c0,39.78.32,77.91-.41,116-.09,4.8-5.7,9.5-8.75,14.24-5.63-4.34-14.24-7.66-16.19-13.27-2.77-8-.66-17.62-.6-26.56.23-35.66.76-71.32.5-107-.06-8.12-3.37-16.16-4.28-24.33-.76-6.85-1.47-14.17.19-20.67,1.23-4.84,6.29-8.72,9.64-13,4.91,3.83,11.42,6.68,14.48,11.65,20.27,32.91,39.78,66.29,59.63,99.47,1.41,2.37,3.5,4.35,6.66,8.2,1.71-8,3.84-13.75,4-19.61.62-18.14-.05-36.33.81-54.46,1-19.88,2.65-39.75,4.82-59.53,1-9.3,8.58-12.22,16.57-10.13,8.38,2.19,9.34,7.63,7.73,16.93-3.5,20.34-4.1,41.2-5.43,61.87-1.16,18-3.29,36.12-2.06,54,1.34,19.59,5,39.2,9.66,58.31,2.82,11.52.8,24.57-8.08,27.58-9.7,3.3-19.09-2.95-23.3-15.21a49.8,49.8,0,0,0-4.9-10.54c-10.57-16.58-21.63-32.85-32-49.56-7.87-12.7-14.83-25.94-22.43-38.8C761,199.51,758.5,198.24,755.82,195.93Z"/><path d="M1706.87,170.91c9.85-33.48-6.33-68.18,19-94.2,17.07,5.8,18.39,12.28,15.52,27.58-3.87,20.67-4.12,42-5.67,63.09-1.51,20.56,9.3,38.15,14.37,57.12,3,11-3.36,18-10.91,23-8.27,5.46-12.65-3-16.42-8.23C1712.5,225.09,1703.6,209.9,1693,196c-9.66-12.69-21-24.09-31.33-36.28-6.06-7.14-11.46-14.84-17.49-22-2.92-3.48-6.61-6.31-11.21-10.61-1.2,3.88-2.34,5.76-2.27,7.6.92,24.88.84,49.92,17.3,71.2,6.22,8.05,2.86,28.67-5.79,32.61-4,1.81-11.1,0-15.18-2.67a21.29,21.29,0,0,1-8.33-12.67c-5.08-26.56-11.17-53.14-13.27-80-1.62-20.64,2.06-41.7,3.55-62.57.69-9.73,7.41-14.19,14.73-8.93,9.48,6.82,17.22,16.33,24.75,25.48,13.4,16.29,26,33.2,39.08,49.8C1693.28,154.25,1699.21,161.42,1706.87,170.91Z"/><path d="M297.6,317.59c18-6.45,35.26-11.33,51.26-18.82,9.57-4.48,11.42,1.78,15.38,6.38,6.29,7.3,6.16,15.48-1.78,20.15s-17.79,5.94-26.53,9.4C321,340.58,305.8,346,291.74,353.54c-10.28,5.51-17.15,2.88-24.22-4.15-6.72-6.67-7.84-13.17-2.39-22a69.61,69.61,0,0,0,9.13-25.17c2.38-14.94,10.69-29.34,5-45.31-.71-2,.62-6.75,2-7.17,13.69-4.28,8.08-15.88,9.85-24.59,1.9-9.3,3.66-18.62,5.39-27.95.4-2.13,1.26-4.72.47-6.44-8.29-18.07-.78-34.92,4.29-51.71,1.51-5,5.93-9.75,10.28-12.85,1.3-.92,6.66,4.78,10.6,6.34,4.18,1.66,9.39,3.74,13.28,2.63,12-3.45,23.53-8.53,35.4-12.5,2.9-1,8.55-1.2,9.2.09a14.75,14.75,0,0,1,.61,10.66c-4.19,11.31-10.81,20.37-24.22,22.1-2.86.37-5.37,2.88-8.23,3.78-19.46,6.11-29.33,17.88-28.67,39.54.37,12.5-4.49,25.15-7,37.74l3.06,4c13-4.39,25.88-9.17,39.05-13,6.13-1.78,12.8-1.73,19.23-2.51.5,5,3,11,1,14.64-2.61,4.89-8.27,8.61-13.33,11.65-7.25,4.36-15,10.44-22.79,10.9C305.36,264.23,298.08,285.91,297.6,317.59Z"/><path d="M1333.56,105.58C1335,98,1335.4,90.06,1338.1,83c1.51-4,6.76-6.5,10.32-9.68,4.31,5.64,12.62,11.57,12.23,16.86-1.72,23.43-6,46.67-9.25,70-2.31,16.59-5.1,33.17-6.24,49.85-.4,6,2.19,13,5.5,18.22,8,12.66,2.85,28.15-12.51,28.89-17.06.83-26.67,12.19-36.74,21.8-21.52,20.54-16.33,26.48-43.13.87-11.39-10.88-24.81-19.66-37.38-29.32-5.4-4.14-9.43-7-8.77-16.3,1.41-19.79-.56-39.86-1.72-59.78-.74-12.73-2.62-25.39-3.82-38.1-.81-8.51,2.81-14.21,11.5-15.83,9.17-1.71,12.7,3.49,13.38,11.64,1,11.43,1.49,22.91,2.8,34.3,3.4,29.54,1.9,60.44,30.5,81.4,10.24,7.5,17.55,7.31,26.65,1.07,1.72-1.18,2.65-4.11,4.39-4.58,31.7-8.54,25-35.8,28.58-58,3.58-22.48,6.83-45,10-67.56.59-4.25.08-8.65.08-13Z"/><path d="M460.1,267.86C472.43,204.31,483.54,140.43,508.17,80c23.45,9.5,23.72,12.37,14.4,33.2-7.7,17.24-14.69,35.25-18.59,53.63-8.32,39.16-14.91,78.72-21.23,118.27-3.35,21-4.05,42.42-7.25,63.46-.85,5.61-5.44,13.26-10.19,15.06-7.5,2.84-14.91-1.85-16.46-10.6-4-22.35-7.17-44.84-10.93-67.22-1.06-6.33-3.22-12.48-4.51-18.78-5.82-28.32-11.74-56.62-17.17-85-3.18-16.62-6.22-33.34-7.63-50.16-.29-3.44,7.23-10.75,10.66-10.47,4.36.37,11,6.08,11.88,10.48,7.6,35.6,14.24,71.4,20.83,107.21,1.77,9.58,2.39,19.37,3.53,29.06Z"/><path d="M1831.79,118.53c9.61,6,15.57,10.58,22.25,13.64,20.72,9.46,42.2,17.41,62.3,28,5.94,3.13,11,12.86,11.39,19.85.27,4.75-7.34,11.93-13,14.68-19.18,9.24-38.45,20.57-58.93,24.21-18.15,3.23-33.58,11.5-50.49,16.64-8.86,2.69-17.23,1.62-18.16-8.15-.59-6.19,3.25-16.67,8-18.81,20.19-9.06,41.53-15.54,62.29-23.37,6.37-2.4,12.25-6.1,18.35-9.2-5.31-2.92-10.4-6.36-16-8.65-18.23-7.5-36.54-14.88-55-21.65-5.39-2-12.53-.12-17.2-2.86-11.69-6.85-8.86-19-4.62-27.87,2.56-5.35,12.38-10.36,18.69-10.08,9.27.43,13.88-2.91,19.55-9.08a359.61,359.61,0,0,1,36.43-35.13c4.4-3.61,13.81-5.32,18.79-3.1,7.46,3.31,6.56,11.18,3.65,19.19-6,16.64-21.59,23.08-33.46,33.45C1843.48,112.9,1839.34,114.36,1831.79,118.53Z"/></svg>