<svg id="Layer_1" data-name="Layer 1" xmlns="http://www.w3.org/2000/svg" viewBox="0 0 1066.91 361.37"><path d="M687.73,112.2c3.81-1.54,7.56-3.28,11.45-4.58,4.63-1.55,9.36-2.43,13,2.13,3.41,4.25,4.21,8.68,1.28,13.67-3.72,6.31-7.14,12.79-10.3,18.5,2.91,4.47,6.77,8.33,8,12.89,1.14,4.19-.49,9.15-1,13.77-1,9.65-2,19.29-3.18,30.86,2.92-2.06,5-2.81,5.9-4.28,6.87-11.24,13.63-22.57,20.13-34,1.35-2.38.94-5.78,2.33-8.12,1.72-2.9,4.1-6.52,6.9-7.29,1.94-.53,5.73,2.73,7.54,5.15,4.94,6.62,4.57,6.71,9.75-.05,4.28-5.6,8.9-10.95,14.48-17.75l10.57,14.35c5-.86,10.85.63,12.57,7,1.33,4.95.26,10.55.26,16.55a90,90,0,0,0,8.38-4c6.18-3.78,12.42-6.07,20.05-5.72,8.48.38,15.71-7.7,16.55-16.49.24-2.57.06-5.47,1.2-7.61,1.47-2.76,3.71-6,6.35-6.91,1.67-.56,4.69,2.77,7.06,4.41,3.84,2.66,7.29,6.33,11.53,7.88,14.09,5.13,15.37,6.34,16.37,21.71l141.89-18.13c-2.8,4.76-3.78,8.34-6.11,9.85s-6,.54-9,1.21c-10.58,2.37-21,5.59-31.67,7.37-34.45,5.76-69,10.62-103.45,16.65-18,3.14-35.69,7.8-53.42,12.15-7.93,1.95-11.45-1.92-12.95-8.72-10,3.12-17.48,17.14-29.89,3.68-1.13,3.79-2,6.83-3,9.88-2.56,8.51-9.12,10.39-16.27,4.65a14,14,0,0,1-2.73-18.52,65.66,65.66,0,0,0,3.31-6.54l-1.83-1a60.17,60.17,0,0,0-3.56,6c-3.59,7.94-6.79,16.07-10.66,23.87-1.19,2.4-4.64,6-6,5.55-3.88-1.14-7.24-4.06-10.76-6.35-.48-.31-.68-1.06-1.37-2.21-3.05,4.33-5.36,8.76-8.73,12.12-4.24,4.21-8.64,9.37-16,6.4-5.46-2.2-10.45-11.3-10.13-18.44.1-2.13.27-4.26.41-6.39l-2.08-.59c-1.35,2.72-2.41,5.63-4.11,8.11-10.72,15.58-20.75,31.74-32.63,46.39-11.72,14.45-25.43,27.28-38.13,40.95-7.18,7.75-14,15.82-21.11,23.64-4.13,4.55-8.14,9.32-12.88,13.15-1.72,1.39-5.94,1.38-8.11.25-10.63-5.47-12.44-11-10.38-22.66,2.5-14.22,3.79-28.65,6.23-42.88.79-4.59,3.54-8.84,5.39-13.25l3.07.35,1.88,15.07,1.55.56,22-60.35-2-1.19c-2.44,3.47-4.82,7-7.35,10.4-4.55,6.12-9.09,7.38-13.7,3.93-4.19-3.13-5.58-11.28-1.2-15.37,6.69-6.22,6.26-14.06,7.88-21.81,3.73-17.82,7.49-35.73,13-53a411.61,411.61,0,0,1,20.11-50.75C627.75,63,639.85,51.35,653.86,42c8.84-5.91,17.52-12.38,27.11-16.76,15.92-7.27,32.33-14,50.63-10.82,7.76,1.33,15,13.48,12,22A64.79,64.79,0,0,1,733.7,55c-12.07,15.41-24.83,30.29-37.42,45.29-3,3.61-6.49,6.87-9.75,10.3ZM692,129c-3.2.84-4,.87-4.55,1.23-13.32,8.45-27.39,16-39.67,25.75-8.48,6.76-15.74,15.88-21.24,25.29-5.16,8.83-7.26,19.43-10.75,29.24Q606.2,237.25,596.6,264c-4,11.24-7.94,22.52-11.91,33.78l2,1C622.7,243.53,659.18,188.57,692,129Zm-50.87,8.35c1.82-1.65,2.85-2.44,3.71-3.38,14.37-15.72,29.13-31.1,42.94-47.29C701,71.13,713.32,54.86,725.79,38.72c1.61-2.1,1.59-5.45,2.33-8.22-3.1-.53-6.35-1.95-9.27-1.45C692.8,33.55,671,46.42,651.77,64a5.67,5.67,0,0,0-.84,5.33c4,7,2.58,14.14,1,21.3C648.43,105.67,644.93,120.69,641.08,137.31ZM637,83.88c-10.43,6.18-37.38,79.8-34.41,92.54,8.28-8.66,17.69-15.72,20.49-28.38,3.46-15.67,8.47-31,12.29-46.59C636.68,96,636.44,90.22,637,83.88ZM689.6,168l-2.31-1.5q-26.87,42.92-53.75,85.82C658.52,228.22,673.08,197.49,689.6,168Z"/><path d="M347.2,211c18.35-16.81,36.76-33.56,54.92-50.57,1.51-1.41,1.74-4.59,1.86-7,.32-6.45,1.9-11.46,9.51-12.57,11.32-1.64,22.43-3,31.4,7.82,12.06-5.44,24-11,36.11-16.23,7.89-3.43,13.58,1.12,12.39,9.59-.22,1.56-.3,3.14-.55,5.85,2.47-1.41,4.09-2.22,5.6-3.21,7.9-5.16,12.54-3.58,14.18,5.68.69,3.92-.07,8.44-1.33,12.31-4.84,14.82-10.62,29.34-15,44.27-1.5,5.1-.2,11.08.17,16.63.29,4.37,1.23,9.34-4.17,10.67-5,1.23-9.35-.72-10.94-6.49-3-10.84.07-21.2,2.65-31.49,2-8,5-15.72,6.55-24.19-6.15,8.48-12.48,16.84-18.39,25.49q-11.92,17.46-23.3,35.32c-2.58,4-6.06,3.07-8.4,1.15s-4.9-5.68-4.47-8.11c1-5.46,3.35-10.82,5.91-15.83,8.19-16,16.76-31.83,25.07-47.78.85-1.63.91-3.66,1.51-6.3-6.4,2.59-11.65,4.53-16.71,6.89a4.89,4.89,0,0,0-2.05,3.84c.27,14.19-6.95,24.43-17.82,32.16-12.55,8.94-25.62,17.16-38.58,25.51a22.62,22.62,0,0,1-8.52,3.52c-6.92,1-12.17-3.77-12.73-11-.16-2,0-4,0-8.4-7,6.25-12.33,11-17.66,15.86-3,2.68-6.23,5.13-8.74,8.19-4.43,5.39-10.29,3.73-14.14,1.29-2.9-1.83-3.63-7.43-4.75-11.52-.49-1.76.46-3.91-.71-6.54-3.29,5-6.33,10.19-10,14.93-1.95,2.55-5.06,6.22-7.4,6.05-4.78-.36-8.84-3.54-9-9.32-.35-10.88-.62-21.78-.94-32.66,0-1.13-.17-2.26-.26-3.47C286,199.73,274.17,208.43,261.67,216c-8.81,5.34-18.18,10.32-28,13.38-10.85,3.39-22.62-7.28-24-20.27-.49-4.48-.92-9.11-.29-13.51a18.84,18.84,0,0,1,4.3-9.13c6.78-7.82,13.88-15.38,21.14-22.76,8.28-8.41,16.43-17,25.45-24.59,7.05-5.9,14.72-5.06,20,.37,5.4,5.59,5.55,15.38-.64,22.63a100.55,100.55,0,0,1-15.17,14c-11.85,9.12-24.12,17.69-36,26.81-1.8,1.38-2.23,4.53-3.29,6.86,2.82.77,6.21,2.94,8.37,2.07A234.81,234.81,0,0,0,258.4,200c5.36-2.92,10-7.2,15.33-10.11,9-4.86,12.65-12.92,15.41-22A197.79,197.79,0,0,1,297,146.46c2.5-5.78,8.47-6.39,11.44-.88a34.59,34.59,0,0,1,3.77,14.84c.4,12.81-.14,25.65-.17,38.48,0,1.93.69,3.87,1.49,8,3.31-5,5.72-7.85,7.34-11.14,7.63-15.48,14.89-31.14,22.71-46.52,1-1.89,5.43-4.08,6.62-3.38a20.32,20.32,0,0,1,7.12,7.94c.9,1.74-.07,4.69-.69,7-3.59,12.9-7.45,25.73-10.93,38.65-.88,3.26-.73,6.79-1,10.19Zm42.87-8.6,2.76,2.74c14.53-10.37,32.48-16.25,43.75-33.9-6.93.61-11.83,1-16.7,1.5-2.29.26-5.44.15-6.65,1.55C405.27,183.41,397.74,192.94,390.07,202.36Z"/><path d="M61.37,330.33c4.62-3.63,8.51-5.66,11-8.79,20.42-25.87,40.6-51.93,60.83-78,13.7-17.62,27.72-35,40.93-53,15.58-21.2,31.18-42.45,45.32-64.6,8.59-13.46,15.31-28.47,15.94-45a49.63,49.63,0,0,0-2.81-18.74c-3.13-8.47-9.37-13.82-19.37-14.25-30.72-1.34-56.35,10.54-79.88,29C117.57,89.37,105.17,104.48,94.25,121c-14,21.06-23.58,43.62-26.56,69.13-1.16,10-6.53,19.45-10,29.15L56,218.9c0-6.16-.93-12.49.17-18.44,3.27-17.66,5.67-35.75,11.48-52.62a175,175,0,0,1,45.06-69.95c10.14-9.68,21.2-18.88,33.18-26.09,23-13.87,48.38-20.87,75.37-15.62,11.51,2.24,17.67,12.51,22,22.77,7.32,17.24,4.61,34.26-2.14,51.11-12.07,30.16-31.34,55.66-51.4,80.81-16.39,20.56-31.7,42-47.74,62.81-11.82,15.37-24.06,30.43-36.09,45.64-8.19,10.36-16.26,20.81-24.54,31.09-2.66,3.3-5.49,6.67-8.91,9.07-2.18,1.53-6.31,2.63-8.24,1.56s-2.43-5.05-3.16-7.85A5.51,5.51,0,0,1,61.37,330.33Z"/><path d="M80.51,295.61c5.52-9.43,10.71-18.11,15.7-26.89,17.22-30.28,32.79-61.36,44.46-94.23,6.26-17.61,12.32-35.32,17.71-53.21,3.32-11,5-22.5,7.87-33.65.72-2.82,3.25-5.18,4.95-7.75,2.28,2.48,6.18,4.78,6.47,7.47.51,4.75-.69,9.86-2,14.58-5,17.75-9.23,35.86-15.94,53-11.67,29.73-24.52,59-37.77,88.11-7.89,17.3-17.06,34.06-28.74,49.29C90.05,296.4,86.84,298.35,80.51,295.61Z"/></svg>