<svg id="Layer_1" data-name="Layer 1" xmlns="http://www.w3.org/2000/svg" viewBox="0 0 881.62 494.64"><path d="M531.18,142.44c4.05-6,7.35-11.07,10.81-16,3-4.29,6.75-9.75,12.28-6.8,4.42,2.36,9.74,7.8,10.07,12.2a209.49,209.49,0,0,1-.91,39.9c-2.73,22.83-6.51,45.55-10.31,68.24-8.1,48.32-15.1,96.9-31.78,143.32-1.74,4.85-3.65,9.63-5.26,14.52-1.89,5.74-6.87,7.92-11.42,6.38-5.77-2-4.9-7.73-3-12.53,1.79-4.56,4.19-8.88,6.05-13.41,2.53-6.19,4-11.33-1.87-17.88-3.79-4.2-4.94-13.22-3.53-19.21,3.59-15.19,0-29.87-1.31-44.55-3.35-36.49-8-72.87-12.44-109.26-.95-7.94-2.83-15.78-4.47-23.62a6.62,6.62,0,0,0-2.33-3.82c-13.6-9.36-6.66-23.44-8.25-35.53a2.61,2.61,0,0,1,.8-2.11c15.1-10.45,17.08-29.26,27.35-42.84,6.35-8.39,12.08-9,18.2-.45a9.58,9.58,0,0,1,1.68,4.08c2.48,17.61,4.81,35.23,7.3,52.84C529.1,137.75,530.11,139.52,531.18,142.44Zm18.72,7.75-3.45-1c-1.41,2.73-3.22,5.33-4.18,8.22-7.78,23.43-10.65,47.66-12.47,72.18-1,13.78-3.53,27.48-6.07,41.1-1.75,9.42-5.36,18.52-6.83,28-1,6.25.22,12.88.74,19.31.31,3.83,1.19,7.61,1.82,11.41h2.95C534.11,270,544.3,210.46,549.9,150.19Zm-42.55-44.33c-12.7,18-14.08,26.3-8.94,45.79a36.75,36.75,0,0,1,.83,4.57c2.47,18.62,4.88,37.26,7.43,55.88.74,5.4,1.88,10.74,2.84,16.11l2.75-.27C519.5,187,516.2,146.37,507.35,105.86Z"/><path d="M143.68,303.47Q149.32,289,155,274.42c7.73-19.8,15.61-39.55,23.19-59.41,11-28.84,22.12-57.66,32.54-86.71,2.93-8.16,4.2-17.07,5.09-25.76.94-9.08-5.18-14-14.43-13.47-23.09,1.27-42.79,11.36-60.69,24.66-15.24,11.32-29,24.65-43.67,36.73-2.21,1.82-6,1.69-9.08,2.47,0-4.51-1.79-10.89.5-13.2,8.29-8.38,17.91-15.47,27.13-22.92,5.4-4.36,10.79-8.77,16.51-12.68A200.89,200.89,0,0,1,190.44,76.9c17.69-5.06,36.14,2.34,38,17.6a73.57,73.57,0,0,1-3.4,31.89c-9.49,27.21-20.87,53.75-31.24,80.66-21.08,54.66-41.9,109.43-63,164.08-6.06,15.67-11,31.46-12.45,48.37-.37,4.41-4,9.37-7.49,12.46s-7.57,1-8-4.1c-.33-3.54-.36-7.44.78-10.73,9-26.32,18.23-52.58,27.79-78.71,2-5.56,4.14-9.87-2.57-13.78-1.71-1-2.43-5.09-2.24-7.66.94-13.31,3.8-26.66,3.27-39.88-1.3-33-4.11-65.93-6.23-98.9-.41-6.45-1.09-13-.34-19.36.36-3.05,3.76-5.75,5.79-8.62,2.29,2.91,6.45,5.73,6.6,8.74,2.41,47.25,4.29,94.53,6.31,141.8a17.48,17.48,0,0,0,.38,2.26Z"/><path d="M405.3,225.09c-1.1,8.74-2.45,17.46-3.24,26.23-1.42,15.94-2.09,32-4.07,47.82-.45,3.54-4.52,8.52-7.83,9.39-5.85,1.54-8.74-3.33-8.94-8.94-.91-26.59-1.82-53.19-2.45-79.79-.25-10.8.2-21.61.36-32.42.07-5,1.42-10.43,7.16-9.76,3,.35,6.14,5.14,7.9,8.59,1.23,2.41.16,5.95.23,9a7.94,7.94,0,0,0,2.18,5.94c.56-2.16.64-4.65,1.81-6.42,1.84-2.78,4.12-6.65,6.76-7.15s6.8,1.9,8.75,4.28c7.56,9.24,8.05,20.81,9.72,32,2,13.18,4.67,26.25,7.07,39.36.9,4.93-.36,9-5.48,10.41-5.53,1.54-10.14-.27-11.1-6.39-1.76-11.22-2.9-22.54-4.42-33.8-.39-2.85-1.25-5.63-1.9-8.45Z"/><path d="M713.94,197.24c-.89,4.63-2.28,9.23-2.56,13.9-.6,9.8-.7,19.63-.82,29.45-.07,5.22-.13,10.18-7.31,10.2-6.44,0-10.5-4.12-10.45-10.86.11-13.17.46-26.33.41-39.5,0-8.25-.83-16.49-.87-24.75,0-4.68,1.38-8.38,7.49-8.59,1.71-.06,4-3.37,4.78-5.61,1.65-4.62,2-9.73,8.58-10.37s9,4.12,10.43,8.55c3.24,10.18,6.77,20.54,7.84,31.07,1.82,17.79,1.46,35.8,2.76,53.66.57,7.84,2.93,15.55,4.58,23.31,1.14,5.36.53,10.25-5.55,11.6-6.52,1.44-9.88-3-10.46-8.65-2.32-22.32-4.2-44.69-6.21-67-.18-2-.21-4-.31-6Z"/><path d="M296.81,257c1.36-13.23,3-26.43,4-39.69.87-10.76.71-21.62,1.81-32.35.37-3.56,2.92-7.11,5.16-10.17.83-1.13,4.71-1.76,5.29-1.05,2.48,3,5.7,6.54,6,10.06.4,5.78-1.55,11.68-2.05,17.57-2.2,26.28-4.14,52.57-6.45,78.84-.4,4.52-1.4,9.35-3.58,13.21-1.33,2.37-5.32,4-8.36,4.48-4.42.71-6.34-2.23-7.92-6.57-8.71-23.94-18.08-47.64-26.85-71.56a20.36,20.36,0,0,1-.6-11.78c.56-2,4.9-4.2,7.37-4s5.65,2.86,6.57,5.21c4.61,11.77,8.58,23.79,12.77,35.72l4.29,12.2Z"/><path d="M618.26,215.8c-.87-6.83-1.7-13.66-2.64-20.48-.59-4.32-2.32-8.74-1.72-12.86.42-2.91,3.42-6.22,6.17-7.69,1.31-.71,5.22,2,7,3.93,9.15,9.88,6.4,22.53,6.49,34.05.13,15.4-1.57,30.85-3.08,46.22-.42,4.34.79,10.67-6.11,11.8-7.62,1.25-11.44-1.48-13.74-9.9-5-18.4-9.55-37-14.86-55.27-2.27-7.82-5.73-15.34-9.17-22.76-2.47-5.34-1.1-10.68,4.26-14.32,5.86-4,9.43.2,11.1,4.2,3.64,8.7,6.12,17.89,8.88,26.94,1.66,5.47,3,11.06,4.4,16.59Z"/><path d="M248,212.23c2.46,2,6.74,3.91,8.35,7.15,2.53,5.1-1.12,8.8-5.79,10.94-4.89,2.24-10,4.11-14.86,6.32-2,.88-5.11,2.12-5.22,3.41-.17,2.1,1.23,4.81,2.78,6.51,12.65,13.9,25.58,27.56,38.2,41.49,2,2.17,4,5.41,3.91,8-.18,3.36-1.87,8.6-4.16,9.38-2.9,1-8.35-.56-10.44-3-7.1-8.16-12.35-18-19.87-25.67-10.57-10.78-22.37-20.39-34-30-2.52-2.09-6.8-2-10.11-3.23-4.7-1.83-9.33-4.09-8.27-10.44.95-5.65,3.86-8.42,10.2-9.43,11.93-1.9,23.61-5.37,35.4-8.19Z"/><path d="M761.7,174.59c-.68,10.54-1.58,20.79-1.94,31.06-.31,8.95,3.38,16.34,11.3,20.72,14.62,8.08,15.75,30,8.63,40.95-1.3,2-5.67,2.89-8.49,2.67-1.36-.1-3.15-3.87-3.47-6.16-.53-3.78.87-8-.2-11.49-1.4-4.61-3.33-10.42-6.94-12.76-10.58-6.84-16.47-16.36-16.35-28.19.18-19.32,1.87-38.65,3.61-57.91.29-3.15,3.73-8,6.39-8.48,3.56-.67,8.67,1.11,11.51,3.63a52.82,52.82,0,0,1,12.06,15.15c1.63,3.22-.11,8.14-.33,12.3-4.32-.28-8.65-.55-13-.87A23.07,23.07,0,0,1,761.7,174.59Z"/><path d="M361.61,225.07c0,19.56-.29,39.13.15,58.68.17,7.35-4.41,10.53-9.66,11.72-5.84,1.32-8.08-3.66-9.5-8.85a161.36,161.36,0,0,1-4.7-57.47c.66-7.4-.17-15,1.08-22.27a29.37,29.37,0,0,1,6.71-13.45c1.11-1.29,7.47-.22,9.3,1.75a25.05,25.05,0,0,1,5.93,12.24c1,5.73.24,11.75.24,17.65Z"/><path d="M653.53,167c3.21-4.32,5.56-8.3,8.7-11.49,3.28-3.34,7.27-3.52,11-.06,3.56,3.3,5.46,7.08,3,11.73C664.42,190,665.88,214.56,667,239c.19,4.11.92,7.67-4.64,8.81-5.26,1.07-10.07,1.38-12.42-4.42-1.23-3-1.53-6.5-1.92-9.82-2.06-17.67-3.87-35.37-6.07-53C640.93,172.56,643.23,163.79,653.53,167Z"/></svg>