<svg id="Layer_1" data-name="Layer 1" xmlns="http://www.w3.org/2000/svg" viewBox="0 0 1328.13 355.98"><path d="M971.22,162.89c12.11-1.33,14.61-4,13.71-13-1.09-10.84,2.18-15.51,13.25-20,6.81-2.75,8.31-6.46,8.54-13.64.36-11.14,3-22.24,5-33.29,2.23-12.06,4.77-24.07,7.43-36.05,1.14-5.16,2.91-10.08,9.36-11,6.77-1,13,5.78,12.56,15.29-1,19.19.88,38.32-3.06,57.67-2.71,13.29-9.54,23.9-14.88,35.52,7.2,4,20.88.85,24.87-5.18,3.31-5,6.8-9.9,10.47-14.64,3.14-4.06,6.64-7.83,10-11.73,4.6-5.38,10.6-5.48,15.43-.16,1.53,1.69,2.86,3.56,3.66,4.56,5-7.79,10.06-15.46,14.89-23.28a15.13,15.13,0,0,0,1.86-5.82c1.07-7.75,6.24-12.66,11.65-9.17,3.72,2.41,7,9.72,6.23,14-2.44,13-7.29,25.63-10.59,38.55-2,7.95-3,16.19-4.47,24.81,5.68,1.47,7.38-1.17,8.35-5.69,2-9.2,3.61-18.22,9.91-26.22,6.63-8.43,27.87-12.55,37.39-5.56,5.94,4.34,5.19,13.45-.41,18-6.74,5.48-12.53,12.12-18,19.07,13.83-3.94,30.06-2.83,36.86-19.49.56-1.37,4.69-2.43,6.62-1.85a40.26,40.26,0,0,1,11.07,5.66c1.1.76,1.32,3.47,1.19,5.23-.59,7.72,3.17,14.13,9.91,15.05,4.87.66,11.81-2.81,15.47-6.66,7.44-7.81,16.23-15.37,16.52-27.74,0-2,1.44-4,2.51-5.76,3.75-6.33,11.39-6.42,14,.45,2.83,7.52,5.27,16.26-.88,23.18-9.31,10.49-12.49,22.32-13.52,36.09-1.7,22.82-9.1,44.29-22.16,65.74,11.26,2.47,21.5,5.9,31.95,6.71,11.28.88,22.75-1.16,34.11-.93,3.71.08,10.11,2.86,10.45,5.13a20,20,0,0,1-3.71,14c-1.65,2.12-7.53,1.5-11.45,1.22-11-.78-22-1.75-32.93-3.2a166.89,166.89,0,0,1-22.4-4.47c-10.85-3-13.37-2-20.3,6.41-13.33,16.21-26.29,32.84-43.64,45.25a239.31,239.31,0,0,1-45.62,25.58,106.16,106.16,0,0,1-55.37,7.83c-13.69-1.68-28.43-3.15-39.91-13.07-5-4.33-10.39-8.22-15.51-12.42-3.63-3-7.19-3.24-10.45.22-5.26,5.57-10.92,4.67-16.93,1.59-6.22-3.17-7.35-8.8-6.5-14.75,2.52-17.57,5.15-35.14,8.27-52.61,2.71-15.18,6.51-30.17,9.18-45.36,2.51-14.25,4.17-28.65,6.4-44.36-2.78,1.08-4.42,1.47-5.8,2.31-2.88,1.75-5.42,4.16-8.45,5.55-18.16,8.34-17.35,8.27-17.47,28.89a249.78,249.78,0,0,1-4.58,45c-3.42,18-7.35,36.08-13.75,53.13-4.78,12.71-13.6,24-21.19,35.5-1.19,1.8-5.8,2.72-8.19,2-2.06-.64-3.85-4-4.61-6.54a23.1,23.1,0,0,1-.88-10q2.64-16.2,6.22-32.26c2.61-11.76,5.72-23.41,8.54-35.12,3.18-13.21,6.38-26.41,9.34-39.67.8-3.54.77-7.27,1.17-11.47-11.58.68-17.32,12.17-29.68,9-12.77-3.26-14.9-12.31-18.22-22.75-11.72,11.38-18.2,29-38.32,28.57-1.55-3.85-3.09-7.69-5.33-13.3-2,4.81-4.42,8.44-4.92,12.31-1.5,11.72-11.2,17.19-18,24.91a37.71,37.71,0,0,1-3.34,3.35c-8.19,7.18-14.18,4.79-17.85-3.44-1.26-2.82-3-5.41-4.95-8.75-4.58,7.52-7.87,13.92-12.09,19.64-9,12.18-20.1,20.79-35.44,25.18-10.16,2.91-19.65,6.06-30.2,4.11-2-.37-4.4-.42-6-1.51-13.24-9-24.56-19.29-28.59-36.07-3.56-14.77-4.8-29.17-1.64-44.13,3.23-15.3,5.69-30.77,8.22-46.21,1.43-8.76,1.55-17.8,3.68-26.36a172.69,172.69,0,0,1,10.19-29.7c3.33-7.33,8.26-14.12,13.37-20.42,2.78-3.45,7.8-5,11.17-8.08a103.54,103.54,0,0,1,41.61-23.25c14-4.12,26.58.42,38.26,6.91,8.09,4.5,10.74,13.43,11.26,22.44.08,1.43-2.26,4.11-3.69,4.26a11.14,11.14,0,0,1-7-2c-5.71-4.06-10.74-9.16-16.67-12.8-11.87-7.28-24.16-2.84-34.32,2.86-11.67,6.55-21.93,15.93-31.94,25C718,104.28,713,115.52,711.7,128.76c-1.29,13-4.28,25.89-6.47,38.83-1.78,10.49-3.67,21-5.14,31.51-1.34,9.53-2.54,19.11-3.15,28.71-.76,11.95,5.43,21.95,11.33,31.43s25.33,11.23,34.52,4.68a23.29,23.29,0,0,1,5.74-2.66c13.1-4.68,23-12.86,29.09-25.56,4.25-8.89,10.07-17.23,13-26.51,2.58-8.26,2.72-17.45,2.77-26.24,0-5.15-10.46-10.57-16.9-8.88-5.2,1.37-10,4.13-15,6.31-5.28,2.32-10.39,5.18-15.87,6.92-6.64,2.1-10-.86-10.06-7.76a17.49,17.49,0,0,1,11.07-16.92c10.07-4.2,20.77-6.9,31.21-10.18,2-.62,4.31-.51,6-1.5,14.2-8.07,24.54-2.66,29,13.2,4,14.11-.43,27.41-.76,41.08-.18,7.14,0,14.28,0,21.43l2.78.76c1.72-1.65,3.86-3,5.1-5,6.72-10.58,12.55-21.8,20-31.83,6.66-9,14.82-16.92,22.69-25,9.15-9.33,18.81-18.16,28-27.46,1.72-1.74,1.75-5.07,3.38-7,2.17-2.53,5.14-6,7.77-6,2.36,0,6,3.79,6.81,6.58a28.8,28.8,0,0,1-.25,18.86c-4.74,13.27-6.08,27.36-2.09,41.25.84,2.94,4,5.21,5.24,6.69,12-14,23.32-26.47,33.71-39.73,3.44-4.4,4.93-10.61,6.4-16.23,3.54-13.5,6.57-27.14,9.74-40.74,2.79-12,5.09-24.18,8.39-36.07a98.92,98.92,0,0,1,8.93-22.47c1.83-3.22,7.24-6.35,10.71-6,2.39.21,5.63,6.26,6,10a224.43,224.43,0,0,1,1.33,31c-.28,10.92-4.74,20.88-8.27,31.13-4.57,13.24-7.07,27.18-10.91,40.69C976.39,154.18,973.76,157.87,971.22,162.89ZM1066,148c-6.85,4.58-12,9-17.92,11.7-6.28,2.8-13.44,3.61-20,5.91-1.47.51-3,3.67-2.83,5.48.48,5.67,2,11.24,2.63,16.91,1.46,13,2.54,26.11,4,39.15.36,3.24,1.56,6.39,2.36,9.52,10.79-2.07,21-5.36,31.23-5.73,23.67-.87,47.47-1.58,71,.06,19.12,1.32,38,5.87,57,9.54,11.12,2.16,21.61-4.07,24-14.52,2.69-11.79,6.23-23.39,9.25-35.11,1.37-5.32,4.85-10.77.3-16a8.94,8.94,0,0,0-2,0,4.87,4.87,0,0,0-2.15,1c-6.79,7.27-14.56,5.45-21.78,1.53a29.88,29.88,0,0,1-10.86-9.89c-4.29-7-9.12-6.72-15.32-3.52-3.9,2-7.85,4.29-12.05,5.26-9.88,2.3-19.77,7-30.08,3.61-11.26-3.75-19.62,2.48-27.75,7.64-5.29,3.37-10.25,4.92-14.24,1.18-2.81-2.63-3.81-8.23-3.83-12.51s2.16-8.72,3.38-13.08a30.24,30.24,0,0,0-5.67,9.4c-2.27,5.49-6.79,11.41-6,16.47,1,6.14-1,10.16-3.59,14.58-1.85,3.1-3.46,6.55-8.63,4.47-4.82-1.93-7.7-4.86-7.06-9.93,1.12-8.79,2.82-17.52,4.2-26.28C1064.41,159.5,1065.11,154.22,1066,148Zm16.32,186.22c7.33-1.28,16.75-1.75,25.3-4.73,10.28-3.58,19.87-9.19,29.64-14.16,5.4-2.74,11-5.41,15.76-9.06a216,216,0,0,0,41.85-42.92c3.41-4.57,3.14-6.22-2.46-7.07-14.41-2.16-28.73-5-43.2-6.55a408.19,408.19,0,0,0-45.67-2.7c-19.29.12-38.58,1.48-57.83,2.84-6.18.44-11.25,3.45-13.56,10.2-4.4,12.89-9.51,25.53-14,38.4-3.19,9.23.35,17.71,8.9,22.2C1043.81,329.42,1061.83,333.22,1082.33,334.18Zm-71.11-154.8c-4.68,27.92-12.13,54.91-16.29,84.42,7.31-6.75,12.62-11.27,17.43-16.26,2.27-2.36,5.17-5.68,5.06-8.46-.58-15.34-1.85-30.65-3.24-45.94C1013.76,188.5,1012.24,184,1011.22,179.38Zm-49-30.14,2.89,1.15c11.92-30,23.08-60.23,23-94-1.64.78-2.83,1-3,1.46Q973.58,103.51,962.18,149.24Zm-6.89,63.93-4.11-.91-17.64,81.2,3.54.79Zm65-100.19c7.54-6.64,12.7-31.56,7.64-41.8C1025.39,84.84,1022.89,98.49,1020.24,113ZM992.17,291.46l-2.06-.06v16.93C996.71,304.89,996.71,304.89,992.17,291.46Z"/><path d="M523,174.78c-11.41,7.65-21.71,14.35-31.8,21.36-12.15,8.43-17.52,7.07-23.45-6.32a19.65,19.65,0,0,0-1.94-2.8c-8.08,3.21-16.08,6.19-23.93,9.55s-12.09,2.08-16.49-5.2c-5-8.27-7.13-16.28-3-26.07,2.8-6.69,2.73-14.58,4.3-24.15-3.09,2.68-4.94,3.7-6,5.26-5.55,8.61-11.79,16.94-16,26.19-3.27,7.17-3.48,15.67-5.93,23.29-1,3.17-4.33,5.59-6.6,8.36-3-3.29-8.11-6.27-8.65-9.93-.89-5.92.81-12.37,2.11-18.45,2.47-11.58,5.42-23.06,8.18-34.59l-3-1c-2.68,6.22-6,12.25-7.89,18.7-2.65,8.89-3.88,18.19-6.44,27.11-1.9,6.63-22.3,16.39-28.64,14.19a6.23,6.23,0,0,1-3.47-2.9c-3.43-7.8-7.51-15-5.77-24.63,1.78-9.87,3.87-19.34,8.31-28.3a4.77,4.77,0,0,0,.4-2.25c0-.45-.49-.88-2.11-3.56-5.15,8.72-10.74,16.06-14,24.31-4.64,11.6-7.38,23.94-11.42,35.8a8,8,0,0,1-5.8,4.37c-2.16.12-6-1.81-6.42-3.51-1.46-5.8-3.42-12.29-2.12-17.79,2.91-12.28,7.83-24.08,11.56-36.18.83-2.69.12-5.85.12-8.8l-2.86-.89c-2.5,4.27-6,8.26-7.32,12.86-5.62,19.92-18.61,34.61-33.59,47.73-3.91,3.42-9.81,4.58-15.23,7-2.91-2.74-6.32-5-8.44-8.16-3.85-5.69-7.42-4-11.92-1a56.93,56.93,0,0,1-13.1,6.82c-6.27,2.07-11.21-2.13-15-12.85,3.53-1.38,7-3.06,10.7-4.11,7.34-2.11,15.61-2.87,18.53-11.52,1-3-.33-6.69.47-9.8,3.11-12.16,5.86-24.47,13.82-34.8,3.4-4.43,6.47-8,13-6.34s12.22,4.33,13.17,11c.86,5.94.92,13-1.6,18.2-4.26,8.72-10.87,16.29-16.43,24.39-1.42,2.07-2.65,4.27-4.51,7.3,8.44.59,13.32-3.78,16.86-8.61,6.8-9.29,15.41-18.63,18-29.23,2.46-10.07,8.92-14.74,15-20.65,6.8-6.65,11.46-6.43,18.44.18,3.81,3.61,6.31,5.56,11.77,1.45,6-4.53,14-5.69,20.76-.72,6.29,4.66,6.28,11.88,4.4,18.73-3.14,11.47-6.78,22.8-10.32,34.57,9.95-.84,14.84-6,15.37-14.31.22-3.48,1.46-6.93,2.4-10.34,1.4-5,3.58-10,4.3-15.1,1.44-10.33,10.78-18.91,20.13-17.68,7.23,1,11.69,4.38,11.26,12.32a5.21,5.21,0,0,0,.47,2.28c.17.41.74.66,2.61,2.22,3.48-5,7.21-9.73,10.29-14.88,2.71-4.55,4.51-10.4,11.26-8.82,6.55,1.53,11.68,5.8,11.87,13a180.06,180.06,0,0,1-1.24,24.89c-.82,7.15-2.8,14.16-4,21.28-.28,1.75.62,3.69,1,5.55a35,35,0,0,0,5.64-1.81c12.59-6.49,15.31-19.83,20.65-31,3.13-6.54,3.18-14.48,5.27-21.61.78-2.66,3.19-6.5,5.22-6.74,2.72-.32,6.46,1.68,8.59,3.83,6.61,6.68,5.33,13.47,2.06,22.46-4.19,11.5-5.56,24-6.84,36.82,13.05-3.32,23.91-8.64,32.12-18.2,10.19-11.84,12.47-26.91,16-41.39,1.2-5,1.48-10.23,2.2-15.4,10.42-1.4,15.43,3.73,14.58,14.24-1.65,20.54-2.44,41.15-4.52,61.64-1.09,10.8-4,21.43-6.33,32.1-1.84,8.58-3.92,17.11-6.15,26.75C537,236,547,232,557.12,228.06c5.15-2,10.51-3.5,15.49-5.83,3.33-1.55,5.93-4.68,9.29-6.15s10.14-3.3,10.59-2.46a52,52,0,0,1,4.8,15.82c.11.71-5,2.49-7.81,3.36-6.7,2.08-13.74,3.3-20.18,6-12,5-23.51,11.34-35.67,16-6.62,2.53-12.86,4.09-15.72,11.61-3.66,9.6-6.38,20.13-12.34,28.17-11.84,16-23.23,33.39-44.36,39-5.29,1.41-11.14,2.52-16.43,1.71-5.68-.87-11.85-3.07-16.31-6.58-11.69-9.22-16.92-22.23-18.08-36.84-.6-7.67,3.77-12.52,14.77-13.62,16.76-1.67,32.44-5.85,47.28-13.88,6.62-3.58,13.78-6.78,21.09-8.32,16.79-3.54,17.47-18.17,21.23-30,3.93-12.35,5.77-25.37,8.13-38.17C523.61,183.91,523,179.73,523,174.78Zm-21.58,97.85c-4.56-1.05-7.11-2.53-8.71-1.84-5.82,2.51-11.12,6.27-17,8.6-11.8,4.67-23.59,9.81-35.88,12.65-8.21,1.9-10.42,8.33-9.33,12.72,1.34,5.49,7.52,13.92,11.41,13.81,8.92-.24,19.72-2.62,26.15-8.24C480.11,299.8,489.59,286.36,501.42,272.63Z"/><path d="M54,62.41c4.15,7.65,9.52,13.87,10.88,20.86a215.66,215.66,0,0,1,3.43,38.84c.13,13.43-1.38,26.86-2.23,41.25,3.61-3.56,7.33-6.81,10.52-10.51,4.41-5.13,8.4-10.6,12.59-15.92,12.43-15.79,24.74-31.68,37.36-47.32a205.26,205.26,0,0,1,14.92-16c4-4,8.82-5,13.73-1.84,5.37,3.48,4.38,8.9-.84,12.5-6.21,4.29-12.44,9-17.27,14.75-14.71,17.38-28.77,35.3-43,53.05q-14.85,18.48-29.53,37.1c-1.91,2.42-3.29,5.26-6.38,10.28,7.34.63,12.81,1.39,18.28,1.51,11.63.27,23.29-.18,34.9.38,12.75.63,25.71.86,38.1,3.49a124.28,124.28,0,0,1,33.84,12.28c14.53,8,27.81,18.26,41.65,27.52,7.75,5.19,15.53,10.33,24.46,16.27.41,2.8-1.23,5.4-6.22,4.17-4-1-8.35-1.89-11.75-4.06-9.75-6.22-18.64-13.92-28.71-19.5-18.64-10.33-36.76-22.59-59-24-20.42-1.32-40.88-2-61.33-2.72a196.72,196.72,0,0,0-24.28.59c-2.05.19-5,3-5.54,5.1-3.26,12.65-6.77,25.32-8.6,38.21-2.43,17.13-4.79,34.47,0,51.73.37,1.32-.62,4.16-1.55,4.45a7.67,7.67,0,0,1-5.68-.75c-6-3.75-4.73-10.31-4.73-15.74a325.23,325.23,0,0,1,1.78-37.46c1.3-11.16,4.71-22.06,6.32-33.2,1.07-7.35.81-14.92.77-22.39,0-6.2-1.16-12.24,4.27-17.4a18.52,18.52,0,0,0,5.21-10.21c3.07-22.82,6-45.69,8.14-68.61.68-7.2-.78-14.66-1.75-21.94-.32-2.41-1.59-5.36-3.43-6.79C46.75,75.2,47.45,70.1,54,62.41Z"/></svg>