<svg id="Layer_1" data-name="Layer 1" xmlns="http://www.w3.org/2000/svg" viewBox="0 0 1313.07 398.01"><path d="M882.32,244.8l51.1,20c-1.63-9-2.64-16.51-4.41-23.84-2.27-9.4-5-18.72-7.86-28a53,53,0,0,0-5.29-11.72c-2.15-3.51-5.5-4.05-10-4.18-8.31-.24-16.56-2.69-24.84-4.16-2.65-.48-5.34-.77-7.77-1.11,1,9.52,2,17.79,2.68,26.08.58,7.32.51,14.69,1.19,22,.78,8.43,2.48,16.8,2.9,25.24a11.77,11.77,0,0,1-4,8.49c-3.74,3-8.47-1-8.83-6.15-1-13.71-2.36-27.39-3.46-41.09-.57-7.05-.81-14.13-1.33-21.19-.35-4.91-.48-9.92-1.61-14.67a8,8,0,0,0-5.09-4.86c-8.83-2-17.84-3.2-26.71-5.05-2.25-.47-5.72-2-6-3.52-.85-4.26,3.52-4.7,6-4.5,8.73.7,17.4,2.13,26.09,3.26,1,.12,1.93.13,3.85.25a68.62,68.62,0,0,0,0-8.39c-1.35-10.5-2.74-21-4.41-31.47-1-6.2-2.92-12.27-3.75-18.49s-1.72-12.54-.73-18.52c.42-2.6,5.33-4.77,8.57-6.4,1-.47,3.51,1.27,4.77,2.54q17.29,17.52,34.35,35.27c2.55,2.64,4.86,5.5,8.37,7.73-.7-2.76-1.26-5.56-2.13-8.26-1.48-4.51.37-8.86,4.76-9.93s7.88.63,9.5,5c3.08,8.4,9.08,14.71,15.24,20.75,4.65,4.55,10.13,8.26,15.28,12.3a16.38,16.38,0,0,0,3.5,2.24c6.39,2.76,13,5.16,19.15,8.31,1.44.73,2.75,5.28,2.23,5.7-2.26,1.79-5.76,4.33-7.85,3.66-13.38-4.32-26.6-9.14-36.45-20.09-2.41-2.67-5.82-4.44-8.77-6.63l-1.77.78q2.34,14,4.69,27.91a12.06,12.06,0,0,1,.43,2.33c-.4,11.13,8.23,13.93,16,17.93,4.13,2.13,10.32,2.92,10,11.14l-18.2-1.47c1.72,5.47,3.67,10.93,5.13,16.51a226,226,0,0,1,5.2,22.89c.91,5.92.41,12,.83,18.07a5,5,0,0,0,2.32,3.53c8.43,3.9,16.89,7.71,25.49,11.22,7.89,3.22,16.09,5.71,23.92,9.06,17.21,7.38,34.3,15.05,51.39,22.71q18.27,8.19,36.41,16.66c15.25,7.14,30.41,14.47,45.63,21.68,12,5.66,23.8,11.58,35.94,16.8a278.39,278.39,0,0,0,28.56,10.41c3.72,1.14,8.09.53,12.08,0,.76-.09,2.15-3.85,1.54-5-7.86-15.19-16.28-30.09-24-45.34-5.38-10.59-10.38-21.43-14.75-32.46-6-15.06-11.27-30.4-16.7-45.67-3.54-9.93-7-19.89-10.13-30-2.11-6.82-3.43-13.88-5.29-20.79-.48-1.82-1.65-3.45-3.35-6.86-2,9.87-4.13,17.86-5,26-1,9.1-10,20.9-18.86,23.13-7.36,1.86-15.08-3-19.28-12-1.14-2.46-2.34-4.89-3.12-6.52-6.76,5.44-12.62,11.48-19.64,15.5-11.44,6.55-24.11,1-31-12.19-3.91-7.44-8.41-14.56-12.28-22-.79-1.51-.2-3.92.23-5.81.72-3.26,2.91-6.55,2.57-9.62-1.56-14,12.29-29.86,26.07-29.17,10.58.53,17.53,7.32,18.5,17.95.73,8-.48,15.34-5.35,22.24-4.62,6.54-11.38,7.29-18.13,8.6a25.06,25.06,0,0,1-4.75.05c.86,11.2,7.56,19.39,15.65,19.42,8.79,0,16.12-8.06,16.32-19,.12-6.61-.66-12.73,2.46-19.47,2.22-4.82-.35-11.92-1-18-.76-6.87,1.79-10.57,8.46-10.65,1.61,0,4.51,2.47,4.67,4,1,10.19,1,20.49,2.26,30.64,1.36,11.37,4.57,22.29,12.33,31.22.79.92,3.31,1.75,3.76,1.31,3.11-3,7.49-5.94,8.46-9.68,2.67-10.2,3.45-20.88,5.79-31.18,1.33-5.81,3.91-11.43,6.63-16.78,1.05-2.07,5.09-4.9,6-4.37,2.84,1.68,5.87,4.4,6.94,7.39,2.56,7.17,4.1,14.71,6,22.12,2.56,10.33,4.84,20.73,7.6,31,3.4,12.63,6.17,25.41,11.94,37.4,3.91,8.12,5.75,17.21,8.92,25.71,2.14,5.71,4.95,11.18,7.55,16.71,4.69,10,9.14,20.13,14.29,29.89,5,9.55,10.83,18.71,16.34,28,1.88,3.16,3.89,6.25,5.87,9.35,4.64,7.28-.33,16.52-9.57,16.93a66.22,66.22,0,0,1-33.57-6.94c-8.32-4.24-17.23-7.32-25.68-11.33-14.05-6.66-27.9-13.71-41.9-20.48-15.27-7.38-30.6-14.63-45.91-21.93-6.41-3.05-12.78-6.2-19.26-9.08s-13.37-5.53-20-8.41c-9.44-4.09-18.82-8.33-28.23-12.48-13.14-5.81-26.34-11.47-39.41-17.42-9.09-4.14-17.92-8.87-27-12.95-10.44-4.67-21.14-8.77-31.58-13.44a76.06,76.06,0,0,1-12.08-7.11C883.57,249.4,883.36,247.26,882.32,244.8Zm-19.58-133c1.89,9.76,4,17.9,5,26.16,1.56,12.87,2.28,25.84,3.7,38.72.14,1.27,2.57,3.13,4.06,3.25,3.56.29,7.35-1,10.77-.36,6.32,1.26,12.39,3.68,18.66,5.22,2.06.51,4.42-.19,6.63-.34a50.1,50.1,0,0,0-.47-5.62c-.45-2.45-1.49-4.82-1.74-7.28-.67-6.71-1-13-9.07-16.1-2.66-1-3.49-6.21-5.8-9-7.18-8.54-14.61-16.86-22.07-25.16C869.66,118.33,866.6,115.62,862.74,111.82Zm175.9,79.39c-.27,5.63.48,6.34,6.89,5.64,8.76-.94,14-10.23,10.56-18.73-1.89-4.66-4.93-5.79-9.45-3.21C1040.69,178.31,1038.12,183.57,1038.64,191.21Z"/><path d="M347.72,158.6c.18-1.84.92-3.85.43-5.49a8.48,8.48,0,0,1,5-10.78,72.84,72.84,0,0,0,13.35-7.15,16.6,16.6,0,0,1,21.94,2.09,130.11,130.11,0,0,1,25.25,38.45c3.87,9,8.52,17.7,12.38,26.72.81,1.88.5,5.46-.79,6.72a10.42,10.42,0,0,1-7.55,2.62c-1.73-.19-4.06-2.95-4.57-4.95-5-19.92-15.41-37.24-26.62-54.05-2.34-3.49-7-5.92-11.14-7.61-6.14-2.53-14,5.56-12,12.31,1.07,3.71,1.82,7.24,4.72,10.87,5.22,6.54,7.84,15.15,11.61,22.86,1.13,2.31,2.42,4.54,3.74,6.74,5.35,9,6,18.53,3.12,28.34a6.12,6.12,0,0,1-4.12,3.46c-1,.19-2.69-1.85-3.64-3.19q-15.57-22-31-44.21c-.46-.65-.82-1.38-1.34-2-7-8.29-13.63-17-21.25-24.68-4.76-4.81-11.06-8.11-16.66-12.08l-1.56.68c.41,3.14.78,6.29,1.24,9.43,2.27,15.32,8.37,30.19,5.75,46.07-.39,2.31-2.11,5.92-3.71,6.21a15.67,15.67,0,0,1-10.12-1.5c-1.79-1.08-2.4-5.06-2.51-7.79-.32-7.73-.11-15.48-.11-24.35-8,5.91-8.28,13.81-10.44,20.74-3.46,11.11-14.08,13.33-23.22,6.13-6.81-5.35-15.52-8.23-23.11-12.67-8.6-5-16.92-10.56-25.3-16A3.79,3.79,0,0,1,214,168c-.69-7.61-4.87-11.84-12.08-14.18-1.71-.55-3.24-4.33-3.23-6.61,0-1.49,2.72-3.5,4.63-4.31,2.44-1,5.29-1.1,6.56-1.32,3.07-4.72,5.92-8.82,8.48-13.11,4.45-7.43,11.58-8.29,18.94-7.21,10.29,1.52,21.57.76,29.12,10.24.25.32.56.57.82.88,3.31,3.87,9.93,5.89,8.17,12.68-1.8,6.94-4.8,13.54-11.52,17.09-7.13,3.78-13.41,10.42-23.24,8.58,3.81,2.3,7.58,4.67,11.45,6.88,4.76,2.71,9.73,5.07,14.37,8,5.35,3.33,6.75,2.79,8.6-3.12,2.34-7.5,4.45-15.36,13.34-18.37l5.19,3.33,2-.76c-1.13-4.3-2.2-8.63-3.43-12.91-.31-1.07-1.38-1.94-1.63-3-1.89-8.28-3.85-16.55-5.39-24.9-.61-3.26-1.95-8.38,3-8.57,3.4-.13,7.28,2.88,10.27,5.31,1.53,1.25,1.57,4.32,2.2,6.34,19.82,2.73,32.8,15.44,44.94,29.45Zm-109.5-1.17c9.25-1.09,15.16-3.09,18.92-9.27,2.26-3.7,1.15-7.22-2.87-8.89-1.45-.6-2.7-1.67-4.15-2.28-7-2.91-14-4.84-21-.16-3.6,2.41-5.52,11.28-2.49,13.64C230.67,153.6,235.41,155.79,238.22,157.43Z"/><path d="M744.22,121.33c-5.52,7-8.41,7.91-15.21,4.27-7.64-4.08-14.92-8.83-22.56-12.9-6.64-3.53-13.39-8.63-20.4-9.2a39.84,39.84,0,0,0-27.17,7.89c-7.67,5.65-11.26,13.67-15.12,21.44-6.66,13.4-7.2,27.84-4.91,42.52,2.36,15.08,8.31,28.72,16.79,41.17a181.41,181.41,0,0,0,19.28,24.33c8,8.21,32.23,9.2,43.34-1.55,6.42-6.22,14.12-11.11,21.2-16.66a9.14,9.14,0,0,0,2.72-3.1c4.74-10.25-1.53-21.9-11.86-26.84-8.19-3.92-16.75-4.07-25.1-5.89-4.85-1.06-10.23-.13-15.32.4-4.15.43-7.93-.23-9.48-4.13s.52-7.12,4.34-9.29c8.27-4.69,16.85-8.06,26.57-7.13,8,.76,16,1.5,24,2.71,9,1.38,18.57,11.64,19.9,20.6.44,2.94,1.4,5.79,2,8.7.66,3.19,1.6,6.4,1.67,9.61.16,6.49-.39,13-.27,19.47.12,6.75-4,11.39-9.91,8.86-6.73-2.88-11,1.08-14.06,4.29-9.33,9.75-20.27,16.36-33.43,17.39-9.69.76-19.71-.86-29.39-2.51-3.19-.54-6.36-4.06-8.56-6.95-7-9.28-14-18.65-20.19-28.49-5-7.94-10.18-16.2-12.9-25.05-3.52-11.43-5.9-23.13-5.5-35.66.73-23.16,8.72-42.6,26.62-56.68,7.29-5.74,17.85-7.48,27.09-10.55,7.24-2.41,13.76-.39,20.17,3.82,8.38,5.51,17.26,10.3,26.08,15.1,4,2.15,8.41,3.4,12.47,5.38A66.76,66.76,0,0,1,744.22,121.33Z"/><path d="M478.68,177.68c-2.92,5.59-5,11-8.33,15.41-2.67,3.51-6.56,7.21-10.6,8.31-10.68,2.92-21.09,1.54-29.17-7.08-1.66-1.77-2.17-4.6-3.26-6.92C421.52,174.93,415.6,162.52,410,150c-2.24-5,1-8.52,4.46-11.22,3.28-2.54,6.54-.58,7.7,3.62,1.78,6.5,3.23,13.21,6,19.28,3.45,7.48,7.93,14.53,12.33,21.53,3.49,5.56,9.41,6.64,15.37,6.32,5.66-.31,9-5,8-10.82-1.73-9.88-3.71-19.73-5.71-29.57-.77-3.78,1.81-9.09,5.27-9.8,4.47-.92,7,.27,8.72,5.33,1.89,5.64,5.7,10.65,8.79,15.87s6,10.31,9.4,15.15c4.16,5.88,9,11.31,13.21,17.14,7.39,10.15,15.25,20.64,14.1,33.79A62.72,62.72,0,0,1,510,250.53c-5.81,10.62-15,17.35-27.38,20.9-10.72,3.07-20.78,2-31.26,1-9.22-.91-18.49-1.36-27.74-1.93-13.68-.84-27.35-1.8-41-2.34-12.37-.48-24.79-1.08-37.13-.47-8.17.4-16.21,3.07-24.37,4.25-2.16.31-4.58-1.14-6.88-1.78.51-1.65.56-3.72,1.62-4.85,1.9-2,4.2-4.49,6.69-5a105.21,105.21,0,0,1,18.9-2.05c15.54-.24,31.1-.47,46.63.14,13.59.53,27.11,2.66,40.7,3.29,16.31.77,32.73,1.64,49,.59,7.39-.47,15.26-4.14,18.84-12.58,1.66-3.89,4.74-7.19,6.32-11.1,7-17.41-1.38-30.82-11.7-43.75C486.85,189.47,483,183.72,478.68,177.68Z"/><path d="M122.76,138.27c2.08-2.2,3.25-3,3.82-4.12,3.4-6.6,7.42-12.36,13.84-16.75s11.58-10.65,17.85-15.34a165.81,165.81,0,0,1,20-12.45c1.47-.8,4.8.09,6.24,1.36,2.11,1.86,4.38,5.13,1.37,7.69a95,95,0,0,1-14.38,10.08,117.67,117.67,0,0,0-36.49,33c-3.5,4.76-5.69,10.49-8.49,15.82,12,1.71,23.57,2.26,34.44,5.23,9.89,2.7,19.34,7.52,28.49,12.36,8.47,4.48,16.22,10.32,24.42,15.35a29.5,29.5,0,0,0,8,3.25,17.58,17.58,0,0,1,11.85,10c.55,1.14-.44,3.81-1.58,4.84-4.89,4.42-10.14,4.12-16.23-.5-7.06-5.35-13.67-11.45-21.24-16-13.46-8-26.79-16.67-43.13-18-6.32-.51-12.6-1.49-18.92-2-3.91-.33-5.72,1-5,5.66,2.13,14,3.45,28.18,5.67,42.19,2.45,15.53,5.52,31,8.44,46.41.35,1.88,2.06,3.62,2.08,5.43,0,2.3-.69,6.36-1.71,6.56-2.73.54-7,.47-8.47-1.23-2.65-3-3.82-7.38-5.41-11.27s-3-7.7-4.26-11.61c-.46-1.43-1.08-3.58-.4-4.48,6.37-8.39-.15-16.64-.29-24.89-.11-7-2.83-13.84-4-20.83-1.1-6.79-1.48-13.7-2.56-20.49-.26-1.57-1.87-3.81-3.27-4.17-7.12-1.83-8.87-4.72-4.86-11.08,3.86-6.1,4.43-12.62,4.21-19.33-.14-4.07-1.56-8.08-2.07-12.16-1-7.67-2.35-15.39-2.24-23.07.08-5.78,2-11.6,3.6-17.27.29-1,3.78-2.42,4.17-2,2,2.07,4.8,4.53,5,7.08.52,5.36-.74,10.88-.56,16.31C121,124.13,121.94,130.36,122.76,138.27Z"/><path d="M813.89,218.25c-5.38,6.9-10.3,13-15,19.27-3.22,4.34-7.12,4.62-11.59,2.6-10.74-4.86-19.7-19.15-17.81-30.7,1.05-6.39,4.77-12.33,7.24-18.5,4.47-11.17,13-17.58,24.54-19.54,3.57-.61,7.69,1.27,11.39,2.51.85.29,1.86,3.26,1.35,4-5.5,7.47,1,13.25,3,19.31,2.2,6.71,6.33,12.79,9.58,19.17,2.21,4.34,5.09,8.53,6.35,13.14,1.64,6.06,2.87,12.53,2.44,18.7-.16,2.42-5.13,6-8.19,6.34-3.84.39-6-3.37-5.18-7.66C823.92,236.3,818.64,227.9,813.89,218.25Zm-20.62-29.16c-2.53,5.85-4.42,11.11-7,16-3,5.55-2.14,10.66.64,15.76,2.29,4.21,5.63,4.35,8.7.5a24.5,24.5,0,0,0,5.63-13.5C801.79,200.68,800.8,194.19,793.27,189.09Z"/><path d="M999.12,167.63c5.78-.12,8.83,4.69,10.46,9.68a113.2,113.2,0,0,1,5.44,38.38c-.25,10.24-3.84,21.89,5.28,31.14,1.1,1.11.08,5.81-1.44,7.54-1.25,1.42-5.25,1.92-7.07,1a15.12,15.12,0,0,1-6.81-6.88,40.85,40.85,0,0,1-3.07-20c1.11-11.32.44-22.87-.17-34.28-.2-3.73-2.42-7.39-4-11a3.17,3.17,0,0,0-2.78-1.4,3.5,3.5,0,0,0-1.68,2.73c-.13,13.7.19,27.29,4.57,40.58a28.46,28.46,0,0,1,.39,14.15c-.42,2-5.15,5-7,4.5-3-.87-6.08-3.89-7.55-6.8a78.82,78.82,0,0,1-6.17-17,92,92,0,0,1-2.09-17.31c-.16-3.87.92-7.77,1.18-11.67C977.15,182.76,990.39,166.77,999.12,167.63Z"/></svg>