<svg id="Layer_1" data-name="Layer 1" xmlns="http://www.w3.org/2000/svg" viewBox="0 0 1436.21 252.36"><path d="M87.69,124.83c1.21-5.39,2.11-10.87,3.69-16.15,3.89-13,7.75-26,12.29-38.7,3.25-9.15,7.37-18,11.52-26.82a171.43,171.43,0,0,1,10-18.21c2.65-4.21,7.46-4.43,11.67-3.43,3.41.81,4.71,4,5.18,7.69,2,15.75,5,31.41,6.45,47.2,2.06,22.44,2.82,45,4.7,67.44.6,7.2.57,14.79,5.6,21.15,3,3.81,1.11,9-3.33,11.61-4.67,2.72-11.09,1.69-12.86-3.17a77.54,77.54,0,0,1-4.56-20.13c-1.66-21-2.34-42-4-63-1-12.85-3-25.62-4.63-38.42l-1.57-.37c-2.61,5.14-5.38,10.2-7.8,15.42-9.88,21.36-15.72,43.87-18.67,67.16-1,8.2-1.57,16.47-2.59,24.67-1.09,8.72-3.34,9.49-12.06,9-1.66-.09-4-2.51-4.65-4.33-5.31-15.81-9.82-31.91-15.54-47.56-4-11-9.52-21.4-14.4-32.06q-3.27-7.16-6.75-14.22a14.16,14.16,0,0,0-2.37-2.68c-.64,1-1.75,2-1.85,3-1.76,19.44-4,38.85-4.9,58.33-1,22.16-.65,44.37-.91,66.56-.07,6.12-.32,12.24-.26,18.36,0,3.79-2.1,4.81-5.31,5.07s-5.76.11-6-3.92c-.77-14.39-1.59-28.77-2.31-43.16-.25-5-.46-9.93-.32-14.88.52-18.37.48-36.79,2-55.08,1.29-15.25,4.5-30.35,6.87-45.52.25-1.63,1.13-3.4.74-4.85-1.57-6,2.1-8.66,6.61-10S45.77,42.72,48,46a242.73,242.73,0,0,1,14.8,25.19c5.74,11.5,10.71,23.37,15.88,35.14,2.06,4.69,3.74,9.53,5.61,14.3.57,1.46,1.2,2.89,1.8,4.34Z"/><path d="M945.1,119.05c-.7-5.61-1.29-11.24-2.13-16.83-1.74-11.61-3.79-23.18-5.39-34.81-1.08-7.87-2.38-15.83-2.18-23.71a184.4,184.4,0,0,1,3.28-27.46c.82-4.59,4.86-5.43,9.36-5.34,5,.1,7.47,2.52,8.3,6.88,1.48,7.81,3.15,15.63,3.87,23.53,1.37,15,2.51,30.07,3,45.14.4,12-1,24.18-.29,36.21.68,11.84,2.59,23.64,4.67,35.34,1.35,7.61,3.8,15,6.08,22.46.64,2.1,2.66,3.74,3.58,5.8.82,1.84,1.89,5.33,1.29,5.71-2.2,1.43-5.48,3.17-7.56,2.47-8.67-2.93-12.87-10.11-15.42-18.44a45.29,45.29,0,0,0-2.15-4.81c-2.81,6.49-5.62,12-7.63,17.85a52.32,52.32,0,0,1-13.68,20.88c-6.69,6.35-15.58,6.84-23.92,4.28-12.77-3.91-22.05-13-28.37-24.26a56.74,56.74,0,0,1-5.24-43.66c3-11.07,6.78-22,10.69-32.77,5.3-14.64,21.86-23.78,35.94-19.92,8.44,2.31,13.07,9.23,17.42,16.1,1.91,3,3.14,6.45,4.67,9.7Zm-55.55,39.63c-.22,20.73,5.31,31.92,18.23,41.42,4.83,3.55,8.7,3.44,12.74-.86a45.29,45.29,0,0,0,6.53-8.7,134.61,134.61,0,0,0,14.65-38.77c.89-4.33,2.35-8.82-3.37-11.4-1.15-.52-1.85-2.28-2.53-3.59-4.24-8.17-8.07-16.58-12.83-24.43-1.61-2.67-5.73-5.75-8.3-5.43-3.25.4-7,3.5-8.93,6.48C896,128.5,890.62,145.14,889.55,158.68Z"/><path d="M603.66,106.4c2.33.81,4.53,1.69,6.79,2.35,17.68,5.15,33.72,13,44.49,28.64,8.48,12.3,8.6,25.71,3.51,39.31-6.5,17.33-18.65,29.63-35,37.9-8.33,4.2-20.54,1.85-27.18-4.69-5.24-5.17-9.82-10.64-12-17.86-1.27-4.09-.28-7.31,3.48-9a6.59,6.59,0,0,1,8.6,3.88,44.7,44.7,0,0,0,11.46,15.92c3.53,3.28,6.63,3,9.78,1.15a57.82,57.82,0,0,0,21.29-21.12,64.08,64.08,0,0,0,6.66-15.77c3.85-15-2.85-26.09-14.35-34.83-10-7.58-21.73-10.9-34-12.89-6.88-1.13-11.14,3.6-15.85,6.91s-12,2.95-15.12-2.1c-.68-1.1-.7-3.6.08-4.42,3.69-3.91,7.24-8.4,11.81-11,10.38-5.8,16.07-15.1,20.58-25.24,3.81-8.57,7.09-17.62,6-27.23a37.36,37.36,0,0,0-4.17-14c-3.71-6.59-10.5-7.88-19.28-4.69a69.56,69.56,0,0,0-28.6,19c-3.07,3.42-4.73,7.1-3.9,11.76,3.45,19.57,6.57,39.2,10.37,58.7,2.5,12.8,5.48,25.56,9.14,38.07,2.51,8.58,3.41,17.78,9.73,25.18,4.23,4.95,3.26,9.56-.82,11.87-4.67,2.65-11.49,1.32-13.23-3.51-4.73-13.15-9-26.47-13-39.86-2.57-8.52-4.58-17.22-6.48-25.93-2.89-13.21-5.61-26.47-8.08-39.76-1.25-6.67-1.79-13.46-2.69-20.19a7.83,7.83,0,0,0-.81-2.78c-1.05-1.91-3.57-4.06-3.19-5.51,1-4,2.46-8.36,5.13-11.33A93.28,93.28,0,0,1,577.33,26c10.5-3.2,21.73-4,31,4.61,6.28,5.82,9.14,13.54,10.57,21.42,2.17,12,0,23.73-5.1,34.77C610.86,93.17,607.37,99.31,603.66,106.4Z"/><path d="M290.82,93.13c-1.25-10-2.22-18.44-3.38-26.88s-2.64-16.9-3.71-25.38c-.39-3.09,1.54-5.12,4.65-5.33,4.12-.27,9-1,10.39,4.33A220.73,220.73,0,0,1,303,62.14c1.28,8.67,2,17.43,3.29,26.1.18,1.22,2.23,3.14,3.35,3.09,6.1-.25,12.17-1.06,18.26-1.58,3.08-.26,3.74-1.74,3.35-4.68-2-15.39-3.87-30.81-5.71-46.23-.68-5.7.74-7.54,6.23-8.63,4-.79,7.67,1.49,8.94,5.74a24.47,24.47,0,0,1,.55,3.93c1.76,13.95,3.36,27.91,5.36,41.83,1,7,1.3,6.53,8.32,5.92,12.69-1.09,23.48-7.41,34.9-12,3.89-1.55,7.32-2.35,10.81,3-3.45,2.61-6.89,5.33-10.47,7.87-2.77,2-6,3.43-8.54,5.61-5.58,4.74-12.26,6.17-19.19,7.14-10.9,1.52-11.64,2.31-10,12.89s4.25,21,5.48,31.68c1,8.32.68,16.82.36,25.22-.06,1.64-2.79,4.37-4.4,4.46-2.27.13-5.77-1.14-6.74-2.91-1.82-3.31-2.55-7.36-3.13-11.19-2.5-16.5-4.66-33.05-7.21-49.54-.92-5.92-2.67-7-8.82-6.67-5.31.26-10.62.66-15.93.93-3.11.16-4.39,1.4-3.93,4.74,1.95,14.09,3.58,28.22,5.6,42.3.77,5.33,2.53,10.51,3.36,15.83.27,1.73-.58,5-1.61,5.32-2.69.81-6.25,1.38-8.6.25C301.52,170,301,164,300.15,159c-2.42-14.35-4.27-28.79-6.38-43.19-.26-1.8-.82-3.57-1-5.38-.44-4-2.88-5.12-6.52-5.12a57.52,57.52,0,0,1-8.39-.67c-4.88-.72-9-4.84-8.51-8.26.52-3.71,5.83-6.72,10.76-5.87C283.13,91,286.1,91.94,290.82,93.13Z"/><path d="M1416.08,226.89c-5.83,3.78-11.58,3-14.94-2.27a59,59,0,0,1-5.2-11.15,124.21,124.21,0,0,1-7.7-38.68c-.11-3.15.23-6.31,0-9.44-.11-1.38-1.13-2.7-1.73-4a23.28,23.28,0,0,0-2.41,3.15c-6.23,11.7-10.93,24.51-21.29,33.39-7,6-14.52,9.38-25.22,8-14.64-2-20.31-11.81-25.92-22.35-6.81-12.77-9.3-26.77-8.49-41.22a187.23,187.23,0,0,1,2.33-22.46c.59-3.3,1.69-8.24,6.73-7.52,9.84,1.42,11.45,2.92,10,10.13-2.11,10.77-3.43,21.42-1.92,32.41C1322,167,1324,179,1333.6,188.09c5.12,4.84,9.4,5.6,14.32.14,6-6.69,12.18-13.75,16.21-21.7,6.6-13,11.61-26.85,17.14-40.41,4.41-10.81,8.52-21.74,12.93-32.56,1.52-3.72,4.5-5.66,8.71-5.09,4.76.65,9.32,4.25,9.15,8.26-.32,7.57-1.5,15.11-2.12,22.68-1.56,19.23-3.48,38.45-4.36,57.71-.72,15.67,3.51,30.65,9.05,45.23C1415.21,223.86,1415.62,225.44,1416.08,226.89Z"/><path d="M1241.62,187.37c-8.63,9.53-19.09,15.18-31.27,16.09-8.89.67-18.37,1.44-26.17-4.93a23,23,0,0,1-8.75-16.1c-1.11-14.87,2.47-28.68,10-41.83a77.94,77.94,0,0,1,18.45-22.36c8.33-6.79,18-9.86,28.05-6.67,6.76,2.13,14,5.46,16.52,13.65a5.91,5.91,0,0,0,2.84,3.17c6.28,3,6.94,5.68,6.29,13.52s-3.32,15.56-3.6,23.4c-.19,5.35,1.86,10.9,3.64,16.12.42,1.24,4,1.17,5.71,2.27,2.27,1.45,5.73,3.33,5.9,5.26.31,3.55-2.45,6.19-6.46,6.79-6.22.91-11.88.13-16.48-4.69A43.92,43.92,0,0,0,1241.62,187.37Zm-49.44-9.11c0,8.73,3.63,13.31,9.57,12.27,5.78-1,12-2.06,16.88-5,8.34-5.08,15.49-11.84,16.9-22.49,1-7.52,2.18-15,3-22.56.51-4.46-5.82-13.9-10.13-15.22a6.16,6.16,0,0,0-4.24.15,42.57,42.57,0,0,0-7.8,5.1C1201.23,143.3,1194.5,160.32,1192.18,178.26Z"/><path d="M1149.82,95c12.15,1.15,19.84,10.86,16.9,22.51-2.65,10.48-9,18.71-17.45,25.14-9.29,7.12-19,13.69-28.7,20.27-3.62,2.45-5.51,4.76-3,9.22,3.46,6.3,6,13.17,9.86,19.18,5.74,8.87,11.66,9.58,21,4.44,4-2.19,8.5-3.48,12.87-4.9,1-.32,3,.17,3.33.87.57,1.13.77,3.38.06,4.06-5.17,5-9.85,11.57-16.14,14.27-13,5.57-28,1.62-35.86-12.14-4.77-8.35-8.51-17.28-12.75-25.93a39.62,39.62,0,0,0-3.09-5.61c-2.5-3.52-3.57-6.57-.51-10.72,1.49-2,1.06-5.7.9-8.6-.46-8.15,2.41-15.25,6.69-21.83,6.11-9.38,13.52-17.92,23.37-23.18C1134.11,98.42,1142.26,97.27,1149.82,95Zm.44,15c-12.15-1.81-39.11,27.17-34.89,37.24a8,8,0,0,0,2.21-.76c7.9-5.9,16.44-11.17,23.39-18C1145.68,123.77,1151.78,118.64,1150.26,110Z"/><path d="M830.2,167.4c-2.55,6.58-3.93,12.31-6.85,17.11a61.7,61.7,0,0,1-11.68,13.81c-5.36,4.76-19.26,2.81-25.13-2.42-11.06-9.85-16.2-22.74-20.42-36.52s-2.43-27.88-2.52-41.86c0-5.07,4.09-7.93,9.71-7.49,4.77.37,7.06,3.22,6.53,8.37-1.9,18.34-1.11,36.39,6.8,53.4a64.76,64.76,0,0,0,8.9,13.58c3,3.66,6.64,3.5,8.89-.62,3.59-6.58,7.18-13.45,9-20.64,2.48-9.53,3.71-19.46,4.65-29.29.52-5.51-.37-11.21-1.09-16.76s1.72-10.16,6.49-11.45c3.54-1,9.31,3.09,10.23,7.61.88,4.37,1.29,8.85,1.81,13.29,1.77,15,7.24,28.83,13,42.6a7,7,0,0,0,3.35,3.32c4,1.8,6.81,8.6,4.53,12.36a5.3,5.3,0,0,1-3.21,1.88c-10,2.14-15.88-4.41-19.56-13.36C832.76,172.21,831.6,170.21,830.2,167.4Z"/><path d="M243.66,118.4c1.23,9.75,2.1,19.56,3.91,29.2.56,3,3.75,5.5,5.54,8.36,1.23,2,3.36,4.59,2.83,6.17s-3.62,3-5.84,3.67c-6,1.76-10.25-1.09-13.32-6-1.7-2.73-2.6-2.75-5-.15-7.1,7.69-21.08,10.41-30.06,1.38a38.75,38.75,0,0,1-11.25-22.6A239.76,239.76,0,0,1,188.14,106c.09-10,3.56-19.13,12.13-25.45,5.44-4,20.2-4.53,26.46,2A30.81,30.81,0,0,1,233,92.3c1.23,3.12,2.79,5.08,6,5.79,4.41,1,6.37,3.68,6.15,8.23-.2,4,0,8,0,11.92ZM220,106.06c0-2.46.06-4.45,0-6.44-.22-5.71-2.34-9.14-6.4-9.07-4.61.08-5.89,4-7.15,7.67-3.58,10.47-3.4,21.25-1.7,31.87a80.76,80.76,0,0,0,6.2,19.65c2.2,4.94,7.16,4.93,9.26-.1,3.14-7.52,5.1-15.54,7.48-23.37,1-3.26-.55-4.83-3.44-6.59-2.22-1.35-3.73-4.53-4.59-7.21C219,110.43,219.8,107.9,220,106.06Z"/><path d="M698.83,190.71c-16.67,0-29.88-16.41-26.49-34a217,217,0,0,1,8.54-31.39c4.11-11.6,18.16-22.57,32.58-20a20.93,20.93,0,0,1,7.16,3c3.56,2.24,6.65,5.26,10.31,7.27,11.06,6.09,15.39,15.36,16.31,27.79,1.13,15.18-3.34,27.58-14.56,37.42C726.28,186.41,709.78,190.68,698.83,190.71Zm33.41-46a75.82,75.82,0,0,0-1.37-8.81c-1.76-6.42-4.53-8.44-11.12-8.62a8,8,0,0,1-7.5-4.64c-2.9-5.43-5.37-5.81-9-.69-4.17,5.85-8.15,12.12-10.66,18.79-3.71,9.88-6.6,20.2-3,31,1.38,4.19,4.19,7.5,8.33,7.46,5.7,0,11.86-.52,17-2.73C727.25,171.19,733.09,159.47,732.24,144.74Z"/><path d="M1042.26,195.81c-10.75,6.44-16.45,4.11-19.84-7-1.91-6.27-4.79-12.25-7.09-18.41-1-2.6-1.49-5.36-2.31-8a214.12,214.12,0,0,1-8.41-41.7c-.69-6.9,1-9.37,7.83-9.57,3.47-.1,5.28-1.23,6.88-4.29,7.77-14.82,20.91-22.08,36.84-25a94.28,94.28,0,0,1,15.71-1.63c8.92-.08,17.73,9.55,17.46,18.74-4.49,2.32-9,1.72-12.14-1.94-4.85-5.6-11.31-5-16.42-3.1-9.14,3.42-18.72,7-23.76,16.8-3,5.82-5.83,11.5-4,18.34.83,3,0,5.23-2.88,7.16-1.49,1-3,3.87-2.58,5.48,2.66,11.74,5.68,23.41,8.81,35C1038.13,183.24,1040.32,189.57,1042.26,195.81Z"/></svg>