<svg id="Layer_1" data-name="Layer 1" xmlns="http://www.w3.org/2000/svg" viewBox="0 0 1075.28 320.24"><path d="M173.49,53.88c-2.19,3.49-4.13,6.45-6,9.48-1.91,3.18-3.76,6.41-5.56,9.66-3.11,5.58-6.49,11-9.16,16.83-4.38,9.52-8.25,19.27-12.42,28.89-1.52,3.51-3.55,6.81-4.84,10.39-2.17,6-3.83,12.26-5.92,18.33-1.31,3.83-3.06,7.51-4.49,11.29-1.33,3.51-2.48,7.08-3.74,10.62-3.72,10.47-7.5,20.93-11.18,31.42-3.35,9.55-6.87,19-9.8,28.72-2.75,9.1-4.84,18.4-7.2,27.61-1.08,4.24-2.13,8.48-3.19,12.72-1.2,4.78-7.44,9.09-12.16,8.41-2.31-.34-3.92-3.94-3.47-6.64,1.28-7.72,2.27-15.49,3.49-23.22.66-4.19,1.75-8.31,2.28-12.5.41-3.22.1-6.52.4-9.76.67-7.43,1.48-14.84,2.3-22.26.65-5.85,1.28-11.72,2.13-17.55,1.17-8,2.58-16,3.79-24,.33-2.2.08-4.49.43-6.69.81-5,1.88-10,2.74-15,1.34-7.83,2.71-15.66,3.84-23.53.7-4.89.82-9.87,1.51-14.77,1.42-10.07,3.83-20,3-30.36-.21-2.82.49-5.71.77-8.57l-1.41-.58a94.34,94.34,0,0,0-7.65,6.41c-2.53,2.57-4.56,5.63-7,8.35C79.75,83.7,73.92,89.45,69,95.88c-4,5.22-7.08,11.16-10.37,16.89a86.62,86.62,0,0,0-6.08,12c-3.23,8.47-5.92,17.15-9,25.67-2.16,5.94-3.82,11.84-3.87,18.3,0,2.91-8.17,6.07-11.27,3-.89-.88-1.7-1.86-2.4-2.63,1.56-4.76,3-9.38,4.6-14q1.93-5.69,4-11.3c2.45-6.63,4.56-13.43,7.55-19.81,2.8-6,6.47-11.63,9.9-17.34,2.18-3.62,4.62-7.08,6.9-10.63,1.83-2.84,3.3-6,5.46-8.51q9.77-11.47,20-22.55A90.31,90.31,0,0,1,96.2,53.89a22.53,22.53,0,0,1,9.86-4.06c3.82-.57,4.67,3.61,5,6a88.41,88.41,0,0,1,.24,16.83c-.68,9.56-1.72,19.1-2.88,28.61-.78,6.34-2,12.61-3,18.93-1,6.78-2,13.58-3,20.35s-2.55,13.8-3.52,20.74c-1.26,9.08-2.17,18.22-3.31,27.33-.8,6.43-1.71,12.85-2.58,19.28-.69,5.06-1.39,10.12-2.17,15.84,4.62-1.65,4.33-5.4,5.34-8.1,1.3-3.45,1.48-7.31,2.74-10.77,1.39-3.83,4-7.26,5-11.15.89-3.22,1.83-6.08,4.41-8.27a1.18,1.18,0,0,0,.24-1.07c-2.34-6,2.44-9.88,4.28-14.62.63-1.59,1.23-3.19,1.92-4.76,1-2.24-.22-5.37,2.9-6.8.43-.2.22-1.64.46-2.46.49-1.66,1.1-3.28,1.64-4.93.32-.94.59-1.89.92-2.82,1.54-4.43,2.3-9.38,4.84-13.13,3-4.46,3.72-8.93,3.74-13.93a4.4,4.4,0,0,1,1.45-3c3.65-3,3.7-7.39,4.78-11.4.12-.47,0-1.17.33-1.37,5-3.52,3.85-9.78,6.42-14.36,3.1-5.51,6.24-11,9.35-16.5a3.64,3.64,0,0,0,.53-1.39c.33-3.87,2.65-6.63,4.84-9.63,3.6-4.93,6.19-10.64,10-15.33,4-4.88,8-10.73,15.8-9.49,1.17.19,2.94.9,3.19,1.73.71,2.39,1.45,5.09,1,7.45-2.27,11.69-4.91,23.32-7.45,35-1.34,6.13-2.63,12.27-4.16,18.35-1.49,5.89-3.4,11.68-4.9,17.57-2.44,9.6-4.74,19.23-7,28.87-1.59,6.76-3.25,13.52-4.51,20.34-1.42,7.66-2.43,15.4-3.62,23.1l.94.45c2.13-3.5,4.46-6.89,6.35-10.51,5.57-10.67,11.06-21.39,16.38-32.19,2.06-4.19,3.42-8.73,5.42-13,1.53-3.25,3.64-6.22,5.32-9.4a18.69,18.69,0,0,0,1.64-4.6c1.05-4.54,1.62-9.24,6.22-12,.67-.41.67-2.11.78-3.23.09-.86-.48-1.9-.17-2.59,2.77-6.14,6.14-12.06,8.33-18.39,1.14-3.31,5.19-5.74,3.43-10a1.1,1.1,0,0,1,.43-1c4.14-1.43,3.18-5.8,4.82-8.65a97.64,97.64,0,0,0,7.79-17.29c1.48-4.36,4-6.37,8.24-7.44,3.09-.79,6.57.88,6.18,4.07a96.1,96.1,0,0,1-3.07,16.56c-3.17,10.34-7,20.47-10.52,30.7-2.83,8.28-5.58,16.59-8.37,24.88-1.27,3.77.06,5,5.48,5.1.46,1.87.36,4.78,1.47,5.36a42.38,42.38,0,0,0,10.6,3.6c4.13.91,8.38,1.26,12.58,1.82,3.67.48,7.32,1.12,11,1.33a79.51,79.51,0,0,0,11.13-.17c1.14-.09,2.87-1.16,3.17-2.14,2.09-6.91,3.58-14,5.84-20.86,3.22-9.72,4.5-20.06,9.39-29.28,1.42-2.67,1.92-5.85,2.79-8.81s1.44-5.89,2.47-8.73c2.64-7.29,5.54-14.49,8.15-21.79,1.07-3,1.67-6.17,2.47-9.26.21-.84.34-1.7.61-2.52,1.47-4.41,2.67-8.94,4.55-13.17,1.57-3.56,5.39-2.53,8.37-2.75,2.82-.21,3.73,2.12,3.78,4.3a11.24,11.24,0,0,1-1.56,6.55c-2.07,3.35-3,7.39-4.37,11.17-2.26,6.43-4.51,12.86-6.61,19.34-2,6.11-3.72,12.29-5.64,18.41-1.49,4.75-3.11,9.46-4.64,14.2-2.32,7.2-4.77,14.37-6.87,21.64-2.26,7.83-4.18,15.77-6.49,24.57l47.46-1.73c2.85-9.11,5.59-18,8.4-26.78,2.47-7.79,4.85-15.62,7.62-23.3,2-5.65,4.68-11.07,7-16.62,1.12-2.72,1.91-5.58,3-8.29,2.06-4.92,4.25-9.78,6.39-14.66a13.85,13.85,0,0,0,.84-1.62c1.17-4,2.56-4.74,7.73-4.31,3.25.27,4.52,2.45,4.33,5.19A76.66,76.66,0,0,1,374.09,54q-1.75,8.1-3.92,16.11c-1.8,6.71-3.9,13.34-5.68,20-1.53,5.77-2.79,11.61-4.19,17.41-.72,3-1.45,6-2.24,9-1.11,4.23-2.28,8.45-3.67,13.56l37.93-4.54c1.4,3,.12,4.28-2.17,4.83q-13.06,3.13-26.17,6.15a47.57,47.57,0,0,1-8.33,1.42c-4.55.21-5,4.08-6,6.85-2.48,7.1-4.33,14.42-6.4,21.66-1.74,6.08-3.34,12.21-5.18,18.26-1.19,3.88-2.87,7.6-4,11.48a73.58,73.58,0,0,0-2.75,11.56c-.89,6.93-1.42,13.92-1.9,20.89-.25,3.48-.05,7-.05,10.5,0,1.55.13,3.12,0,4.66-.76,8.36,0,16.54,3.94,24,2.14,4.09,4.2,4.18,8,1.44,5.17-3.72,8.24-9,11.19-14.5,1.59-2.94,3.42-5.74,4.95-8.7,3.7-7.17,7.21-14.44,10.94-21.6,2.21-4.26,5-8.24,7-12.59,2.43-5.28,4.38-10.78,6.39-16.23,2.45-6.68,5.2-13.29,7-20.15,1.55-6,1.82-12.35,2.81-18.52s2.09-12,3.23-18.06c.89-4.74,1.79-9.48,2.91-14.17,1-4.15,2.22-8.23,3.46-12.31,2.5-8.21,5.15-16.37,7.58-24.59,1.73-5.83,2.94-11.82,4.84-17.59s4.31-11.15,6.5-16.71c1.51-3.86,2.9-7.76,4.53-11.56,2.74-6.35,5.27-12.84,8.58-18.89,2.88-5.28,7.85-5.68,12.14-1.62a3.56,3.56,0,0,1,1,2.72c-.63,3.37-1.57,6.68-2.33,10s-1.37,6.6-2.09,9.89c-.29,1.32-.68,2.62-1,3.93-1.17,4.5-2.26,9-3.55,13.5-1.1,3.8-2.53,7.51-3.64,11.32-1.93,6.58-3.57,13.25-5.62,19.8-2.69,8.67-5.7,17.24-8.5,25.87-3,9.31-5.84,18.69-9,28-2.7,8-5.68,15.95-8.63,23.89-2.58,7-3.48,14.21-4.22,21.53-1,9.7-2.37,19.38-3,29.11-.41,6.84.15,13.75.47,20.62a78.1,78.1,0,0,0,1.21,10.46,4,4,0,0,0,2.35,2.57c.64.2,2-.88,2.61-1.71,2.5-3.41,5-6.83,7.2-10.45q6-10.08,11.69-20.4c1.67-3.05,2.89-6.35,4.28-9.55,1.09-2.5,6.36-5.25,8.33-4.29,4.47,2.17,5.87,5.9,3.89,9.91-4.12,8.33-5,17-1.94,25.83.92,2.66,2.3,5.19,5.91,4.77s3.07-3.39,4-5.64c.84-2.07,1.9-4.71,3.63-5.58,2.6-1.3,5.66,0,7.22,2.5a10.45,10.45,0,0,1,1,5.64c-.23,5.51,1.15,10.11,6.14,13.15,4,2.46,7.94,1.17,11.86-.27,8.72-3.22,17.45-6.39,26.14-9.69,3.69-1.41,7.23-3.25,10.94-4.62a20.35,20.35,0,0,1,5.84-1c.38,0,1.32,1.79,1.2,1.91-4.18,4-8.17,8-14,10-6.55,2.27-12.67,5.75-19,8.55a57.23,57.23,0,0,1-8.77,3.13,107.59,107.59,0,0,1-12,2.41c-6.71.92-11.22-3.23-14.5-8-2.6-3.79-4.72-4.83-9.19-3.61-6.47,1.77-16-5-17.92-11.94-.36-1.29-.78-2.57-1.4-4.59-3.2,4.67-6.19,8.53-8.64,12.7-3.57,6.07-8.34,10.11-15.56,10.69-3.75.3-9.69-4.2-11.06-7.87-2.77-7.43-3-15.07-2.62-22.88.3-5.6.06-11.23.06-16.85l-1.17-.2a27,27,0,0,1-1.49,4.69c-3,5.69-6.13,11.29-9.16,16.95A24,24,0,0,0,371,241.9c-.37,1.07-.42,2.35-1.06,3.19-4.78,6.31-7.51,13.87-12.17,20.2-3.86,5.24-8,10.44-13.94,13.64-6.69,3.62-16.37,1.17-19.71-5.79-2.32-4.83-3.21-10.36-4.63-15.62-.58-2.15-.87-4.39-1.37-6.95-.73.47-1.58.7-1.81,1.2-2.44,5.4-4.62,10.91-7.19,16.24-2.71,5.61-4.64,12.18-8.87,16.36-10.12,10-23.77,8.22-30.47-4.84-4.86-9.48-8.27-19.49-8.58-30.3-.3-10.27-.66-20.53-.75-30.79-.05-4.93.47-9.87.67-14.8a10.83,10.83,0,0,0-.81-2.53,20.51,20.51,0,0,0-2.42,3.39c-2.18,5.52-4,11.17-6.4,16.59-1.74,4-4.12,7.68-6.2,11.5-3.18,5.87-6.28,11.79-9.59,17.58a53.18,53.18,0,0,1-4.54,6.09c-6.74,8.66-14.69,15.24-26.51,14.46a12.94,12.94,0,0,1-6-2.19,28.2,28.2,0,0,1-11-12.7c-5.08-11.67-4.56-23.64-3.95-35.77.32-6.34,0-12.75.78-19,1.06-8.22,2.88-16.34,4.52-24.47,2.08-10.33,4.18-20.66,6.55-30.93.73-3.2,2.39-6.18,3.55-9.28a22.28,22.28,0,0,0,.9-3.62c.25-1.29.25-2.64.61-3.89,1.25-4.41,2.62-8.78,3.9-13.18.11-.39-.11-.87-.94-1.52-2.42,5.88-4.8,11.77-7.3,17.62-.84,2-2.08,3.75-3,5.68-4.56,9.58-9,19.2-13.63,28.77S169.83,185,166,194.79c-2.23,5.66-5.86,9.1-10.63,12-3.45,2.08-9.7,1.62-11.24-1.35a13.75,13.75,0,0,1-1-7.54c.87-7.6,1.91-15.21,3.36-22.71,1.24-6.36,3.31-12.54,4.68-18.87,1.08-5,1.34-10.13,2.5-15.08,1.86-7.89,4.22-15.66,6.26-23.5,1.27-4.89,2.24-9.85,3.56-14.72,1.55-5.7,3.42-11.32,5-17,.7-2.53.92-5.19,1.46-7.77,1.59-7.55,3.24-15.08,4.83-22.63C174.76,55.43,174.45,55.19,173.49,53.88Zm20,180.44,1,.1c.35,3.25.33,6.6,1.14,9.73,1.37,5.27,2.17,10.68,6.49,15a9.11,9.11,0,0,0,12.35.41,85.57,85.57,0,0,0,16.59-21.93c4.52-8.38,9.35-16.57,13.07-25.36,1.37-3.23,2.78-6.44,4.11-9.68,2.55-6.2,5-12.44,7.58-18.63,1.63-3.94,3.72-7.72,5-11.77,2.55-8.22,4.73-16.56,6.95-24.88.64-2.39-1.08-3.83-3.89-3.63-3.71.25-7.53,1-11.14.47-9.19-1.35-18.33-3.15-27.42-5.06-4.27-.89-8.42-2.4-12.6-3.7-2.05-.64-3.14.1-3.64,2.09-.8,3.2-1.76,6.37-2.48,9.59-2.1,9.4-4.28,18.8-6.12,28.25-1.54,7.9-3,15.85-3.86,23.84C195.34,210.82,194.54,222.58,193.53,234.32Zm135.55-92.76c-2.16,0-4.5-.47-6.57.08-6.5,1.76-13.19.06-19.83,1.9-5.37,1.48-11.44.43-17.19.63-4.3.15-7.2,3.52-7.34,7.82a96,96,0,0,1-1,10.15c-.9,6.27-2.17,12.49-2.89,18.78-.84,7.34-.73,14.81-2,22.07-1.78,10.49-1.63,21-1.34,31.5.06,2-.46,4.1-.14,6.07,1.17,7.27,2.5,14.52,3.93,21.75,1.2,6.07,2.69,11.94,7.59,16.48,3.55,3.3,6.27,3.83,9.27,0a69.2,69.2,0,0,0,6.62-10.89c2.72-5.31,5.36-10.69,7.55-16.24,2.64-6.7,4.75-13.61,7.13-20.41.63-1.83,1.46-3.58,2.07-5.41,1.45-4.38,3.28-8.69,4.12-13.19,1.14-6.08,1.39-12.31,2.22-18.45,1.24-9.1,2.66-18.19,4-27.28C326.55,158.78,327.74,150.67,329.08,141.56Z"/><path d="M600.38,82.57c2.45-9.88,8-18.22,13.26-26.67,3.6-5.8,7.23-11.81,12-16.58A112.85,112.85,0,0,1,646.39,22.4c10.35-6.31,21.88-9.95,34.39-8.54C690.9,15,697.25,24.28,696.9,34.4c-.33,9.69-3.58,18.35-7.61,26.51-5.58,11.32-12.56,22-19.43,32.63C664.42,102,658.4,110,652.34,118c-7,9.28-14.38,18.3-21.54,27.48a58.15,58.15,0,0,0-3.53,5.35c-2,3.27-3.89,6.6-5.92,9.86-1.84,3-3.87,5.82-5.66,8.81-.36.61-.27,2.24,0,2.38,1.79.76,3.79,1.85,5.58,1.63,6.69-.81,13.32-2.12,20-3.17,3-.46,6-.89,9-1.08,12.49-.79,25-1.77,37.47-2.14a245.12,245.12,0,0,1,28.69.61c6.08.54,12.48,1.19,17.78,5.08a3.44,3.44,0,0,0,1.38.52,9.45,9.45,0,0,0,1.34.11c3.35-8.55,6.34-16.92,9.92-25,3-6.83,6.83-13.31,10-20.06,2.64-5.56,4.79-11.35,7.42-16.92,1.52-3.22,3.7-6.14,5.34-9.31,2.29-4.41,4.25-9,6.55-13.4,3.36-6.42,6.92-12.73,10.35-19.11,3.29-6.13,6.36-12.39,9.82-18.42,2-3.56,4.84-6.67,7-10.19,3.28-5.46,6-11.27,9.46-16.6a85.61,85.61,0,0,1,9.41-11.68c2.49-2.66,5.25-5.7,8.51-6.9,7.2-2.64,16.07,1.36,16.59,8.71.39,5.51,1.34,10.94.24,16.65-1.31,6.78-.91,13.87-1.79,20.75-.65,5.19-2.1,10.29-3.28,15.4-1.45,6.32-3.36,12.56-4.38,18.94-.94,5.86-2.59,11.25-6,16.18-.86,1.25-.7,3.15-1.28,4.64-2.66,6.94-4.92,14.11-8.3,20.69-2.89,5.6-7.18,10.46-10.72,15.73-2.94,4.38-5.49,9-8.58,13.29-2.69,3.73-5.84,7.14-8.89,10.6-4.56,5.18-9.14,10.35-13.86,15.38-2.74,2.92-5.83,5.52-8.68,8.35-2.11,2.11-4,4.4-6.12,6.51-1.93,1.94-4,3.75-6,5.63-3.44,3.23-6.82,6.5-10.31,9.68-1.8,1.65-4.07,2.88-5.57,4.75a6.59,6.59,0,0,0-1.19,4.88,94.47,94.47,0,0,0,4,13.41c5.13,13.09,14,22.39,27.48,27.3a45.75,45.75,0,0,0,17.48,3.08,40.57,40.57,0,0,0,25.05-9.71,145.41,145.41,0,0,0,10.81-9.8c4.52-4.56,3.91-10.82,4.58-16.51.48-4,1.82-6,6.21-6.42s6.6,1.43,7.08,5.54a32.59,32.59,0,0,1-2.66,17.61,18,18,0,0,0,.21,15.74c3.16,6.38,13.56,8,20.37,3.41a130.66,130.66,0,0,0,23.57-20.77c2.52-2.75,4.4-6.3,7.37-8.32a9.41,9.41,0,0,1,7.92-.52c2.88,1.35,4.08,4.6,3.91,8.25-.49,10.12-.12,12.39,9.74,16.93,5.81,2.68,11.56,5.69,17.65,7.48,9.31,2.74,18.7,5.56,28.67,4.87,2.9-.2,5.86.64,8.78.58,10-.21,20.07-.3,30.06-1,6.91-.52,13.75-2,20.62-3.09,5.85-.89,11.73-1.56,17.55-2.64,5.52-1,10.95-2.5,16.46-3.58.92-.18,2,.61,3,1-.37,1.09-.44,2.83-1.16,3.17-3.09,1.44-6.4,2.38-9.56,3.69-2.11.88-4,2.49-6.16,3.07a216.86,216.86,0,0,1-37.93,7.06c-7.32.63-14.58,2.19-21.9,2.53a196.63,196.63,0,0,1-21.28-.67c-5.94-.38-11.87-1-17.78-1.79a55.64,55.64,0,0,1-10.9-2.23c-6.36-2.19-12.46-5.14-18.83-7.29-5.24-1.77-9.79-4.34-13.3-8.56-2-2.34-3.57-4.95-5.61-7.82-.93.62-2.3,1.44-3.57,2.4-3,2.22-5.92,4.48-8.8,6.81a14.08,14.08,0,0,0-1.78,2.3c-1,1.15-1.75,2.93-3,3.28-5.27,1.51-9.29,5.31-14.74,6.86-10.59,3-18.85-.66-26.77-6.65-1.16-.87-1.42-2.88-2.24-4.28-1.25-2.14-2.63-4.21-3.85-6.15-6.18,3.51-11.88,7.08-17.87,10a35.73,35.73,0,0,1-11.06,3.43c-8.2,1-16.53,1.62-24.57-1-9.11-3-17.69-6.77-24.82-13.83s-11.62-15.44-15.78-24.2c-1-2.08-1.38-4.45-2.35-7.73-6.44,5-12.18,9.5-18.06,13.85-2.28,1.68-4.95,2.82-7.31,4.42s-4.41,3.67-6.83,5.14c-6.86,4.14-13.73,8.26-20.8,12-5.25,2.78-10.94,4.73-16.21,7.49-10.32,5.43-20.5,11.15-30.72,16.77-3.08,1.69-6,4.38-9.23,4.89-2.61.41-5.66-1.71-8.41-2.94a5.82,5.82,0,0,1,.79-3.21,15.66,15.66,0,0,1,3.32-3c9.3-7.08,18.72-14,27.89-21.23,5.27-4.15,10-8.92,15.24-13.19,4.42-3.63,9.26-6.77,13.65-10.45,8.57-7.2,17.17-14.39,25.35-22a255.56,255.56,0,0,0,20.12-20.86c2.92-3.42,4.36-8.14,6.25-12.37,1-2.32-.63-3.77-2.55-4.24a121.85,121.85,0,0,0-14.24-2.8,174.88,174.88,0,0,0-17.57-1.16c-5.23-.1-10.47.28-15.7.53-6.6.32-13.24.37-19.78,1.19-7.35.92-14.56,2.94-21.91,3.8a172.12,172.12,0,0,1-21.54,1c-2.44,0-5-1.5-7.28-2.74-4.86-2.63-6-5.9-3.73-11a89.14,89.14,0,0,1,14-22.19c2-2.34,3.47-5.21,5.32-7.72,3.58-4.85,7.35-9.57,10.89-14.44,4.82-6.65,9.45-13.46,14.29-20.1,3.41-4.66,7.23-9,10.55-13.78,4-5.72,7.88-11.55,11.41-17.57S677.18,60,679.6,53.63c1.58-4.13,4.32-8,4-12.93-.21-3.37,1.14-6.81,1.5-10.25a6.65,6.65,0,0,0-6.88-7.59c-6.9-.05-13.37,1.33-19.26,5.2-2,1.28-4.81,1.33-6.51,2.8-6,5.15-13.19,8.6-18.22,15.21-2.68,3.53-6.1,6.67-8.65,10.51-5.06,7.6-10.49,15-13.59,23.67a69.19,69.19,0,0,1-3.61,8.67c-4.66,9-6.68,18.85-8,28.7-.89,6.49.2,13.23.2,19.86,0,4.4-.46,8.79-.57,13.18-.15,6.1-.14,12.21-.26,18.32-.08,3.83-.06,7.68-.48,11.48-.76,7-2,14.06-2.7,21.12-.54,5.45-.48,11-.84,16.44-.29,4.35-.89,8.67-1.23,13-.69,8.9-1.51,17.79-1.84,26.7-.1,2.65-1.46,3.36-3.25,3.83-4.17,1.11-7.44-1-8.58-5.23a100.9,100.9,0,0,1-3.61-29.81c.15-4.12-.54-8.27-.47-12.41.12-7.72.3-15.46.84-23.16.62-9,1.45-18,2.61-27,.41-3.15,2.25-6.08,3.07-9.21.43-1.66-.06-3.53.1-5.29.54-5.92,0-12.3,2.08-17.65,2.72-7,2.65-14.22,2.94-21.24.41-10.2-.85-20.48-1.58-30.71-.19-2.68.08-5.36,2.71-6a11.13,11.13,0,0,1,7.3,1.11c1.23.68,1.25,3.5,1.83,5.35.24.76.53,1.49.8,2.24ZM742.24,205.51c5.12-4.53,9.7-8.13,13.75-12.25,8.86-9,17.54-18.22,26.13-27.49,8.06-8.71,15.45-17.94,21.28-28.35,3.59-6.41,8-12.41,11.07-19,5-10.85,10.32-21.62,12.9-33.48,2.2-10.12,5.46-20,7.47-30.17,1.89-9.55,2.93-19.29,4-29,.37-3.35-.36-6.82-.59-10.29-4.53,1.11-7.81,3.1-10,6.84-3.11,5.38-6.27,10.75-9.64,16-3.68,5.69-7.9,11-11.39,16.83-4,6.58-7.36,13.49-11,20.24-1.25,2.3-2.48,4.64-4,6.8-.8,1.18-2.48,1.85-3.09,3.08-1.95,3.94-3.45,8.09-5.37,12-1.66,3.4-4.34,6.44-5.35,10-1.44,5.11-3.32,9.72-7.19,13.42-.41.39-.86,1.4-.67,1.63,1.9,2.35-.49,3.62-1.26,5.24-2.72,5.73-5.61,11.39-8.27,17.15-1.65,3.58-2.89,7.34-4.49,10.95s-3.76,7.21-5.21,11c-2.23,5.77-4.14,11.67-6,17.56C743.2,190.7,741.59,197.32,742.24,205.51Zm-12-2.38c-2.57,2.17-5.44,3.91-7.36,6.38-2.74,3.53-5.25,7.11-9.24,9.42a24.3,24.3,0,0,0-4,3.49c-1.87,1.73-3.65,3.59-5.58,5.25-2.24,1.93-5.38,3.27-6.74,5.66-1.86,3.25-4.55,4.87-7.51,6.48-.77.42-2.06.65-2.25,1.23-1.09,3.49-4.47,4-6.87,5.83-3.3,2.5-6.18,5.57-9.25,8.39l.86.95a6.92,6.92,0,0,0,1.72-.55c7.28-4.42,14.73-8.61,21.77-13.39,9.5-6.46,18.73-13.32,28-20.13C730.42,217.25,732.89,210.07,730.23,203.13Z"/></svg>