<svg id="Layer_1" data-name="Layer 1" xmlns="http://www.w3.org/2000/svg" viewBox="0 0 2159.91 320.77"><path d="M201.36,175.72c-1.3,1-3,1.84-3.84,3.16-4.7,7-8.94,14.33-13.86,21.17-4,5.6-8.84,10.64-13.17,16a23.57,23.57,0,0,0-3.77,6.23c-1.43,3.92-6.2,7.57-10.13,7.18-3.63-.36-8.55-5.91-9.09-9.42a15.14,15.14,0,0,0-2.78-7c-7-8.8-14.78-17.08-21.45-26.14-3.35-4.55-4.89-10.4-7.37-15.61a61.54,61.54,0,0,0-3.27-5.43l-1.53.52c0,1.54-.08,3.09,0,4.62,1,15.2,2.2,30.38,2.81,45.59.43,10.59,0,21.22,0,31.83,0,1.5.1,3,.25,4.5,1,9.77-1.95,11.58-9.93,12.36-13,1.26-26,1.71-39,2.75-3.42.27-6-.91-6.72-3.85-2.42-10.26-4.5-20.61-6.44-31-1-5.55-1.59-11.18-2.23-16.8-.9-8-1.49-16-2.54-24-1.31-9.87-3.12-19.68-4.38-29.55-.47-3.68.17-7.48,0-11.21-.43-10.31-1.46-20.62-1.36-30.92.06-6.37,2.36-12.7,2.58-19.09.28-8.69,4-16.4,7-24,3-7.41,8.77-13.73,13.61-20.31a101.43,101.43,0,0,1,9.17-10.49,27.53,27.53,0,0,1,30.85-6.24c4.9,2.08,11,1.63,14.44,7a47.07,47.07,0,0,0,7.89,9.59c9,8,14.57,18.06,18.42,29.07,3.16,9.06,5.27,18.49,8,27.71,1,3.44,2.46,6.75,3.71,10.12l1.47.07c.79-1.82,2-3.57,2.29-5.46A173.89,173.89,0,0,1,177.86,66.1c2.59-5,7.49-9.43,12.29-12.72,10.68-7.31,21.87-14.07,34.94-16.32,10.25-1.76,19.73,1.61,27.31,8,3.79,3.17,5.29,9.28,7.33,14.26,3.75,9.12,3.49,18.64,2.56,28.3-1,10.26-1,20.6-1.88,30.88-.78,9.36-2.23,18.67-3.09,28-.45,4.78-.1,9.63-.42,14.42-.24,3.4-1.46,6.76-1.44,10.13.07,9.8.69,19.59.82,29.38.2,15.35.11,30.7.28,46.05,0,3.57,1.33,7.22.88,10.68-.86,6.57-4.75,9.23-10.9,7.45-9.44-2.72-18.34-.83-27,2.51-10.27,3.95-17-.56-17.4-11.41-.44-11.88-1.94-23.72-2.44-35.6-.22-5.22,1-10.49,1.4-15.75.69-9.24,1.27-18.49,1.89-27.74Zm17.89,77.43c2.89-.58,5.13-1.07,7.39-1.47,4.21-.74,8.55-1,12.58-2.31,1.47-.47,3.17-3.23,3.13-4.91-.32-15.13-1.34-30.25-1.49-45.38q-.23-23.87.82-47.73c.48-10.59,2.17-21.11,3.12-31.68.78-8.76,1-17.58,2-26.32,1.18-10.72,1.79-20.78-2.95-31.45-4.64-10.46-14.53-13-23.29-9.95-6.51,2.29-12.45,6.13-18.79,8.92-8,3.5-11.27,10.2-14.75,17.66-5.46,11.7-8.54,24-11.28,36.36-1.5,6.79-2,13.81-3.21,20.66-1.65,9.06-3.89,18-5.33,27.09-.89,5.63-4.85,10.27-10.05,10.27-4.54,0-7.74-3.94-8.61-9.87-1.25-8.52-2.28-17.14-4.38-25.47-3.38-13.46-7.18-26.84-11.52-40-2.65-8.08-5.73-16.3-10.28-23.41-4.66-7.29-11.12-13.51-17.21-19.8-3.72-3.84-13.7-5.08-17.44-2.32a59.39,59.39,0,0,0-11,10C70.21,70,63.55,78,61.36,88.6c-.93,4.53-3,8.91-3.4,13.46-.84,10.19-1.18,20.43-1.25,30.66-.08,9.95,0,19.95.78,29.86.93,11.55,2.53,23.07,4.18,34.55C64.3,215.45,67.19,233.74,70,252c.5,3.2,2.76,4.53,5.84,4,6.56-1.1,13.13-2.21,19.6-3.75,1.24-.29,2.8-2.56,2.85-4,.46-11.22,1.09-22.48.72-33.69-.6-18.11-1.79-36.21-3-54.29-.53-7.82,3.91-12.83,9.67-16.16,2.93-1.7,9-2,11.23-.07,4.78,4.06,9.87,9.43,11.51,15.2,5.11,17.91,17.55,30.59,28.87,44.18,2,2.46,3.95,2.25,6-.56,6.13-8.37,12.52-16.55,18.81-24.8,3.58-4.7,7.33-9.29,10.71-14.13q6.07-8.7,11.62-17.76c2.62-4.27,5.82-6,11.25-4.33,3.85,1.19,6.38,3.84,5.68,8.57-1.13,7.6-2.15,15.22-2.88,22.87-.87,9.07-1.34,18.18-2.05,27.27-.38,4.76-1.57,9.55-1.21,14.24C216.22,227.39,217.82,239.87,219.25,253.15Z"/><path d="M2052,137.75c-.72-11.85-1.12-23.73-2.27-35.54-.9-9.19,2.08-17,6.79-24.44,3.86-6.06,15.24-9.08,22.4-8.72,11.88.6,17,9.09,21.72,17.31,4.14,7.16,6.69,15.36,9.12,23.35,2.81,9.28,6.45,18.79,6.61,28.26.24,13.64,4.8,27.52-1.18,41.18-1.89,4.34-2.12,9.56-2.4,14.42-.71,12.51-5.84,23.55-10.71,34.76-2.3,5.27-3.11,11.28-5.91,16.2-4.56,8-9.48,16-15.58,22.84-6.89,7.71-15.16,14.2-23,21-1.78,1.53-4.39,2.16-6.7,3-8.51,3-16.92,8.08-26.26,5.12-12.3-3.91-27.13-2.73-35.65-14.8a105.11,105.11,0,0,1-12.07-23c-6.61-17.33-8-35.6-8.29-54-.19-11.69-1.53-23.36-2-35-.31-7.94,0-15.9.05-23.85,0-3.43.07-6.86,0-10.28-.39-12.85-1.25-25.7-1.12-38.54.09-9.14,1.49-18.27,2.31-27.4.15-1.65.39-3.3.44-5,.22-6.13,1.47-6.29,7.09-8,9.44-2.93,16.17,3.81,24.27,5.43,7,1.4,14.75,3.84,16.69,11.6,2,8.13,3.23,16.89,2.52,25.18-1,11.58-3.94,23-6.31,34.44-3,14.68-2.6,28.91,3.82,42.78,2.91,6.29,4.71,13.11,7.74,19.34,3.43,7.07,10.65,7,16,1.45,4.63-4.73,4.45-10.46,5.67-15.93,2.18-9.8,4.2-19.67,5.76-29.59.7-4.36.12-8.92.12-13.39Zm-64.36-58.58c0,.55.09,1.09.13,1.64-4.61-1.61-5.76-.9-6.27,4a18.93,18.93,0,0,0,0,2.5c.46,18.35,1.09,36.71,1.33,55.07.09,7.42-1.78,15-.79,22.25,2.29,16.78,2.15,33.58,2.85,50.41.58,13.74.14,27.84,5.66,41.09,3.39,8.16,5.72,17.05,15.19,20.33a87.52,87.52,0,0,0,17.61,4.2c13.41,1.7,23.51-5.9,33-13.58,5.54-4.47,10.28-10.24,14.42-16.09,6.24-8.81,12.34-17.85,17.19-27.46a119.39,119.39,0,0,0,9.25-25.91c3-12.33,4.67-25,6.79-37.48a26.16,26.16,0,0,0,.28-7.44c-1.45-12.11-2.82-24.25-4.76-36.29-1.61-9.91-4.38-19.58-11.14-27.44a9.22,9.22,0,0,0-5.57-3.12c-8.9-.68-18.31,9.3-18.09,18.86.07,3.07.58,6.14.63,9.21.2,12.91.24,25.82.48,38.72.3,15.78-4.61,30.67-7.78,45.84a35.47,35.47,0,0,1-4.58,11.82c-1.78,2.77-4.95,5.94-7.89,6.39-4.37.68-9.31-.23-13.59-1.69-4.54-1.55-8.63-4.46-12.83-6.91-5.47-3.21-9.2-7.57-10.44-14.13a53.24,53.24,0,0,0-4.31-13c-7.27-15.21-10.15-31.15-8-47.8,1.3-10.23,6-19.83,5.91-30.4-.07-6.54.24-13.09.38-19.64.11-5.52-4.19-6.51-8-6.76C1992.37,76.13,1990,78.13,1987.63,79.17Z"/><path d="M1594.5,125c5.42,4.58,11.24,8.78,16.18,13.85,9,9.26,19.29,17.51,24.68,29.87,4.45,10.2,9.54,20.13,14.08,30.29,5.29,11.84,10.39,23.92,6.4,37.19-1.22,4.06-4.38,7.62-7,11.13s-6,6.64-8.74,10.14c-4.75,6-20,7.23-25.85,2.12a31.34,31.34,0,0,0-8.22-5.42c-6.44-2.7-9.75-8.1-13.38-13.47-2.19-3.23-4.62-6.87-7.87-8.69-8.27-4.64-11.87-12.4-15.68-20.24a36.38,36.38,0,0,0-3.27-4.74l-2.32.89c1,4.7,1.8,9.49,3.23,14.08,2.23,7.15,5.33,14.05,7.29,21.27,2.48,9.09-3.64,14.73-9.48,20.22a33.11,33.11,0,0,1-3.23,2.32c-4.53,3.37-8.86,3.39-13.17-.23-5.21-4.38-10.32-8.88-15.38-13.42-2.45-2.19-4.47-3.47-7.82-1-1.56,1.16-5.31,1.31-6.73.21-1.61-1.24-1.77-4.4-2.45-6.75a8.4,8.4,0,0,1,.11-2c-.34-16.23-.61-32.46-1.09-48.68-.3-10.42-.51-20.87-1.5-31.23-1.57-16.55-3.88-33-5.64-49.58-1.42-13.3-3.25-26.64-3.37-40A93.83,93.83,0,0,0,1502,54.78c-.94-4.53-.36-8,4.89-10.28,4.68-2,8.31-6.37,12.87-8.84,7.9-4.27,16.16-7.88,24.27-11.75,2.85-1.36,5.75-2.61,8.58-4,11.09-5.51,22.78-4.91,34-1.8a225.15,225.15,0,0,1,34.27,12.69c5.31,2.45,9.65,7.42,13.75,11.87,2.75,3,3.07,7,3,11.43-.14,8.8-1.12,17.31-4.56,25.3-2.5,5.81-6,11.23-9.31,16.65-7.1,11.59-18.39,18.91-28.49,27.44C1595,123.76,1594.85,124.33,1594.5,125Zm-36.82,130.92c.53-4.24,1.5-7.51,1.16-10.62a28.56,28.56,0,0,0-3.11-9.35c-6.81-13.52-7.18-27.74-4.56-42.18.75-4.13,2-8.87,4.69-11.79,5-5.43,12.47-2.38,16.69,5.34,5.12,9.39,10.19,18.8,15.53,28.06,1.27,2.2,3.46,3.88,5.3,5.72,2.9,2.9,6.13,5.52,8.73,8.66,2.81,3.4,4.48,7.95,7.72,10.75,3.84,3.31,8.85,5.29,13.34,7.86,5.23,3,7.17,2.42,11.13-2.22,9.2-10.77,8.13-22.34,2.61-34-4.89-10.32-10.33-20.37-15.65-30.48-3.88-7.36-6.6-15.44-13.37-21a42.12,42.12,0,0,1-6.53-6.75c-7.68-10.11-17.6-16.89-29.57-21.06-3.62-1.26-6.94-3.59-6.72-8.26.16-3.53,1.24-7.14,5.11-7.64,9-1.17,17-4.26,23.79-10.18,5.19-4.5,11.06-8.49,15.27-13.79,7.75-9.74,10.94-21.45,11.22-33.85.18-8.27-1.91-11.22-9.86-14.51-6.41-2.65-13-5-19.26-7.92a46.56,46.56,0,0,0-28.67-3.94c-14.47,2.78-27.76,9.09-39.88,17.62a6.62,6.62,0,0,0-3,6.73c.73,8.18.89,16.42,1.63,24.6,1.13,12.62,2.49,25.21,3.87,37.81,1.34,12.12,3.22,24.2,4.14,36.35q1.77,23.21,2.26,46.51c.17,8-1,16.08-1.51,24.13a7.08,7.08,0,0,0,.7,3.77A64.41,64.41,0,0,0,1557.68,255.93Z"/><path d="M1877.07,164.76c-3.24,7.13-6.39,14.1-4.12,22.58,2.13,8,4.75,16.28,4.52,24.36-.35,11.92,1.72,24-2.13,36a21.7,21.7,0,0,1-9.63,12.38c-12,7.57-24.8,11.9-39.14,7.32a11,11,0,0,1-3-1.6c-2.59-1.84-4.54-1.36-5.1,1.76-.67,3.77-2.61,4.37-5.93,3.37-1.89-.57-4.15-.18-5.84-1-1.2-.6-2.57-2.65-2.41-3.85,1-7.34,2.42-14.63,3.75-21.93,1.84-10.08,3.73-20.15,5.58-30.23,2.85-15.61,5.62-31.23,8.56-46.83,2.22-11.84,4.74-23.62,6.94-35.47,1.38-7.46,2-15.1,3.7-22.48,3-12.76,6.35-25.47,10.09-38,2-6.79,4.46-13.67,8-19.72,3-5.11,7.77-9.29,12.11-13.53,6.87-6.72,16.53-7.07,25-10.16a11.62,11.62,0,0,1,7.36.28c9.84,3.63,19.48,7.36,26,16.68,7.78,11.16,16,22.12,19.8,35.26a275.58,275.58,0,0,1,8.19,36.41c2.32,15.47,3.38,31.13,4.82,46.72.21,2.21-.64,4.5-.73,6.76-.57,13.36-1,26.73-1.59,40.09-.37,8.57-1.23,17.14-1.3,25.71-.07,7.37,1.06,14.75.93,22.11-.08,4.68-.55,9.77-2.5,13.89-3.07,6.5-10.29,8.36-18.75,5-8-3.14-15.71-6.82-19.25-15.95-3.84-9.9-8.57-19.44-13-29.11-1.08-2.37-2.84-4.51-3.54-7-2.88-10.08-5.73-20.18-8.07-30.39-1.84-8-2.77-16.24-4.42-24.31-.4-2-2-3.73-3.08-5.58Zm56.7-35.69,1.2-.18c-1.23-7.45-2.29-14.94-3.76-22.34-1-5-3.46-9.92-3.72-14.94-.43-8.34-3.91-15.6-7.26-22.72-3-6.46-7.87-12.1-12.1-18-4.77-6.64-11.31-9.67-19.41-7.76-12.75,3-20.72,12-27,22.79-1,1.75-.61,4.25-1.28,6.27-2.41,7.37-5.06,14.66-7.51,22a85.64,85.64,0,0,0-3.49,12c-2,11.42-3.22,23-5.48,34.35-3,15-6.8,29.84-10,44.81-2.9,13.5-5,27.18-8.37,40.57a42,42,0,0,0,.77,22.48c1,3.29,3.53,7.17,8.82,7.4,5.48.23,9.77-2.2,14.58-3.88,6.18-2.16,8.33-6.65,9.62-12.12,3.3-13.94,2.83-27.92.18-41.91-2-10.7-4.38-21.48-1.39-32.32,1.79-6.47,2.81-14,12.07-14.64,6.7-.44,14.37-2.73,19.08,3.4a60.39,60.39,0,0,1,9.32,18.85c1.83,6,1.29,12.6,2.29,18.86,1.3,8.09,2.33,16.36,4.89,24.08,2.67,8,7.08,15.5,10.61,23.27,1.15,2.53,2.46,5.18,2.76,7.88.66,6.14,4.13,10.56,8.16,14.68,2.4,2.45,5,1.76,5.88-1.5a18.5,18.5,0,0,0,.46-4.89c0-7.7-.24-15.41.07-23.1.56-14.38,1.51-28.75,2.17-43.14.31-6.81.32-13.64.48-20.47.13-5.4.74-10.84.32-16.2C1936.15,144.8,1934.81,137,1933.77,129.07Z"/><path d="M1721.63,114.58c.11,8.08,1.14,8.53,9.4,8a65.72,65.72,0,0,1,18.16,1.05c7.16,1.57,10.63,7.62,11.52,14.38,1.72,13-3,18.26-16.3,19.56-2,.19-4,.18-6,.39-6.11.64-9.76,5.73-9.43,13.06.17,3.85,4,7,9.63,6.74,6.22-.3,12.43-2.52,18.58-2.25,9.78.44,19.57-.4,28.78,6.18,6.52,4.65,9.11,9.92,10.16,16.8,1.15,7.58,3.74,15.64,2.2,22.74-2.08,9.64-3,20-10.16,28.39-4,4.73-9.12,5.95-14.21,7.16-10.42,2.48-21,4.23-31.62,6-4.45.73-9,.58-13.56,1.05-8.4.88-16.79,2.69-25.18,2.63-5.73-.05-11.66-2.08-17.06-4.28-2.33-.95-4.49-4.37-5.13-7-2.64-10.92-5.74-21.89-6.66-33a381.56,381.56,0,0,1-1.2-50.59c.63-12.34,1.42-24.54-.49-36.75-2.09-13.31-5.25-26.55-4.59-40.09s5.86-25.61,13.68-36.91c6.88-9.94,16.2-15,27.26-18.36,5.77-1.75,11-5.41,16.83-6.75a195.08,195.08,0,0,1,26.94-4,155.38,155.38,0,0,1,22.32-.09,5.49,5.49,0,0,1,4,9.24c-3,3.59-2.2,5,1.55,7.51a56.64,56.64,0,0,1,12.52,11.52c4.61,5.73,1.1,12-.32,18-1.66,7.06-7.87,10-12.9,13.63-6.55,4.68-14.46,6.74-22.56,6.84-4,0-8.11-1-12.12-1.79C1730.46,90.65,1719.71,101.54,1721.63,114.58Zm8,21.24c-12.45.42-22.59-6.1-24.69-16.9-1.45-7.39-.27-14.86,2.26-22,3.11-8.75,11-11.73,18.59-15.12,7.13-3.19,15.21-4.28,21.75-1.26,9.63,4.45,28.34-4.69,30.68-15.67a9.51,9.51,0,0,0-1.24-6.4c-3.66-5.9-10.75-6-16.21-9-2.61-1.4-4.79-3.58-7.25-5.3-1-.67-2.18-1.61-3.15-1.48-9.1,1.23-18.24,1.76-26.92,5.73-10.15,4.63-20.6,8.33-27.39,18.06-5.38,7.72-10.07,16-10.16,25.3a211,211,0,0,0,2.62,34.41c2.07,13.15,3.59,26.06,2.29,39.48a260.75,260.75,0,0,0-.53,40.21c.86,14.54,2.3,29.18,7.8,42.94a5.42,5.42,0,0,0,4,2.89c7.29-.09,14.61-.4,21.87-1.11,11.35-1.12,22.86-1.75,33.93-4.23,9.13-2,18.42-4.35,21.44-16.55,2.92-11.79,2.18-22.8-.58-34.12-.17-.72-1-1.26-1.51-1.93-4.64-6.7-12.1-5.61-18.49-5.63s-12.88,2.28-19.35,3.39c-7.43,1.28-14.77-.09-19.61-5.67-6.54-7.54-9.46-16.61-6.44-26.94,1.26-4.28,3-7.49,7.41-9,6.65-2.3,12.75-6.26,20.35-5.65,1.07.08,2.9-3.68,3.47-5.9.2-.79-2.23-3.19-3.55-3.26C1737.29,134.91,1733.47,135.52,1729.66,135.82Z"/><path d="M1271,163.66c1-2.38,2-4.22,2.58-6.18,4.5-14.48,4.08-29.14,2.86-44.12a266.25,266.25,0,0,1,.24-41c.71-9.55,11.9-17.5,23.27-18.83,4.63-.55,9.21-1.72,12.95,2.24,1.27,1.36,2.25,3,3.57,4.31,10.92,10.94,13.45,25.08,14.72,39.5a251.38,251.38,0,0,1,1.06,29.92c-.48,15.38-1.65,30.74-2.83,46.08-.77,10-.84,20.35-3.38,30-5.11,19.32-10.41,39.16-26.43,52.89-9.95,8.53-20.66,16.64-32.24,22.59-7.58,3.89-16.93,1-24.26-4.28-4.28-3.06-6.58-7.72-9.38-12.23-9.87-15.89-14-33.36-15.64-51.4-1.82-20.27-2.66-40.66-3.06-61-.25-12.92.74-25.9,1.77-38.8,1.07-13.52,2.81-27,4.38-40.46.32-2.77.47-6,2-8,1.4-1.81,5.3-3.71,6.9-3,4.16,1.9,7.2.29,10.27-1.55,5.75-3.43,11.87-3.76,18.29-3.1,3.67.38,5.11,2.41,5.75,5.75,2.73,14.24,3.69,28.39,1.64,42.93-1.29,9.14-.15,18.62-.23,27.95,0,5.45-.71,10.91-.49,16.34C1265.5,154.86,1266.47,159.59,1271,163.66Zm-39.8,5.88h.12a14.83,14.83,0,0,1,.16,2c-1,19,2.41,37.65,5.54,56.23,2.08,12.39,7.61,23.64,15.35,33.59,4.47,5.75,9.72,6.65,16.22,3.28a67.17,67.17,0,0,0,9.83-5.87c8.7-6.61,18.32-12.95,22.33-23.42a225.41,225.41,0,0,0,11.33-38.9c2.19-11.67,1.94-23.82,2.45-35.76.69-16.42,1.83-32.87,1.39-49.27-.35-13,.1-26.5-8.56-38-2.85-3.8-5.18-6.73-10.22-6s-5.94,4.81-6,8.52c-.13,14.19.18,28.38.4,42.57,0,2.81.79,5.66.54,8.43-.86,9.88-1.42,19.84-3.24,29.55A43.81,43.81,0,0,1,1277,179.59c-5.86,5.9-12.48,5-17-1.6-7.37-10.84-10.11-22.5-9.06-35.66,1.26-15.8,1.54-31.7,1.59-47.56,0-6.88-1.38-13.81-2.65-20.63-.26-1.36-2.82-3.16-4.39-3.23-2.62-.13-11.17,9.94-11.44,12.66-1,9.89-2.55,19.78-2.79,29.69C1230.85,132,1231.17,150.78,1231.17,169.54Z"/><path d="M512.63,257c.83-5.1,2.17-10.92,2.63-16.81.58-7.46.1-15,.69-22.48.92-11.54,2.32-23,3.56-34.57.66-6.16,2-12.32,2-18.48,0-11.23-.78-22.46-1.47-33.68a26,26,0,0,0-2.06-9c-2.31-5.12-6.84-6.9-12.31-6.17-14.45,2-28.88,4.16-43.39,5.41S433.51,110.32,436.46,94c.75-4.14,3.57-8,5.83-11.73a62.66,62.66,0,0,1,6.51-8.73c6.79-7.82,14.69-14.45,24.94-16.84,6-1.41,12.5-1.15,18.78-1.32,5-.14,9.92.48,14.86.26,10.1-.44,20.17-1.41,30.26-1.77,5-.18,9.94.78,14.91.73,8.25-.08,16.5-.47,24.74-.88,12.11-.61,24.2-1.49,36.31-2,4.68-.18,8.75,3.55,10.14,7.94a29.91,29.91,0,0,1,.47,16c-1,4.57-.05,9.59.21,14.4.35,6.45,1.25,12.8-2.19,19a15.81,15.81,0,0,1-16.33,8.38c-9-1.22-18.11-2.17-27.2-2.71-8.19-.5-11,2.4-10.83,10.72.24,11.32,1.2,22.63,1.17,34,0,16.53-.87,33.06-1,49.6-.05,6.94,1.23,13.87,1.33,20.82.08,5.53,0,11.25-1.32,16.57-1.37,5.6-1.84,11.32-5.36,16.71-5.45,8.31-13.05,11-21.9,12.5-3.44.57-6.86,1.34-10.3,1.9-8.11,1.31-16.29-5.59-17.51-14.76C512.8,261.13,512.79,259.45,512.63,257Zm40.71-113h-.45c0-8.42-.29-16.86.07-25.28.56-12.64,7.82-19.21,20.37-18.87,5.63.16,11.26.51,16.88.91a99.87,99.87,0,0,1,11.85,1.31c5.23,1,6.8-.26,6.48-5.79-.34-5.82-.68-11.64-.75-17.46,0-3.42,1-6.92.48-10.23-.24-1.62-2.67-3.78-4.42-4.13a28.5,28.5,0,0,0-9.43.23C577.63,67.26,561,69.55,543.78,68c-10.13-.93-20.52.75-30.77,1.48-7.12.51-14.2,1.6-21.32,2-2.08.12-4.23-1.28-6.38-1.82-2.58-.64-5.62-2.24-7.74-1.47-11.29,4.09-19.8,12.08-24,23-3.26,8.52-1.8,15.49,8.57,15.86,5.72.19,11.5-1.3,17.25-2,10.2-1.22,20.49-1.91,30.57-3.75,11-2,17.37,2.78,22.61,12.58,2.55,4.78,2.68,11,3.31,16.61,1.07,9.4,2.06,18.85,2.28,28.3.11,4.82-1.84,9.66-2.25,14.55-.63,7.45-.44,15-1.12,22.41-1,11.32-4,22.37-2.9,34,.55,5.73-2,11.69-2.24,17.58A28.55,28.55,0,0,0,532,260.2c.71,1.52,5.52,1.16,8.48,1.57,1.15.15,2.33,0,3.5.08,4.1.22,6-2,6.81-5.76,2.12-9.75,3.6-19.5,2-29.54a75.39,75.39,0,0,1-.72-13.44c.26-10.08,1-20.16,1.21-30.24C553.51,169.92,553.34,157,553.34,144Z"/><path d="M693,271.37c0-14.78,0-29.55,0-44.33,0-13.26.34-26.51.11-39.76-.2-11.89-.26-23.85-1.7-35.62-1.1-9-3.7-17.87-6.67-26.43-2.62-7.54-12-10.45-22-9.66a33.81,33.81,0,0,1-16.26-2.76c-2.8-1.3-5.41-6.53-5.28-9.88.41-10.2,2.16-20.35,3.47-30.51.23-1.75,1.11-3.43,1.28-5.18.52-5.67,3.56-8.25,8.85-9.65,9.9-2.62,19.23-.23,28.88,1.3,8.11,1.28,16.53.8,24.81.77,6.23,0,12.54,0,18.66-1,8-1.3,15.72-4.42,23.72-5.27,11.58-1.24,23-6.12,34.89-2.48C792.68,53,798,57.29,800.67,64.2c1.64,4.16,3.89,8.23,4.67,12.55,1.13,6.37,1.24,12.92,1.68,19.41a4.24,4.24,0,0,1-.84,2.83c-4.95,5.5-10.22,10.63-17.72,12.53-1.92.49-4.1.29-5.82,1.12-9.57,4.63-19.45,4.2-29.54,2.41-5.12-.91-6.11.24-5.89,5.55.62,15.08,1.36,30.16,1.74,45.25.39,14.84.48,29.69.55,44.54,0,12.93,0,25.87-.25,38.8-.16,7.94-.7,15.87-1.31,23.79-.39,5.09-4,8.24-7.81,11-6.87,4.94-14.67,6.65-23,5.94-4.13-.34-8.23-1-12.36-1.27-7.84-.56-11.28-3.92-11.77-11.77-.11-1.83-.2-3.66-.3-5.49ZM671.35,101.25c11.8-.56,26.38,7.88,29.82,18.2,2.84,8.52,5.41,17.31,6.51,26.18a335.4,335.4,0,0,1,2.14,37.51c.17,19.09-.41,38.18-.57,57.28,0,5.8.35,11.61.38,17.42,0,4-.74,8-.19,11.82.28,2,2.43,4.8,4.2,5.2a45.54,45.54,0,0,0,13.39.81c1.83-.14,4.71-2.27,5-3.86a113.67,113.67,0,0,0,1.74-18.68c.08-12.73-.4-25.47-.52-38.2-.15-14.92.11-29.85-.32-44.76-.51-17.75-1.38-35.5-2.51-53.23-.42-6.68,2-11.74,7.63-14.36,3.55-1.67,8.13-1.37,12.27-1.54,9.21-.38,18.65.68,27.59-1C790,97.73,794.6,92.15,789.57,79c-.88-2.32-1.08-4.89-2-7.18-1.76-4.35-3.6-8.87-9.61-8.48-9.19.6-18.44.7-27.52,2-6.52.94-12.68,4.42-19.19,5.21C717.91,72.15,704.46,73,691,73.59c-4.94.2-10-1.38-14.94-2.15-4.1-.63-8.19-1.6-12.31-1.74-1.49,0-4.06,1.66-4.39,3a72,72,0,0,0-2.26,14.63C656.63,100.59,658.11,101.87,671.35,101.25Z"/><path d="M416.69,178.23c1.92,11.71,4.2,23.37,5.68,35.13,1.62,12.83,2.36,25.78,3.8,38.64.6,5.33-2,8.74-5.72,11.58a91.33,91.33,0,0,1-12.79,8.59c-3.82,2-16.76-3.22-19.26-7-7.93-11.82-11.21-25.09-13.74-38.94-2-10.68-6-21-9.76-31.31-1.89-5.18-4.92-10-8-14.68-2.54-3.88-4.81-3.45-7.72.17-6.92,8.61-6.82,18.29-4.23,28.15,2.53,9.65,2.5,19.17,1.52,29.08-.94,9.41-4.37,17.42-8.68,25.55-3.84,7.26-10.13,11-16.94,14.39-6.39,3.18-11.7-.85-16.84-3.37a100.46,100.46,0,0,1-16.75-10.76c-2.74-2.1-5.07-2.5-7.68-.9-3,1.82-5.45.83-7-1.43a8.46,8.46,0,0,1-1.08-6.22c2.7-9.6,6.16-18.81,7.74-28.91,2.4-15.39,7.37-30.4,11.53-45.49,3.94-14.29,8-28.56,12.5-42.68,2.22-7,5.66-13.56,8.28-20.42,2.54-6.63,4.55-13.47,7.14-20.09,2.28-5.84,4.09-12.21,7.78-17.09,6.71-8.86,10.26-20.73,21.83-25.21,3.16-1.23,7-.79,10.47-1.16,3.3-.35,6.58-1,9.88-1.08,6.16-.17,12.33-.08,18.5,0,7.23.06,10.9,4.19,12.83,13.27,2.37,11.15,5.48,22.14,7.69,33.32,1.69,8.56,2.54,17.29,3.66,26,2.27,17.55,4.46,35.11,6.69,52.67Zm-17.9-30.08.41,0c-.21-3.64-.16-7.32-.68-10.92-1.45-9.87-2.83-19.76-4.83-29.52-2.64-12.92-5.79-25.74-8.91-38.55-.22-.94-1.83-2-2.93-2.19A76.74,76.74,0,0,0,372,66c-5.42-.19-11.63-1.87-16.07.19-4.95,2.28-9.35,7.44-12.1,12.39-5.11,9.19-8.84,19.13-13.16,28.76-3,6.59-6.46,13-8.78,19.8-4.39,12.89-8.3,26-12.06,39.06-4,14-7.67,28-11.32,42-1.75,6.74-3.15,13.57-4.7,20.36-2,9-1,17.85,4.79,24.9,4,4.85,9.88,8.21,15.14,11.92,3,2.14,6.23,2.31,8.44-1.55,2-3.45,4.48-6.69,5.86-10.35,5.44-14.38,5.93-28.91,2.13-44-3.52-13.94-.65-26.95,9.33-38,7.45-8.24,19.33-9.64,26.09-2.31a53.61,53.61,0,0,1,9.26,13.39,135.8,135.8,0,0,1,7.9,21.86c2.26,8.42,3.24,17.18,5.34,25.66a161.16,161.16,0,0,0,7.07,22.62c1.85,4.49,8.92,7.28,12.18,6,5.33-2.08,4.11-6.77,3.72-10.74-.95-9.52-2.21-19-3.49-28.5-1.18-8.71-2.72-17.37-3.81-26.09-.65-5.19-.53-10.47-1.13-15.67C401.51,167.91,400.1,158,398.79,148.15Z"/><path d="M1418.57,267.12c-4.37.78-8.85,1.19-13.09,2.42-8.1,2.35-15.92,2.93-23.65-1.26a5.28,5.28,0,0,0-6.72.7c-3.3,2.84-9.56-.71-9.83-5.35a26.18,26.18,0,0,1,.37-8c3.42-12.95.87-25.71-.76-38.54-1.89-14.9-3.57-29.83-5.44-44.73-1.64-13.08-3.4-26.15-5.16-39.21-1.67-12.47-3.62-24.9-5-37.4-.94-8.21-1.28-16.5-1.64-24.76-.11-2.5.26-4.51,3.42-6.21,3.41-1.85,5.33-6.24,8.28-9.13a37.7,37.7,0,0,1,29.51-11.12c2,.1,4-.54,5.94-.59,9-.25,18-.83,26.93-.51,18.48.65,32.52,10,43.23,24.27,5.3,7,8.76,15.41,13.46,22.94,5.72,9.17,7.07,19.42,8.21,29.77.92,8.41,2.32,16.81,2.51,25.24.31,14.19,1.06,28.55-.68,42.56-1.59,12.74-3,26-9.77,37.55-7.28,12.43-15.05,24.22-27.38,32.89-10.17,7.14-21.74,6.09-32.36,9.83C1418.79,268.05,1418.68,267.58,1418.57,267.12Zm49.71-151.8.64-.09c-.35-1.9-.34-4-1.12-5.69-2.52-5.56-5-11.14-8.08-16.41-3.78-6.57-7-14-12.39-19-8.9-8.14-18.79-15.82-32.18-15.32-2.14.08-4.28,0-6.42,0-10.06.25-20.17.07-30.18.94-7.35.63-14.08,7.88-14,14.1a222.5,222.5,0,0,0,1.18,22.81c1.47,12.42,3.44,24.8,5.36,37.17,1.67,10.78,4,21.48,5.23,32.3,2,16.62,3.4,33.3,4.76,50,.83,10.2.91,20.46,1.74,30.66.2,2.42,1.48,6,3.28,6.82,5.7,2.64,11.51,6.5,18.4,3,1.41-.72,3.23-.72,4.88-.9,6.35-.72,12.71-1.43,19.08-2,13.38-1.28,22.82-9.35,29.61-19.63,8.67-13.13,12.66-28.43,13.84-44a356.81,356.81,0,0,0,.44-40.19c-.37-9.71-2.26-19.37-3.46-29C1468.68,119,1468.49,117.14,1468.28,115.32Z"/><path d="M1025.63,272.8c-10.3-1.34-19.52-2.57-28.75-3.71a14.13,14.13,0,0,0-5.42,0c-5.53,1.6-12.63.11-15.67-4.64-1.08-1.7-.63-5.84.76-7.39,4.15-4.58,3.52-9.91,3.57-15.11.17-18.74-.66-37.52.41-56.2.75-13.23-.87-26-2.1-39.06s-1.19-26.46-1.25-39.71c-.06-12.57.37-25.16.88-37.73a6.41,6.41,0,0,1,3-4.64,194.07,194.07,0,0,1,47.81-15.75,101.77,101.77,0,0,1,38.19,0c3.76.74,8.38,3.29,10.22,6.41,5.41,9.2,13.45,17.7,14,28.76a148.75,148.75,0,0,1-2.48,32.81c-2.15,11.89-7.8,22.34-18.28,29.54-2.57,1.77-3.2,3.72.26,6.08a27.7,27.7,0,0,1,12,18.12c2,10.39,5.21,20.72,5.69,31.18.7,15,.5,30.39-10.06,42.84-5.6,6.6-11.36,12.9-20.71,15.18-6.61,1.61-12.52,5.91-18.91,8.61C1034.25,270.3,1029.44,271.55,1025.63,272.8ZM995,236.19h-.87c0,4.17.1,8.34,0,12.5-.11,3.31,1.45,4.77,4.59,5.36,5.53,1,11,2.42,16.51,3.56,8.79,1.8,17.24,1.86,25.37-3.06a69.65,69.65,0,0,1,16.21-7.49,20.1,20.1,0,0,0,14.33-14.94,84.43,84.43,0,0,0,2.72-26.54c-.83-11.47-2.43-23-8.4-33.55-4-7-12.72-11.13-20.23-8.13-1.85.74-3.56,2.27-5.42,2.42-2.46.19-5.69.16-7.3-1.24s-3.22-5.64-2.33-6.93c3.49-5.12,7.33-10.44,12.26-14,4.19-3,10.11-3.57,15.18-5.45a25.18,25.18,0,0,0,6-3.34c6-4.45,8.86-10.58,10.57-17.89,3.3-14.13,3.91-27.77-2.66-41.2-3-6.16-5.42-13-13.64-13.26-10.19-.28-20.61-1-30.54.7-11,1.87-21.54,6.15-32.18,9.69A5.82,5.82,0,0,0,992,77.65c-.43,10.94-.79,21.9-.57,32.85.24,11.57,1.2,23.14,1.76,34.71.65,13.39,1.49,26.78,1.73,40.18C995.22,202.32,995,219.26,995,236.19Z"/><path d="M1103,208c-.44-12.4-1.17-24.81-1.19-37.22,0-7.06,1.05-14.13,1.76-21.18,1.21-12,2-24.15,4-36.06,1.4-8.5,3.31-17.28,7.07-24.92a99.93,99.93,0,0,1,16.77-24.25c7.2-7.61,17.1-10.56,28-9.81,6.71.46,13.11,1.68,18,6.29a73.44,73.44,0,0,1,11.26,13.66c7,11.07,10.34,23.61,11.79,36.48,1.35,12,2.12,24,2.35,36.08.24,12.38.5,24.88-1,37.12-2,15.9-4.67,31.86-12.3,46.38-2.15,4.08-4.49,8.06-6.7,12.11-5.66,10.37-14.66,17.66-24.09,24-8.53,5.74-18.68,6.59-28.42,2.94-3.84-1.43-7.45-4.48-10.16-7.65-6.82-8-12.78-16.63-14.5-27.31-1.42-8.83-2.41-17.74-3.6-26.61Zm83-64.45,1.24,0c-1.11-10.91-3.19-21.83-3-32.73.15-10.26-4.66-18.08-9.23-26.25-.73-1.3-3.78-2.72-4.84-2.2-5.28,2.55-8.4,1-9.47-5-.32-1.81-1.91-3.46-3.13-5-1-1.23-2.48-2.07-3.39-3.35-1.7-2.37-3.6-2.58-6-1.25-7.65,4.17-13,10.62-17.45,17.84-8.06,13.21-9.89,28.41-11.53,43.19-2,17.91-1.86,36.07-2.35,54.13-.17,6.3,1.08,12.66.75,19-.73,14.26,1.7,27.67,8.37,40.38,5.57,10.61,15.54,16.58,25.46,12.86,5.56-2.08,10.73-6.63,14.71-11.24,12.94-15,16.81-34.09,19.46-52.7C1187.83,175.51,1186.07,159.38,1186.07,143.5Z"/><path d="M1540.35,82.25c2.51-3.86,4.32-8.54,7.68-11.41,6.34-5.41,13.51-9.87,20.46-14.52,3.77-2.52,9.52-.6,11.73,3.58,1.62,3.08,3.46,6.07,4.78,9.28,3.91,9.49-2.85,15.26-8.21,21-3.87,4.18-8.87,6.94-14.61,8.86-9.4,3.14-21.72-4.82-20.59-16Zm27.45-12.2c-3.55,3.69-6.87,6.81-9.74,10.31-.84,1-.69,3.15-.38,4.65.12.63,1.84,1.4,2.79,1.34C1566.36,86,1571.22,76.24,1567.8,70.05Z"/><path d="M1900.36,88.57c4.79-1,7.08,1.08,8.86,5.86,2.23,6,6.68,11.41,4.09,18.15-1.48,3.87-3.49,8.15-6.56,10.69-9.37,7.72-19.62,8.83-28.47-2.4-8.16-10.36-6.49-16.82,4.18-25.08C1887.84,91.62,1892.87,87.52,1900.36,88.57Zm-10.29,25.23c5.18.38,7.67-2.53,8.21-9.15C1893.84,104.39,1891.14,107.3,1890.07,113.8Z"/><path d="M370.29,111.17c10.15,8.5,8.47,15,2.82,25.84-3.3,6.31-8.85,10-15.25,12.67-6.85,2.81-14.53-1.86-16.22-9.28-2.54-11.12,2.73-19.71,9-27.7,3-3.86,7.31-7,11.55-9.58a8.18,8.18,0,0,1,7.43.26c1.49,1.09,1.24,4.55,1.76,7Zm-14.5,24.9,2.23.77c1.56-3.47,3.3-6.88,4.54-10.46.33-.94-.88-2.43-1.39-3.66-1.08.8-2.82,1.4-3.12,2.43C357,128.71,356.5,132.42,355.79,136.07Z"/><path d="M1397.62,174.39c0-8.26.41-16.54-.11-24.77-.57-8.92-1.9-17.81-3.19-26.66-.2-1.37-2.31-2.38-2.85-3.81-.9-2.37-2.1-5.18-1.52-7.38.42-1.61,3.44-3.46,5.38-3.56,5.74-.3,11.73-.65,17.23.65,6.47,1.52,12.55,4.74,18.78,7.27a2.5,2.5,0,0,1,1,1.09c2.8,5.15,5.91,10.17,8.3,15.51,3.85,8.64,1.21,17.21-1.34,25.61-.89,3-2.85,5.58-3.79,8.53-2.46,7.68-8.78,11.8-14.62,16.4-2.74,2.15-5.33,4.64-8.39,6.21-2.89,1.48-6.83,3.37-9.32,2.44-2.27-.84-3.79-5.08-4.56-8.1s-.17-6.27-.17-9.43Zm14-48.53,2.34,44.73c8.08-.75,14.18-18,12.44-28.09C1424.76,133.31,1418.37,126,1411.57,125.86Z"/><path d="M1048.21,200.52c-.72,9.08-6.84,13.92-12.29,19.12a29.29,29.29,0,0,1-5,4c-6.1,3.69-11.42,2.07-18.6-4.38-4.6-4.12-5.22-13.5-1-17.68,3.9-3.87,8.82-6.73,13.3-10,1.19-.87,2.66-1.46,3.64-2.51,5.84-6.28,9.73-6.43,14.82.46C1045.4,192.71,1046.52,196.82,1048.21,200.52Z"/><path d="M1025.29,119c-6.46-.58-15.24-7.15-16.46-13.32a7.76,7.76,0,0,1,1.75-6c4.7-4.7,9.75-9.07,14.9-13.28a7.23,7.23,0,0,1,5.07-1.22,58.16,58.16,0,0,1,9.47,2.48c4.34,1.42,6.43,4,5.16,9-2,8-4.81,15.42-12.6,19.61A55.78,55.78,0,0,1,1025.29,119Zm2.43-12.5c2-2.94,4.15-4.67,4-6.19-.12-1.33-2.83-3.43-4.3-3.35s-3.49,2.38-3.76,4C1023.46,102.16,1025.61,103.78,1027.72,106.53Z"/><path d="M1127.18,170.49c2.06-14.41,2.46-27.92,8.43-40.32,2.42-5,14.22-11.57,19.36-10a8.12,8.12,0,0,1,4.52,4.7c3,9.46,6.56,18.93,7.81,28.66,1.48,11.56,1.68,23.64-3.58,34.57-3.12,6.5-8,12.22-15.8,13.59-9,1.58-14.07-5.85-17-13.78C1128.71,182.1,1128.22,175.66,1127.18,170.49Zm19.7-35.16c-.85,3.95-1.73,6.92-2.09,9.95-1.25,10.28-4.33,20.51-1.72,30.95,1,4.12,1.3,9,6.26,10.94C1156.46,178.36,1155.33,145.45,1146.88,135.33Z"/></svg>