<svg id="Layer_1" data-name="Layer 1" xmlns="http://www.w3.org/2000/svg" viewBox="0 0 2198.61 256.22"><path d="M1765.84,209.63c7.65-.79,14.19-1.82,20.75-2a48.9,48.9,0,0,1,14.7,1.41c2.29.65,3.77,4.14,5.62,6.34-1.75,1.26-3.37,3.33-5.26,3.63-13.6,2.11-27.22,4.24-40.91,5.53-4.76.45-9.87-1-14.55-2.48-1.84-.58-4.18-3.57-4.1-5.35.13-2.81,2-5.58,3.35-8.29.91-1.87,2.85-3.54,3-5.43,1.58-16.22,3.31-32.46,4.06-48.73a135.66,135.66,0,0,0-1.5-28.91c-2.44-14.18-6-28.19-9.79-42.09-1.07-3.93-4.13-7.65-7.09-10.69-8-8.14-15.21-17.3-26.56-21.19-6.42-2.2-12.67-6.15-19.86-1.82-1.2.73-3.43-.31-5.19-.45-2.39-.19-5-1-7.14-.33-8.73,2.6-8.11,2.84-9.27,12.14-.83,6.65-3.08,13.21-5.41,19.54-2.07,5.63-2.17,5.32,3,8,14.19,7.2,22.42,22,20.7,37.21-.37,3.27-.35,6.62-1.06,9.8-1.22,5.42-2.86,10.75-4.35,16.11-4.37,15.61-9.25,31.24-6.6,47.69.9,5.53,3.9,10.76,6.17,16a5.25,5.25,0,0,0,3,2.34c5.94,2,8.31,7,10.31,12.14,1.57,4.05-1.67,5.56-4.48,7a9.35,9.35,0,0,1-4.66,1.29c-3.29-.34-7.87-.1-9.55-2.09-6.78-8.07-13.71-16.31-16.62-26.79a37.81,37.81,0,0,1-1.62-12c.59-10.23,1.18-20.54,3-30.6,1.86-10.45,5.59-20.56,7.64-31,1.41-7.15,3.54-14.41.49-22-4.48-11.09-19.07-14.93-28.24-7.21a71.44,71.44,0,0,1-9.78,6.67c-4.16,2.46-6.08,5.81-5.8,10.7.8,14.26,1.68,28.52,2,42.79a47.22,47.22,0,0,1-2.21,15.06,159.92,159.92,0,0,1-9.29,23.52c-2.62,5.19-5.94,10.68-12.37,12.27-1.75.43-4.59,0-5.64-1.13-1.25-1.39-2.07-4.42-1.4-6.06,3.33-8.21,7.94-16,10.66-24.35a79.63,79.63,0,0,0,3.44-21.84,293.88,293.88,0,0,0-1.08-30.68c-.37-5.19-1.13-10.25-4.48-15s-5.31-10.33-7.17-15.8c-4-11.69-13.16-18.57-22.37-25.6a126.31,126.31,0,0,1-12.64-10.52c-8.92-8.89-19.91-10.76-31.69-9.77-3,.25-5.84,2.52-8.89,3.1-4.92.93-9.56-1.59-10-4.82-1-7.2.85-10.21,7.24-11.79,1.23-.31,3.15-.83,3.39-1.65,2.48-8.55,10.45-11,16.65-15.47,10.26-7.39,22.54-9.42,34.31-12.12a135.84,135.84,0,0,1,33.39-3.36c7.57.19,15.15,3.55,22.53,6,11.81,4,21.22,12,31.1,19.22,1.43,1,4.5.26,6.69-.24,3.07-.69,5.95-2.38,9-2.79a64.15,64.15,0,0,0,18.32-5.44A54.44,54.44,0,0,1,1721.61,23c8.21,1.06,16.51,1.61,24.62,3.13,10.18,1.91,19.63,5.51,27.14,13.35,2,2.13,5.72,2.76,8.73,3.88s6.69,1.5,9.3,3.3c1.8,1.24,3.67,4.91,3,6.54-1,2.5-3.84,5.54-6.27,5.91-4.2.64-9.24.53-12.93-1.29-6.93-3.43-13-8.6-19.74-12.43a40.78,40.78,0,0,0-12-4.07c-7.64-1.51-15.4-2.45-23.11-3.62l-.63,2c1.22.82,2.5,1.57,3.65,2.48,4.87,3.87,9.89,7.57,14.5,11.73a133.51,133.51,0,0,1,11.82,12.2,47.43,47.43,0,0,1,11.18,23.74c.8,5,2.7,9.86,4.1,14.78,1,3.48,3.57,2.84,6,2.3,8-1.78,16-3.93,24.13-5.26,2.93-.48,6.35.5,9.23,1.61,3.64,1.42,4.55,6.64,2.05,9.65a17.74,17.74,0,0,1-12.36,6.48c-8,.94-15.8,3.06-23.58,5.11-1,.26-1.9,3.11-1.88,4.75.13,6.66,1.25,13.34.86,19.94-.83,14-2.51,28-3.54,42C1765.49,196.86,1765.84,202.54,1765.84,209.63ZM1543.41,40.27l.69,1.23c3.64,1.06,7.74,1.38,10.84,3.31,9.64,6,19,12.53,28.29,19,3.92,2.72,8.14,5.33,11.24,8.86,6.75,7.68,14,15.17,17.06,25.38.89,2.93,2.34,3.51,5.08,1.39,4.15-3.22,8.37-6.57,13.08-8.78a31.88,31.88,0,0,0,17.43-20.15c1.13-3.56.23-7.76,1.39-11.3,1.35-4.15.42-7.68-2.39-9.95-7.8-6.33-15.63-12.81-24.25-17.88-10.79-6.35-23.27-6.25-35.17-4.53-11.41,1.64-22.59,5-33.74,8.14C1549.55,36,1546.58,38.47,1543.41,40.27Z"/><path d="M186.72,144.05c3.1-9,4.89-17.43,8.74-24.75,6.9-13.11,14.67-25.84,27.51-34.39C231.9,79,240.17,71.79,249.67,67c11.76-5.88,24.17-11.16,36.89-14.2,11.65-2.79,24.09-2.55,36.21-3.05,4-.17,8,1.7,12.05,2.31,7.71,1.15,15.46,2.07,23.19,3.06,5.22.67,7.59,8.93,3.74,13.72-1.3,1.62-3.19,3.68-5,3.85-7.06.67-11.7,5.68-17.32,8.88a79,79,0,0,0-8.39,6.07c-2.76,2.09-6,3.85-8.1,6.48-8.09,10-16.21,20-23.55,30.6-4.74,6.82-9.26,14.18-11.87,22a153.3,153.3,0,0,0-6.43,30.49c-1.56,13.06-1.92,26.27-2.55,39.42-.11,2.42,1.22,4.87,1.42,7.34.37,4.64-2,6.95-6.25,6.64-10.73-.78-12-2.76-11.16-14.2.53-7.61-.75-15.39.08-23,1.4-12.8,3.08-25.68,6.07-38.19a137,137,0,0,1,10.75-29.44c4-8,10.18-15,15.5-22.33,2.6-3.59,5.42-7,8.21-10.47a114.76,114.76,0,0,1,27.56-24.48c-2.59-1.11-5.13-3-7.77-3.21-19-1.22-37.5.63-55.11,8.38-11.78,5.19-23.05,11.3-32.34,20.31-7.06,6.86-14.14,13.86-20.12,21.63a53,53,0,0,0-11,26.78c-.65,6-2.21,12-2.19,18.08,0,8.63,1,17.28,1.76,25.9.62,7.11,1.35,14.23,2.37,21.29,1,6.74-1.93,10.51-8.69,10.64-7.39.14-10.58-2.68-10.44-10.55.4-23.93-8-44.9-22-63.63a145.1,145.1,0,0,0-44.11-38.87c-13-7.54-26.46-13-41.2-15.52-5.36-.93-10.62-2.43-16-3.35-1.81-.31-3.8.39-5.7.63.67,1.74,1,3.8,2.08,5.18,8.87,10.91,17.87,21.71,26.88,32.5,9.91,11.86,20.25,23.38,29.69,35.59,9.21,11.92,17.51,24.53,26.25,36.81a89.75,89.75,0,0,0,5.53,7.08c2.57,2.92,4.79,5.91,1.33,9.44-3.6,3.68-9.7,3.93-13,.53a110.75,110.75,0,0,1-9.9-11.23c-5.92-8-11.22-16.4-17.28-24.26q-15.16-19.71-31-38.89c-6.66-8-14.14-15.4-20.85-23.41-5.42-6.47-10-13.65-15.42-20.12C37.42,90.23,31.86,84.54,26.23,79c-4-4-4.8-7.18-1.69-10.67,4.67-5.22,8.87-5.74,13.35-2.26,1.72,1.34,4.24,1.87,6.49,2.25,8.37,1.41,16.84,2.33,25.17,3.95,12.19,2.37,24.64,4.16,36.33,8.1,10.09,3.41,19.78,8.71,28.73,14.57a260,260,0,0,1,31,23.88c6.47,5.79,11.33,13.38,16.91,20.17C184,140.73,185.46,142.51,186.72,144.05Z"/><path d="M1016.76,149.51c-.88,18.58-6.4,33.59-17.15,46.44-6,7.13-11.93,14.63-19.26,20.16-6.64,5-15,7.81-22.83,11.09-4.89,2.05-9-.59-12-5.21s-2.69-8.78-2-14.23c1.23-9.68.26-19.76-.78-29.57a136.5,136.5,0,0,0-5-25c-2.55-8.45-6.33-16.54-9.87-24.66a105,105,0,0,0-6.54-12.19c-3.87-6.44-9.47-11.36-16.58-13.36-5.39-1.51-11.72-2.55-17-1.2a81.75,81.75,0,0,0-42.67,27.07,16.9,16.9,0,0,0-2.27,3.83c-2.52,5.48-8.46,8.25-13.28,6.12-4-1.74-5.32-8.82-3.47-14,2.27-6.33,4.49-12.8,5.6-19.4,3.77-22.58,15.63-40.26,34.9-51.41,11.38-6.58,24.61-12.29,39-8.91,11.25,2.66,22.82,4.71,33.42,9,5,2.06,9.39,8.23,11.91,13.55,3.8,8,5.64,16.91,8.58,25.34.34,1,2.48,1.92,3.7,1.82A48.41,48.41,0,0,0,973.48,93c5.94-1.83,11.35.6,15.43,3.58,11,8,21.29,17.19,24.66,31.18C1015.41,135.41,1015.9,143.38,1016.76,149.51Zm-56.53,60.07c6.31,0,11.53-3.31,15.52-8.41A209.23,209.23,0,0,0,989,182.53a121.62,121.62,0,0,0,9.25-18c4.71-11.49,1.14-22.73-2.19-33.82-1.91-6.39-6.76-10.72-10.77-15.8-7.33-9.31-23.9-6-27.57,3.11-1.74,4.31-5,5.14-9.33,3.68-1.2-.41-2.76.23-4.15.38.2,1.24,0,2.72.67,3.69,4.48,6.93,6.21,14.73,7.82,22.65,1.69,8.27,4.55,16.37,5.49,24.7C959.57,185.07,959.62,197.14,960.23,209.58Zm-23-98.2,1.5-.2c1-4.91,7.07-7.67,5.5-13.64-1.74-6.57-2.91-13.47-5.84-19.49a29.41,29.41,0,0,0-10.59-11.74c-4.81-2.91-10.87-4-16.52-5.22a73.61,73.61,0,0,0-14.51-1.6c-2.35,0-4.7,1.5-7.08,2.19-13.91,4.05-25.77,11.23-34,23.35a34.64,34.64,0,0,0-6.16,19.23c1.63-1,2.62-1.52,3.51-2.17a94.84,94.84,0,0,1,31.69-14.87c3.78-1,7.68-2.22,11.53-2.23,11.21,0,20.55,5.77,29.93,10.93,2.58,1.42,4.43,4.41,6.21,7A97,97,0,0,1,937.19,111.38Z"/><path d="M1552.23,134.41c-1.59,9.15-3,17.75-4.59,26.33a83.59,83.59,0,0,1-2.15,8.66c-3.24,11-11,19.24-17.57,28.07a126.18,126.18,0,0,1-18.07,19.12c-6.46,5.67-14.86,7.47-23.28,8.94a182.62,182.62,0,0,0-19.86,5c-4.77,1.4-9.12-1.61-8.92-6.59.15-4.14.21-8.28.38-12.42a3.92,3.92,0,0,1,.61-2.35c6.12-6.69,5.88-15.43,7-23.45,1.39-10.48,1.24-21.16,1.81-31.76.61-11.48-5.45-20.71-9.9-30.59-2.55-5.66-3.31-12.17-7.9-16.85-4-4.06-7.67-8.84-12.46-11.65A126.52,126.52,0,0,0,1414.72,85c-3.42-1.19-7.62-.83-11.34-.29-4.5.65-8.83,2.41-13.3,3.3a6.13,6.13,0,0,1-4.44-1.2c-8.2-6.52-8.41-14.22.12-20,7.48-5.12,15.27-10.3,23.67-13.41,9.61-3.56,20-6.24,30.14-6.75,10.79-.54,21.77,1.61,32.58,3.19a138.16,138.16,0,0,1,21.26,4.88c11.4,3.56,21.06,10.17,29.42,18.66,2,2,3.89,4,5.93,5.91,8.8,8.19,15.48,17.44,17.47,29.79C1547.62,117.59,1550.2,126,1552.23,134.41Zm-127.17-66c0,.6,0,1.2,0,1.8,4.27,1.69,8.46,3.62,12.82,5,9.58,3.06,16.67,9.91,22.45,17.22,6,7.61,10.08,16.88,14.14,25.81a211.31,211.31,0,0,1,9.29,25.56c1,3.1.34,6.75.13,10.13-.71,11.51-1.38,23-2.43,34.49-.59,6.55-2.08,13-2.7,19.56-.14,1.42,1.9,4.42,2.58,4.31,5-.73,10.88-.73,14.69-3.46,14.64-10.51,25.12-24.68,32.16-41.25,5.35-12.59,7.27-25.76,4.45-39.24-1.78-8.48-4.35-16.79-6.64-25.15a7.45,7.45,0,0,0-1.63-3c-4.15-4.6-8.11-9.43-12.66-13.61-9.43-8.65-19.91-15.7-32.87-17.89-10.47-1.78-21-3.47-31.51-4.73C1439.45,63.06,1432.08,65.26,1425.06,68.43Z"/><path d="M1991.48,30.63c-4.11,4.81-8.36,9.25-12,14.14a104.73,104.73,0,0,0-14.43,28c-3.27,9.25-7.46,18.19-10.53,27.51a262.85,262.85,0,0,0-8,29.36c-2.54,12.44-3.6,25.19-6.25,37.61-2.4,11.3-1.51,22.39.13,33.49.64,4.29,2.78,8.35,4.25,12.52a58.13,58.13,0,0,1,2,5.6c.87,3.71-.62,5.6-4.56,5.91-7.8.63-12.71-2.41-15.25-9.84-4.3-12.6-5-25.76-4.47-38.81.48-12.19,2.65-24.33,4.07-36.49l.06-.49,1-7.22c-2.64-.19-5.3-.72-7.92-.53-12.54.9-25.12,1.62-37.56,3.34-2.22.3-4.68,4.75-5.53,7.71a124.81,124.81,0,0,0-3.25,18.07,13.29,13.29,0,0,0,.76,7.13c2.16,4.45,1.7,8.71,1.2,13.41-1,9.34-.47,18.85-1.71,28.14-.74,5.49-2.54,11.65-6,15.63-1.93,2.23-8.7,1.74-12.45.3-2.06-.79-3.12-6.08-3.28-9.4-.21-4.34,1.09-8.73,1.44-13.12,1.29-16.44,1.75-33,3.91-49.31,1.49-11.33,5.16-22.39,8-33.53,4.27-16.59,12.85-31.19,21.59-45.68,7.51-12.46,14.4-25.72,26.11-34.69,11.94-9.15,23.88-19.2,40.51-19a165.75,165.75,0,0,0,18.87-1.14C1981.37,18.36,1986.65,23.75,1991.48,30.63Zm-108.13,87.8c12.18-.62,23.05-1.4,33.93-1.57,3.25,0,6.64,1.33,9.75,2.58,2.44,1,4.17,1.32,5-1.63,1.23-4.28,2.12-8.68,3.62-12.86,2.59-7.23,6.29-14.13,8.18-21.52a130.11,130.11,0,0,1,15.85-36.86c1.78-2.87,3-6.09,4.78-9.85-6.55-1-12.32-1-17.94,1-15.19,5.51-26.68,16.16-35.75,28.79-7.53,10.49-12.74,22.64-19,34.05a12,12,0,0,1-1.82,2.74C1886,107.28,1885.07,112.41,1883.35,118.43Z"/><path d="M477.8,206.61c0,5.82-.1,11.65,0,17.47s-4.87,6.37-8.26,8c-3,1.41-6.74,1-8-3.3-.8-2.65-2-5.43-1.86-8.09,1.14-20.56,2.55-41.11,3.94-61.66.24-3.56-2.17-3.85-4.43-3.37-8.52,1.81-16.95,4-25.48,5.85a56.85,56.85,0,0,1-10.35,1.05c-3.34.08-4.86,1.36-4.82,4.79.12,9.16.66,18.36,0,27.46-.77,10-2.61,20-4.22,30-.63,3.92-5.95,6.68-10.16,5.72a7.91,7.91,0,0,1-6.25-9.27c1.64-9.58,3.45-19.13,5-28.72a70,70,0,0,0,.64-9.93c.28-17.27.12-34.5-4.38-51.39-.87-3.25-1-6.71-1.49-10.07-1.55-9.84-9.32-15.87-14.6-23.41-2.18-3.11-5.63-2.81-9.1-2.29-2.68.4-5.46,0-8.2,0-1.81,0-3.61.27-5.42.27-3,0-6.23.54-9-.31-5.84-1.78-6.35-7.18-2-11.56,4.12-4.2,9.42-5,14.52-5.55,14.44-1.65,28.95-3.7,43.42-3.56,9.39.1,19.13,2.78,28,6.19,5.81,2.24,10.43,7.72,15.35,12,5.15,4.5,10.65,8.82,14.8,14.15,3.62,4.65,5.77,10.5,8.18,16,1.47,3.32,1.91,7.09,3.33,10.44,5.4,12.8,3.73,26.12,3,39.34-.6,11.26-1.65,22.5-2.5,33.75ZM408.36,89.94a9.38,9.38,0,0,0-1.5,0c-2.14.35-4.28.74-6.42,1.12a53.51,53.51,0,0,0,2.65,6.05c4.43,7.56,9.85,14.56,10.83,23.8a217.66,217.66,0,0,0,3.77,22.52c.37,1.74,2.8,4.58,3.89,4.41,12.28-1.91,24.5-4.22,36.67-6.73,1.07-.22,2.63-2.81,2.37-3.94-1.67-7.47-4.07-14.72-9.52-20.45q-6.36-6.69-12.93-13.18C429.91,95.41,420.17,90.41,408.36,89.94Z"/><path d="M2045.6,140.89c0-8.27.37-16.57-.13-24.81-.32-5.22-1.78-10.41-3-15.53s-2.66-9.9-4.25-14.77c-2.27-7-6.22-8.76-13.35-6.81A58.73,58.73,0,0,0,2000,92.9a19.47,19.47,0,0,1-7.3,4,7.14,7.14,0,0,1-9-3.59c-1.87-3.62-3-7.93.76-11,12.25-9.72,25.07-18.51,41-21.24,10.4-1.78,17.83,1.43,22.58,10.7,7,13.65,12.15,28.21,12.48,43.52.42,19.83-1.1,39.69-1.48,59.54-.17,9.38-.92,19,1,28.06,1.34,6.32,6.31,12.12,10.53,17.47,2.18,2.78,12.34.44,14-3,4-8.37,9.32-16.32,9.15-26.26-.19-11.09-.57-22.22.16-33.26,1-15,2.77-29.89,4.6-44.78,1.05-8.51,2.63-17,4.46-25.35a84.13,84.13,0,0,1,4.62-13.51c2.35-5.77,12.6-7.34,19.47-3.63,5.35,2.89,11.26,4.76,16.58,7.69a151.76,151.76,0,0,1,19.25,12.19c2.23,1.72,3.43,5.63,3.82,8.7.7,5.51-2.7,7.73-7.69,5.28-7.26-3.56-14.36-7.45-21.54-11.18-4.34-2.26-8.61-4.7-13.11-6.62-3.14-1.33-6.3-1.32-7.31,3.13-4.26,18.68-9.06,37.19-8.58,56.68.34,13.79-.75,27.62-1.36,41.42-.3,6.86.27,14.09-1.77,20.44-2.47,7.73-7.05,14.84-11.14,22-2.61,4.55-7,5.79-12.26,7.19-8.89,2.35-16,.54-21.88-5.26-7.49-7.44-13.91-16-15.35-27-2.21-16.8-1.16-33.58.66-50.37.5-4.6.07-9.31.07-14Z"/><path d="M1022.68,99.15c1.42-7.19,2.27-15,4.59-22.33,2.48-7.84,8.91-12.79,16-16.64,10.83-5.88,21.39-4.76,31.88,1.2,4.69,2.66,9.69,4.82,14.64,7a5.9,5.9,0,0,0,3.83.12c4.08-1.29,8.11-2.77,12.12-4.29,10.23-3.88,20.32-8.14,30.67-11.66,11.2-3.82,23.26,6.55,21,18.26a317.59,317.59,0,0,1-8.87,36.05,373,373,0,0,0-11.12,42.07c-2.58,13.28-7.05,26.22-11.19,39.15a37.12,37.12,0,0,1-6.56,11.67c-7.52,9.25-15.8,7.43-20.81-3.31-3-6.53-8.08-9.74-13-13.67-13.57-10.74-29.44-18.35-41.71-30.88a61.69,61.69,0,0,1-15.78-27.37C1026.08,116.39,1024.62,108.05,1022.68,99.15Zm15.39-.74c1.59,6.09,3.35,13.51,5.49,20.81,4.12,14,12.52,25.1,25.4,31.66,14.15,7.22,27.43,15.5,38.62,26.68,3.83,3.83,4.46,1.88,5.36-1.31,3-10.6,6.07-21.18,8.61-31.89,1.69-7.09,1.88-14.56,3.87-21.53,3.17-11.06,7.31-21.84,11-32.76a105.64,105.64,0,0,0,3.72-12.28c.5-2.42.49-7-.38-7.27-2.89-1-6.32-.71-9.47-.31-1.68.21-3.11,2-4.82,2.5-10.34,3-20.19,7-29.09,13.12-6.49,4.49-9.88,3.53-14.82-3a20.13,20.13,0,0,0-6.79-5.33c-3.33-1.73-6.92-3.51-10.56-4-4.75-.61-10.77-1.72-14.28.49C1042,79,1039.48,87.85,1038.07,98.41Z"/><path d="M1309.33,103.56c1.31,7.86,2.66,14.21,3.35,20.64.56,5.19.09,10.49.51,15.72.43,5.46,1.64,10.86,2.07,16.32,1.22,15.47-2.75,30.19-7.67,44.54-3.15,9.19-15.53,11.95-24.22,7.6-13.12-6.58-21.82-17-27.95-29.71-3.51-7.26-5.45-15.26-8.72-22.65-5.41-12.19-11.55-24.05-17-36.23-4.52-10.18-12-16.42-22.34-20.31-9.07-3.41-17.17-2.29-25.15,2.44-5.61,3.33-8.79,2.26-12.08-4.22-2.63-5.2-1.39-9.65,3.52-11.65,6.28-2.54,12.49-5.63,19-7,5-1,10.94-1,15.54.84A106.25,106.25,0,0,1,1232.15,93c4.61,3.45,7.7,9.3,10.65,14.54q8.39,14.91,15.77,30.38c3.91,8.19,7.1,16.72,10.61,25.1,4,9.66,8.74,18.9,16.58,26.15,3.76,3.48,5.64,3.37,8.21-1a27.07,27.07,0,0,0,3-7.87c2-9.41,2-18.95,1-28.49-.93-9.82-1.94-19.63-2.74-29.46-.53-6.61-1.26-13.25-1-19.85.65-18.25,10.57-30.16,27.19-36.38,5.77-2.16,12.3-2.33,18.5-3.32a44.82,44.82,0,0,1,7.29-.74,117.5,117.5,0,0,1,14,.64c1.12.14,2.92,2.44,2.8,3.59-.33,3.24-.8,6.88-2.56,9.45-1.43,2.1-4.67,3.76-7.3,4.09-9,1.13-18.08,1.33-27.06,2.41-5.57.67-10,4.19-12.71,8.89C1312.08,95.22,1310.78,100,1309.33,103.56Z"/><path d="M725.3,101.8c3.52,1.08,7.08,2,10.57,3.24,8.33,2.86,12.63,10.09,15.66,17.23,4.25,10,8,20.6,9.52,31.3,1.54,10.51.52,21.47-.12,32.19a139.64,139.64,0,0,1-3.4,21.05c-.8,3.67-2,7.64-4.27,10.47-1.45,1.81-5.21,2.36-7.91,2.31-1.3,0-3.55-2.72-3.61-4.27-.17-4.38-.3-9.09,1.11-13.12,3.94-11.28,3.27-22.88,3.82-34.46.67-13.87-4.33-25.84-11.22-37.33a5.63,5.63,0,0,1-1-1.73c-2-11.84-10.87-14.05-20.61-14.42-6.12-.23-12.61-.44-18.31,1.35A27.31,27.31,0,0,0,683,124.75c-4.79,6.18-8.3,13.37-12.13,20.26-3,5.35-5.57,6.92-9.26,5-7-3.67-8.37-7.06-5.08-12.94,3.61-6.45,6.51-13.49,11.1-19.16a85.33,85.33,0,0,1,18.1-17c7.66-5.16,16.48-8.64,24.9-12.64A76.9,76.9,0,0,1,723.83,83a54.21,54.21,0,0,1,12.61-1.46c8.46-.2,17.34-1.62,25.29.41,8.35,2.12,16,7.3,23.59,11.87s11.57,12.23,15.41,19.81c1.82,3.58-2,11.91-5.71,13.29-3.51,1.3-9.49-2.37-11.25-6.42-5.71-13.13-14.93-21.9-30-22.36-8.42-.26-16.86.18-25.28.45-1.13,0-2.22,1-3.33,1.48C725.21,100.67,725.25,101.24,725.3,101.8Z"/><path d="M589.5,85.44c8.28.67,16.85.23,24.74,2.34s16.61,3.12,22.1,10.27a26.28,26.28,0,0,1,4.4,8.62c2.08,7.47,4.21,15,5.21,22.67.8,6.21-3.06,10.47-7.92,10.69-5.16.23-8.68-4.46-9.77-10.62a93,93,0,0,0-5.68-18.66c-.82-2-3.83-3.89-6.15-4.37a221.63,221.63,0,0,0-21.95-3.27,170.31,170.31,0,0,0-17.36-.66c-1.68,0-3.36,1.07-5,1.65.62,1.43.94,3.13,1.91,4.26a65.71,65.71,0,0,1,15.13,32c2.4,13.43,3.52,26.9,2.16,40.64-.93,9.41-.39,19,0,28.48.19,5-4.67,9.38-9.46,7.73-5.83-2-6.64-3.8-6.62-10.47.07-18.62.15-37.26-.32-55.88-.43-17-8.73-30-22.8-39-2.76-1.77-8.18-1.9-11.14-.39-8.54,4.39-16.74,9.62-22.77,17.5C516,131.78,507,130.46,503.66,127c-2.76-2.84-2-6.35,1.56-9.82,3.34-3.25,6.29-6.91,9.4-10.4a40.69,40.69,0,0,1,22.86-13.06c11.82-2.4,23.61-5.09,35.51-7,5.35-.86,11-.14,16.45-.14Z"/></svg>