<svg id="Layer_1" data-name="Layer 1" xmlns="http://www.w3.org/2000/svg" viewBox="0 0 1326.08 342.48"><path d="M473.84,180.75c-.58,1.12-1.79,2.33-1.64,3.33,2.13,13.84-1.24,26.69-5.63,39.73-3.25,9.62-9.27,17.28-15.09,24.93-3.48,4.59-9.59,7.92-15.19,10.05-13,4.94-26.39,8.87-39.67,13.08-15.56,4.94-31.28,8.95-47.79,5.29-12.83-2.84-21.67-10.1-25.72-23-1.72-5.45,1.34-9,4.63-11.46,10.71-8,22.25-13.58,36.46-13a167,167,0,0,1,28.66,3.47c8.86,1.93,17.58-2.75,25.19-7.62,2.7-1.73,5.38-5.06,6.05-8.1,2-9.05,7.28-17.62,4.58-28.57-3.47,2-6.9,3.39-9.68,5.61-8.25,6.58-17.85,7.52-27.86,7.73s-19.14-2.1-27.1-8.17a37.79,37.79,0,0,1-13-17c-6.57-17.39-7.41-35.19-5.18-53.34,1.47-12,3.13-23.93,4.59-35.9.39-3.22,1.26-5.42,4.31-7.55a43.07,43.07,0,0,0,10.41-11c4.27-6.24,10.28-9.26,17.13-11.26,4.51-1.32,11.92,2.29,14,6.86,4.24,9.52,5.32,19,.3,28.75-2.73,5.32-4.6,11.09-6.68,16.72-1.56,4.2-2.36,8.7,1.23,12.14,1.61,1.55,4.9,2.92,6.72,2.3,2.13-.72,4.41-3.46,5-5.75,2.67-10.19,4.48-20.61,7.22-30.78a23.18,23.18,0,0,1,5.68-9.61c5.68-5.88,10-13.14,18.1-16.68,5.6-2.44,12.41-.43,16.51,4.2,4.92,5.56,8.7,12.2,12.54,18.63,2.52,4.22,5,8.71,6.22,13.41A128,128,0,0,1,473,121.74c.64,10.94.16,21.94.16,33.86.94-1,2.15-1.6,2.28-2.41.61-4,.44-8.11,1.48-11.95,1.78-6.56,3.46-13.35,6.62-19.29,4-7.49,8.57-15,14.4-21.08,7.89-8.22,17.76-13,29.76-8.25,1.27.5,2.61.82,4.49,1.4C530.72,84.26,537.9,80.27,543.9,76c6.76-4.85,14.8-5.81,22.7-3.5,2.72.79,5.47,3.63,6.88,6.25,3.18,5.94,6.32,11.94,5,19.38-.65,3.66,1,7.69,1.35,11.57.51,5,.82,10,1.22,15,1,12.09,2.35,24.17,2.79,36.27.58,15.91-6.34,28.92-17.56,39.75-5,4.79-10.13,9.58-17.95,8.74-5.68-.61-10.16-2.28-12-8.69-1.51-5.15-4.4-9.9-6.61-14.68-6.48,4.63-12.66,9.2-19,13.51-5.32,3.61-11.84,5.7-17.59,3.71-6.64-2.29-12.89-6.57-15-14.4-.72-2.72-1.7-5.37-2.56-8.06Zm-11.66-53c1.77-11.31-2.83-27.47-11.19-42.68-1.82-3.33-5-6-7.95-8.59-3.36-3-6.65-2.42-10.22.48-8.41,6.87-12.32,15.8-14.08,26.26-1.63,9.74-2.67,19.79-9.83,27.71-3.17,3.5-5.81,8-11.18,7.55A24.24,24.24,0,0,1,388,135c-9.7-5.7-14.54-20.71-7.76-31.29,4.93-7.71,8.38-16.51,8.5-26.07.07-5.45-5-8.8-9.56-5.89-4.2,2.66-9.29,5-9.23,11.43a3.22,3.22,0,0,1-1.61,2.44c-5.81,2.27-7.23,7.16-7.94,12.57-.91,6.85-2,13.69-2.76,20.55-1.83,16.13-2.33,32.3,2.6,48,1.75,5.57,4.36,11.8,8.56,15.48,12.21,10.67,27.66,11.2,41.52,4,6.35-3.31,12.77-7.4,15.54-15.13,1.54-4.33,7.55-6.85,11.63-5.73,5,1.36,6.89,5.4,6.65,9.91-.32,5.94-1.7,11.83-2.5,17.76-1.38,10.36-1,21.06-7.1,30.4-4.32,6.64-9,12.69-16.85,15.4-2.91,1-5.82,2-8.63,3.23a32.52,32.52,0,0,1-22.79,1.42c-14.66-4.45-29-3.15-43.29.8-7.27,2-10.27,7.42-6.92,11.85,2.52,3.32,5.86,6.89,9.6,8.24a53.22,53.22,0,0,0,33.63.89c15-4.42,30.05-9,44.95-13.82,5.51-1.8,11.78-3.48,15.75-7.26a73.62,73.62,0,0,0,15-20c6.42-12.82,7.41-27,7.3-41.25C462.08,166.62,462.18,150.32,462.18,127.75Zm22.89,42.38c1.64,5,2.82,9.62,4.65,14,2.72,6.45,8.75,8.71,14.9,5.35,8.26-4.52,15.56-10.26,19.72-19.09,2-4.34,5.48-6.39,10.15-5.17,4.36,1.13,5.9,4.46,6.48,8.91a109.23,109.23,0,0,0,3.94,18c1.46,4.71,5.83,5.82,9.88,2.78,2.54-1.9,4.32-4.77,6.8-6.77,11.8-9.5,12.18-23.1,11.76-36.1-.46-14.4-3.14-28.74-4.91-43.11-.62-5-.84-10.19-2.28-15-1.09-3.64-1.59-8.78-6.73-9.38-4.61-.54-10.34-.8-12.59,3.94-2.67,5.64-4.49,11-9.51,15.74s-4.82,6.06-10.54,2.05c-7.56-5.29-12.63-5-19.68.88-10.46,8.68-14.44,20.89-17.5,33.23C487.21,150.11,486.52,160.24,485.07,170.13Z"/><path d="M1279.84,87.88c13.08.17,19.46,7,18.08,20-.78,7.34-.89,15-3.15,21.86-2.49,7.61-7.08,14.54-10.78,21.76-1.6,3.14-3.22,6.27-4.89,9.37-1.36,2.54-2.73,5.07-4.24,7.52-2.28,3.7-4.71,7.3-7,11-4.13,6.54-8.18,13.13-12.33,19.66-3.2,5-6.49,10-9.75,15-2.29,3.49-4.69,6.92-6.89,10.46-3.07,5-5.91,10.05-9,15-4.8,7.55-10.11,14.8-14.59,22.53-5.82,10-11.35,20.27-16.42,30.7-5.66,11.63-12.84,21.15-25.45,26.31-6.81,2.78-13.3,5.62-20.8,5.54s-12.35-3.23-14.07-10.19c-1.51-6.1-1.53-11.69,3.1-17.34,6-7.36,10.29-16.15,16.07-23.75,4.46-5.85,10.32-10.61,15.14-16.21A135.75,135.75,0,0,0,1185,241c4.07-6.47,8.55-13.09,10.61-20.29,2.29-8,4-16.31,3.32-25.15-.8-11-7.55-18-14.11-24.83-10.41-10.86-15.64-23.71-18.06-38a177.17,177.17,0,0,1-1.87-19c-.44-7.39,7.66-15.64,15-15.78,6.19-.11,12.4-.65,18.57-.39,8.71.35,12.26,8.29,12,16.53-.27,8.88-1.14,17.73-1.24,26.61a39.27,39.27,0,0,0,1.88,12.61c.56,1.69,3.69,3.54,5.69,3.59,11.62.25,18.11-12.56,18.9-21.37,1.12-12.46,2.93-24.88,9-35.9,2-3.62,6.94-6.65,11.13-7.82C1263.64,89.67,1271.83,89.1,1279.84,87.88ZM1188.1,110a43.92,43.92,0,0,0-8,1.08c-1.4.4-3.26,2.31-3.35,3.65-1,13.76,1.6,26.86,9.27,38.5a80.64,80.64,0,0,0,11.81,14.34c11.1,10.44,14.64,23.76,12.87,37.8-1.32,10.43-5.27,20.8-9.62,30.49-3.54,7.89-8.91,15.13-14.38,21.93-7.65,9.49-16.47,18.05-24.18,27.49-4.47,5.46-8,11.75-11.49,17.91-2.67,4.7,0,9.13,5.35,8.4,5.69-.78,11.81-2.08,16.6-5,6.93-4.25,13-9.51,15.17-18.65,1.45-6.12,6-11.56,9.45-17.14,7-11.42,14.29-22.72,21.4-34.09q7-11.19,13.88-22.45c5.74-9.44,11.36-18.94,17.11-28.37,3.69-6.06,7.54-12,11.26-18.07,3.45-5.62,7-11.21,10.19-16.94,3.15-5.57,6.7-11.06,8.81-17a85.42,85.42,0,0,0,4.42-20.35c.87-9.68-.22-12-11.56-11.7-2.06.05-4.12.35-6.18.53-8,.71-15.19,5.72-16.43,12.16a143.77,143.77,0,0,0-2.78,20.3,40.84,40.84,0,0,1-6.21,19.71c-4.82,8-11.59,12.46-20.44,14.4-7.92,1.74-17.71-1.61-19.79-7.67-4.67-13.59-6.81-27.6-4.25-41.94C1198.39,111.57,1197,109.69,1188.1,110Z"/><path d="M94.25,134.65c-.78,6.32-1.4,12.67-2.37,19C89.53,168.78,87.4,184,84.29,199c-.73,3.53-4.57,6.89-7.75,9.34-7.21,5.54-15,10.07-24.62,5.51a23.75,23.75,0,0,1-4.73-3c-12.89-10.4-16-24.81-15.78-40.2.19-13.28,1.16-26.57,2.07-39.84.67-9.86,2.16-19.69,2.58-29.56s-.37-20,0-30a93.35,93.35,0,0,1,2.81-21.05c1.9-6.82,10.67-16.56,19.91-15.59,5.91.61,19.55,8.75,21.58,14.48,1.8,5.09,3,10.38,4.55,15.57,1,3.24,2.52,5.22,6.57,5,8.54-.43,15.36-4.45,22.08-9.13,6.3-4.38,12.43-9.55,19.45-12.2,4.77-1.81,11.35-1,16.43.64,9.67,3.19,15.86,11.28,22.29,18.8s8.55,16.58,10.75,25.81c2.08,8.71,6,17.11,7.17,25.9,1.34,9.79,1,19.9.55,29.83a159.54,159.54,0,0,1-3.41,28.21,106.61,106.61,0,0,1-9.13,24.14c-1.66,3.24-6.12,5.53-9.79,7.17a76.2,76.2,0,0,1-17,5.59c-5.95,1.1-8.48-2.77-8.22-8.73.54-12.65.46-25.34.51-38,0-8.37,0-16.76-.37-25.12-.08-1.89-1.5-3.72-2.3-5.57-1.47,1.71-3.82,3.24-4.24,5.18-.83,3.8-.1,7.92-.87,11.73-1.83,9-3.23,18-9.37,25.7-8.76,11-25.06,3.87-27.92-6.49-1.47-5.36-1.16-10.42-.85-15.65.33-5.47,1.12-10.92,1.16-16.39,0-2.23-1.38-4.48-2.14-6.72Zm87.1-3.22c-1.51-7.07-2.58-13.31-4.21-19.39-1.84-6.87-5-13.48-6.06-20.44-.84-5.39-2.33-9.82-6.06-13.74-2.72-2.87-5-6.15-7.55-9.21-8.79-10.64-21-11-31.77-2.25A88.22,88.22,0,0,1,99,81.69c-11.22,3.9-21.25-3.47-25.84-9.43-2.45-3.17-3.65-6.64.54-9.92,3.59-2.82,2.69-6.6-.13-9a67.24,67.24,0,0,0-13.31-8.78c-1.58-.8-4.85.16-6.51,1.42-6,4.55-7.57,11.31-7.69,18.36-.2,12,.42,24-.18,36-.83,16.68-2.67,33.3-3.68,50-.52,8.6-.46,17.26-.12,25.87.14,3.43,2.24,6.74,2.64,10.19.85,7.51,5.6,12.33,11.24,16.1,8.48,5.67,20.44-5.07,20.26-12.93a19,19,0,0,1,0-3.62c1.44-8.36,3.6-16.67,4.29-25.09,1-11.72,1.37-23.44,6.37-34.35C89,122,93.09,120.77,97.59,121c5,.29,10.15,4.38,10.31,8.48.36,9.42.28,18.86.31,28.29,0,3-.9,6.21-.13,9a10.32,10.32,0,0,0,4.9,5.71c1.24.65,4.3-.56,5.54-1.88a21.57,21.57,0,0,0,6-16.08c-.51-11.93,3.73-21.81,12.28-30.06,5.66-5.47,12.15-4.15,14.86,3.24.65,1.79,1.52,3.63,1.56,5.47q.45,18.26.54,36.53c.06,9.62-.21,19.25,0,28.86,0,1.39,2.37,4.06,2.74,3.91,4.47-1.79,10.49-2.9,12.71-6.35a54.73,54.73,0,0,0,8-21C179.46,160.46,180.12,145.51,181.35,131.43Z"/><path d="M927.09,221.63c13-9.87,18.68-22.52,21.81-36.69.81-3.65,1.79-7.27,2.57-10.93,1.48-7,3-14,4.27-21.09.83-4.75-.8-6.68-5.52-6.62-4.93,0-9.85.48-14.77.8-6.3.41-9.5-3.29-12.3-8.32s-1.16-8.17,2.53-11.67a77.49,77.49,0,0,0,10-11.45,181.65,181.65,0,0,0,9.83-16.16c2.22-4-2.83-16.94-7.32-19.12-4.7-2.28-8.54.07-11.61,2.81a46.72,46.72,0,0,0-8.88,10.91c-4.22,7.15-9.2,13-17.59,15.31-7.35,2-12.3.23-15.57-6.52-1.25-2.57-3.79-4.7-4.41-7.34a32.93,32.93,0,0,1-.68-12.1c.84-5.48,3-10.74,4.22-16.17,2.42-10.46,5.31-21,2.69-31.81-1.57-6.54-7.65-9.16-13.89-6.66-4.67,1.87-8.78,3.8-10.94,9-.67,1.63-4.34,2-6.64,3-.53-2.76-2.3-6.05-1.38-8.19,4-9.42,20.52-17,30.36-13.88,3.17,1,6.35,4.13,8.07,7.12,6.54,11.3,7.65,23.28,3.7,35.94-3,9.51-6.37,19-5.88,29.3.22,4.46,3.55,6.27,6.52,7.66,1.42.66,4.93-1,6.22-2.62,3.64-4.57,6.19-10,10-14.42,3.32-3.82,7.35-7.52,11.83-9.7,6.58-3.21,13.84-4.87,20.84-.31.69.45,1.63.84,2,1.51,4.52,9.1,11.23,17.83,9.26,28.61-.93,5-4.39,9.92-7.6,14.2-4,5.31-8.91,9.9-13.37,14.85-.64.71-1,1.7-2.08,3.81,4.54,0,8.3-.54,11.85.11,7,1.28,14.13,2.67,20.79,5.13,2.67,1,4.45,4.23,2.51,8.62-2.31,5.21-2.75,11.24-4.1,16.89-2,8.44-3.95,16.91-6.25,25.28a131.31,131.31,0,0,1-5.74,17,37.83,37.83,0,0,1-6.28,9.36c-5.14,6-8.44,14-17.2,16.09-1.67.39-4.23.82-5.13-.05-3.68-3.56-7.61-6.46-10.05-11.78-3.52-7.69-4-15.7-5.78-23.52-1.25-5.4-.91-11.17-1.28-16.77l-1.75-.72c-1.15,1.89-3.24,3.76-3.28,5.67-.18,8.22.91,16.51.29,24.68-1,13.63-2.18,27.45-12.92,37.94-3.65,3.56-7,7.45-10.56,11.07-3.17,3.2-7,2.53-9.7-.06-6.9-6.74-9.71-15.44-10.65-24.91-.8-8-2.6-16-2.8-24-.19-7.22,1.19-14.48,1.87-21.72.43-4.57,1.1-9.15,1.19-13.73.25-12.59.31-25.2.34-37.8,0-11.66.08-23.32-.18-35-.19-9-.71-18-1.35-27-.59-8.43-1.72-16.83-2.15-25.28-.1-2,1.56-5.71,2.56-5.76,3.14-.15,4.5,2.07,5.29,5.55,3.39,14.76,3.78,29.64,3.62,44.7s1.06,30.28,1.25,45.43c.17,12.55-.09,25.11-.51,37.65C867,187.89,865.55,198,865.64,208c.06,7.89,1.62,15.78,2.62,23.65a91.22,91.22,0,0,0,2,12c.56,2.15,2.27,4,3.46,6,1.63-1.21,3.61-2.14,4.83-3.67,3.81-4.76,7.49-9.65,10.84-14.73.9-1.35.5-3.59.59-5.42.29-5.56.56-11.11.78-16.66.45-11.34-1.95-23,3.37-33.79a23,23,0,0,1,7-8.56,7.68,7.68,0,0,1,11.65,3.58,119.29,119.29,0,0,1,5.88,19.92c1.73,8.06,2.5,16.32,4.14,24.41C923.27,217,925.34,218.93,927.09,221.63Z"/><path d="M276.28,194.33c-4.35,3-7.65,5.2-10.95,7.46-9.23,6.29-19,12.27-30,13.63a32.79,32.79,0,0,1-32.16-16.28c-7.34-12.51-8.44-25.64-7.26-39.21.63-7.28,3-14.47,5.07-21.56,2.15-7.32,4.35-14.73,7.55-21.63,6.06-13.06,13.8-24.85,29-29,6.27-1.73,12.49-4.2,18.88-4.83,4.7-.46,10.35.35,14.31,2.71,4.95,3,7.1.88,8.83-2.64,3.22-6.56,8.32-10.74,14.81-13.71,8-3.66,16.16-5.22,24.58-1.77,6.46,2.65,9.17,8.11,11.75,14.43,6.19,15.11,6.33,31,5.58,46.52-.73,15-4.63,29.94-7.62,44.81-1.7,8.44-3.24,17.22-6.89,24.89-4.86,10.21-10.81,20.52-23.29,23.5-10.77,2.57-21-6.24-21.44-18C276.87,201.07,276.6,198.53,276.28,194.33ZM206,167.89l1.29.33c0,.87,0,1.73,0,2.6a37.11,37.11,0,0,0,9.64,27.06c6,6.61,17.79,7.41,27,2.75,12.18-6.14,23.69-12.94,29.85-26.13A8.28,8.28,0,0,1,284.35,170c4,1.46,4.65,5,4.46,9.33a201.76,201.76,0,0,0,.56,24.21c.43,5.7,5,7.75,10,4.85a23.83,23.83,0,0,0,6.36-5c7.27-8.47,10.17-19.09,12.79-29.47,2.44-9.62,3-19.71,4.36-29.6,1.43-10.42,4.34-20.69,2.09-31.43-1.72-8.23-2.22-16.74-4.29-24.86-2.3-9.09-9-12.27-18-9.28-3.55,1.19-7.64,2.4-10,5-3.1,3.34-6.34,8-6.57,12.17s-1.78,5.41-4.67,6.51c-3.6,1.37-7.63,2.91-10.07-1.61-3.49-6.45-9.23-7.39-15.38-6.3s-12.33,2.34-17.73,5.07c-6.87,3.46-13,8.28-16.26,15.93-3.59,8.46-8.64,16.11-9.69,25.79C211.37,150.26,208.19,159,206,167.89Z"/><path d="M613.72,46.78c5.36-4,9.57-7.77,14.38-10.48a26.31,26.31,0,0,1,11.22-3.16c13-.63,25.24,1.61,35.14,11,.13.11.34.17.42.31,4.78,8.48,11.59,16,10.18,27.05-1.36,10.63-2.12,21.36-2.68,32.07-.6,11.43-5.71,20.93-11.6,30.29-1.07,1.7-.88,4.19-1.28,6.32a43.36,43.36,0,0,0,5.21.19c8.82-.74,16.29,2.34,20.94,9.57,4.83,7.52,9.29,15.56,12.14,24a93.7,93.7,0,0,1,4.65,25.79c.65,14.78-.8,29-10.55,41.82s-21.48,20.2-37.4,23.58c-9.57,2-17.89-.31-26.74-1.19-.73-.08-1.39-1-2-1.53-9.45-8.09-17.27-17.49-19.87-29.88-1.57-7.51-1.57-15.36-2-23.08-.35-5.79-.42-11.6-.38-17.4,0-5.1.56-10.2.56-15.3,0-8.7-.28-17.39-.33-26.08,0-8,.15-16,.08-24-.07-9.46-.44-18.92-.45-28.38,0-8.82.34-17.64.41-26.47S613.72,54.2,613.72,46.78ZM657.33,151.3v.7c-1.51,0-3.24.46-4.48-.11-2-.94-4.29-2.22-5.41-4-.62-1,.37-3.76,1.48-4.94,5.6-5.93,13-10.14,16.24-18.32,2-5.05,5.3-9.65,6.74-14.81s1.34-11,2-16.49c.84-6.94,2.31-13.84,2.54-20.8.4-11.82-5.1-21.66-15.35-26.58-9-4.31-19.56-4.79-29.66-2.06-1.11.3-2,1.84-2.72,3a25.3,25.3,0,0,0-1.83,4.19c-1.64,4.18-4.29,8.29-4.64,12.58-.7,8.82-.12,17.74-.16,26.62-.05,12.39-.3,24.77-.23,37.16,0,10.2.41,20.4.65,30.6.21,8.82.37,17.63.67,26.44.24,7,1.3,14.09.84,21.06-.71,10.75-.65,21.2,4.33,31.06,7.91,15.68,12.26,19.37,27.54,18.58a53.65,53.65,0,0,0,26.5-9.08,39.42,39.42,0,0,0,17.22-24.59c1.9-8.39,1.92-17.29,2-26,.18-12.58-4-24.15-10-35-2.9-5.26-7.25-9.15-13.84-9.2C671,151.25,664.15,151.3,657.33,151.3Z"/><path d="M1102,171c3.18,6.6,6.56,12.16,12.42,15.81,7.36,4.59,15.16,7.26,24.11,6.76,3.59-.2,7.44,1.22,10.88,2.61,1.77.71,3.22,2.8,4.26,4.59,4.64,8,3.88,17,1.5,25-1.57,5.29-6.64,10.27-11.36,13.72a40.26,40.26,0,0,1-23.92,8c-15.67,0-29.24-5.85-42.07-14.45-7.25-4.86-11.4-11.8-16.25-18.6-8.82-12.36-9.28-26.19-8.26-40.19a96.2,96.2,0,0,1,5-25.33c2.38-6.59,6.9-12.63,11.39-18.17,8-9.86,16.16-19.66,28.44-24.82,6.78-2.84,13-2.24,19.82.21,10.2,3.66,15.89,11.59,21.64,19.86,4.35,6.25,9.25,12,10.64,19.93s-1.8,13.16-9.49,15.32c-10.3,2.89-20.53,6-30.83,8.84C1107.6,170.7,1105.14,170.63,1102,171Zm42,44.38c.1-6.9-1.89-10.06-6.2-9.57-14.58,1.65-26.3-4.06-36-14.32-5.69-6-10.1-12.84-11.35-21.46-.74-5.16,4.07-13,8.94-12.1,7.11,1.28,13.71-.29,20.4-1.86a48,48,0,0,0,9-2.93c3.33-1.51,8.55-3.09,9.09-5.5.75-3.35-1.71-7.7-3.51-11.25-1.58-3.12-4.4-5.59-6.24-8.6-4-6.63-10.37-9.29-17.4-11.78-8.3-2.93-14.13,2.17-18.65,6.24-7.76,7-14.28,15.67-20.08,24.46-5.57,8.45-6.94,18.47-6.7,28.66.23,9.93-.52,20,4.24,29.2,1.56,3,4.74,5.3,5.84,8.39,3.26,9.2,12.36,11.15,19,16.09a18.82,18.82,0,0,0,8.23,3.77,215.59,215.59,0,0,0,21.71,1.6C1133.73,234.66,1144.15,225.51,1143.94,215.34Z"/><path d="M1039.65,92.69c.95,9.13,2.47,18.26,2.69,27.41a280.39,280.39,0,0,1-1,32.79c-1.15,12.51-3.21,25-5.12,37.39-1,6.49-3.38,12.88-3.59,19.36-.31,9.21-4.06,16.42-10.45,22.35-7.09,6.58-16.81,5.66-22.78-1.6-10.24-12.44-12.41-27.69-13.68-43.11-.64-7.81-1.47-15.61-1.78-23.43-.17-4.3.8-8.63.86-13,.18-13.21.55-26.44.1-39.63-.32-9.61-2.6-19.2-2.47-28.77.08-5.39,3.13-10.8,5.15-16.08.72-1.86,2.83-3.2,3.52-5.06,5.06-13.54,16.35-13.13,26.32-6.52,7.37,4.88,12.94,11,15.16,19.92,1,3.81,3.53,7.2,5.25,10.84,1,2.19,1.85,4.48,2.77,6.73Zm-9.81,10a21.83,21.83,0,0,0-.81-4.54c-2.85-8.44-5.88-16.83-8.83-25.24-2.45-7-9.5-8.48-14.77-12-.55-.37-2.27.37-3,1-5.75,5-10.1,10.08-7.4,19,1.61,5.28.46,11.39.61,17.12.33,12.33,1,24.66,1,37,0,13.9-1.68,27.89-.55,41.67s.91,28,8.51,40.59c1.92,3.18,3.18,6.73,7.45,6.63,4-.08,8.1-4.78,8.71-9.05.88-6.1,1.77-12.19,2.76-18.27.8-4.93,1.85-9.82,2.59-14.76,1.16-7.72,2.39-15.45,3.16-23.21,1-9.71,1.94-19.45,2.11-29.19C1031.43,121,1030.43,112.57,1029.84,102.64Z"/><path d="M734.48,113.56c6-6,7-13.85,8.77-21.2,1.89-7.77,3.47-15.5,9.71-21.29,3-2.8,9.61-1.2,11.71,3.52,3.52,7.94,6.26,16,6.57,25,.28,8.06,2.27,16.07,2.43,24.13.19,9.38-.6,18.56-4.4,27.71-2.81,6.77-8.31,11-12,16.7-1.9,2.94-8.28,4-12.64,4-4.15,0-8.56-2-12.41-4-5.34-2.75-10.08-6.66-15.41-9.44-6.81-3.56-10.06-9.89-12.73-16.22-4.27-10.1-5.28-20.9-4.26-31.89.66-7.08,1.05-14.19,1.25-21.3a8.63,8.63,0,0,0-1.84-5c-2.15-2.8-1.85-4.91.81-7,4.1-3.31,8-6.78,12.17-10.07,7.84-6.26,21.16-1,23,8.86,1.69,9.08-.1,17.5-4,25.6C729.14,105.67,730.15,110.11,734.48,113.56ZM758.74,81.7l-1.62.14c-.81,1.09-2,2.06-2.37,3.28-2.65,9.35-5.25,18.72-7.62,28.15-1,4-2.08,7.7-6.27,9.44-3.86,1.6-7.9,2.76-11.7.18-7.83-5.31-9.82-17.92-7.13-24.73,1.47-3.74,3.31-7.5,3.8-11.4.41-3.39-.65-7-1.52-10.44-.22-.89-2.62-2.19-3.24-1.85a47.16,47.16,0,0,0-9.61,6.4c-.87.81.47,3.69.23,5.55-.93,7.27-2.33,14.49-3.09,21.78a59.71,59.71,0,0,0,3.4,28.07c1.17,3,1.62,6.82,3.76,8.82,5,4.71,10.83,8.63,16.41,12.75,6.73,5,13.65,6,19.08,1.67,2.87-2.27,4.2-6.41,6.44-9.55,6.45-9.05,8-19.27,7.23-30-.6-7.93-1.41-15.86-2.6-23.72C761.58,91.33,760,86.54,758.74,81.7Z"/><path d="M813.45,174.17c-8.13.1-14-3.78-19.9-9.09-9-8.16-11.79-18.54-12.65-29.79-.65-8.59-1.67-17.37-.57-25.81a50.45,50.45,0,0,1,12.57-28c6.83-7.65,15.7-8.35,23.94-11.55.89-.34,2.65.57,3.56,1.39C826.18,76.57,833,81,835.81,88.72c2.26,6.1,4.9,12.58,1.37,18.74-3.22,5.63-8.54,8.92-15.58,8.19a25.84,25.84,0,0,0-5.42-.06c-2.37.27-4.72.87-7.07,1.33.95,2.4,1.47,5.11,2.92,7.16,5,7,11.59,2.76,17.24,1.48,6.45-1.47,15.2-.45,18,5.21a30.05,30.05,0,0,1,2.66,15.8c-1.1,10.15-7.89,16.76-16.57,21.71A43,43,0,0,1,813.45,174.17Zm-1.36-90.85c-5.56-2.08-10.71,1.38-13.73,5.58-5.07,7-9.12,14.75-9.2,24.2-.09,11.3-.44,22.38,3.46,33.33,4,11.19,16.24,22.86,31.33,15.39,7.06-3.49,13.63-7.8,15-16.24a12.3,12.3,0,0,0-2.53-8.74c-1.14-1.38-4.91-1.27-7.33-.84-9.14,1.6-18.6,3.74-25.27-4.87A26.42,26.42,0,0,1,799,117.67c-.35-4.28,1.56-8.47,6-11.39,5.6-3.71,11-1.07,16.54-.91,4.12.12,6.8-1.78,7-5.89C828.94,89.43,823.25,83.55,812.09,83.32Z"/><path d="M495.58,138.53c2.49-8.77,6.62-14.45,13.12-18a28.35,28.35,0,0,1,10.17-3c1.61-.2,4.4,1.19,5,2.56s-.37,4.12-1.56,5.44c-1.85,2-2.3,3.43-1.42,6.3.8,2.63.13,6.14-1,8.83-3.13,7.72-12.93,11.33-18.74,6.66C498.41,145.09,497.14,141.09,495.58,138.53Z"/><path d="M241.56,158.27c-7.71-.11-13-9.51-9.14-16.24q2.21-3.83,4.35-7.68c4.52-8.14,17-9,22.32-1.75,1.89,2.59,3.22,4.75.31,8.14s-3.94,8.53-6.89,12c-2.57,3-6.68,4.64-10.11,6.89Z"/><path d="M680.07,202c-1.61,5.24-3,10.9-7.81,15.6-5.8,5.7-12.32,4.2-18.87,3.7a6.4,6.4,0,0,1-4.08-2.85c-3.67-5.76-6.44-11.82-5.15-19,.45-2.52,1-5.36.31-7.7-1.46-4.94,1.22-7.39,4.53-9.92,8.34-6.37,18.89-2.7,24.12,3.13S679.86,194.15,680.07,202Zm-25.57-6.19c.41,2.1,1.18,5.57,1.75,9.07.6,3.69.52,7.71,5.58,8.46s5-3.93,6.63-6.54c5-8.23,2.22-14.74-7-17.47C655.29,187.53,654.42,188.16,654.5,195.83Z"/><path d="M657.08,84.54c1.32,8-3.72,14.38-8,20.91a8.38,8.38,0,0,1-10,3.18c-2.31-.89-4.57-4.25-5.16-6.89a58.58,58.58,0,0,1,0-27.11c2.26-9.19,11.93-14.37,17.46-8.66,3.43,3.55,4.14,9.76,5.92,14.82C657.6,81.69,657.2,82.84,657.08,84.54Zm-13.4,11.75c3.63-3.51,6.23-14.53,4.58-18.19A4,4,0,0,0,645.59,76a3.31,3.31,0,0,0-2.68,1.72A27,27,0,0,0,643.68,96.29Z"/><path d="M1114.44,137.51c-2.51,3.42-4.47,7.59-7.73,10-2.23,1.65-7.13,3.4-9.24-.32a31,31,0,0,1-4.18-13.65c-.11-3.05,2.32-6.91,4.77-9.15,5.15-4.71,13.57-.66,14.73,6.7.29,1.86.3,3.76.44,5.64Z"/></svg>