<svg id="Layer_1" data-name="Layer 1" xmlns="http://www.w3.org/2000/svg" viewBox="0 0 1093 408"><path d="M613.12,141.71c8.39-3.69,11.7-1.53,11.23,6.67-.54,9.34-1.56,18.66-1.72,28-.1,5.79,1,11.6,1.59,17.4l2,.89c2.21-1.92,5-3.46,6.51-5.83,3.83-6,7.8-12.07,10.32-18.65,1.94-5.08,1.88-10.95,2.5-16.5a112.37,112.37,0,0,0,.71-11.88c0-3.11,1.17-5.22,4.32-4.26,2.65.8,7.33-.46,6.89,4.95-.52,6.38-1.22,12.77-1.4,19.16-.24,8.84-.06,17.69-.06,26.53l2.26.83c2.3-2.85,4.65-5.65,6.86-8.56.73-1,.83-2.43,1.62-3.31,5.25-5.9,6.61-13.32,8.43-20.6,1.24-4.94,2.78-9.81,4.13-14.72.73-2.68,1.33-5.4,2-8.1,1-3.89,6.39-6.7,9.65-4.55,1.25.83,2.18,3.36,2,5-1.33,11.33-5.45,21.9-8.93,32.68-1.88,5.85-2.12,12.23-2.27,18.57,8.24-8,14.06-16.84,15.4-28.33,1.77-15.12,4.2-30.16,6.06-45.27.94-7.61,1.16-15.29,1.9-22.93.1-1.08,1.43-3,1.93-2.94,2.63.43,5.5.89,7.63,2.32,1.21.83,1.58,3.52,1.6,5.38.09,7.43-.18,14.88-.11,22.32,0,1.12,1.12,2.22,1.71,3.33.88-.67,1.8-1.29,2.61-2,7.34-6.66,13.22-15.16,23.3-18.33a5,5,0,0,1,2.37-.43c6.11,1.4,6-3.41,7-7,.86-3.21,1.19-6.57,2.11-9.77,1.05-3.67,3.75-5.45,7.57-4.79s8,1.76,8.35,6.42c.86,10.21,1.79,20.47,1.66,30.7-.14,11.75.69,23.62-2.5,35.21-1.12,4.08-1.72,8.32-2.72,13.3a17.12,17.12,0,0,0,4,0c7.55-1.72,15.08-3.57,22.6-5.42.61-.15,1.47-.4,1.7-.87,2-4.06,6.39-6.56,7.36-11.46.41-2.11,2.25-5.45,3.63-5.55,2.85-.21,5.84,1.38,8.71,2.21l-2.36,9.33c.86.17,2.27.88,3.48.63q16.72-3.49,33.36-7.37a4.7,4.7,0,0,0,3-2.71c2-7,3-14.39,5.69-21.14,2.33-6,2.2-11.72,2.2-17.76,0-1,3.07-3.09,4.42-2.86,2.13.36,5,1.81,5.77,3.58,1.53,3.49,2.05,7.48,2.62,11.31,1,7,1.66,14.14,2.76,21.17.69,4.46,4.41,5.17,8,4.86a267.83,267.83,0,0,1,59.58,1.27c24.46,3.32,48.76,8,71.23,19.07,9.81,4.83,20.24,8.86,29.1,15.07,10.65,7.48,21.78,15.18,27.37,27.82a11.45,11.45,0,0,1-3.69,14.22c-2.3-15.61-14.5-23.49-25.31-32.36-13.88-11.37-30.39-17.59-47-23.56-24.46-8.78-49.86-12.71-75.6-14.4-11.65-.77-23.44.25-35.16.7-4.87.18-5.78,3.15-4.21,8.87,1.61,5.88,3.79,11.7,2.54,18.18-.57,3,.72,6.26,1.12,9.42A70.58,70.58,0,0,1,879,221.59c-3.68,8.73-6.59,17.8-10.3,26.52-2.12,5-5.14,9.62-7.74,14.41-2.8,5.18-5.36,10.49-8.43,15.51-4.3,7-8.44,14.23-13.6,20.59-8.25,10.16-16.48,20.59-26.2,29.24-10.52,9.36-22.57,17.07-34.3,25a253.76,253.76,0,0,1-26.25,15.65c-10.5,5.38-21.4,10-32.26,14.63a176,176,0,0,1-84.7,13.49c-18.07-1.47-35.56-5.76-51.1-15.66-11.82-7.53-20.9-18.24-25.15-31.16a58.23,58.23,0,0,1,.73-38,141.85,141.85,0,0,1,21.12-39.12c7.42-9.67,17.36-17.52,26.68-25.62a333.64,333.64,0,0,1,26.41-20.67c7.5-5.28,15.65-9.65,23.57-14.32,6.18-3.65,12.46-7.12,18.78-10.72l-6-9.36c-4.85,3.88-6.62,10.9-13.85,11.17-8.7.33-7.73-8.17-11.86-12.74-3.42,4-7,7.73-10.07,11.8-2.88,3.8-6.52,5.29-10.89,4s-6.38-4.91-7.53-9.11a24.8,24.8,0,0,0-2-5.26c-1.4-2.6-2.38-3.44-4.65,0a59.44,59.44,0,0,1-11,12.17c-4.58,3.86-8.51,2.27-10.2-2.5,7-8.84,13.51-17.32,20.24-25.67,4.09-5.08,3.73-11.31,4.46-17.12C613.67,153.15,613.12,147.45,613.12,141.71Zm187.64,31.12c-2,1.32-3.73,1.93-4.62,3.15-1.51,2.06-2.22,4.69-3.72,6.75-5.33,7.35-10.81,14.58-16.32,21.79-2.12,2.78-9.1,5-11.07,3.35a106.3,106.3,0,0,1-8.83-9.05c-1.54-1.69-2.61-4.2-5.55-2.5-7.73,4.46-13.42,0-19.15-4.29-2.72-2-5.26-5.17-9.12-3-4.56,2.52-10.79,3.54-10.71,10.81.06,6,0,11.95-.18,17.92-.09,3.66-.83,7.16-5.35,7.62-3.29.34-5.67-3.06-5.6-8,.06-4.13.52-8.26.64-12.39.15-4.94-1.62-6.24-5.87-4-12.22,6.46-24.68,12.58-36.42,19.84-12.11,7.49-23.3,16.44-35.25,24.22-12.28,8-22.72,18-32.13,29-5.24,6.13-9.5,13.14-13.81,20a94.07,94.07,0,0,0-10.26,23.74,46.8,46.8,0,0,0-.36,26.64c4.24,14.8,14.46,25.58,28.13,32.47a105.11,105.11,0,0,0,24,9c10.55,2.36,21.53,4.38,32.25,4.07a189.21,189.21,0,0,0,70.84-15.88c10.51-4.61,21.34-8.75,31.22-14.5,13.74-8,26.87-17.09,40-26.13,12-8.31,23-17.89,31.51-30,4.74-6.76,9.64-13.42,14.19-20.31,5.2-7.88,10.19-15.9,15.05-24,1.39-2.31,1.62-5.32,3.06-7.59a106.76,106.76,0,0,0,10-21.29c3.11-8.63,7-17,7.42-26.28.39-9.1.24-18.25-.24-27.35a131.19,131.19,0,0,0-2.68-20.13c-.47-2.22-3-5.29-4.95-5.57-2.32-.34-6-1.33-7.37,3.73-2.17,7.77-5.7,15.24-9.37,22.47a67,67,0,0,1-10,14.54c-1.73,1.91-5.69,2.8-8.42,2.46-1.66-.21-3.33-3.51-4.22-5.73-1.08-2.71-1.29-5.76-2-8.63a13,13,0,0,0-1.43-2.7,10.39,10.39,0,0,0-2.58,1.94c-2,2.78-3.57,6-5.87,8.46-1.68,1.83-5.42,4.45-6.23,3.87a20.56,20.56,0,0,1-6.47-7.86C801.58,180.65,801.56,177.15,800.76,172.83Zm-51.9-47c-2.3,4.19-3.76,6.67-5.06,9.25-2.21,4.4-5.39,8.68-6.2,13.34-1.17,6.71-.75,13.73-.62,20.61,0,1.36,1.62,3.59,2.84,3.87,6.27,1.41,11.32-3.65,11.13-10.11-.27-9.31,0-18.64-.19-28C750.7,132.21,749.7,129.63,748.86,125.82ZM842,154c-7,1.56-15.65,3.15-24.06,5.42-7.86,2.11-7.84,2.43-7.36,10a4.2,4.2,0,0,0,1.76,3.09c.71.34,2.3-.47,3.13-1.19,1.42-1.23,2.4-3,3.83-4.19,5.31-4.53,14.21-2.42,16,3.62.42,1.39,1.7,3.76,2.23,3.67,1.6-.28,3.7-1.2,4.38-2.51,2.06-3.91,3.42-8.19,5.29-12.22C849.6,154.53,849.12,153.67,842,154ZM789.5,168.81c-1.22-.33-2.47-1.11-3.46-.86-7,1.79-14.06,3.61-20.94,5.87a5.86,5.86,0,0,0-3.3,4.29,50.22,50.22,0,0,0,1.47,12.58c.54,2.1,2.74,3.76,4.19,5.63,1.63-1.28,3.53-2.33,4.83-3.89,3.67-4.41,7.18-9,10.58-13.57C785.07,175.87,787,172.66,789.5,168.81Zm-71.43-15.64c14.94-9.65,18.26-25.91,25-40.79C732,113.88,717.92,137.53,718.07,153.17Zm-23.88,37.31c3.85,2,5.8-.37,7-3.06.51-1.1-.49-2.91-.8-4.4l-1.34.13Zm55.32-8.85c-.44-.7-.87-1.41-1.31-2.12l-6.89,3.25c1,.9,2.37,2.74,2.84,2.52A31.92,31.92,0,0,0,749.51,181.63Z"/><path d="M433.08,145.77c6-3.28,10.77-6,15.59-8.54,7.37-4,15.48-6.95,22-12a338.79,338.79,0,0,0,33.55-29.31c4.53-4.54,6.42-11.69,9.57-17.62,3.74-7,3.41-14.6,2.4-22.08C514,40.07,496.39,30.57,484.53,31.08c-14.62.62-28.92,2.59-42.41,8.7C435,43,427.39,45.33,420.59,49.11c-16.13,9-22.54,23.39-22.09,41.47.15,5.88-.64,11.8-1.25,17.68-.14,1.44-1.26,2.79-2.12,4.57-6.08-5.58-5.53-12.63-5.61-18.91-.11-8,1.45-16,2.22-24,.9-9.35,6.66-16,13.22-21.61,11.71-10,26-15.16,40.49-19.84a123.59,123.59,0,0,1,39.37-6.13c15.58.14,28.1,6.89,36.07,19.71,5,8.08,5.82,17.83,4.91,28-.84,9.36-4.73,16.8-9.19,24.22-4.95,8.22-10.61,16-18.55,21.83-.58.42-.72,1.44-1.44,3a40.41,40.41,0,0,0,6,0c11.32-1.9,22.56-3.33,34.11-1.29,14.95,2.65,23.47,12.32,26,26.77,2.48,14.09-1.84,27-7.38,39.54-4.14,9.36-8.43,18.75-13.75,27.46s-12.05,16.73-18.19,25S511.56,253.28,504.91,261c-14.42,16.78-28.85,33.61-44.23,49.49-7.39,7.64-16.7,13.56-25.59,19.6-15.59,10.58-35.83,7.78-48.15-6.61-3.21-3.75-5.05-8.66-8.05-14,5.6-.32,8.93.42,11.87,4.23,7.59,9.85,15.87,16.24,27.73,13.64,8.41-1.84,15.91-6,22.74-11.45,16.58-13.26,31-28.63,44.48-44.89,8.36-10.11,15.68-21.06,23.52-31.59.88-1.18,2.27-2,3.12-3.18,5.82-8.15,12-16.09,17.2-24.62,6.56-10.74,13.43-21.54,18.07-33.15,4.72-11.82,8.87-24.41,4.16-37.68-3.68-10.36-11.17-16.11-24.85-15.35-12.42.7-24.69,3.74-37,5.71s-22.4,8.59-32.32,15.4c-9.1,6.24-17.89,13-26.52,19.86-1.39,1.11-1.54,4.12-1.74,6.29-1.45,16-2.68,32-4.17,48-.6,6.41-1.45,12.81-2.6,19.14-1.4,7.81-3.45,15.5-4.81,23.31-1,5.57-1.25,11.25-1.83,16.89a5.63,5.63,0,0,1-.12,1.38,111.32,111.32,0,0,1-4.36,10.72c-.93,1.8-2.84,3.11-4.31,4.64l-1.4-1c.93-5.62,2-11.23,2.78-16.86,1.14-7.76,2.14-15.54,3.23-23.31.6-4.33,1.32-8.64,1.92-13,1.21-8.66,2.53-17.3,3.52-26,1.31-11.61,2.35-23.26,3.51-34.9.06-.66.18-1.31.25-2,.21-1.82.4-3.63.6-5.44a69.76,69.76,0,0,1-6.94,1.16c-2.57.17-5.49.62-7.63-.39-1.22-.57-1.5-3.78-1.59-5.83-.05-1,1.16-2.22,2.1-3,4.5-3.58,9.19-6.91,13.58-10.6a7.15,7.15,0,0,0,2.34-4.47c1.37-17.78,2.81-35.56,3.66-53.37.35-7.31-.83-14.67-1-22s-.19-14.58.26-21.84c.08-1.3,2.84-3.56,4.2-3.44,3.92.34,8.27,1.18,8,6.75s-.84,11.17-1.21,16.75c-.56,8.55-1,17.11-1.59,25.66-.8,11.36-1.77,22.72-2.53,34.09C432.88,137.43,433.08,141,433.08,145.77Z"/><path d="M230.05,176.61c-5.18-4.2-8-9.65-7.48-16.7l-1.29-.44c-4.5,3.66-8.94,7.39-13.51,10.94-5.85,4.54-10,5.15-13.74,1.25-2.35-2.44-3.7-5.92-5.21-9.07-1.36-2.82-2.34-5.82-3.9-9.8-3.34,4.84-5.65,8.55-8.34,12a46.51,46.51,0,0,1-7.75,8.16c-1.12.86-4.44.57-5.39-.46-1.33-1.44-2.39-4.39-1.8-6.09a75.82,75.82,0,0,1,6.15-12.9c3-5.36,6.42-10.54,9.75-15.74.45-.7,1.44-1,2.17-1.59,3.92-2.92,7.59-6.27,11.84-8.59,2.12-1.16,5.4-.92,7.88-.26.72.19,1.33,4.39.53,6.06-3.32,7-3.22,14.3-2.76,21.6.13,2.17,1.92,4.51,3.57,6.15.43.42,3.22-1.59,4.94-2.44,10-4.94,13.68-15,18.61-23.82,1.37-2.46.49-6.17.69-9.3.27-4.35,3.58-4.76,6.77-4.82,3.65-.08,5,2.38,4.65,5.62-1,10.07-2.24,20.12-3.31,30.19a53.86,53.86,0,0,0,0,5.54L235,163c3.46-3.94,7.35-7.59,10.28-11.9,4.35-6.4,8.83-12.94,11.69-20.05,1.85-4.6,1.28-10.34,1.09-15.55-.16-4.3,1.66-6.11,5.52-6.69,5-.76,6.84,1.12,6.41,6.29-.57,6.88-1.05,13.77-1.62,21.48,2.28-1.37,4.64-2.12,6-3.71,8.25-9.75,19.12-16.6,28-25.61,5.5-5.58,10.71-11.56,16.84-16.37,4.74-3.73,10.6-6.3,17.16-3.82,4,1.52,5.81,4,4.34,8.44-4,12.08-5.31,24.64-5.4,37.24,0,5.52,1.2,11.33,5.69,15.56a3.67,3.67,0,0,0,1.89,1.12c3.2.19,4.76,1.7,3.76,4.85-1.05,3.3-3.76,4.64-7,4.1-5.47-.92-11.26-7.53-11.92-13.11-.9-7.57-1.79-15.15-2.73-22.71-.16-1.24-.57-2.44-1-4.21a17.28,17.28,0,0,0-2.75,1.92q-10.09,11.2-20.09,22.48c-5.23,5.93-10.18,12.11-15.6,17.85-2.54,2.7-5.62,5.61-9,6.62s-7.28-.32-11.87-.7c-.22,1.3-.65,3.19-.86,5.11-1.19,10.86-2.3,21.72-3.47,32.58-.66,6.14-1.14,12.3-2.11,18.39-1.74,10.95-3.13,22-5.91,32.72-2.66,10.22-5.54,20.84-10.86,29.76-5.07,8.49-13.15,15.33-20.45,22.32-4.87,4.66-11,7.47-17.85,8.95-11.56,2.47-26.18-2.68-31.29-13.15-5-10.3-7.56-21.69-5-33a106.62,106.62,0,0,1,8.72-24.58c8.35-16.65,19.31-31.12,31.74-44.69C214.66,192.85,222.19,185,230.05,176.61Zm-54.11,105a21.36,21.36,0,0,0-.17,2.52c.33,10.25,5.14,18.42,14.06,22.69s18.19,1.71,25.48-4.58c5.69-4.92,10.29-11.11,15.23-16.86,8.32-9.7,9.24-22.51,14-33.71a22.85,22.85,0,0,0,1.84-5.28c1.19-7.66,2.38-15.32,3.19-23q2.67-25.29,4.86-50.64c.15-1.73-.94-3.57-1.46-5.36-1.52.81-3.35,1.32-4.5,2.49-10.83,11-22,21.76-32.19,33.29-11.89,13.39-23.26,27.21-31.5,43.39C179.2,257.57,174.93,268.65,175.94,281.64Zm134.21-166.2c-9.29,7-15.16,15.67-22.12,24.35C293.7,139.73,310.89,121,310.15,115.44Z"/><path d="M106.05,68.82a86.31,86.31,0,0,0,6.18-6.22C123.67,48.52,134.82,34,150.44,24.28c4.54-2.83,10.41-3.94,15.83-4.84,3.77-.62,6.21,2.1,6.68,6.15,1.11,9.57-1.56,18.32-5,27.12-2.74,6.94-4.17,14.39-6.48,21.52-1.11,3.43-3,6.62-4.37,10-1.12,2.73-2,5.53-3,8.31-2.93,8.12-5.9,16.22-8.76,24.37-2,5.7-3.64,11.55-5.84,17.18-1.78,4.58-4.61,8.77-6.18,13.41-5.05,14.88-10.52,29.69-14.31,44.9a353.58,353.58,0,0,0-8.3,46.71c-.86,7.71-1.71,16.16,2.91,23.77.95,1.56-.79,4.75-1.29,7.19-2.56-1.09-5.8-1.55-7.51-3.41-3-3.27-3.93-7.57-3.9-12.26A212.59,212.59,0,0,1,106.48,206c1.82-7.58,3.75-15.16,6.14-22.58,4.61-14.35,9.46-28.62,14.44-42.85,3.69-10.57,7.92-21,11.56-31.55,3-8.69,6.62-17.11,9.16-26,2.61-9.18,5.89-18.39,9.33-27.44a123.61,123.61,0,0,0,6.16-23.18c.61-3.6-3.39-3.28-5.43-2a103.67,103.67,0,0,0-13.91,10.22c-13.55,12.34-24.35,27-35.59,41.41-8.21,10.52-12.68,22.38-17.65,34.16-2.57,6.09-3,13.08-4.45,19.64-.35,1.56-1.37,3-1.79,4.51-.91,3.41-1.42,6.93-2.48,10.29-3.25,10.37-6.88,20.63-10,31-2.56,8.6-4.53,17.37-6.88,26-.67,2.5-1.75,4.89-2.61,7.34-1.25,3.57-2.1,7.34-3.86,10.63-.84,1.57-3.39,2.22-5.16,3.28-1.11-2.25-3.39-4.64-3.13-6.71,1.53-12.33,3.27-24.6,7.69-36.43,2.21-5.91,1.58-12.83,3.39-19,3-10.21,8.42-19.92,10.05-30.28,1.09-6.91,7.63-10.92,6.92-18.36-.28-3,3.22-6.1,4.42-9.38,2.82-7.68,5.62-15.39,7.81-23.27,2-7,1.83-14.56,5.55-21.16a3.76,3.76,0,0,0-.31-2.41c-1.38,0-3.2-.21-4.05.56a102,102,0,0,0-10.1,10.27,137.19,137.19,0,0,0-19.73,31C57.54,113.69,51.7,123,47.81,133.15a264,264,0,0,0-13.45,45.17c-2.65,13.78-5,27.65-7.68,41.44-.7,3.61.49,7.56.14,11.29-.21,2.15-1.76,4.18-2.71,6.26-1.66-1.56-4.48-2.95-4.75-4.72a48.3,48.3,0,0,1-.05-13.48c1.39-10.42,3.16-20.8,5-31.15a184,184,0,0,1,4.32-19.76c2.92-9.89,6.13-19.71,9.8-29.34,4.38-11.54,8.39-23.39,14.35-34.12,8.27-14.9,16-30.36,28.31-42.66A91.51,91.51,0,0,1,93.42,51.73c3.52-2.46,8.34-3.2,11.21.2,1.71,2,1,6.24,1.06,9.48a53.89,53.89,0,0,1-.77,7Z"/></svg>