<svg id="Layer_1" data-name="Layer 1" xmlns="http://www.w3.org/2000/svg" viewBox="0 0 989 355"><path d="M97.12,214.57c-1.58-1.49-3.86-2.69-4.62-4.51C90,204,88.07,197.77,86,191.59c-1.16-3.36-2.08-6.81-3.38-10.11-5-12.58-7.57-25.67-9.21-39-.91-7.45-3.84-14.81-3.82-22.2,0-8.64-4.83-15.32-7.19-22.88C60.29,90.69,54.88,85,50.62,79.1c-2-2.77-4.53-2.16-5.64,1-1.47,4.17-3.18,8.45-3.52,12.78-.77,9.94-1.08,19.93-1,29.9a261.46,261.46,0,0,0,1.43,26.69C43.14,161,44.65,172.6,47,184c1.24,6,4.38,11.63,6.78,17.37,1.69,4,3.68,7.91,5.37,11.93,2.42,5.77,4.22,11.86,7.18,17.32,2.12,3.92,1.4,6.3-2.38,9.47-1.7-2.18-3.8-4.06-4.9-6.41-5.5-11.76-11.32-23.42-15.85-35.55-2.85-7.62-4-16-5.27-24.07-1.34-8.3-2.32-16.7-2.83-25.09-.84-14-1.47-27.92-1.59-41.89a106.17,106.17,0,0,1,2-21c.88-4.56,3.13-9,5.38-13.13,3.6-6.62,12.39-9.63,18.92,1.09,2.22,3.65,4.88,7,7.34,10.53h1.53c.46-1.8,1.25-3.58,1.32-5.38.26-6.63-.15-13.14,4-19.22,2.48-3.64,3.12-8.49,4.73-12.75C81,41,85.14,35.91,89,30.54a33.61,33.61,0,0,1,13.45-11c7.65-3.67,14.16-1.38,19.85,4.88,8.11,8.91,11,19.75,13.84,30.89,1.19,4.65,4.13,8.85,5.3,13.5,1.29,5.14,1.59,10.55,2.11,15.86,1.19,12.29,2.24,24.6,3.37,36.91.87,9.41,2,18.82,2.64,28.25,1.38,19.24,2.9,38.49,3.57,57.76.18,5-2.31,10.18-4.11,15.08-.53,1.44-2.89,2.21-4.41,3.29-.9-2.14-3.08-4.75-2.49-6.35,3.57-9.85,3.39-20,2.32-30-1.53-14.06-.82-28.25-3.69-42.28-1.89-9.24-1.35-19-2.11-28.44-.56-7-1.17-14-2.28-20.89-2-12.26-3.09-24.88-6.93-36.57-3.45-10.49-5.54-22.08-14.39-30.34-3.56-3.32-6.81-4.47-11.45-2.54C97.79,30.94,94.12,35.34,91,40.33A168.27,168.27,0,0,0,80.84,58.21c-1.58,3.41-1.66,7.56-2.2,11.4C77,81.33,75,93.09,77,104.93c1.21,7.22,3.12,14.32,4.88,21.44,1.24,5,2.84,10,4.15,15,2.8,10.71,5.66,21.41,8.21,32.18,1.84,7.79,3.25,15.67,4.77,23.52a58.33,58.33,0,0,1,1.39,9.51c.06,2.53-.77,5.08-1.2,7.62Z"/><path d="M540.75,68.83c-1.33,3.93-2.78,9.94-5.38,15.4-2.8,5.88-6.71,11.23-10.07,16.84a86.42,86.42,0,0,0-4.71,8.45c-1.38,3.07.34,4,3.29,4.33,5.56.57,11.56.33,16.52,2.44,11.78,5,18.29,15,21.15,27.15A76,76,0,0,1,564,162.25c-.1,4.91-2.05,9.88-3.69,14.65-1.34,3.86-3.49,7.44-5.2,11.18-4.21,9.19-12.06,15.07-19.75,20.87-9.38,7.06-18.81,14.27-29,19.94-14,7.76-28.75,13.78-45.44,8.44-5.83-1.86-7.73-4.66-7.48-10.78.58-14.34.9-28.69,1.4-43,.43-12.5,1-25,1.41-37.51.35-11.76,0-23.55.88-35.26,1.18-15.53,2.54-31.11,5.29-46.4,1.2-6.65,4.38-13.22,8.29-19.41,5.06-8,12.5-11.94,20.36-15.06a34.3,34.3,0,0,1,25.13.19c7.19,2.79,12.94,7.67,18,13.81C539.72,50.79,539.58,58.69,540.75,68.83ZM463,204.29l-.68.16c1.34,6.75,3.24,13.45,3.82,20.27.4,4.68,2.71,5.61,6.34,5.65A45.86,45.86,0,0,0,497.1,224c4.75-2.86,9.63-5.51,14.41-8.32,4.16-2.44,8.51-4.65,12.33-7.56,3.33-2.54,5.81-6.19,9.08-8.84,11.55-9.37,19.69-20.38,20.33-36,.28-7,1.07-13.66-1.29-20.71-4.34-13-14.22-19.75-24.5-20.49-11.87-.86-21.18,5.26-28.75,14.14-5.74,6.74-11.44,13.53-17.5,20-5.14,5.46-7,5.5-13.37,1.4-2.68-1.74-4.24-.95-4.35,1.9-.33,8.53-.4,17.07-.49,25.6C462.93,191.45,463,197.87,463,204.29Zm1.57-52.07,1.65.91c3-3.77,6.09-7.52,9.09-11.32,4-5.1,8-9.92,13.9-13.45,6.46-3.87,12.06-9.38,17.45-14.76,4.44-4.42,7.75-10.09,11.05-15.26,5.62-8.79,9.29-18.94,12.84-28.85,1.39-3.9,1-8.85.11-13.07-1.48-7.48-6.49-12.91-13.06-16.44-13.85-7.44-32.69-3.64-40.44,11.23-1.67,3.21-2.15,7-3.27,10.52-2,6.29-4.84,12.42-5.94,18.85-1.28,7.47-1,15.2-1.49,22.81-.77,13.08-1.62,26.15-2.29,39.23C464,145.8,464.4,149,464.55,152.22Z"/><path d="M907.74,248.51c-12.55,3.69-19.32,13.44-24.2,24.68-6.3,14.51-7.41,29.68-2.36,44.67,2,5.88,3.71,12.74,10.71,15.8,3.87,1.69,12,1.7,15-1.12,6.48-6.07,13-12.32,15.56-21.13,1.82-6.41,3.62-12.78,2.94-19.91-1.27-13.18-1-26.5-1.74-39.76-.76-14.53-1.87-29-2.78-43.56-.26-4.28-.23-8.58-.64-12.85-.12-1.25-1.3-2.41-2-3.61a22.24,22.24,0,0,0-3.11,2.35c-5.1,5.51-9.76,11.51-15.38,16.42-1.92,1.67-6.6,1.71-9.31.67-6.81-2.61-10.25-7.83-10.44-15.61-.22-8.65-1.93-17.26-2.36-25.92s-.09-17.63-.09-26.46c7.62-1.69,9.36.43,9.46,9.1.13,12.55,1.06,25.09,1.52,37.64.18,5,1.06,9.4,7.15,12.28,3.5-4.42,7.38-8.93,10.8-13.76a67.62,67.62,0,0,0,6.91-11.85c3.54-8.17,3-16.85,2.21-25.48-.4-4.22-1.17-8.43-1.26-12.66,0-2-.57-5.59,3-4.94,2.42.43,5.93,2.21,6.49,4.11,1.67,5.64,2.22,11.62,3,17.5,1.17,8.54,2.39,17.08,3.17,25.67.53,5.77.4,11.61.45,17.43,0,7-.18,13.95,0,20.93q.33,13.94,1.09,27.86c.28,5.22,1.18,10.4,1.51,15.61.64,10.05,1.83,20.15,1.35,30.16a147.82,147.82,0,0,1-4.5,27.89c-.89,3.6-4.3,6.77-7,9.7s-6.29,5.51-9.34,8.37A21.56,21.56,0,0,1,889.92,343c-5.4-2.46-9-6.55-12.13-12.12-6.11-10.76-7.89-22.15-7.86-33.82,0-11.29,1.7-22.51,7.47-32.78,4.8-8.55,10.77-15.72,19.58-20.24C903.46,240.72,907.08,242.15,907.74,248.51Z"/><path d="M226.26,230.5c7.93,1.18,6.7,6.46,7.65,10.33,2.28,9.24,8,18,18,16.54a36.17,36.17,0,0,0,17.48-7.4,131.69,131.69,0,0,0,21.3-22.77,25,25,0,0,0,3.72-22.42c-2-6.86-2.64-14.11-4.2-21.13-1.61-7.31-3.49-14.57-5.52-21.78a4.85,4.85,0,0,0-3.19-3c-1.11-.11-2.61,1.36-3.57,2.45-4.88,5.61-9.92,11-17.93,11.63-6.24.49-11-2.74-13.94-7.77s-5-10.54-7.44-15.88c-1.94-4.32-4-8.6-5.59-13.05a70,70,0,0,1-3.22-12.54c-.42-2.76.63-4.51,4.42-5,4-.49,5.57,2.63,5.53,4.09-.26,8.35,5.92,14.1,7.94,21.48,1.39,5.09,2.61,10.31,6.65,14.5,4.23,4.37,7.35,4.57,12.31,1.29,10.17-6.74,10.16-16.36,8.4-26.51-1.22-7-3.07-13.94-4.74-20.88-.81-3.39.67-5.38,3.6-6.63,3.25-1.39,5.38.81,6.34,3.07,1.42,3.36,1.82,7.14,2.74,10.72s1.84,7.26,2.94,10.84c2.42,7.84,5.24,15.58,7.35,23.5,1.73,6.5,2.54,13.24,4,19.82,1.73,7.67,3.89,15.25,5.59,22.93,2,9.1,4.71,18.75.78,27.43-3.33,7.37-9.15,13.76-14.49,20.06-7.28,8.57-16.44,15-25.85,21.16-10.34,6.77-29,1.22-33.11-10.28-1.32-3.72-3.23-7.34-3.84-11.18C225.74,239.92,226.26,235.5,226.26,230.5Z"/><path d="M707.28,147.64c1.67-3,3.12-6.13,5.05-8.94,4.15-6,9.56-10.74,16.71-12.79,7.39-2.12,12.53,1.46,12.68,10.87.12,8.11-2.9,14.84-8.3,20.72a70.71,70.71,0,0,0-6.82,8.36,4.1,4.1,0,0,0,.64,4,135,135,0,0,1,28.12,32.39c4.14,6.76,6.93,14.37,10,21.75.43,1-.89,3.81-2,4.24-1.36.53-4.24,0-4.91-1.06-2.56-4-4.13-8.69-6.76-12.67-5.24-7.94-10.5-15.95-16.6-23.22-4.11-4.91-9.52-8.83-14.71-12.71-1.8-1.34-4.7-1.23-7.63-1.9-1.85,8.7,1.06,16,3.29,23.49A35.77,35.77,0,0,1,717.84,211c0,1.4-2.72,3.28-4.56,4-3.2,1.2-5.74-.6-6.43-3.69-1.78-8.12-3.28-16.31-4.67-24.51-.75-4.47-.8-9.06-1.59-13.52-2.07-11.67-4.71-23.21-7.59-34.7-1-4-.89-8.37-1.85-12.43-2.2-9.36-4.85-18.61-7.09-27.95a14.35,14.35,0,0,1-.15-7.15c.44-1.45,3-3.48,4.14-3.23,2.07.44,5.49,2.52,5.41,3.73-.74,12.1,5.55,22.66,7,34.27.91,7.36,3.22,14.54,4.91,21.81Zm21.41-10.78c-9.3,4.5-12.65,12.95-15.14,21.92-.17.64,1,1.81,1.72,2.45.28.23,1.47-.19,1.89-.64,4.28-4.66,8.89-9.12,12.56-14.23C731.52,143.86,733.27,140,728.69,136.86Z"/><path d="M348.51,140.75c-1.43,4.64-3,9.24-4.24,13.94-1.72,6.62-12.66,16.36-18.69,16.27-4.72-.07-8.08-1.81-11.1-6-5.17-7.17-5.24-15-5.82-23.13s1.37-15.35,4.23-22.44c2.34-5.79,8.26-11.93,14.85-10.58,3.26.67,6.22,2.71,9.38,4,1.57.63,3.47,1.61,4.9,1.23,5.09-1.36,8.46-.11,10.82,4.69,1.87,3.81,5.55,7.83,5.14,11.37-.54,4.68,4.6,6.27,3.62,11-.53,2.6,3,6.17,5,9.12,4.79,7.17,8.82,14.87,15.3,20.88,1.51,1.4,2.83,4.79,2.16,6.38-1.17,2.74-4.5,3.36-7.4,2.11-1.9-.81-4.16-1.9-5.12-3.54-6.1-10.29-11.85-20.78-17.81-31.16a42.07,42.07,0,0,0-3.7-4.8ZM325.2,118.6c-4.58,5.85-4.45,5.88-6.25,13.51-2.07,8.81-.68,17.23,2.65,25.38,1.3,3.19,4.14,4.1,6.89,1.78,6.51-5.49,9.77-13,11.71-21,.5-2-.68-4.77-1.74-6.85C335.56,125.65,331.49,120.94,325.2,118.6Z"/><path d="M842.1,145.06c-1.16,4.71-1.58,10.36-3.94,15-2.63,5.2-7,9.5-10.64,14.22-1.59,2.08-3.7,4-4.48,6.37-.66,2,.21,4.54.5,6.82.93,7.49,3.12,14.47,9,19.69,5,4.49,11.23,3.33,14.63-2.32,1.05-1.75,3-2.93,4.16-4.64,2.64-3.88,4.85-8.06,7.63-11.82,1-1.36,3.4-2.9,4.71-2.57,2.82.72,5.41,3.11,3.62,6.31-5.63,10.07-10.57,20.7-21.66,26.47-7.18,3.73-20.65-2-24.79-9.88a53,53,0,0,1-5.64-19.61c0-.33,0-.74-.12-1-8.74-12.83-1.43-26.45-1.77-39.68-.12-4.41,1.88-8.86,2.71-13.33.86-4.67,4-8,8-8.79,5.9-1.16,12,3.1,13.72,8.48.53,1.63,2.09,2.9,2.82,4.49A39.18,39.18,0,0,1,842.1,145.06Zm-10.16,2.67c-.7-2.68-.94-5.25-2.07-7.34-.62-1.14-2.71-1.83-4.21-2-.67-.07-2,1.56-2.23,2.6a115.63,115.63,0,0,0-2.73,14.59c-.15,1.48,1.52,3.36,2.77,4.66.49.51,2.85.29,3.1-.21C828.55,156,830.24,151.74,831.94,147.73Z"/><path d="M205.29,145.16a55.34,55.34,0,0,0-2.18,6.22c-1.33,5.94-1.88,12.12-3.9,17.8a19.64,19.64,0,0,1-7.11,8.95c-3.1,2.14-6.73,1.12-9.45-2.31-4.29-5.42-3.52-11.81-3.85-17.92-.41-7.61-1.63-15.58.08-22.78,1.51-6.41,1.49-14.45,8.32-18.68,7.61-4.71,18-.4,21.32,8.28,2,5.21,4.6,10.2,6.91,15.3,3.53,7.83,6.79,15.79,10.7,23.43,1.26,2.47,4.21,4.08,6.38,6.09a7,7,0,0,1-.23,10.12c-2.52,2.37-6,1.83-7.26-.57-3.85-7.17-10.56-12.6-11.93-21.39-.68-4.4-3.83-8.41-5.86-12.59Zm-14,23a28.8,28.8,0,0,0,1.66-3.8c1.07-5.19,2.58-10.36,3-15.61a188.4,188.4,0,0,0,.05-21.52c-.05-1.21-2.07-3.11-3.36-3.28s-3.25,1.07-4.23,2.26-1.21,3-1.58,4.65c-2.46,10.8-1.36,21.63.22,32.39C187.22,164.85,189.39,166.12,191.26,168.2Z"/><path d="M611.23,205.58c-7.36-.35-18.86-9.65-20.56-16.89-.68-2.88-.95-6.16-2.56-8.46-4.05-5.8-2.73-12.68-4.3-18.92-2.3-9.11-2.58-18.82-2.77-28.3-.06-2.94,0-7.85,5.22-8.48,5.47-.68,7.91,3.78,5.7,9.68a19,19,0,0,0-1.06,7.56c.49,8.19.76,16.44,2.16,24.49,1.74,9.94,5.41,19.33,12.9,26.55,1.2,1.16,4,1.29,5.84.91,1.09-.23,2.05-2.31,2.57-3.74a56.18,56.18,0,0,0,3.23-18.67c.17-8.05.67-15.95-1.3-23.76-1.4-5.53-3.74-10.83-5.08-16.37-.54-2.21.48-4.8.79-7.22,2.48,1.53,5.85,2.48,7.28,4.69,4.64,7.15,6.1,15.52,7.62,23.81,2.36,12.95-.37,25.65-2.15,38.33-.53,3.85-3.4,7.69-6,10.82C617,203.61,613.78,204.3,611.23,205.58Z"/><path d="M780.63,212.57c-2.08-12.49-4.27-25-6.22-37.49-1.66-10.57-2.95-21.2-4.6-31.77-.88-5.65-2-11.28-3.35-16.85-3.19-13.35-6.55-26.66-9.88-40-.81-3.23-2.4-6.75,2.26-8.26,3.17-1,6.64,2,7.59,5.82,2.09,8.32,4.45,16.57,6.52,24.89.5,2,.1,4.27.46,6.36,1.52,8.88,3.24,17.74,4.77,26.63,2.64,15.37,5.45,30.73,7.69,46.17,1.5,10.32,2.33,20.76,2.93,31.17.1,1.59-2.63,3.35-4.06,5-1.65-1.54-4-2.81-4.76-4.71s-.19-4.55-.19-6.87Z"/><path d="M652.72,165.55a63,63,0,0,1,0,7.4c-.87,7.31,3.09,12.5,7.6,17.35,2.84,3,11.57,2.35,14.46-1.07,3-3.59,5.78-7.42,8.58-11.19,1.94-2.62,4.26-4.48,7.51-2.58,3.62,2.11,3.18,5.25.92,8-4.4,5.43-8.16,12-13.74,15.72-11.3,7.61-24.29,2-30.39-9.19-4.78-8.72-5.79-18.53-4.73-27.84s5.43-18.18,11.61-25.67c3.11-3.78,7.55-3.86,11.79-2.68,3.78,1.05,7.05,3.24,7.41,7.7.13,1.61-.3,4.64-.71,4.68-2.4.25-5.77.73-7.15-.6-3-2.89-5.58-1.18-6.52.72-3,6-5.15,12.47-7.64,18.75Z"/></svg>