<svg id="Layer_1" data-name="Layer 1" xmlns="http://www.w3.org/2000/svg" viewBox="0 0 1016 309"><path d="M529.26,53a11.63,11.63,0,0,0,1.45-3.05c1.63-11.26,8.85-18.87,17.72-24.48,12-7.59,24.88-6.4,37.36-.52,8.58,4.05,13,13.24,10.26,23.41-4.9,18.13-13,34.62-22.75,50.47-1.68,2.73-3.82,5.19-5.77,7.8,7,0,13.53-.77,19.78.19,8.45,1.29,14.47,5.92,17.3,14.84,6,18.73,1.43,34.91-10.77,49.42-12.49,14.86-28.64,24.53-46.69,31.08-9.45,3.43-19.15,6.22-28.76,9.2a17.21,17.21,0,0,1-4.91.66c-2.81,0-6.65.21-6-3.77.36-2.15,3.52-3.92,5.59-5.66.63-.53,1.84-.37,3.23-.61-1.95-5-3.61-9.77-5.64-14.37-5.14-11.59-4-24-4.91-36.15-1.07-14.61-1.9-29.27-2-43.91-.06-8.5,1.39-17,2.43-25.51a21.91,21.91,0,0,1,2.41-7.5c1.77-3.29,4.09-6.29,6.36-9.7-2.4-4.49-5.55-9.84-8.17-15.44-2.71-5.78-4.84-11.82-7.33-17.7-1.82-4.31-4.95-5.1-9.08-3.14-1.8.85-3.93,2.72-5.3-.62-1.19-2.88,0-4.67,2.6-6,6.78-3.49,15.12-.75,18.66,6.87,2.73,5.89,4.38,12.27,6.92,18.25,1.38,3.25,3.62,6.13,5.48,9.18l1.3-.61c.1-1.08.55-2.26.25-3.22-3.93-12.8-1.38-25.93-2.16-38.89a39,39,0,0,1-.32-5.89c.12-1.35.79-3.56,1.56-3.72,1.25-.25,3.55.48,4,1.47a18.3,18.3,0,0,1,1.77,7.08c.69,13.11,1.18,26.23,1.74,39.34Zm4.82,96.19c1.4-.73,2.7-1.5,4.07-2.1,5.06-2.22,10-5.06,15.26-6.36s9.51,3.95,7.86,9.4a19.87,19.87,0,0,1-3.17,6.58c-7.34,9.28-14.79,18.49-22.43,27.54-3,3.51-.08,6.24.86,9,.27.84,3.83,1.49,5.33.88,15.64-6.36,30.85-13.48,42.14-26.7,2.84-3.33,7-6.2,8.31-10.05,2.45-7.12,4.45-14.83,4.33-22.26-.08-5-.33-11.54-6-15-6.26-3.88-12.87-3.34-19.59-1.42-12.53,3.57-22.53,11.55-33.27,18.38C532.53,140.38,531.94,143.55,534.08,149.15Zm-1.89-23.48c1.27-.31,2.41-.26,3.08-.8,5.81-4.6,12.21-8.68,17.15-14.09a148,148,0,0,0,29.51-48c2.41-6.43,5.55-12.77,4.33-20.23-.53-3.24-1.43-5.42-4.13-7.18-9-5.82-27.75-4-34.85,4.49a59.47,59.47,0,0,0-13.65,33.16c-.24,2.41-.58,4.81-.93,7.71,4.5-3.24,8.06-6,11.87-8.47,3.28-2.09,7.68-3,10,.14,1.64,2.27,1.87,7.07.58,9.69C550.77,91,545.39,99.38,540.52,108,537.4,113.54,531.12,117.52,532.19,125.67ZM516,76.62c-1.17,8.8-3.26,17-3.17,25.22.22,21.4,1.32,42.8,2.22,64.2a55.54,55.54,0,0,0,8.4,27.85c0-4.68-.09-8.92,0-13.17.27-10.2,1-20.39.88-30.59-.22-22.11-1-44.21-1.14-66.32C523.15,79.6,521.45,77.9,516,76.62Zm19.08,84.7-1.19-1v12.08c5.94-3.22,16.6-18.9,15.38-23.67-3,2.71-5.59,5.05-8.2,7.37C539.07,157.83,537.06,159.57,535.06,161.32ZM532,101.81l1.71,1.14L544.78,85.4l-1.85-1.2C538,89.23,532.42,93.8,532,101.81Z"/><path d="M938.29,222.19c-4.25-.68-8-1.22-11.74-1.9-5-.9-8.29-4.14-10.53-8.39-2-3.86,2.54-9.65,8.1-10.1a69,69,0,0,1,10,.28c2.73.17,4-.46,3.51-3.64-.58-3.74-.42-7.59-.87-11.36-.19-1.62-1.11-3.16-1.69-4.71-4,3.55-7,7.57-11.09,9.55-12.56,6.16-20.1,1.85-25.27-9-5-10.52-5.75-22.24-4.39-33.94.72-6.25.88-12.58,1.78-18.8.35-2.42,1.45-5.58,3.26-6.72,2-1.27,5.24-.61,7.93-.79.17,3,1.46,6.55.31,8.9-4.82,9.81-4.13,20.2-3.86,30.45.15,5.52,1.72,11.08,3.2,16.47,2,7.32,7.57,9,13.63,4.22,5.58-4.43,9.52-10,10.7-17.26,1.41-8.59,2.13-17.39,4.5-25.7s1.53-16-.93-24.1c-1.8-5.91-2.95-12.57,1.9-17.89,1.82-2,4.75-4.07,7.21-4.12,3.41-.07,7.29,1,8.61,5.33.7,2.3,1.71,4.5,2.26,5.93,6.72-1.87,13-4.44,19.43-5,3-.27,7.21,2.67,9.24,5.38,2.23,3,.84,7-1.7,10.06a37.43,37.43,0,0,1-5.83,6.09c-3.27,2.44-3.51,3.84-.06,6.66,7.26,5.95,7.3,13-3.14,17.46-8.93,3.79-17.57,3.71-26.9-1.44-2.3,15.21-.57,30-.15,45.53,5.59-3.39,10.48-6.6,15.6-9.4,4.07-2.22,9.09-3.46,12.57-.09s1.13,8.34-1,11.88c-4.49,7.33-10.07,13.84-17.82,18-2,1.09-4.23,1.77-7.46,3.09,0,8.66-.11,17.88.13,27.1,0,1.12,1.93,3.12,3,3.14,5.53.09,11.25-.78,13.27,6.44,2,7-1,11.63-5.65,17a46,46,0,0,1-16.43,12.19c-1.31.6-2.93,1.42-4.19,1.14-8-1.76-13.54,3.07-19.91,6.4-13.78,7.21-28.56,10.83-44.19,8.29-3.32-.53-7.36-2.52-9.22-5.14-8-11.42-9.5-19.42-.16-30.62,1.91-2.29,4.12-4.32,6.19-6.46,2.63-2.72,4.44-1.07,4.86,1.51a10.23,10.23,0,0,1-1.37,6.39c-2.7,4.44-5.57,8.68-4.39,14.27a3.84,3.84,0,0,1,0,1.47c-1.3,7.05-.22,8.64,6.94,10.21a21.13,21.13,0,0,0,2.92.55c9.63.71,9.48.71,9.37-8.73a29.8,29.8,0,0,1,9.51-22.42c4.25-4.1,8.86-3,10.67,2.49,2.53,7.71.76,15-3.32,22.38,7.15.62,11.61-4,16-7.49,11.54-9.09,15-22.36,16.69-36.16C938.77,232.28,938.29,227.3,938.29,222.19Zm-1.8,50.66a30.59,30.59,0,0,0,5-.74c6.87-2.26,11.28-6.85,13.63-13.77.87-2.54,2.11-4.58-.69-6.42-2.32-1.53-8.56-.81-9.46,1.2C942.22,259.33,939.6,265.63,936.49,272.85Zm-43.24,9.85c7.22-3.14,13-14.81,11.22-21.08-.75-2.69-2.5-3.77-4.66-1.48C894,266.32,893.68,274.11,893.25,282.7Zm72-96.77-1.72-1c-5.32,4.81-10.82,9.45-15.82,14.56-1,1-.18,3.89-.19,5.91,1.61-.31,3.81,0,4.75-1,4.43-4.57,8.62-9.39,12.64-14.32C965.58,189.17,965.12,187.33,965.2,185.93Zm-18.73-52.35c6.79,6.86,20.28,7,23.08.58C964.21,129.3,957.45,129.08,946.47,133.58Zm11.46-16.72c5.2,2.43,13.6-2,14.67-7.32C966.08,108.38,962.46,112.68,957.93,116.86Zm-15.5-.32,1.9.1c2-3.34,3.12-7,1.74-11-.35-1-1.77-1.69-2.7-2.52-.73,1-2.11,2-2.07,3C941.42,109.6,942,113.07,942.43,116.54Zm-13.94,91.29c.76,4.81,2.88,5.63,8.63,3.68Z"/><path d="M236.62,160.67c-.58,2.21-1.38,3.8-1.36,5.38.13,7.53-3.24,13.74-6.92,20-5,8.43-12.73,5.93-18.79.44-2.27-2.07-3.78-5-5.52-7.61-2.92-4.4-4.68-4.52-8.15-.79s-6.9,7.13-10.53,10.51c-4.35,4-9.73,5.45-15.16,3.32-6.46-2.54-9.92-7.66-10.48-14.88-.94-11.91,2.33-22.57,8.68-32.46,1.23-1.92,2.66-3.8-.44-5.22-10.66-4.9-11.94-16.75-6-26.06,6.31-9.89,14.85-15.49,27.21-13.72,1.21.17,3-1.14,4-2.24,6-6.68,11.47-13.94,18-20.14s14.6-6.3,20.77-1.36c1.28,1,2.72,2.85,2.71,4.31,0,7.47-.53,15-.92,22.42-.1,2.09-.41,4.17-.62,6.24,4.85,0,9.37-.76,13.54.14,12.62,2.71,12,11.12,8.17,21.11-2.28,6-8.78,11.38-14.52,14.66q8,13.08,16,26.14c.95,1.55,1.75,3.19,2.59,4.81,1.58,3,.67,6.07-2,7.16-1.57.63-5-.75-6.19-2.3-4.42-5.78-8.25-12-12.31-18.06A22.39,22.39,0,0,0,236.62,160.67Zm-10-68.08-1.38-.45c0-.66,0-1.32.1-2,.56-6.89-1.26-8.33-7.57-5.28-8.12,3.93-13.35,10.62-16,19.11-.45,1.41.74,3.61,1.69,5.13,2,3.17,4.23,6.2,6.51,9.18,1.1,1.43,2.95,3.92,3.72,3.67a7.76,7.76,0,0,0,4.52-4C221.26,109.61,223.87,101.07,226.64,92.59Zm-40,57.93,1.35-.83c-.68-1.31-1.09-3.37-2.11-3.74a6.89,6.89,0,0,0-5.1.38c-7.18,4-14.2,20.11-10.1,29.75,2,4.77,5.69,6.15,9.75,2.86a82.57,82.57,0,0,0,10.81-10.59c3.37-4,2.41-9.49-1.47-13.34A30,30,0,0,1,186.59,150.52Zm21,6.06a21.77,21.77,0,0,1,1.59,3.11c1.73,5.06,3.12,10.25,5.18,15.16a7.42,7.42,0,0,0,4.67,3.63c1,.22,2.9-1.76,3.83-3.13s1.21-3.41,2-5.07c3.5-7.89.78-15.91.44-23.86-.16-3.66-2.49-5.91-6-6.39Zm-11-32.67c-2-3.16-3.93-5.63-5.25-8.38-2-4.13-5.39-5.39-9.4-4.74-5.5.9-10.3,3.23-12.73,8.79-1.85,4.24,1.58,9.69,6.15,9C182.26,127.45,189.05,125.6,196.59,123.91Zm43.18-5.56C236,120.17,232.12,122,228.3,124c-.69.37-1.5,2.07-1.33,2.25,2.12,2.19,4.12,4.93,6.76,6,1.74.71,4.64-.75,6.72-1.82a8.78,8.78,0,0,0,3.14-3.73c.91-1.71,2.17-3.86,1.76-5.43C245.06,120.14,242.33,119.61,239.77,118.35Zm-41.6,27.42,2.05,1.47,5.84-6.22-.85-1.56c-1.33.19-3.2-.09-3.88.68C199.94,141.72,199.19,143.86,198.17,145.77Z"/><path d="M346.85,146.63c-3.74-1.59-7.27-2.59-10.27-4.45-6.58-4.08-7-17.15-3.32-22.61,6-8.93,12.95-15.35,25.26-15.83,4-10.94,9.84-20.35,21.66-24.66,7.37-2.7,17.15-.57,18.43,11,.83,7.49.78,15.08.95,22.63.08,3.14.59,4.18,4.1,2.81,5.78-2.27,11.73-4.72,17.81-5.53,10.16-1.36,16.72,8.59,14,18.45a28.32,28.32,0,0,1-10.22,15.77c-3.44,2.63-7.84,4-12.57,6.31,4.22,4.27,8,8,11.75,11.9,3.21,3.35,6.42,6.71,9.38,10.27,2.1,2.53,2.88,6,0,7.92-1.49,1-5.22.19-7-1.11-3.91-2.9-7.21-6.61-11.5-10.7-.4,7.9-2.55,13.7-8.32,18-8.33,6.28-17.1,3.59-26-4-3.08-2.61-5.5-6-8.07-8.86-4,3.68-7.62,6.92-11.13,10.26A12,12,0,0,1,348,186.61c-5.19-2.39-7.67-7.36-8.09-13.27A42.28,42.28,0,0,1,346.85,146.63ZM368.76,128c1.26.69,2.3,1.74,3.36,1.76,3.14,0,6.34-.77,9.42-.41,4.63.53,6.53-1.55,6.72-5.7.42-9,1-18.07.94-27.11,0-7.35-2.51-8.78-9.26-6.23-7.92,3-12.51,14.43-8.81,22C375.2,120.59,374.92,122.89,368.76,128ZM388,142.38c-1.12,3.4-1.44,6.39-2.95,8.53-3.28,4.66-2.66,9.7-2.17,14.67.58,5.94,7.18,11.95,13.08,12.5,4.1.39,7.25-1.22,7.24-5.49a58.54,58.54,0,0,0-1.9-12.47C399.6,152.41,393.78,147.69,388,142.38Zm31.11-22.55c-6.47,2.37-13.13,4.33-19.26,7.36-1.75.87-2.31,4.78-2.67,7.4-.12.82,2.06,2.5,3.44,2.9,9.68,2.79,17.95-.64,22.8-9.21C426,123.71,424.46,120.73,419.13,119.83Zm-62.2.74c.28-5.15-2-7.15-6.47-5.08-5,2.32-8.56,6.25-9.66,11.8a6.66,6.66,0,0,0,1,4.52c1.66,2.46,9.76,2.82,13.57.83,3.5-1.83,2.88-4.61,1.82-7.65C356.73,123.65,357,122.05,356.93,120.57Zm-.31,30.52c-5.81,2.44-9.31,19.07-6.17,22.56,1,1.14,4.63,1.53,5.82.63,3.66-2.75,6.72-6.3,9.46-9C362.34,160,359.64,155.8,356.62,151.09Z"/><path d="M65.1,69.4C69.86,59.22,73.84,49,79.28,39.7c3.84-6.58,9-12.65,16.57-15.86,5.32-2.27,9.53-1.49,13.53,2.67,6.15,6.4,9.3,14.27,11.15,22.73C122.88,60,126,70.71,127.06,81.6c1.39,14.38,1.37,28.91,1.39,43.38a234.15,234.15,0,0,1-1.68,25.64c-1.33,12.17-3.14,24.28-4.69,36.42-.69,5.4-1.16,10.82-1.9,16.21-.34,2.43-.86,5.84-4.2,4.6-1.8-.66-3.74-3.93-3.7-6,.16-7.1,1-14.19,1.85-21.25,1.24-10.46,3-20.87,4-31.35,1.07-11.51,2.29-23.1,2-34.63-.33-14.66-1.07-29.45-3.54-43.86-1.81-10.56-6.46-20.68-10.26-30.84-2.27-6.07-7.18-7.35-12.5-3.62a20.76,20.76,0,0,0-5.16,5.29C76,60.29,70,81.2,69.67,103.55c-.16,10,1.72,20.07,2.39,30.13.62,9.36,1,18.75,1.11,28.13a6.68,6.68,0,0,1-3,5c-1.09.55-4-.74-5-2-1.63-2.29-3.2-5.19-3.34-7.91-.79-16.32-1.55-32.66-1.52-49,0-8.93-1.65-17.52-2.68-26.26-1.22-10.37-3.41-20.37-7.84-29.81-.9-1.9-2.68-4.39-4.35-4.64s-4.67,1.58-5.37,3.23C36.39,59,32.27,67.54,30.17,76.53c-4.89,21-4.33,42.52-4,64,.11,6.77,4.25,11.17,5.25,17.06C33,166.39,35,175.1,36.4,183.89a18.51,18.51,0,0,1-.83,7.71c-.29,1.06-2.37,2.6-3.14,2.36-2.05-.65-4.78-1.72-5.56-3.39-2.05-4.44-4.05-9.19-4.59-14-1.8-15.82-4-31.71-4.05-47.58A412.09,412.09,0,0,1,22,76.62C23.56,64,26.63,51.31,35.69,41.31a29.27,29.27,0,0,1,5.87-5.2c5.17-3.28,11.63-1.8,14.19,4.32,3.38,8.06,5.41,16.69,8,25.07C64.24,67,64.75,68.38,65.1,69.4Z"/><path d="M312.51,151.37C307.77,157.68,304,164,299,169c-7.54,7.53-19.82,4.48-24.44-5.24s-4.31-20-4.85-30.16c-.34-6.42.1-12.88.21-19.32.06-3.57,4.2-7.94,7.44-7.8,4.95.22,5.35,3.94,5.21,7.48-.13,3.27-1.5,6.5-1.51,9.75,0,8.91-.23,17.9.86,26.7.47,3.76,3.34,7.84,6.29,10.47,2.14,1.91,8.58-3.33,11.33-8.78,6.29-12.47,7.77-25.71,6.14-39.41-.35-2.92-1-5.8-1.52-8.7-.7-4.13,1.78-8.27,5.88-8.41,1.77-.07,4.69,2,5.23,3.67a77.61,77.61,0,0,1,3.52,16.19c2.08,21.63,4.57,43.27,5.39,65,.52,13.54-.55,27.43-5.91,40.28-4.88,11.7-13,21.17-22.87,29-12.75,10.14-26.19,19.19-42.37,23.1-9.53,2.31-19,4.49-28.77.43-5.45-2.26-10.43-9-9.7-14.74.16-1.26,1.33-3.22,2.23-3.34,1.31-.17,3.55.66,4.1,1.73,4.84,9.53,13.48,10,22.21,8.93,16.41-2,30-10.26,43.06-20,7.87-5.85,14-13.07,19.51-20.86a45.74,45.74,0,0,0,8.38-25.42c.32-15.14.1-30.29-.05-45.43C314,153,312.72,151.74,312.51,151.37Z"/><path d="M746.29,115.47c7.33-5.51,14-11.35,21.43-15.92,9.61-5.9,20.21.2,21.1,11.5,1.24,15.64-6,26.19-21.59,30.91,1.43,2.35,2.72,4.67,4.19,6.87,4.84,7.23,9.56,14.54,14.66,21.58,3.85,5.3,9.63,6.41,15.9,6.46,1.68,0,3.34,1.78,5,2.75-.93,1.57-1.47,3.76-2.85,4.61-5.72,3.51-11.53,1.38-16.51-1.49-8.8-5.08-15-12.86-19.65-21.84-1.45-2.78-3.43-5.27-5-8-2.83-5.09-6.53-6.2-12-4-3.06,1.24-4.84,2.36-4.57,5.87.76,10.05,1.34,20.11,2.1,30.16.26,3.32-.41,6.47-3.9,6.92-2.11.27-4.56-1.48-6.71-2.61a3.56,3.56,0,0,1-1.12-2.55c-.5-7.23-1.23-14.46-1.24-21.69,0-7.58.8-15.16,1.1-22.74.32-8.18.45-16.37.7-24.55.4-13.15,1-26.31,1.16-39.46a109,109,0,0,0-1.1-13.71c-.47-4.27,2.62-5.22,5.56-5.38s5.59.76,5.37,4.81c-.92,16.75-1.72,33.5-2.51,50.26C745.8,115,746.38,115.69,746.29,115.47Zm33-2.14c.08-6.62-2.85-8.52-8.64-5.45-7.1,3.76-12.28,9.5-16.13,16.43a63.85,63.85,0,0,0-4.7,10.19c-.32.93,1.26,3.6,2.15,3.68C764.25,139.36,779.12,125.69,779.27,113.33Z"/><path d="M883,105.51c-3.42,12.88-6.4,25.18-10,37.28a39,39,0,0,1-13,19.69c-2.89,2.32-8.18,4.47-8.29,6.89-.3,6.4,1.52,12.93,2.76,19.36a12.06,12.06,0,0,0,2.54,5.32c3.51,4.14,7.9,4.58,12.28,1s8-7.49,12.26-11a4.51,4.51,0,0,1,4.25-.28c2.66,2,3.67,5.13,1.65,7.92A38.21,38.21,0,0,1,867.94,206c-10.36,3.36-20.36-6.73-22.74-14.7-4.07-13.66-4.13-27.52-1.1-41.39,2.11-9.67,3.37-19.74,7.08-28.79,3.53-8.58,9.31-16.41,15.07-23.81,1.51-2,7.35-2.49,9.92-1.17C879.08,97.66,880.56,102,883,105.51Zm-12.49.62c-7.73,6.27-19.82,40.3-16.43,46.23C863.38,147.22,875.57,112.93,870.49,106.13Z"/><path d="M629,143.57c.61-10.14.86-17.37,1.56-24.55.29-3.07,2.29-5,5.84-4.49,3.27.51,5.2,2.08,4.47,5.68a125.67,125.67,0,0,0-1.38,39.84,29.25,29.25,0,0,0,2.71,8.94c1.83,3.85,5.28,4.16,7.87.8,3.17-4.1,6-8.49,7.45-13.52,3.67-13,4.86-26.27,1.5-39.57-.67-2.65-.82-4.53,2-5.61,3-1.14,6.19-.92,7,2.38A91.1,91.1,0,0,1,670.3,129c.89,11.16-1.24,22.07-4.55,32.58-2.6,8.23-7.54,15.72-15.52,19.62s-16.86-2.82-18.54-13.33C630.27,158.86,629.68,149.76,629,143.57Z"/><path d="M814.69,169.58c0-16.79.64-33.61-.19-50.35-.76-15.46,1.54-31.09-2.44-46.39A39.88,39.88,0,0,1,811,63c0-2.33,0-5.54,3.61-5.28,3.24.22,7.23.75,7.3,5,.32,18.23.3,36.46.41,54.69.06,8.72,0,17.44.23,26.15.4,14,.89,28,1.59,42,.29,5.9,1.11,11.78,1.84,17.65.4,3.23-.17,5.79-3.87,6.17s-4.8-1.8-5.07-5.17c-1-11.53-2.1-23-3.18-34.56Z"/><path d="M682.49,153.66a56.88,56.88,0,0,1,12.16-29.79c4.93-6.16,12.34-7,18.64-2.61,3.17,2.21,6.48,12.52,4.62,15.77-.68,1.21-3.17,2.45-4.34,2.09a11.87,11.87,0,0,1-5.05-3.92c-.7-.84.06-2.81-.58-3.78a9.66,9.66,0,0,0-4.05-3.65c-.64-.25-2.54,1.6-3.29,2.84-4.45,7.33-8.57,14.92-7.86,23.86a36.58,36.58,0,0,0,2.89,12.27c.74,1.59,4.7,3,6.64,2.45,3.6-1,7-3.17,10.11-5.34s5.58-1.53,7.86,1,.8,4.61-1.56,6c-4.1,2.48-8.08,5.4-12.53,7-9.72,3.52-19.8-2.28-22.11-12.42C683.12,161.47,682.94,157.28,682.49,153.66Z"/></svg>