<svg id="Layer_1" data-name="Layer 1" xmlns="http://www.w3.org/2000/svg" viewBox="0 0 1381.22 320.77"><path d="M1165.54,113.15c3,3,5.44,5.61,8.09,8,6.87,6.3,14.19,12.15,20.56,18.91a22,22,0,0,1,5.35,11.72,214.66,214.66,0,0,1,1.8,30.81c-.12,5.74-2.21,11.58-4.19,17.09a138.75,138.75,0,0,1-9,20.57c-3.5,6.29-10,8.56-17,9.34-14.37,1.61-24.17-5.51-31.45-16.94-3.29-5.17-6.21-10.59-9-16a10.55,10.55,0,0,1-.76-5.15c.56-11.49,1.17-23,1.93-34.46.28-4.22,1.12-8.4,1.5-12.61.11-1.22-.5-2.51-.78-3.77a15.61,15.61,0,0,0-3.33.83c-10.22,4.93-14.64,13.65-15.56,24.43-1,11.22-.87,22.59-2.71,33.66a67.69,67.69,0,0,1-12.18,29.73c-1.18,1.6-1.8,3.61-2.7,5.41-3.32,6.61-9.79,9.38-17.09,8.47-11.37-1.42-16-9.21-19.13-18.71-1.2-3.67-2.12-3.89-5.37-1.79-6.1,3.94-12.11,8.39-18.79,11-8.28,3.22-17.19,4.81-25.86,7-6.65,1.71-13.27,3.6-20,4.85-9.09,1.68-18.13,2.71-27-1.86-8.41-4.33-12.38-10.43-12-20a204,204,0,0,1,6.34-43.6c2.93-11.48,7.14-22.64,10.25-34.09,3.23-11.88,5.87-23.92,8.67-35.91,1.2-5.19,1.95-10.49,3.27-15.64C981.05,88,986.4,84,991,79.85a92.79,92.79,0,0,1,24.81-16.68c7.94-3.51,16.17-5.35,24.6-6.62,4.15-.63,8.54-1.3,12.59-.6a18.63,18.63,0,0,1,12.3,8.58c7.36,11.29,5.13,23.18-3.14,32.08-5.16,5.56-11.74,9.78-17.61,14.7-1.14,1-2.45,2.3-2.63,3.6-.11.79,1.67,2.16,2.86,2.75,7.74,3.81,10.67,12.34,8.67,21.21-3.15,14-12.42,22.25-24.54,27.84-4.37,2-9.66,1.95-14.39,3.32-2,.57-4.53,2-5.23,3.72-1.29,3.08-1.07,7.13,1.92,9,2,1.25,5.47,1,8,.4,8.7-2.19,17.25-4.94,25.9-7.3,4.3-1.17,8.68-2.59,13.06-2.7,3-.08,3.87-1.14,4.57-3.44,3.31-11,6.86-22,9.93-33.06,5.46-19.71,10.61-39.5,16-59.24a76,76,0,0,1,3.15-9.68c.52-1.23,2.22-2.94,3.2-2.83,5.53.62,6.93-4.15,9.62-7,7.62-8.11,14.21-17.34,22.61-24.51C1139.37,23,1153.45,16,1170.35,17.31c10.75.83,20.76,3.35,29.09,10.78,5.87,5.25,8.57,12.07,9.81,19.43,2,12.12-.24,23.93-5.16,34.92a40.48,40.48,0,0,1-20.43,20.47C1177.64,105.71,1172.06,109.42,1165.54,113.15Zm-93.9,93.94a43.14,43.14,0,0,0,0,4.55c.67,6.26,2.13,12.28,7,16.75.79.73,3.58.87,3.88.36,4.17-7,9.17-13.84,11.79-21.44,4.41-12.8,4.59-26.46,5.12-39.93A53.19,53.19,0,0,1,1106,143c4.52-8,11.62-13.08,20.62-16,11-3.61,20.93,4.18,21.18,14.06.15,5.42-.61,10.88-1,16.31-.76,9.43-1.47,18.86-2.43,28.27-.61,6,.65,11.27,4.7,15.92a124.65,124.65,0,0,1,8.1,10.35c4.61,6.53,14.48,7.08,19.43.75a30.58,30.58,0,0,0,4.5-7.81c4.7-12.43,8.2-25.08,5.92-38.61a49.52,49.52,0,0,1-.67-7A25.89,25.89,0,0,0,1175,137.85c-8.76-6.33-16.13-14-23.15-22.12-3.92-4.5-3.52-7.72,1.34-11.43a79,79,0,0,1,7.29-4.57c6.94-4.17,14.3-7.78,20.76-12.59,12.82-9.56,14.69-23.69,14.29-38.34-.14-5.06-1.4-10.36-6.23-12.78-5.32-2.66-11.18-5.41-17-5.8-15.79-1-29.22,5.46-40.5,16.09A241.31,241.31,0,0,0,1113,66.49c-4,4.76-8.53,9.82-10.4,15.53-5.06,15.46-8.76,31.37-13.12,47.06q-5.62,20.25-11.5,40.41C1074.44,181.79,1071.39,194.16,1071.64,207.09Zm-15.42-14.41c0-1.24,0-2.48,0-3.72-.06-4.14-2-5.3-5.8-3.78-6.6,2.6-13.22,5.16-19.88,7.6-8,2.91-16.13,2.71-24.28.85a6.87,6.87,0,0,1-3.4-2.16c-3.94-4.66-6.93-9.61-7.08-16.16-.26-11.57,6.29-18.77,17.31-18.51,6.73.16,12.24-2.18,17.35-6.31,5.44-4.4,9.26-9.73,10.11-16.73a7.85,7.85,0,0,0-1.65-5.5c-.62-.71-3.33-.27-4.7.43a48.6,48.6,0,0,0-7.12,4.77c-5.34,4-10.17,8.77-18,5.76-4.42-1.68-8.56-5.85-8.79-10.67-.42-8.64,4-15.15,9-21.56,3.54-4.54,8.22-5.7,13.53-5.37,14,.86,28.85-9.42,32.74-22.67,1.34-4.57-.29-9.65-3.62-10.14s-7-.9-10.24-.17a207.67,207.67,0,0,0-19.94,5.85c-10.27,3.45-18.54,10.07-26,17.58-1.85,1.85-2.91,4.83-3.52,7.47-3.28,14.19-6,28.51-9.5,42.65-2.41,9.86-6.16,19.39-8.41,29.27C970.69,187,967.7,202.62,965,218.3a22.66,22.66,0,0,0,1.38,11.16c1.39,3.77,5.5,4.64,9.13,4.21,9.13-1.09,18.21-2.65,27.31-4a96.27,96.27,0,0,0,35.44-12.44C1047.51,211.7,1056.36,205.37,1056.22,192.68Zm-40.65-68.15,11.07-8.66C1020.1,115.17,1017,117.74,1015.57,124.53Z"/><path d="M614.54,233.6q2.16-19.26,4.31-38.53c.95-8.61,1.56-17.27,2.81-25.83,1.78-12.23,4.23-24.36,6-36.6,1.19-8.38,3-16.68,1.76-25.38-.69-4.89.36-10.14,1.24-15.11,3.14-17.68,10.71-33.26,24.62-44.87,10.43-8.72,22.75-14.4,36-17.62,9.17-2.21,18.32-5.42,27.61-6,13.54-.86,24.71-.16,30.5,15.6A143.09,143.09,0,0,1,753.62,53c4.65,17.91,3,35.77-1.25,53.42-2,8.18-7.73,14.34-13.78,20-6.52,6.09-13.17,12-19.75,18.06-1.84,1.69-1.89,3.29-.86,5.81,3,7.35,9.84,7.41,15.85,9.22,2.63.79,5.23,1.68,7.77,2.71,7.52,3,11.43,8.48,12.27,16.69,1.13,11.05,3.3,22,4.27,33.07.52,6-.35,12.05-.91,18.05-1.52,16.23-8.91,29.63-20.31,41-5.35,5.34-11.41,4.84-16.83,2.24-13.38-6.42-21.13-17.37-24-32a267.57,267.57,0,0,1-4.89-45.86c-.12-5.89-1-11.77-1.65-17.65-.08-.8-.86-1.53-1.32-2.29-.75.47-1.87.77-2.2,1.45-1.88,3.94-3.71,7.93-5.32,12-3.3,8.29-4.2,17.06-4.4,25.86-.25,11.09-.77,22.24,0,33.27.71,9.73-3.54,17.49-8.05,25.08-3,5-7.7,9-11.77,13.38-5.92,6.34-18.12,7.08-25.25,1.85-9.95-7.3-15.59-17-16.19-29.29-.41-8.48-.08-17-.08-25.49ZM743.94,80.07l-1.25-.24c1.16-11.59-1.31-22.71-4.33-33.76-1.71-6.25-5.46-10.57-12.14-10.51a139.32,139.32,0,0,0-23.81,1.91c-6.95,1.28-13.59,4.19-20.38,6.36C665.76,49,654.18,59.4,647.67,75.17c-1.87,4.51-4,9.27-4.3,14-.79,14.24-1.62,28.46-3.78,42.56-2.35,15.35-5.12,30.63-7.29,46-1.56,11-2.08,22.16-3.67,33.17a180.85,180.85,0,0,0-1.24,42.73c.82,8.82,3.3,16.92,10.25,23.15,3.41,3.06,7.81,4.69,10.4,2.55A47.88,47.88,0,0,0,661,262.2c4-8.78,3.3-18.17,2.62-27.29-1.64-22.18,1.26-43.4,11.52-63.32,4.43-8.59,8.38-11.31,16.91-10,2.66.42,6.15,2.93,7.07,5.32a60.47,60.47,0,0,1,3.62,16.42c1.21,14.52,1.65,29.1,2.8,43.63,1,12.22,5.1,23.26,14,32.16,3.86,3.89,7.82,4.16,11.57.49a44.74,44.74,0,0,0,13.59-28.75,168.79,168.79,0,0,0-2.77-48c-1.3-6.63-6.31-12.65-12.34-13.3-10.63-1.13-19.31-4.88-23.61-15.91-1.82-4.69-2-8.72,1.18-12.16,7.28-7.81,15.14-15.09,22.47-22.86,3.14-3.33,6.72-7,8-11.13C740.42,98.62,741.91,89.26,743.94,80.07Z"/><path d="M144.21,177.05c3.7,2.36,6.55,4.64,9.76,6.12,7.39,3.42,11.66,9.7,16.19,16,5.35,7.39,7.68,15.67,8.77,24.5,1,8.28,2.25,16.54,3.24,24.82,1.69,14.18-4.81,25.11-14.92,33.89-5.9,5.12-12.89,9.06-19.68,13.06-4.84,2.86-10.13.59-14-1.87-6.4-4.07-12.05-9.38-17.75-14.47-7.32-6.53-11-15.37-14.29-24.28-2.25-6-4.18-12.18-6.35-18.24-.27-.73-1.21-1.22-1.83-1.82-.53.69-1.38,1.31-1.55,2.08-2.06,9.31-3.62,18.75-6.13,27.94-2.15,7.89-5.27,15.53-10.48,22.1-5.47,6.87-11,13.58-19,17.87-8.68,4.65-22.88,5.14-31.64-4.84-7-8-10.8-16.78-10.11-27.56,1.06-16.88,1.3-33.83,2.84-50.66.84-9.07,3.5-18,5.64-26.92q5.06-21.15,10.56-42.2c1.68-6.36,4.16-12.52,5.93-18.86q6-21.37,11.53-42.86c.77-3,2.4-5.36,5.12-4.51,4.4,1.37,6.36-1.22,8.67-3.69,4.57-4.91,8.85-10.12,13.68-14.75,11-10.5,23.38-18.88,38.23-22.63,6.56-1.66,13.55-1.78,20.37-2.2,5.71-.35,11.59-.86,17.18,0,11.06,1.74,21.73,5.09,27.25,16.08,2.85,5.68,5.86,11.41,6,18.19.27,12.5,1.49,25,1.38,37.47s-4.49,23.63-10.89,34.39C171,160.86,160.74,168,149.05,173.86A54.88,54.88,0,0,0,144.21,177.05ZM83.1,210.58l-1.27-.19c0-1.93,0-3.86,0-5.79s.14-3.87,0-5.79c-.19-3.54.73-6.34,4.61-7.16s8,1.09,9.09,4.59c1.87,5.73,3,11.7,4.89,17.41,4.7,14.19,9.37,28.39,14.68,42.35a47,47,0,0,0,8.53,13.41,74.22,74.22,0,0,0,12.68,11.52c2.88,2.1,6.41,4.42,10.43,1,2.9-2.46,6.33-4.29,9.48-6.46,8-5.47,13.07-12.53,13.67-22.64.71-11.9-1.8-23.24-4.76-34.56-2.29-8.78-5.59-17.24-13.48-22.48-7-4.67-14.62-8.54-22-12.63-.78-.42-2.11,0-3.15.24a7.45,7.45,0,0,1-8-4.39c-1.58-3.61.66-4.94,3.35-6.15,5.76-2.6,11.61-5,17.23-7.88,6.32-3.2,13.13-5.95,18.49-10.39a51.6,51.6,0,0,0,19-37,226.21,226.21,0,0,0-.29-37.54c-1.65-16.55-8.47-24.34-24.56-26.91-10-1.6-20.46-1.88-30.32,1.24-7.89,2.5-16.17,5.1-22.88,9.68A122.86,122.86,0,0,0,68,94.48c-4.9,6.86-9.07,14.16-7.92,23.14.47,3.6-1.19,5.62-4.4,6.91a5.3,5.3,0,0,0-2.9,2.49c-1.6,4.51-3,9.11-4.23,13.73-3.16,11.51-6.47,23-9.25,34.6-3.61,15.05-7.34,30.1-10,45.32-2.91,16.9-3.42,34.08-3.33,51.24a34.3,34.3,0,0,0,3.65,15c4.82,10.13,17,12,24.36,4.94,8-7.56,15.56-15.12,18.28-26.23,1.69-6.89,3.88-13.68,5.2-20.64C79.64,233.56,81.26,222,83.1,210.58Z"/><path d="M1290.79,173.15c-5.54,4.21-8.62,9.78-10.43,15.74-3.28,10.82-5.36,22-8.86,32.74-1.35,4.15-5.17,7.51-7.93,11.17-8,10.66-18.89,14.42-31.8,12.85-7.48-.91-13.79-8.08-14.9-15.45-2-13.16,0-26.12,2-39,1.2-7.64,3.78-15.08,6-22.54,3.07-10.44,6.21-20.87,9.62-31.2,2-6,4.66-11.72,6.85-17.64,2.51-6.79,4.68-13.72,7.25-20.49,2.88-7.57,6-15.06,9.12-22.51,2.25-5.3,5.71-5.68,12.53-1.47,3.45-3.82,6.85-7.73,10.41-11.49A58.54,58.54,0,0,1,1306,48.25c15.24-4.74,29.91-3.47,41.31,9a63.06,63.06,0,0,1,11.18,18c3,7.1,4.56,14.86,6.21,22.45.83,3.82.48,7.89.67,11.84a278.9,278.9,0,0,1-2.5,53.48c-1.51,10.42-2.73,20.89-4.42,31.28-.54,3.31-2.36,6.39-3.27,9.67-1.27,4.6-1.61,9.55-3.44,13.89-4.64,11-9.89,21.92-21.13,27.87-5.69,3-12,3.11-18.37,1.58-13.89-3.35-17.4-14.8-20.48-26.3-3.77-14.08-1.2-28.33-.31-42.51.08-1.23.11-2.47.08-3.71C1291.54,174.4,1291.23,174.05,1290.79,173.15Zm-21.32-65.92a14.35,14.35,0,0,1-2.06-.83c-4.3-2.75-4.88-2.52-6.54,2.07-4.57,12.72-9.57,25.3-13.75,38.14-4.61,14.17-8.95,28.46-12.57,42.91-3,12.12-5.09,24.5-3,37.15,1.09,6.51,5.6,9.11,11.6,6.33,9.16-4.24,13.3-12.48,16.07-21.34,1.82-5.8,1.77-12.17,3.47-18,4.56-15.66,12.86-29,26.52-38.45,5.51-3.81,10.68-2.81,15,2.11,4.67,5.28,2.73,11.47,2.2,17.22-1.27,13.9-2.29,27.81,0,41.63a39.28,39.28,0,0,0,5.27,13.26c4.32,7.3,9.18,7.81,15.23,1.66a52.68,52.68,0,0,0,8.19-11.23c6.68-12,7.65-25.66,10-38.81,1.87-10.37,2.35-21,3.94-31.41,2.78-18.25,2.24-36.44-.47-54.59-1.33-8.93-4.09-17.39-9.44-25-7.07-10.05-9.51-11.28-23.15-9a45.92,45.92,0,0,0-24.94,13.07c-6.35,6.31-12.56,12.62-16.64,20.63C1272.52,98.62,1271.22,102.81,1269.47,107.23Z"/><path d="M329.35,106.21a73.52,73.52,0,0,0-2.51,7.79c-.68,3.26-2.37,5-5.68,4.52s-5-2.38-4.49-6.08c1-8,5.46-13.88,11.33-19,2.78-2.41,5.73-4.65,8.31-7.26,7.9-8,17.78-10.53,28.54-10.43,5.46,0,8.75,3.81,10.93,8.26,3.4,6.92,6.22,14.11,9.63,21a26.63,26.63,0,0,0,5.71,7.87c4,3.6,8.82,3.41,12.63-.63A179.66,179.66,0,0,0,416.6,96.84c6-8,15.77-11.56,24.19-6.86,3.8,2.13,6.86,6.93,8.56,11.19,5.92,14.78,7.44,30.45,7,46.21-.45,17.89-1.1,35.8-2.65,53.62a160.46,160.46,0,0,1-5.82,29.44c-2.84,10.08-6.72,20.11-17.56,24.59-2.84,1.18-6.59,1.89-9.4,1.06-8.25-2.43-14.35-8-19.57-14.85-11.37-15-12.46-32.39-13.47-50.09-.59-10.41-2.3-20.77-3.71-31.13-.19-1.45-1.51-2.75-2.32-4.12-1.12.91-2.72,1.58-3.28,2.75-2.4,5-5.18,10-6.56,15.36-3,11.57-2.59,23.43-2,35.32a98.72,98.72,0,0,1-1.1,20.39c-1.72,11-9.47,17.55-18.68,22.67A30.13,30.13,0,0,1,331.81,256c-5.17-.6-8.48-4-10.12-8.64a77.36,77.36,0,0,1-3.54-35.49c3.05-24.72,6.4-49.4,9.44-74.13,1.27-10.34,2.08-20.74,3.1-31.11Zm7.7-5.84c3.15-.2,6.61-1.8,6,3.21-1.94,15.53-3.76,31.07-5.71,46.6-1.56,12.42-2.85,24.9-5,37.23-2.92,16.83-4.4,33.71-.6,50.42,2,9,2.79,11.71,12.15,6.22.23-.13.52-.18.77-.29,6.82-3.12,11.43-8.43,12.75-15.6a69.44,69.44,0,0,0,.63-18,140.6,140.6,0,0,1,1.91-35.66,47.5,47.5,0,0,1,13.64-26.66c7.47-7.35,18.42-4.51,22,5.2,3.09,8.33,3.41,16.91,4.3,25.5,1.3,12.59,2.08,25.26,4.15,37.72a42.19,42.19,0,0,0,15.53,26.33c4.3,3.46,6.84,3,10.11-1.63a19.52,19.52,0,0,0,1.56-2.42c6.08-12.44,8.36-25.88,9.83-39.43,1-9.29,1.23-18.68,1.54-28,.33-10.17.92-20.39.35-30.52a216.18,216.18,0,0,0-3.88-27.67A34.62,34.62,0,0,0,434.56,102c-1.75-2.94-4.06-2.63-6.18.16-2.32,3.06-4.63,6.13-7,9.19a38.19,38.19,0,0,1-23.67,14.52c-2.3.46-5.18.7-7.15-.26-7.6-3.73-14.42-8.36-17.39-17.08-2.25-6.6-5-13-7.88-19.42-1.47-3.33-4.28-4.78-8.09-4.37-8.48.91-13.83,6.76-19.44,12.14C337.14,97.46,337.32,98.94,337.05,100.37Z"/><path d="M314.28,154.36c-.89,16.71-1,32.88-2.82,48.86-1.57,14-5.57,27.7-13.47,39.63-6,9.13-14.93,14.08-26.27,13.78-5.6-.15-15.65-7.71-18.25-12.73-5.25-10.14-4.14-20.42-2-31a143.09,143.09,0,0,0,2.21-18c.1-1.44-1.26-3.53-2.56-4.37-2.21-1.43-4.43-.28-5.35,2-2.28,5.71-4.84,11.4-6.26,17.34-2.25,9.43-3.54,19.09-5.46,28.61-1.76,8.74-12.49,19.06-19.78,19-9.63-.08-16.83-6.79-19.46-17.68a78.37,78.37,0,0,1-.91-31.86c1.37-8,1.69-16.16,3.56-24,2.89-12.1,6.75-24,10.08-36a13.84,13.84,0,0,0,.43-5.68c-1.61-10.3,1.31-18.67,9.23-25.75,10-9,21.42-15.85,32.57-23.22,6.71-4.44,13.41-8.18,21.38-9,10.89-1.14,21.29.59,29.45,8.45,2.84,2.73,4.36,6.92,6.18,10.6,4.92,10,5.44,21,6.5,31.77C313.9,141.75,314,148.38,314.28,154.36ZM204.71,218.51c.3,4.5.07,9.54,1.12,14.31a39.55,39.55,0,0,0,5.08,11.83c1.43,2.35,4.33,2.48,6.21,0,1.53-2,3.14-4.29,3.73-6.68,3.08-12.39,5.83-24.87,8.72-37.31a36.28,36.28,0,0,1,11-18.47c5.25-4.9,19.7-3,23.82,3.1a5.73,5.73,0,0,1,.71,1.9,43.91,43.91,0,0,1-.09,20.39c-2.22,9.27-3.72,18.64-1.35,28.15,1,4.16,2.8,7.77,7.46,9a11.75,11.75,0,0,0,11.79-2.89c7.56-7.08,10.35-16.65,12.81-26,4.52-17.12,4.37-34.9,5.23-52.46.5-10.16-.46-20.38-.71-30.58A64.65,64.65,0,0,0,295,107.91c-5.48-12.41-21.05-18.29-31.73-11.65-9.92,6.17-19.67,12.61-29.34,19.18-3.56,2.41-7.49,5-6.16,10.52a4,4,0,0,1-.46,2q-6.42,17.76-12.88,35.51C208,181.07,206.28,199.53,204.71,218.51Z"/><path d="M861.62,137.34c-.6-12.38.07-25-2.27-37.06-1.5-7.67-.1-14,1.21-21.15,2.93-15.86,18.11-25,32.83-18.65,7,3.05,10.07,9.49,11.1,17,1.68,12.11.46,24.09-1.1,36.1a27.57,27.57,0,0,0,.09,7c.13,1.07,1,2.66,1.8,2.88a3.56,3.56,0,0,0,3.06-1.5c2-3.86,4.91-7.79,5.3-11.9,1.26-13.25,6.1-25.46,10-37.91,1.14-3.58,4.05-6.91,6.86-9.6,4.67-4.46,13.77-2.21,17.82,3.91,3.7,5.59,3.69,12,3.92,18.28.55,15.5-2.07,30.7-5.09,45.77-2.31,11.49-5,23.07-9.22,34A233.73,233.73,0,0,1,921,199c-5.08,8.62-11.67,16.42-18.18,24.09A13.44,13.44,0,0,1,889.57,228c-4.41-.8-6.46-3.95-7.91-7a220.18,220.18,0,0,1-9.46-23.51c-4.93-14.59-8.55-29.5-9.26-45-.24-5-1.23-10-1.88-15.07Zm76.43-58.6-1.67-.45a16,16,0,0,0-2,3.56c-1.67,6.07-3.48,12.13-4.65,18.3-1.73,9.14-2.34,18.52-8.56,26.26-5.36,6.66-11.46,11.47-20.61,11.2a6.2,6.2,0,0,1-5.64-3.31c-4.73-7.44-5.83-15.41-4.65-24.06,1.54-11.33,2.6-22.78-.72-34A11.32,11.32,0,0,0,884,69.86c-2.91-1.29-5.07,1.47-6.93,3.91-5.48,7.2-4,15.72-4.54,23.75-.36,5,1,10.08,1.3,15.14.62,10.56.53,21.2,1.72,31.69a322.35,322.35,0,0,0,6,36.45c2.19,9.52,6,18.68,9.27,27.94.64,1.8,2,3.34,3.09,5,1.48-1.15,3.33-2,4.37-3.5,4.34-6.17,8.44-12.51,12.64-18.78a128.61,128.61,0,0,0,17.36-38A298.94,298.94,0,0,0,938,94.62C938.34,89.35,938.05,84,938.05,78.74Z"/><path d="M477.33,193.52c1.11-16.73,2.26-33.46,3.31-50.19.72-11.27,1.34-22.53,1.93-33.8.15-3,.69-5.46,4-6.4a3.19,3.19,0,0,0,1.82-1.52A43.73,43.73,0,0,1,504.58,83.7c14.07-9,28.4-18.3,46.33-16.55,12.71,1.25,22.19,8.09,28.21,19.1,6.61,12.08,8.8,25.56,11.61,38.92,3.21,15.22,3.51,30.57,4.59,45.89.79,11.28-.65,22.37-2.74,33.57-2.84,15.26-10.2,27.79-20.61,38.44-6.33,6.48-14.36,11.4-22,16.52-5.53,3.72-11.32,7.46-17.53,9.68-10.33,3.69-21.14,6.65-32.26,4.09-9.18-2.11-14.39-8.4-16.52-17.56a210.22,210.22,0,0,1-5.39-52.73c.07-3.17,0-6.34,0-9.51ZM583.7,168.29l-1-.11c-.1-2.06,0-4.15-.32-6.19-2.15-15.36-4.16-30.73-6.63-46-1.71-10.61-4.85-20.75-11.39-29.65-4-5.43-16-10.36-23.25-8.17-7.43,2.23-14.66,4.56-21.23,8.71-4.38,2.76-8.88,5.33-13.14,8.25-8.39,5.74-8.39,15.62-11.37,24-1,2.73-.47,6-.68,9-1.14,16.49-2.94,33-3.27,49.48-.34,16.77.52,33.57,1.33,50.34a86.24,86.24,0,0,0,6,28.87c1.31,3.19,3.57,5.65,7.09,5.3,6-.61,12.13-1.24,17.86-3,9.24-2.81,17.27-8.13,25.39-13.38,16.61-10.75,27.32-25.54,31.22-44.67C582.52,190.32,582.65,179.21,583.7,168.29Z"/><path d="M780.64,184.33c1.14-27,2.06-48.49,3-70,.3-7.29.53-14.58.79-21.87.22-6.27,6.23-9.61,11.42-6.12,1,.7,1.62,2.84,1.58,4.29-.26,9.6-.76,19.19-1.17,28.79s-.92,19-1.17,28.46c-.38,14.58-1,29.19-.68,43.76.22,9.15,1.87,18.3,3.39,27.36.4,2.34,2.29,5.43,4.29,6.26,3.24,1.34,5.07-2.19,6.63-4.43A90.52,90.52,0,0,0,821.46,193c5.29-19.17,7.41-38.84,8.8-58.57.77-10.88-2.44-21.18-6.83-31.07-1.16-2.64-2-5.48-3.67-7.8-2.82-4-7.6-3.92-10.74-.13-.44.53-.8,1.12-1.24,1.65-1.56,1.83-3.81,4.26-5.75,2.35-1.62-1.61-2.63-5.39-1.91-7.55,2.82-8.52,15.39-12.57,23.6-9.09s10,11.2,13.5,17.81c6.5,12.15,7.25,25.38,5.93,38.58-1.59,16-3.78,31.91-6.74,47.66-1.49,7.91-5.47,15.32-8,23.07-2.91,9-8.69,16-15.51,22.23-4.1,3.73-8.74,6.73-14.82,5.83-6.55-1-12.74-7-13.6-14.39C782.78,208.66,781.55,193.74,780.64,184.33Z"/><path d="M1139.39,83.58c-2.7,6.54-4.78,11.55-7.06,17-3.41-2.24-5.82-3.73-8.11-5.39a2.69,2.69,0,0,1-1.09-2.07c1.61-7.39.48-15.76,5.85-21.85,6.82-7.73,13.43-16,24-19.27,6.28-2,11.13.26,15,4.93,2.92,3.58,3,7.61,1.6,12.23-2.83,9.45-9.51,15.22-17.39,20.08-3.41,2.1-6.8,1.28-10.93-2.43C1140.5,86.25,1140.24,85.17,1139.39,83.58Zm16.84-17.93c-5.39-.34-13.85,8-16.73,16.54C1146.9,79.21,1155.38,70.82,1156.23,65.65Z"/><path d="M699.39,68.85c3.32.71,7.25,1.34,11.05,2.41,5.42,1.53,7.45,6.74,6,12.09a43.19,43.19,0,0,1-12,19.76c-4.65,4.44-9.29,10-16.59,10.9a13.79,13.79,0,0,1-3.93-.33c-.92-.16-2.15-1.13-2.65-.81-3.67,2.33-6.53.1-8.07-2.33-1.38-2.18-1.49-5.5-1.32-8.26a90.76,90.76,0,0,1,2-13c2.12-10,9-15.74,18-19.4C693.87,69.06,696.36,69.24,699.39,68.85Zm-13.56,33.82,1.66.79a93.61,93.61,0,0,0,6.9-7.2,140.44,140.44,0,0,0,8.29-12.09,3.46,3.46,0,0,0-.83-3.31c-3.31-1.87-12.26,1-13.9,4.68C685.53,91,686.19,96.92,685.83,102.67Z"/><path d="M143.42,108c2,15.69-17.8,31.32-30.63,28.78a21.5,21.5,0,0,0-5.77-.34,7.7,7.7,0,0,0-4.31,1.38c-4.67,4.19-9.33,3.46-10.51-2.6-1-5-.21-10.3-.12-15.48.09-5.49,2.84-9.51,6.63-13.38,6.49-6.62,13-13.06,22-16.16,11.15-3.82,23.31.28,22.53,15.28A21.55,21.55,0,0,0,143.42,108Zm-31.65,20.38c2.69-1,5.37-2.08,8.07-3.09,8-3,13.57-13.77,10.89-21.85-.51-1.53-2.93-3.73-4.12-3.53-8.18,1.33-19,10.12-21.5,17.81C102.77,124.83,104.52,127.33,111.77,128.35Z"/><path d="M1302.46,138.22c-7.13-.72-13.75-2.68-16.92-10.06a13.31,13.31,0,0,1-1.08-6.7c1.75-12.62,9.94-20,21-24.84.89-.38,2.31.07,3.35.48,2,.78,3.76,2.31,5.77,2.65a15.55,15.55,0,0,1,13,11.64c1.62,6.23-.85,12.44-5.79,17.19C1316.35,133.78,1310.92,138.9,1302.46,138.22ZM1299,123.71c6.7.82,14.54-4.6,14.92-9.69.11-1.36-1.24-3.36-2.49-4.09-.85-.5-3.06.32-4,1.23a40.51,40.51,0,0,0-5.54,6.56C1300.72,119.38,1300.09,121.39,1299,123.71Z"/><path d="M246.35,162.05c-7.49.39-14.45-8.24-10.74-16.09,2-4.18,3.09-8.89,5.64-12.65,2.71-4,5.37-8.34,11.65-8.57s12.67-2.59,19.14-.3c6.16,2.17,8,6.21,4.57,11.81a184.3,184.3,0,0,1-11.9,17.18C260.35,159,252,162.55,246.35,162.05Zm.64-13.9c.53,1.41.77,2.91,1.16,2.95,1.27.13,3.1.2,3.8-.56,4.29-4.6,8.45-9.35,12.4-14.25,1.69-2.1.85-3.81-1.89-4.47-4.37-1-9.21.43-11.13,4.31S248.35,144.28,247,148.15Z"/><path d="M556.51,153.7c-1.29,10.34-4.14,18.4-9.33,25.31-3.57,4.76-7.18,9.67-13.11,12.19-2.17.92-3.4,3.18-3.22,6.15.22,3.82-3.25,6.18-8,6.45-4.13.24-4.76-2.66-5.18-5.5-1-7.19-2.27-14.4-2.6-21.65-.3-6.39.46-12.83.87-19.24a48.83,48.83,0,0,1,1-6.92c.35-1.72.65-3.67,1.66-5,2.6-3.37,6.1-6.12,8.31-9.7,5.22-8.47,21-6.71,25,2.92C554.07,144,555.3,149.7,556.51,153.7ZM530,180.25c7.28-5.12,15.55-20.3,11.87-31.43-.82-2.47-2.35-4.7-3.56-7-2.37,2.3-4.75,4.59-7.09,6.93-.25.25-.15.8-.29,1.19C527.35,159.84,530.61,169.87,530,180.25Z"/></svg>