<svg id="Layer_1" data-name="Layer 1" xmlns="http://www.w3.org/2000/svg" viewBox="0 0 869.5 432.96"><path d="M157.24,266.45c4.39-2.64,9-5,13.12-8,7.94-5.64,15.53-11.77,23.49-17.38,5.72-4,11.88-7.44,17.71-11.32,11.19-7.44,22-15.45,33.52-22.37,7.5-4.51,15.11-9.45,24.34-10.14,5.07-.38,8,1.6,8.59,6.62.68,5.61.48,11-2.66,16.27-4.23,7-7.85,14.45-11.55,21.79a44.94,44.94,0,0,0-2.18,6.74l1.35,1c3.48-2.29,6.92-4.66,10.46-6.86,10.91-6.78,21.75-13.69,32.84-20.17,6.23-3.63,13-3.83,18.41,1.49,4.79,4.68,5.9,11,4.84,17.54-.56,3.43-1,6.87-1.81,10.25s.66,5,3.9,5.43c.65.09,1.31.2,2,.35,2.56.59,5.79,2.48,7.55,1.56,4.82-2.53,8.7-6.47,10.2-12.13,2.42-9.1,4.8-18.21,7.42-27.25.94-3.25,2.67-6.26,3.79-9.46,4.06-11.51,7.66-23.19,12.12-34.53,3.78-9.61,8.28-19,12.87-28.22,4.77-9.64,9.77-19.2,15.16-28.5,3-5.18,7-9.79,10.57-14.63s7.15-9.86,11-14.55c4.95-6,9.75-12.28,15.43-17.55a280.61,280.61,0,0,1,23.07-18.73A228.07,228.07,0,0,1,486.1,37.85,231.56,231.56,0,0,1,514.67,24c8.18-3.29,16.85-5.44,25.45-7.53a166.56,166.56,0,0,1,21.73-3.8c7.5-.79,12.15,4.14,12.08,11.69-.08,8.12-4,14.91-8.82,20.67-13.49,16.33-27.59,32.17-41.63,48q-22.69,25.65-45.73,51c-10.63,11.75-21.45,23.32-32.12,35a25.74,25.74,0,0,0-2.62,4.29l1.2,1.37c2.47-1.47,4.86-3.1,7.42-4.4,10.52-5.33,20.89-11.05,31.73-15.65a106.87,106.87,0,0,1,25-7.63c14.28-2.23,24.77.38,31.15,11.8,4.52,8.08,2.47,16.29.26,24.22a100.84,100.84,0,0,1-17.21,33.86c-5.7,7.52-11.68,14.81-17.44,22.28a65.75,65.75,0,0,0-3.75,6.14l1,1.25c3.34-1.44,6.65-3,10-4.29,7.26-2.8,14.68-5.25,21.83-8.31,7.71-3.29,15.2-7.09,22.76-10.72,9.23-4.43,18.63-8.33,29-9.29,9-.84,18-2.38,27-2.39,9.69,0,17.37,4.1,21.67,13.72,4.6,10.29,14.77,11.68,24.26,13,20,2.71,40,1.84,60-1,16.54-2.35,33.14-4.17,49.7-6.34,9-1.19,18-2.88,27-3.85s18.08-1.16,27.1-2c8.22-.75,16.4-1.94,24.62-2.78a40.69,40.69,0,0,1,6.22.27c.17.5.33,1,.49,1.49a44.79,44.79,0,0,1-5.41,3c-2.56,1-5.22,2.21-7.89,2.36-7.08.4-13.17,6.4-20.77,3.56a2.88,2.88,0,0,0-2.37.06c-6.42,6.07-15,4.34-22.58,6.3s-15.45,3.08-23.22,4.4c-7.34,1.25-14.7,2.36-22.08,3.4-17.8,2.52-35.55,6.1-53.45,7.11-16.13.91-32.5-.32-48.63-1.92-13-1.28-22.61-8.86-28.62-20.58-2.21-4.3-5.82-5.15-10.25-5.44-14.43-1-27.79,3.55-41.06,8A312.92,312.92,0,0,0,529.15,260c-14.26,7-29.72,11.65-44.75,17-4.73,1.69-10.41-.45-12.68-4.23-2.62-4.39-1.86-8.8,1.29-12.52,7.83-9.19,16.13-18,23.78-27.31C509,218,521.5,203.18,527.23,184.16c2.31-7.65-2.26-13.73-10.3-13.5-14.32.4-27.68,4.5-40.45,10.75-8.27,4.05-16.66,7.9-24.66,12.44s-16.34,9.42-23.6,15.28c-3.56,2.88-5.4,8.17-7.38,12.66-5.74,13-11.22,26.13-16.67,39.26-8.1,19.5-16,39.1-24.14,58.56-10.08,23.95-20.16,47.9-30.71,71.65-3.86,8.7-9,16.86-13.75,25.14-1.12,2-2.87,4.08-4.83,4.85a10.29,10.29,0,0,1-7.31.06c-1.49-.67-2.83-3.61-2.76-5.47.16-3.9,1.3-7.76,2.13-12.12,5,4,7,1.06,8.68-3.16,5.53-13.7,11.09-27.38,16.8-41,1.85-4.41,4.52-8.49,6.27-12.93,7.52-19.17,14.67-38.5,22.31-57.63,4.93-12.36,10.56-24.44,15.74-36.7,3.26-7.72,6.26-15.54,9.37-23.28-6.1.05-24.49,16-35.91,31.17,1.54.73,4.5,1.81,4.42,2.16-.71,2.92-1.32,6.29-3.21,8.42-3.52,4-6.57,8.44-12.08,10.67-2.57,1-4.56,5.09-5.52,8.17-2.69,8.69-4.3,17.72-7.12,26.36-2.67,8.15-6.35,16-9.58,24l-1.47-.3q3.56-22,7.16-44a17.46,17.46,0,0,1,1.22-3.24c1.83-4.76.79-6.17-4.37-6-6.94.25-9.45-1.71-9.85-8.6-.2-3.54-2.11-4.4-4.94-5C309.83,270.46,305.09,260,310.24,250a101.61,101.61,0,0,0,4.81-10.9c1-2.74-.22-4.09-3.21-3.83A20.72,20.72,0,0,0,301,239c-12.13,8.54-24.82,16.28-37.07,24.66A92.52,92.52,0,0,0,252,274c-4.19,4.09-9.31,5-14.69,4.65-6.18-.35-10.27-8.17-7.12-13.83s6.82-11,10.41-16.34c5.7-8.49,11.6-16.85,17.25-25.38,1-1.54,1.25-3.62,2.07-6.15-2,.24-3.4,0-4.39.6q-6.18,3.54-12.12,7.46c-14.43,9.51-28.92,18.94-43.16,28.72-7.13,4.89-13.5,10.89-20.71,15.64-9.64,6.34-19.65,12.13-29.7,17.8-4.56,2.57-9.86,3.84-14.34,6.52-3,1.78-5.34,4.81-7.57,7.61-2.45,3.07-4.14,6.79-6.75,9.69-1.17,1.3-3.79,1.29-5.76,1.88a54.9,54.9,0,0,1-1.54-6.51c-.1-.79.79-1.78,1.39-2.56,1-1.32,2.16-2.53,3.26-3.79-1.93-.72-3.82-1.92-5.79-2.07-6.19-.48-12.57.83-18.38-2.62-5.46-3.25-10-7.33-10.86-13.87-.3-2.23.48-5.53,2-6.94,7.35-6.64,15.06-12.88,22.78-19.1,6.63-5.33,13.23-10.74,20.22-15.57,9.09-6.29,18.26-12.57,27.94-17.86,8.8-4.8,13.94-12.07,18.23-20.63,4.66-9.29,10.07-18.19,14.79-27.44,4.34-8.51,8.06-17.33,12.41-25.82.82-1.62,3.78-3.67,5-3.25,2.47.85,5.72,2.88,6.28,5A16.62,16.62,0,0,1,212,160c-3.88,8.74-8.59,17.09-12.65,25.75-1.57,3.34-2.29,7.09-3.75,11.82,6.6-3.38,11.91-6.13,17.26-8.83,11.21-5.67,22.49-11.22,33.64-17,3.8-2,7.14-4.85,11-6.76,14.13-7.06,28.51-13.62,42.52-20.9,7.93-4.13,15.28-9.36,23-13.93,6.31-3.75,13.2-6.67,19.07-11,9.84-7.23,19.85-14.45,26.18-25.46,1.84-3.21,1.52-5.85-1.62-6.88C360.91,85,355,83.07,349,82.71c-20.37-1.24-40.69.52-60.87,3.07-16,2-31.93,5.24-47.93,7.6-26.43,3.91-52.13,10.8-77.31,19.42A465.44,465.44,0,0,0,118,131.24,163.88,163.88,0,0,0,70.59,164.8c-10.7,10.74-21.52,21.44-27,35.73C40.86,207.71,41,216,40,223.83c-.41,3.09.07,6.43-.95,9.27-.69,2-3.16,4.32-5,4.49-1.51.14-4.18-2.42-4.81-4.3-2.91-8.7-1.05-17.38,1.23-25.93,3.82-14.38,9-28.33,19.91-38.82,11.12-10.67,20.31-23.48,34.55-30.85,8.13-4.21,15.41-10,23.45-14.45,9-5,18.16-10.3,27.91-13.29,5.81-1.78,11.33-4.34,17.19-5.86,1-.27,2.25.13,3.39.21,1,.07,2.29.58,2.86.13,6.09-4.83,13-6.67,20.7-6.82,2.54,0,5.18-1.47,7.56-2.69,9.68-4.94,20.24-6.24,30.75-8,9.68-1.59,19.23-4,28.92-5.59,10.34-1.64,20.8-2.61,31.19-4,7.81-1,15.59-2.22,23.39-3.32C309.8,73,317.37,71.68,325,71c4.57-.42,9.24.25,13.86.24,5.4,0,10.81-.2,16.21-.34,8.12-.21,15.89,1.41,22.39,6.3,5.78,4.35,6.91,12.8,4,20.54-3,8-8.45,14.11-14.64,19.71-13.36,12.08-29,20.69-44.67,29.17-10,5.41-20,10.91-30.08,16.18-7.87,4.12-15.95,7.84-23.83,12-9.23,4.81-18.31,9.91-27.52,14.76-8,4.23-16.22,8.09-24.16,12.46-10.51,5.78-20.69,12.19-31.31,17.76-7.32,3.83-9.57,11.18-13.6,17.28-4.82,7.32-9.15,15-13.58,22.54a40.21,40.21,0,0,0-2.18,5.37Zm206.89-28.82,1.49.78a11.11,11.11,0,0,0,2.89-1.63c3.25-3.46,6.13-7.3,9.59-10.53,7.4-6.91,15.17-13.44,22.6-20.33,2.72-2.53,4.42-6.4,7.44-8.34,7.18-4.6,11.4-11.55,15-18.59,4.61-8.92,7.4-18.78,11.78-27.85,6-12.43,12.67-24.57,19.36-36.65,1.38-2.49,3.31-5.5,7.56-3.83,4.06,1.61,5.93,4.32,5.13,8.44a49.4,49.4,0,0,1-3.06,9.35c-2.11,5.06-4.49,10-6.76,15l1.29.86c1.54-1.11,3.35-2,4.57-3.38,4.85-5.49,9.42-11.23,14.27-16.72,7.14-8.07,14.41-16,21.65-24,1-1.09,2.11-2.09,3.2-3.09,3.24-3,6.82-5.65,9.7-8.94,7.67-8.78,15.21-17.7,22.48-26.81,7.92-9.93,15.53-20.12,23.15-30.28.77-1,1.35-3.54.9-3.88A6.32,6.32,0,0,0,553.94,26c-5.83,1-11.58,2.45-17.39,3.59a147.45,147.45,0,0,0-47.36,18.44C465.49,62.2,444.53,79.85,427.71,102c-5.4,7.12-11.12,14-15.9,21.58-5.93,9.35-11.23,19.12-16.45,28.9a189.46,189.46,0,0,0-9.91,21.05c-5.6,14.64-10.82,29.44-15.88,44.28C367.36,224.28,365.92,231,364.13,237.63Zm-214,6.3-1.84-.93c-6.94,5-14,9.75-20.77,15-7.58,5.88-14.94,12.06-22.17,18.37a8.28,8.28,0,0,0-2.28,5.49c0,.69,2.86,2.08,4.46,2.13,4.46.14,9.08.33,13.38-.62,3.12-.69,6.82-2.49,8.57-5,6.65-9.41,12.66-19.28,18.77-29.06C149.23,247.74,149.51,245.73,150.12,243.93Z"/></svg>