<svg id="Layer_1" data-name="Layer 1" xmlns="http://www.w3.org/2000/svg" viewBox="0 0 1835.41 280.56"><path d="M1553.54,157.45c12.24,9.84,23.9,19.05,35.37,28.5,11,9.05,21.89,18.19,32.55,27.62,4.36,3.86,7.75,8.8,12,12.84,4.49,4.31,9.55,8,14.18,12.2,8.26,7.45,9.43,12.38,5.48,22.92a50.6,50.6,0,0,1-4.77,10.37c-5.92,8.93-18.47,5.36-23.06-4-3.31-6.73-3.91-13.56-.89-20.56,3.14-7.27,2.93-10-3.11-15.37-9.87-8.81-20.07-17.25-30.22-25.73q-16.17-13.52-32.52-26.82c-2.69-2.19-5.78-3.92-8.4-6.19a30.73,30.73,0,0,1-5.83-6.44c-1.91-3-3.85-4.25-7.37-2.64-4.35,2-8.85,3.62-13.88,5.65,1.16,6.39,2.44,12.84,3.47,19.32,1.18,7.5,1.33,15.27,3.38,22.51,2.92,10.34,3.29,20.76,3.9,31.3.17,3,2.77,5.81,4.08,8.79,2.68,6.08-.56,14.5-6.62,17.48-9.44,4.65-17.72,1.5-21.77-8.36-2.47-6-2.52-12,1.48-17.41a7.39,7.39,0,0,1,3.32-2.6c4.57-1.54,6.67-4.15,5.71-9.24-2.78-14.77-5.15-29.62-8-44.38-1.4-7.25-3.62-14.35-5.3-21.55-.59-2.56-1.46-5.45-.83-7.82,2.68-10.15-1.31-19.68-2.19-29.48-.76-8.55-2.05-17.06-3.09-25.59-1.34-11-2.44-22-4.13-32.9a21.51,21.51,0,0,0-4.11-9.78c-6.74-8.44-2.18-23.46,10.23-27.64,1.7-.57,4,0,5.85.65,8.25,2.89,16.27-.38,24.37-.79,15.2-.78,29.5,2.06,43.59,7.82a116.13,116.13,0,0,1,31,19.18c13.64,11.49,15.47,30.63,7.46,46.21-7.13,13.88-17.77,24.75-29.46,34.22-8.46,6.85-19.18,10.9-28.9,16.19C1555.78,156.34,1555.06,156.68,1553.54,157.45Zm-11-109.14c-4.6.44-8.71.93-12.84,1.22-8.37.57-14.75,4.35-17.28,12.41a37.48,37.48,0,0,0-1.63,15c2.63,22.74,5.76,45.42,8.85,68.1.91,6.69,1.41,6.94,8,4.57,15.6-5.58,30.8-11.82,44.24-22,12.78-9.62,23.17-21.13,30.61-35.21,5.45-10.33,3.71-17.69-5.76-24.49-3.87-2.77-8.33-4.69-12.34-7.29C1571.53,52.36,1557,49.87,1542.56,48.31Z"/><path d="M1345.78,232.57c-.46,9.35.45,9.39,9.58,7,18.88-5,37.6-11.88,57.64-9.27,4.16.54,8.26,3,11.93,5.25,2.18,1.37,3.36,1.89,4.76-.42,3.62-6,9.18-5.73,14.44-3.6,4.87,2,7.79,5.84,8.76,11.63.94,5.6-.67,10.07-3.34,14.46-3,4.87-8,7.63-13,5.6-3.84-1.55-7.22-5.68-9.36-9.47-1.75-3.11-3-4.76-6.64-4.1a6.59,6.59,0,0,1-4.69-.85c-6.58-5.26-14-3-20.64-1.53-18.06,4.05-35.8,9.53-53.81,13.83a87.84,87.84,0,0,1-22.84,2.71c-8.76-.26-13.19-10.4-10.11-19,2.54-7.06,7.82-11.2,13.27-15.44a4.16,4.16,0,0,1,3.23-.85c5.7,2,5.16-1.51,5-5.17-.84-16.84-1.55-33.7-2.38-50.54-.09-1.75-.67-3.48-.91-5.23-.35-2.54-1.5-5.42-.71-7.58,2.8-7.69,1.12-15.29.7-23-.59-11-.72-22.11-1.15-33.16-.31-7.62-.71-15.25-1.27-22.87a6.63,6.63,0,0,0-1.91-3.34c-6.69-7.61-8-16.8-7.42-26.34.34-5.38,6.62-9.06,12.12-9,8.42,0,12.14,5,15,11.86a6,6,0,0,0,4.65,2.94c12.1-.5,24.19-1.29,36.27-2.19,8-.59,15.89-2.13,23.83-2.08,6.22,0,10-2,12.7-7.46,2.32-4.65,5.8-5.48,10.74-4,6.85,2.13,11.18,7.6,15.78,12.36,3.84,4,.33,13.37-5.67,17.6-6.86,4.84-11.5,4.7-18.47-.13a9.64,9.64,0,0,0-5.54-1.83c-11.9.73-23.78,2-35.68,2.61-10.38.54-20.79.8-31.18.59-7.43-.14-11.89,3.55-11.5,11,1.11,21.49,2.43,43,3.41,64.47.19,4.24,2.29,4.59,5.48,4.09q14-2.23,27.94-4.51c.16,0,.31-.12.47-.15,3.18-.52,13.42-4.73,15.37-6.88,5.42-6,19-.14,19.91,6.29.64,4.79,2.8,9.51,2.71,14.24-.11,6-5.68,8.43-10.26,10.79-4.28,2.21-8.32,1.1-11.47-2.74-6-7.3-13.87-4.55-21.23-3.64-7.86,1-15.64,2.55-23.48,3.65-4,.55-5.57,2-5.22,6.42,1.23,15.17,1.92,30.38,2.91,45.57C1344.74,225,1345.34,228.79,1345.78,232.57Z"/><path d="M856.42,33.53c-10.48-.3-19.26,3.75-26.77,10.73a5.67,5.67,0,0,0-1.53,4.2c1.9,15.1,4.11,30.16,6,45.27,1,8.48,1.44,17,2.44,25.54,2.08,17.69,4.59,35.33,6.47,53,1.14,10.68,1.53,21.45,2,32.19.13,2.94.34,5,3.15,7,9.2,6.83,11.48,17.43,6.68,27.75-3.67,7.88-11.28,12.13-17.46,9.73-11.88-4.61-16.32-11.72-13.26-21.67,1.26-4.09,3.38-7.91,4.57-12a43.26,43.26,0,0,0,2.1-11.8c0-9.4-.26-18.83-1.08-28.19-1.27-14.63-3.1-29.22-4.66-43.83-1.79-16.81-3.49-33.62-5.32-50.43-1.05-9.7-2.37-19.37-3.39-29.08-.35-3.32-.95-5.72-4.66-7.22-5.25-2.11-8.39-10.2-6.3-15.59,1.62-4.19,3.37-8.75,6.37-11.91,5.26-5.55,13.75-4.25,18,2.18,2,3,3.53,3.08,6.9,1.82,9.73-3.64,20-4,30.19-2.44a142.57,142.57,0,0,1,25,5.95c11.2,3.91,22.62,7.93,32.79,13.87,8.63,5,17.78,10.59,23.32,19.47,4.27,6.85,3.75,14.59,1,22.06-4.37,11.83-12.17,21.32-21.78,29.11-11,8.91-22.59,17.13-34.06,25.46-2.77,2-3.09,3.27-1.12,6.3,5.83,8.95,10.86,18.43,16.74,27.36,8.64,13.13,17.76,26,26.64,38.93a47.3,47.3,0,0,1,4.47,7.11c2.93,6.55,9.78,8.05,14.86,11.77,7.75,5.67,9.58,13.13,4.52,21.29-3.17,5.13-8.49,7.8-13.27,6.67-6.23-1.48-11.9-7.16-12.37-12.72-.29-3.41.07-6.89-.32-10.29a16.74,16.74,0,0,0-2.14-6.91c-8-12.54-16.31-24.88-24.33-37.4-9.07-14.18-17.89-28.52-27-42.68-.58-.9-2.71-1.43-3.92-1.17-5.34,1.11-10.63,2.46-15.87,3.94-6.49,1.84-15.38-3.87-14.38-11.31.4-3,1.18-4.75,4.44-4.54,12.55.79,23.38-3.87,34.06-9.92,16.64-9.41,31.35-21.06,43.35-35.86,3.66-4.51,5.94-10.18,8.51-15.49,2-4.11,1.18-7.28-2.84-10.57-9-7.35-19.22-12.3-29.84-16.4A132.09,132.09,0,0,0,856.42,33.53Z"/><path d="M1686.22,222.1c.61-3.89,1.25-7.27,1.66-10.68q2.61-21.75,5.11-43.52c.56-4.92,1.22-9.85,1.38-14.8a8,8,0,0,0-2.06-5.11c-5.45-5.78-4.52-10.71,2-14.8,2-1.29,3-5.21,3.38-8.06,1.2-10.47,2-21,2.77-31.5.44-5.77.61-11.56.88-17.34.25-5.14-.12-10.39.86-15.38,1.66-8.51-4-14.54-6.14-21.76-1.22-4.24-1.2-8.92-1.06-13.38,0-.9,3.25-2.64,4.72-2.38,5.5,1,9.75-1.57,13.72-4.42,5.86-4.21,11.61-2.23,17,.19,6.36,2.88,8.26,11.44,4,18.13-2.69,4.24-2.5,6.88.33,11.21a353,353,0,0,1,19.6,33.8c6.29,12.43,11.06,25.64,17.41,38,2.63,5.14,3.92,11.5,10.37,14.58,3.95,1.88,3.6,6.64,3.23,10.75a16.67,16.67,0,0,0,.31,6.62c3.77,11,7.91,21.91,11.73,32.91,3,8.59,5.52,17.34,8.63,25.88.67,1.84,2.94,4.34,4.52,4.38,5,.14,8.52,1.89,10.93,6.25a15.67,15.67,0,0,1,1.64,12.26c-1.32,5.1-2.33,10-6.79,13.58-4.17,3.36-10.78,3.53-14.64-.09-5.41-5.07-6.49-11.84-4.89-18.16,1.31-5.2.08-9.52-1.3-13.9-3-9.6-6.58-19-10-28.48-3.67-10-7.51-20-11.23-30-1.49-4-3.89-5.9-8.54-6-10.26-.18-20.51-1.49-30.76-1.53-7.26,0-14.51,1.46-21.79,1.88-3.46.2-4.12,2.13-4.35,4.8q-2.68,31.33-5.34,62.68c-.55,6.54-1,13.08-1.6,19.61a10.73,10.73,0,0,1-1.4,3.6c-1,2-2.73,3.81-3.18,5.91-1.71,8-9.14,11.89-17.74,8.53-12.35-4.84-13.84-23.2-8.62-31.18C1674.53,219.71,1679.13,218.91,1686.22,222.1Zm76.9-89.75c-1.11-3.08-1.73-5.4-2.75-7.53-5.63-11.69-11-23.5-17.14-34.92-6.22-11.61-13.13-22.86-20-34.1-.75-1.23-3.25-1.91-4.91-1.86-.8,0-2,2.26-2.21,3.62a58.17,58.17,0,0,0-.68,8.35c-.38,10.17-.56,20.35-1.07,30.52-.45,8.88-1.27,17.73-1.86,26.6-.53,8,.65,7.91,8.59,8.45,7.22.49,14.52-.39,21.77-.29C1749.27,131.29,1755.67,131.9,1763.12,132.35Z"/><path d="M120.89,124.17c9.13,3.7,6.82,12.48,9.67,18.83,1.21,2.7,1.46,5.84,2.74,8.49,5.28,10.85,10.56,21.72,16.34,32.32,2.34,4.3,5.86,8,9.11,11.75a5.13,5.13,0,0,0,4,1.17c5.07-.58,13.58,5.81,12.59,10.71a67.93,67.93,0,0,1-6.83,19.24c-3,5.37-8.84,5.79-14.39,2.72-7.36-4.07-11.15-11.59-8.39-21.83,1.81-6.7-.93-10.79-3.65-15.85-7.27-13.52-14.46-27.1-21.06-41-3-6.33-4.72-13.31-6.66-20.11-.79-2.79-1.63-3.36-4.44-2.38-9,3.16-18,6.52-27.22,8.76a33.33,33.33,0,0,1-15.29-.1c-3.21-.79-5.68-4.55-8.86-7.31-.26,2.11-.74,4.41-.81,6.73-.39,12.92-.76,25.84-.92,38.76a12.48,12.48,0,0,0,1.6,6.56c6.23,9.62,3,18.17-2.27,26.79-3,5-6.79,8.66-13,7.94C36,215.57,30.93,211.89,28,205.13c-4.52-10.26,1.77-26,12-29.93a5.68,5.68,0,0,0,3.08-4c.84-30,1.67-60,2-90,.11-9.76-1-19.55-1.9-29.3a5.63,5.63,0,0,0-2.9-3.66C27,42,24.43,31.21,35.46,21c1.77-1.64,3-3.9,4.59-5.72,5.78-6.4,9.85-5.69,15.78.51,2.16,2.27,3.2,2,6,1.49,9.07-1.74,18.36-3.54,27.52-3.36,15.3.31,29.89,5.17,43.92,10.9,10.49,4.3,20.52,9.87,27.45,19.53,7.59,10.56,9.63,21.89,5.35,34.26C162.16,90,154.39,98.58,145.31,106,137.69,112.16,129.57,117.73,120.89,124.17ZM58.38,108.73l-.29,0c0,1.16-.09,2.34,0,3.49.33,3.44-.16,7.42,1.48,10.08.86,1.41,5.54.2,8.4.72,8.37,1.54,16.27-.29,23.82-3.43,9.11-3.79,18.5-7.36,26.76-12.61,11.86-7.55,23.11-16.29,31-28.26,8.59-13.06,7.61-27.44-5.94-35.91A76.66,76.66,0,0,0,133,37.51a129.94,129.94,0,0,0-44.85-10,51.83,51.83,0,0,0-26.89,5.72c-2.41,1.24-4.36,4.44-5.33,7.17s-.92,6.2-.76,9.31C56.14,69.36,57.29,89,58.38,108.73Z"/><path d="M389,57.36c.39,4.19.69,8.39,1.19,12.56q3.8,32.24,7.69,64.45c1.58,13.15,3.11,26.31,4.8,39.45,1,7.54,2.42,15,3.27,22.57.39,3.55,1.47,6.11,4.48,8.32,5.86,4.3,6.08,6.57,2.63,12.93-1.74,3.2-3.09,6.62-5,9.73-2.32,3.85-5.91,7.83-10.31,6.13-4.06-1.55-8.75-5.27-10.13-9.12-2.53-7-2-14.58,4.41-20.49,1.34-1.22,1.91-4.14,1.63-6.11-1.8-12.62-4.49-25.14-5.84-37.81-2.33-21.71-3.75-43.52-5.83-65.26-1.11-11.62-2.47-23.25-4.47-34.75-.5-2.88-3.52-5.72-6.05-7.77-4.66-3.8-5.84-9.19-2.52-14.33,1-1.62,1.62-3.54,2.65-5.16,2-3.17,3.75-6.42,8.48-6.6,5-.19,10.31-.49,12.85,4.11,1.48,2.68.31,6.95-.06,10.46-.16,1.53-1.29,2.95-1.91,4.27.35.55.49,1.05.69,1.08,7.92,1.08,10.26,7.67,13.95,13.33,9.11,14,19.2,27.36,28.06,41.5,8.41,13.45,15.4,27.77,23.66,41.32,9.24,15.17,19.17,29.92,28.88,44.81,2.35,3.59,4.91,7.07,7.57,10.45a33.69,33.69,0,0,0,4,3.85c4.15-2.15,7.72-3.81,11-5.84A5.14,5.14,0,0,0,511,191.9a103.23,103.23,0,0,0-.13-14.29q-1.67-17.55-3.92-35c-2.17-16.59-4.72-33.12-6.92-49.7-1.71-13-3.07-26-4.78-38.94a12.3,12.3,0,0,0-2.52-5.55c-4.68-6.06-3.17-17,2.91-21.49a26.74,26.74,0,0,0,5-5.49c1.91-2.53,3.83-3.09,6.77-1.44,8.78,4.91,12.26,12.82,5.84,21.71-8.83,12.23-5.26,24.67-3.69,36.91,4.15,32.36,9.71,64.54,13.95,96.89,1.16,8.88-.38,18.1-.62,27.16a9.38,9.38,0,0,0,.43,3.87c4.36,10.13-.87,25.68-10.51,31-4.48,2.45-14.33-1.13-16.63-6.59a22.86,22.86,0,0,1-2-10.41c.41-4.59-2.37-7.15-4.75-9.83-13.35-15-24.1-31.74-33.93-49.15-8-14.14-15.9-28.31-24.34-42.17-9.51-15.6-19.48-30.91-29.42-46.24-3.56-5.5-7.6-10.7-11.42-16Z"/><path d="M1092.87,222c8.53-.67,16.75-1.49,25-1.91s16.7-2,24.44,4.2c1.59-2.66,3.2-4.75,4.2-7.1,3-7.06,8.91-9.4,15.06-4.78,4.21,3.17,8.48,7,8.13,13.44-.23,4.35-5.1,13.92-8.79,15.2-5.75,2-10.71.32-14.77-4.12-.88-1-1.71-2-1.72-2-7,0-12.72,0-18.49,0a122.25,122.25,0,0,0-38.58,5.28c-6.55,2.06-13.51,2.8-20.31,4q-14.4,2.61-28.85,5.07a28,28,0,0,1-4.93.33c-3.38,0-6.26.48-8.67,3.48-8.24,10.3-18.71,4.17-23-4-3.59-6.8-6.25-13.87-5.36-21.84q1.06-9.7,10.32-6.29a56.86,56.86,0,0,0,7.93,1.89c5.54,1.17,10.16,3.31,13.18,8.69,1,1.82,4.73,3.36,6.93,3.06,9.2-1.27,18.3-3.23,27.41-5.06,4.22-.84,8.36-2.13,12.6-2.86,3.09-.54,4.24-1.95,4-5-.82-9.92-1.44-19.85-2.23-29.77-1.38-17.12-2.7-34.24-4.27-51.34-1.39-15.16-3.13-30.29-4.62-45.44-1.7-17.25-3.28-34.5-5-53-6.52,0-13.26.23-20-.06-8.44-.37-16.85-1.18-25.28-1.75a33.86,33.86,0,0,0-4.39.06c-2.27.13-4.82,1.1-6.74.37-5-1.9-6.82-6.61-7.83-11.36-1.24-5.86,5.09-14,11.24-13.62a11.83,11.83,0,0,1,8.23,5.22c3.17,5.6,8,4.87,12.79,5,12.42.26,24.84.62,37.25.58,14.4,0,28.79-.41,43.18-.78a7.52,7.52,0,0,0,4.52-1.64c6.29-5.66,10.5-6,17.57-1.06a5,5,0,0,0,2.24.8c5.11.47,9,2.66,10.23,7.89,1.12,4.84-2.15,11.41-6.9,13.82-9.06,4.6-12.87,5.58-20.07-1.59a8.11,8.11,0,0,0-5.26-2c-11,0-22,.49-32.93.3-3.55,0-4.53,1.15-4.33,4.16.56,8.26,1,16.53,1.81,24.75,1.43,13.83,3.4,27.6,4.73,41.44,2.66,27.55,5,55.12,7.55,82.68C1090.85,204.1,1091.89,212.79,1092.87,222Z"/><path d="M1171.49,29.39a6.19,6.19,0,0,1-1.31-1.59,25.36,25.36,0,0,1-.93-3.5,22.51,22.51,0,0,1,3.15-.36c1.65,0,3.33.53,5,.37,10.19-1,16.85,9.69,12.23,19.23-2.9,6-2,11.52-.63,17.26,2.94,12.38,6,24.74,9.24,37.05,3.65,13.85,7.16,27.76,11.45,41.41,6.53,20.8,13.68,41.4,20.54,62.08,1.19,3.6,2,7.32,3.49,10.81.69,1.68,2.26,3.06,3.61,4.39,2.67,2.61,4.24,1.05,4.77-1.74,1.22-6.5,2.45-13,3.18-19.57a425.71,425.71,0,0,1,12.14-65.44c3.64-13.33,6.34-26.95,8.79-40.55,2-11,2.89-22.1,4.37-33.14.5-3.79-.83-6.69-3.45-9.37-4.5-4.58-6.49-10.28-6.72-16.63-.18-5,.72-9.53,5.27-12.59a15.36,15.36,0,0,0,2.55-2.36c6-6.42,14.23-6.24,20,.44,1.4,1.63,2.65,3.51,4.36,4.72,8.46,6,6,22.8-2.48,27.53-3.8,2.11-5,4.72-5.49,8.55-2.58,19.63-4.79,39.33-8.15,58.83-2.14,12.46-6.4,24.54-9,36.94-2.34,11-4,22.25-5.52,33.45-2.08,15.2-2.5,30.69-8.18,45.22a44.22,44.22,0,0,1-3.24,6c-2,3.39-4.36,6.58-6,10.13-2.29,5.12-6.67,7.71-11.45,8.64-5.06,1-9.94-1.27-13-5.64-5.62-7.9-6.12-16.6-2.82-25.52,1.95-5.26,3.35-9.94.93-15.92-5.35-13.29-9.73-27-14.08-40.64-3.46-10.85-6.31-21.89-9.39-32.86-4-14.46-8.2-28.89-12-43.41-2.33-8.93-4.07-18-6.11-27-.66-2.92-1.3-5.26-5.1-6.37-6.86-2-10.41-13-6.66-19.14C1166.69,36,1169,33,1171.49,29.39Z"/><path d="M691.37,113.3c-1.3,24.25-6,43.86-15.85,62.49-8.29,15.69-18.94,29.17-32.95,39.67-10.07,7.55-20.65,15-34.4,14.82-1.43,0-3.42,2.49-4.26,4.24-2.67,5.62-6.57,9.86-12.45,11.9-4.25,1.47-11.62-1.46-14.45-5.29-4-5.41-3.23-16.08,2-20.37,5.75-4.74,3.36-10.87,2.77-16.18-1.91-17.41-5.19-34.67-7-52.1-3-30-5.49-60.1-7.82-90.19-.42-5.39-3-8.76-6.8-11.74-8.26-6.48-6.11-21.54,1-26.83,1.95-1.45,5.86-1.52,8.33-.66,3,1,5.27,3.87,8.05,5.64,1.81,1.16,4,2.58,6,2.56A103.28,103.28,0,0,1,630,41.86c9.65,4.65,20,8.17,28.84,14.06,13.72,9.15,25.94,20.2,29,37.84C689.18,101.37,690.59,109,691.37,113.3ZM679,110.14c0-19.34-8.53-33.76-25.53-42.8C642.81,61.69,632.11,55.75,620.77,52c-10.73-3.58-22.27-5-33.58-6.43-6.4-.78-9.11,2.78-8.62,9.18.53,6.76,1.54,13.49,2,20.26,1.19,16,2,32.08,3.39,48.07,1.23,13.87,3.07,27.68,4.77,41.5.88,7.05,2.1,14.07,3.07,21.12,1.27,9.12,2.39,18.27,3.73,27.38a3.09,3.09,0,0,0,2.13,2.07c3.59,0,7.3.12,10.75-.69,11-2.58,20.35-8.58,28.72-15.9,12.59-11,22.18-24.27,29.56-39.34C674.37,143.61,679.16,127.54,679,110.14Z"/><path d="M220,201c8.54-.2,9.65-1.57,13.06-12,7.15-21.82,14.67-43.52,21.94-65.31,6-17.92,12-35.84,17.57-53.89.72-2.35-.23-5.91-1.65-8.11-4.39-6.79-3.74-16.07,2.33-21.57,4.15-3.77,14.09.06,16.37,4.73,1.36,2.8.84,6.54,1.12,9.85.47,5.51.15,11.22,1.51,16.5,3.18,12.31,7.23,24.4,10.8,36.61,4.16,14.2,7.76,28.58,12.37,42.62,5.65,17.19,12,34.15,18.33,51.1a10.47,10.47,0,0,0,5,5.22c6.39,3,8.11,6.86,5.67,13.28-5.89,15.45-16.51,11.23-24,3.68-3.26-3.3-3.12-12.1-.55-16.49a7.83,7.83,0,0,0,.91-5.7Q312.69,178.14,304,155c-.45-1.19-3.1-2.62-4.25-2.3a148.5,148.5,0,0,1-38.27,5.85c-1.54,0-3.93,1.93-4.43,3.46-5,15.18-9.4,30.56-14.5,45.7a127.28,127.28,0,0,1-8.72,19.45c-3.1,5.77-9.4,8.26-14.12,6.5-8.95-3.35-12.63-8.74-11.42-16.64a48,48,0,0,0,.45-4.94C209.09,204.82,212.8,201.17,220,201ZM284.86,86.46l-1.51-.26c-1,2.35-2,4.66-2.86,7-1.59,4.5-3,9.06-4.58,13.58-3.61,10.6-7.11,21.24-10.92,31.77-1.63,4.51.07,5.25,4.05,4.76,8.28-1,16.57-1.83,24.86-2.74,5.12-.56,6.2-2.25,4.73-7.31-1.57-5.37-3.05-10.76-4.63-16.12C291,106.93,287.91,96.7,284.86,86.46Z"/></svg>