<svg id="Layer_1" data-name="Layer 1" xmlns="http://www.w3.org/2000/svg" viewBox="0 0 1075.28 320.24"><path d="M623,143.71c6.84-5.53,12.47-10.12,18.15-14.66,8.95-7.16,18.6-13.62,26.74-21.6,12.2-12,25.35-23.27,33.88-38.52,2.88-5.16,6.43-10.08,8.4-15.57,2.86-8-.09-11.82-7.94-15.13-9.8-4.12-19.85-3-29.91-2.85-20.29.28-40.19,3.77-59.56,9.36-22.64,6.53-43.72,16.47-60.52,33.74-2,2-3.69,4.28-5.81,6.1-3.38,2.9-8.89,2.74-11.25,0-2.07-2.43-1.32-8.32,1.77-10.87,10.29-8.48,20.17-17.59,31.23-24.94,8-5.3,17.37-8.84,26.54-12A328.93,328.93,0,0,1,630.12,27c8.38-1.85,17-2.54,25.63-3.23,9.9-.8,19.84-1.4,29.76-1.38,9.25,0,18.4,1.05,26.85,5.72,8.19,4.52,11.47,11.41,11.38,20.33a34.69,34.69,0,0,1-7.69,22.05A101.05,101.05,0,0,0,709.84,80c-12.46,19.64-28.94,35.29-47.51,49.14-11.11,8.3-21.33,17.79-31.79,26.93a48.09,48.09,0,0,0-6.75,7.87c-2.82,3.84-1.29,9.41,3.89,12.14,7.41,3.9,14.92,7.91,22.82,10.58,17.56,5.93,35.5,10.72,53.07,16.63,14.5,4.88,29.26,9.49,40.26,21.3,6,6.4,8.7,18.24,4.38,25.67-1.25,2.15-4.59,3.07-7,4.55-1.2-1.93-3.18-3.76-3.47-5.83-1.64-11.73-9.7-18.32-19.21-22.91-8.13-3.93-17.11-6.11-25.69-9.12s-17-6.08-25.51-9c-9.18-3.18-18.42-6.22-27.61-9.38-3.86-1.32-7.61-3-11.51-4.18-3-.91-4.8-.27-4.81,3.79-.07,23-3.47,45.56-8.56,67.89a17.7,17.7,0,0,1-5.24,8.65c-1.54,1.38-5.21,1.66-7.27.82-1.66-.67-2.65-3.65-3.37-5.8-1.54-4.61,1.53-8.4,2.48-12.58a235.48,235.48,0,0,0,5.13-32.3c1.09-13,1.19-26.18,1.33-39.28,0-3.09-1.6-6.17-2.23-9.31-.73-3.62-2.76-8-1.48-10.83,4.3-9.5,1.62-18.92,1.37-28.4-.43-16.2-.71-32.4-.94-48.61a88.84,88.84,0,0,1,.68-8.9c.57-6.37,3.76-10.17,8.16-9.76,4.23.4,7.61,7.12,7.41,12.41-.58,14.87-.66,29.75-.85,44.63a50.26,50.26,0,0,0,.58,8.93C621,138.19,622.05,140.55,623,143.71Z"/><path d="M66.23,262.7c0,3.49,0,7,0,10.47,0,5-4.27,9.65-8.72,9.43-3.82-.2-6.94-4.51-6.37-9.72,1.76-16.32,3.63-32.62,5.76-48.89.64-4.93.57-8.92-4-12.24a24.17,24.17,0,0,1-6.17-7.64c-3.21-5.66-2.11-10.24,2.89-14.3a16.83,16.83,0,0,1,3.17-2.34c10.32-4.84,10.8-14.09,11.34-23.73,1.1-19.68,2.78-39.32,4-59,.11-1.77-1.36-3.65-2.1-5.47-1.6,1.17-3.57,2-4.73,3.56-3,3.93-7.16,5.17-10.57,2.72s-3.54-7-.3-10.94c10-12.24,23-19.75,37.54-25.77,8.66-3.59,17.1-7.05,26.43-7.91,15.79-1.45,31.46-1,44.6,9.14a58,58,0,0,1,14.38,16.61c2.2,3.79,2.32,9.77,1.27,14.28-3.15,13.62-12.16,23.54-22.95,31.9-9,7-18.07,14-27.35,20.64-11,7.86-22.24,15.35-33.38,23-4.1,2.82-8.3,5.49-12.29,8.45-3.72,2.76-6.64,13.73-4.44,17.88.91,1.72,3.35,3.17,5.36,3.69,13.13,3.44,26.53,6,39.47,10,14.64,4.56,28.94,10.28,43.3,15.71a65.58,65.58,0,0,1,12.86,6.31,12.78,12.78,0,0,1,5.16,6.89c.56,2.29-.43,6.63-2,7.38-2.81,1.34-7.27,1.95-9.84.6-16.15-8.49-33.13-14.89-50.44-20.34-12.38-3.91-25.09-6.87-37.74-9.88-9.47-2.24-9.68-2-11,7.9-1.37,10.5-2.45,21.05-3.65,31.58ZM123.85,73.34c-6.65,1.17-13.42,1.9-19.91,3.66-5.5,1.49-10.6,4.4-16,6.23-4.61,1.56-6.29,4.22-6.38,9.13-.32,17.52-1,35-1.79,52.54-.26,5.79-1.35,11.53-1.73,17.31-.12,1.8.86,3.68,1.34,5.52a31.57,31.57,0,0,0,5.26-2c2.86-1.67,5.53-3.65,8.29-5.5,7.1-4.78,14.34-9.38,21.29-14.38,5.46-3.94,10.41-8.58,15.86-12.53,11.57-8.37,22.57-17.16,29.35-30.19,2.79-5.35,2.23-11.06-2.08-15.41C148.14,78.45,136.91,74.2,123.85,73.34Z"/><path d="M464,179.17c-1.66,4.17-3.61,8.26-4.92,12.54-3,9.8-6.77,19.39-14.69,26.08-10.39,8.77-22,15-36.29,9.22-6.49-2.64-11.07-7.57-12.26-14.44-3.45-19.93-1.26-39.14,10.67-56a39.24,39.24,0,0,1,14.35-11.83c10.56-5.21,18.54-2.76,26.85,6.63,1.14,1.3,1.71,3.11,2.54,4.69l2.32-1.36c1-7.28,2.28-14.53,3-21.84,1.28-13.19,2.18-26.42,3.34-39.62.58-6.59,1.4-13.17,2.09-19.76.48-4.59,3.42-7.21,7.52-8.24,3.95-1,6.69,1.92,7.58,5,2.09,7.23,4.52,14.67,4.72,22.09.76,28.85.56,57.73,1,86.6.23,15.08,1.12,30.14,1.59,45.21.15,4.7.45,9.5-.3,14.1-.65,4-3.79,6.06-8.15,5.53-4.55-.55-7.44-2.81-7.56-7.63-.31-13.09-.49-26.19-.8-39.29-.13-5.81-.43-11.61-.65-17.41Zm-56.33,13.66,1.19.4c.34,4.12.42,8.28,1.08,12.35,1.38,8.47,8.41,11.47,16,7.55a29.53,29.53,0,0,0,11.68-11c7.8-12.49,14.69-24.84,4.49-39.62-4.31-6.24-9.15-9.91-15.29-7-4.45,2.11-9.46,5.85-11.27,10.11C411.83,174.2,410.15,183.69,407.65,192.83Z"/><path d="M905.35,127.89c-11.56,4.48-21.94,8.44-32.27,12.53a88.91,88.91,0,0,0-11.66,5.32,6.7,6.7,0,0,0-2.81,4.71,80.56,80.56,0,0,0,4.44,33.17c4.08,11,18.8,13.44,27.58,4.79,1-.93,1.62-2.33,2.73-2.86,1.79-.86,4.41-2.16,5.64-1.46a7.07,7.07,0,0,1,2.83,5.52c-.57,10.92-8.31,18.08-20.17,19.59-12.59,1.6-23.27-2.07-30-12.82-3.58-5.7-5.13-12.81-6.88-19.47-4.5-17.13-2.31-34.43,1.49-51.14,2.29-10.09,5.18-21.18,14.79-27.85,11.74-8.15,19.29-8.66,28.35,2.43,4,4.85,8.44,9.27,12.29,14.2,1.86,2.39,2.81,5.49,4.22,8.37,2.53-.84,4.84-1.75,7.22-2.34,1.22-.3,3.29-.55,3.75.08,3.27,4.46,5.17,1.28,7.17-1.09,7.35-8.75,16.44-15.27,27.35-18.28,4.92-1.36,10.74-.51,15.94.47,4.32.81,5.65,4.81,5,9-.63,3.83-3.47,4.89-7,4.79a9.64,9.64,0,0,1-1.49.12c-7.77-1.59-14,1.18-19.8,6.27-5.53,4.87-9.95,10-12.67,17.24-4.44,11.71-3.66,23.36-2.25,35.26q1.3,11,2.08,22.1c.31,4.37-3.6,8.66-7.58,8.86-5.6.28-9.54-2.83-10-7.89-2-19.77-3.87-39.54-6-59.3C907.25,134.73,906.12,131.33,905.35,127.89Zm-44.43,1.2c5.76-2,10.65-3.69,15.52-5.42a5.09,5.09,0,0,0,2.14-1.18c1.93-2.28,8-.86,6.22-6.2-1.09-3.3-3.4-6.21-5.3-9.22-.39-.61-1.51-.71-2.08-1.27-2.91-2.81-5.72-2.06-8.24.37C863,112.13,860.64,119.53,860.92,129.09Z"/><path d="M1023.51,141.42c0-1.21.31-2.52,0-3.61-2.81-8.59-5.38-17.3-8.87-25.61a11.62,11.62,0,0,0-7.35-6c-4-.79-7.63,1.33-8.7,6.16a8.79,8.79,0,0,1-2.4,4.28c-1.86,1.77-4.7,4.74-6.09,4.25a9.73,9.73,0,0,1-5.39-6.17c-1.82-8.38,6-19.69,13.77-23.12,12.39-5.42,25.17,3,30.63,12.66,7.82,13.78,10.72,28.57,12.52,43.92,1,8.77,2.84,17.45,4.11,26.2a25.34,25.34,0,0,1,0,7.43c-.64,4.05-1.62,8-2.64,12-1.25,4.84-5,6.45-9.51,7.31a23.59,23.59,0,0,0-7.75,2.9c-11.33,6.88-23.61,9.51-36.57,7.42-14.48-2.33-25.23-12.57-20.56-31.34a71.79,71.79,0,0,1,26.09-39.91c3.54-2.77,8.26-4.17,12.6-5.74s8.11.25,11.32,3.23c1.31,1.22,2.42,2.66,3.62,4Zm-24,56.12c6.29-2,12.72-3.67,18.84-6.12,5.36-2.14,6.55-6.19,4.7-11.75-2.64-7.89-5.12-15.84-7.63-23.77-3.27-10.37-10-12.12-18.25-5-10.19,8.73-13.65,19.91-12.78,32.86C985,193.45,989.41,197.3,999.5,197.54Z"/><path d="M244.74,196.57c-3.26,7.19-5.87,12.85-8.4,18.54A50.38,50.38,0,0,1,215.87,238c-10.72,6.48-22.91,1.39-28-10.41-4.83-11.28-4.28-23.05-3.2-34.73a186.63,186.63,0,0,1,4.64-27.38c2.26-9.18,8.16-16,15.59-22.11,8.25-6.74,17.16-6.46,25.76-3.41,5.09,1.81,9.11,6.91,13.32,10.84a51.23,51.23,0,0,1,7.38,8.65c2,2.95,4.17,6.18,4.88,9.57,2.4,11.61,4.18,23.34,6.23,35,2,11.38,3.95,22.77,6.08,34.12.92,4.94-1.36,8.59-6.56,9.78-4.83,1.1-8.22-1.13-9.08-6.45-2.06-12.72-3.88-25.49-5.91-38.22C246.74,201.41,245.82,199.65,244.74,196.57Zm-46,5.45-1.31.25c1.39,6.53,2.21,13.26,4.34,19.55,2,5.93,6.44,6.53,11.23,2.4a18.52,18.52,0,0,0,2.75-2.85A114.17,114.17,0,0,0,237.3,171c1.29-7.49-5.82-17.92-13.29-19.82S208.4,154,204.76,163.1C199.79,175.54,198.32,188.67,198.7,202Z"/><path d="M308,170.45c2-3.75,3.8-7.57,5.92-11.23,5.08-8.76,10.84-17.13,19.86-22.2,7.8-4.38,13.38-2.18,18.63,5.09,5.89,8.14,7.59,17.63,9.2,27C365.17,190,368,211,371.09,231.92a42.49,42.49,0,0,1,.5,6.94c-.08,5.08-2.26,7-7.8,7.25-5,.2-7.5-1.83-8.09-6.53-2.62-20.85-5-41.73-8-62.52-1.14-7.8-3.74-15.41-5.94-23-1-3.54-4.53-4.27-6.8-1.11-4.67,6.5-9.71,13-12.9,20.26-9.54,21.71-12.23,44.83-12.24,68.37,0,3.35.39,7.75-4.43,8.57-6.11,1-11.37-2.26-11.74-7.7a139.7,139.7,0,0,1,.38-18.29c1.29-19.84-1.75-39.39-3.76-59-.56-5.5-2.18-11.2,3.94-15.2,2.49-1.62,4.19-2.18,6.41.14,2.8,2.93,5.09,5.72,4.37,10.36-.46,3,.55,6.17.9,9.27Z"/><path d="M811.49,182.71c1-7.14,2.28-14.26,3-21.43,1.32-12.34,2.38-24.71,3.44-37.07.39-4.61.08-9.3.8-13.85a8.15,8.15,0,0,1,8.47-7c2.37,0,5.79,2.38,6.77,4.56,1.22,2.74.72,6.41.45,9.63-1,12.21-2,24.45-3.54,36.6-1.93,15.25-4.13,30.48-6.81,45.61-.84,4.76-3.09,9.47-5.57,13.7-3.82,6.52-12.3,5.79-16.53-1.34a56.13,56.13,0,0,1-5.24-11.74c-4.06-12.92-7.81-25.94-11.67-38.92-2.68-9-5-18.09-8.14-26.92-2.09-6,4.61-13,9.34-10.79a13.31,13.31,0,0,1,6.54,7.12c5,15.76,9.39,31.73,14.1,47.59.48,1.63,1.68,3.05,2.54,4.56Z"/><path d="M773.31,186.31c0,12.19,0,24.61,0,37,0,2.79.23,5.89-.86,8.3s-3.39,5-5.75,5.85a6.1,6.1,0,0,1-7.9-4.28A51.83,51.83,0,0,1,757,221.09c-.55-12.41-.16-24.89-1.38-37.22-1.46-14.93-4.28-29.73-6.29-44.61-.42-3.11-.88-6.95.55-9.35,1.27-2.15,5.36-4.12,7.77-3.7s5.37,3.59,6.15,6.15a170.48,170.48,0,0,1,4.61,21.31C770.24,164.41,771.67,175.21,773.31,186.31Z"/></svg>