<svg id="Layer_1" data-name="Layer 1" xmlns="http://www.w3.org/2000/svg" viewBox="0 0 940.6 254.12"><defs><style>.cls-1{fill:#fff;}</style></defs><path class="cls-1" d="M309.51,80.85a41,41,0,0,0,22.33-19.17c4.26-7.57,9.6-15.07,18-18.87,3.47-1.56,7.62-2.77,11.31-2.44,6.52.6,12.93,2.43,19.35,3.9a5.91,5.91,0,0,1,3.3,2c4,5.84,9.43,8,16.46,7.7,1.83-.09,4.38,1.89,5.57,3.62C410,63.55,413.59,69.8,417.37,76c.86,1.41,1.46,3,2.42,4.32A9.16,9.16,0,0,1,421.42,89c-1.2,4.21-.29,9.09-1.76,13.15-3.73,10.26-10.73,17.41-21.89,19.87-2.15.47-4.12,2-6,3.17-5.9,3.7-11.78,7.42-17.56,11.3-1.21.82-2,2.34-2.93,3.53,1.15.87,2.18,2.22,3.46,2.54,15.74,4,31.47,8.08,47.31,11.65,8.06,1.81,16.34,2.65,24.53,3.9,3.35.52,13.08,10,13.38,13.08a.73.73,0,0,1,0,.47c-2.39,3.43-4.18,7.63-7.32,10.12-10.31,8.18-21.25,3.07-31.93.42-7.39-1.83-14.72-3.89-22.07-5.88-1.41-.39-3.77-.66-4-1.46-1.56-5.6-6.48-4.86-10.39-5.81-5.18-1.26-10.59-1.72-15.59-3.42s-9.89-4.43-14.63-7c-.91-.51-.84-2.63-1.43-3.91-.78-1.69-1.77-3.29-2.67-4.93l-1.85.63c1,8.6,1.94,17.2,3,25.79.48,3.94,1.41,7.45-3.63,9.88s-10.27,1.9-12.74-3.2c-4.88-10.07-11-19.07-19.46-26.57-5.59-5-4.95-11.79-4.16-18.44.17-1.45.86-3,.5-4.32-2.67-9.35-.1-18.33,1.94-27.26S315.29,89,309.51,80.85Zm35.77,37.73a13.19,13.19,0,0,0,0,2c.23,1.53.54,3,.82,4.55a29.78,29.78,0,0,0,4.66-1.91,45.58,45.58,0,0,0,5.5-4.09c5.21-4.32,10.09-9.08,15.59-13,8.73-6.2,15.27-14,19-24,1.39-3.7,2.12-8-1.76-11.51-3.06-2.81-6.3-6.23-10.3-4.54-4.71,2-9.55,5-12.78,8.86-4.94,5.92-8.5,13-12.75,19.49C348.46,101.82,346.35,110,345.28,118.58Z"/><path class="cls-1" d="M92.22,102.71l-1.35.18c-1.67-2.34-2.73-4.86-4.62-6.24-4.9-3.55-5.39-8.19-4.77-13.61A80.08,80.08,0,0,0,82,69.29a15.16,15.16,0,0,1,7.35-14c5.39-3.39,10.29-7.57,15.42-11.38.75-.56,1.68-1.49,2.4-1.38,13,2,25.89,4.8,39,6,10.39,1,17,7,23.63,13.62,3,2.94,1.77,7.33-2.14,8.84-1.19.45-1.86,2.24-3.09,3.83-19.88-9.2-38-1.81-57.33,7,2.6,2,4.26,3.53,6.09,4.76,5.78,3.86,12.6,6.69,17.26,11.59,14.14,14.87,31.5,27.32,40.1,46.67,7.74,17.43,11.2,35.8,4.91,54.73-4.28,12.87-15.4,15.16-26.61,13.64-10.64-1.44-20.44-6.6-28.65-13.95-7.51-6.73-15.07-13.44-22.22-20.53a117.63,117.63,0,0,1-11.26-13.68c-.89-1.2-.53-3.35-.73-5.06-.08-.76.2-1.85-.21-2.24-6.31-6.07-7.68-14.75-11.77-22-1.82-3.21-.49-4.82,2.25-6,5-2.27,8.81-.43,12.41,3.81,6.75,8,14.12,15.39,21.36,22.93,2.16,2.25,4.76,4.09,7.13,6.16,8.78,7.66,18.73,13,30.37,14.55,6,.77,8.49-2,8.85-7.89.67-11.31-5.32-19.75-12.57-27.11-11.69-11.88-25.35-21.32-39.92-29.43a83.42,83.42,0,0,1-8.8-5.54C94.13,106.5,93.62,104.92,92.22,102.71Z"/><path class="cls-1" d="M487.48,67.06c10.43.63,21.73,1.21,33,2,6.34.47,8.7,5.82,11.71,10.28,1.44,2.13,2.65,4.52,4.47,6.26,5.74,5.47,12.71,10,17.32,16.2A76.13,76.13,0,0,1,564.77,124c4.59,14.56,3.2,29.43-2.69,43.31-2.23,5.28-7.18,10-12,13.47-12.79,9-27.38,10.36-42.44,7.25-4.68-1-11.57-1.16-13.32-4.14-3-5.06-10.26-4.22-11.54-10.64-1.1-5.51-3.46-10.75-5-16.19-5.44-19.58-6.52-39.27-.81-59,1.57-5.4,3.58-10.67,5.4-16C483.94,77.42,485.51,72.83,487.48,67.06Zm33.76,26.06c-1.66,4.5-4,4-7,2.06-1.05-.67-4-.25-4.65.68-4.51,6.2-9.83,12.2-12.62,19.17-4.67,11.64-6.53,24.08-2.75,36.57.57,1.89,2.28,4.41,3.92,4.84,8.1,2.07,15.83.08,22.51-4.53s11.67-10.3,10.19-19.33a22.57,22.57,0,0,1,.19-4.48C531.51,115.76,530,104,521.24,93.12Z"/><path class="cls-1" d="M273.37,83.16c-2.08.25-4,0-4.39.61-2,3.46-4.5,3.15-7.7,2-.92-.33-2.74.81-3.65,1.75s-.95,2.45-1.54,3.64c-1.85,3.69-3.42,3.84-6.31.71-.11-.13-.2-.27-.31-.4-6.59-7.54-6.45-7.4-14,0-9.22,9.05-13.67,20.21-15.19,32.72a102.88,102.88,0,0,0,4.14,43.33c4.12,13.19,6.49,11.34,17.57,7.11,5.86-2.23,10.31-8,15.58-11.92a65.55,65.55,0,0,1,9.6-5.84c2.49-1.26,5.31-1.86,7.93-2.9,3.22-1.27,6.49-4.28,9.23.66,8.64-.39,7.62,8.89,12.3,12.6,1.14.9-.13,4.7-.11,7.17,0,8.18-3.7,14.13-9.9,19.34-18.29,15.39-38.93,16.1-60.41,9.7A19,19,0,0,1,214,191.19c-1.8-5.1-5.05-9.69-6.87-14.78-2.89-8.1-6.29-16.29-7.38-24.7a327.91,327.91,0,0,1-2.61-42.14c0-13.77,4.28-26.74,11-38.87,1.49-2.7,2.35-5.75,3.72-9.17,1,0,2.62.21,4.2.19,3.53,0,7.06-.33,10.59-.26,6.61.13,13.22.7,19.83.58,5.06-.09,9.68.93,13.49,4.1a160.23,160.23,0,0,1,13,12.25C273.75,79.28,273.24,81.47,273.37,83.16Z"/><path class="cls-1" d="M756.63,74.6H780.4C782.54,77,784.32,79,786.24,81c2.46,2.48,3.9,5,3.09,8.82-2.6,12.42-5.05,24.87-7.12,37.38-1.44,8.65-2.39,17.4-3.07,26.14-.27,3.58,2.35,6.06,6,5.84A186,186,0,0,0,805.83,157c16.45-2.85,32.81-6.23,49.26-9.12,5.38-.94,10.92-.87,16.35-1.53,4.16-.5,8.27-1.41,13.6-2.36a52.74,52.74,0,0,1-2.89,5.74c-2.34,3.43-4.22,6.68-1.75,11,.52.91-.8,4.21-1.61,4.34-6.67,1.09-8.47,7.4-12.69,11-7.35,6.29-14.19,13.38-24.11,16.12-11.56,3.2-23.09,6.44-35.19,6-10.67-.41-21.41-1.79-30.47-7.78-8.38-5.56-15.1-13.07-16.4-23.69a268.15,268.15,0,0,1-2.22-27.56c-.19-10.57.47-21.17,1-31.75.11-2.44,1.13-4.83,1.53-7.27,1-6.42,1.87-12.79-1.8-18.85C757.4,79.68,757.35,77.46,756.63,74.6Z"/><path class="cls-1" d="M593.11,73c7.24-.52,13.95-1.15,20.68-1.39,1.49,0,3,1.23,4.53,2,.25.12.29.64.54.82,10.55,7.65,6.45,18.71,6.35,28.62-.18,18.57-1,37.14-1.54,55.71-.14,4.74,2.18,5.39,6.63,5.2,15.77-.64,30-7.21,44.88-11,6.61-1.66,13.69-1.51,20.56-2.12q14.94-1.34,29.87-2.55c.43,0,.88.3,1.67.6-3.06,5.93-9,5.39-14.21,6.34,2.09,4.94,2.37,8.92-3,11.29a3,3,0,0,0-1.39,2c-.82,5.52-4.78,8.5-8.54,12.1-7.29,7-16.08,11-25.28,14-12.57,4.11-25.33,8.25-38.93,6.51-10.32-1.32-20.23-3.61-24-15.17-2.81-8.5-5.38-17.09-8-25.67-4.68-15.64-5.36-31.6-4.25-47.81A125.39,125.39,0,0,0,599,88C598.41,83.22,595.46,78.71,593.11,73Z"/></svg>