<svg id="Layer_1" data-name="Layer 1" xmlns="http://www.w3.org/2000/svg" viewBox="0 0 1381.22 320.77"><path d="M313.31,81c3.19-11.84,13.82-5.93,20.18-10.28,4.08-2.79,9.27-3.93,13.92-5.9,12-5.11,26,.31,27.76,16,2.47,21.62,1.55,43.13,2.16,64.68.34,12.27-.27,24.56.1,36.82.22,7.31,1.44,14.59,2.4,21.86a4.11,4.11,0,0,0,2.09,2.75c4.56,2,6.18,5.29,5.13,10.1a35,35,0,0,0-.31,4.36c-1,12,6.26,20,18,18.45,8.57-1.16,16.94-4,25.31-6.4,4.36-1.25,5.33-3.94,3.12-8.38-2-4.08-3.11-8.69-4.23-13.16-.81-3.23,2.69-7.51,6.32-7.46,3.4.05,6.73-.2,7.65,5.34,1.7,10.34,4.78,20.47,7.42,30.65,1,3.81,3.38,5.35,7.67,5.1,14.46-.83,27.13-5,36.48-16.87,2.87-3.65,2.63-6.56-.41-9.55-5.77-5.71-11.66-11.3-17.43-17a22.78,22.78,0,0,1-3.72-4.7c-3.51-6.14-9.15-8.21-15.74-8.58-2.18-.13-4.37,0-6.55-.19-4.09-.32-7.52-1.93-8.45-6.28-1.2-5.63.78-9.59,5.6-11.55a73.4,73.4,0,0,1,9.8-3.22c16.61-4.14,29.12-13.92,36.7-29S499.37,108.25,491,94c-2.66-4.54-6.28-8.52-9.56-12.68C474.8,72.9,465,72.52,455.7,72.42a119.22,119.22,0,0,0-27.25,2.7c-7.67,1.73-14.8,5.82-22.26,8.6a73.74,73.74,0,0,1-13.47,4c-4.77.79-7.18-2.73-4.89-7,1.37-2.58,3.5-5.31,6-6.64,5.65-3,11.71-5.3,17.67-7.73,2.33-1,4.94-1.28,7.24-2.29,21.26-9.31,42.87-9.44,64.09-.87,6.12,2.47,10.82,8.71,15.88,13.53,8.61,8.19,9.45,19.89,13,30.3,7.14,21.06-1.31,38.39-14.74,53.69-6,6.8-13.74,12-20.74,18l30.4,30.07c3.42-9.87,6.47-18.91,9.67-27.89,1.94-5.47,4.33-10.78,6.11-16.29,3.18-9.79,6-19.69,9.05-29.53,2.49-8.09,5.23-16.12,7.52-24.27,2.49-8.86,4.58-17.84,6.83-26.76.31-1.23.22-2.81,1-3.61,1.3-1.38,3.13-3.16,4.7-3.12,1.36,0,2.86,2.23,3.92,3.73.66.92.62,2.34.89,3.51,7.11-2.57,14-4.95,20.82-7.53A28.13,28.13,0,0,1,612.77,92c5.51,12.4,11.76,24.52,16.61,37.17a287.15,287.15,0,0,1,10.54,34.73c3.18,13,5.75,26.18,7.7,39.42.88,6-.39,12.24-.66,18.38-.14,3.22.51,6.69-.52,9.58s-3.2,6-5.73,7.16-6.32.61-8.09-3.42c-.3-.7-4.87-.61-6.45.53a65.84,65.84,0,0,1-27.88,11.34c-7.48,1.28-13.91.44-18.9-6-.48-.61-3.14-.46-3.95.26-8.93,7.93-18.32,14.58-30.88,15.34-6.28.38-12.52,2.46-18.75,2.35-5.4-.09-10.93-1.69-16.09-3.53-3.73-1.33-8.18-3.13-6.2-9.71-7.3,3.34-13.24,6.67-19.57,8.83-12.27,4.21-25,6.7-37.74,2.74-3.57-1.11-6-5.77-9.3-9.1-8.28,2.22-17.27,5.08-26.47,6.92-4.75,1-10.32,1.39-14.7-.2a52.21,52.21,0,0,1-16.91-10.24c-3.29-3-4.46-8.31-7.23-13.89-3.31,2-7.08,4.52-11.1,6.55a36.13,36.13,0,0,1-7.85,2.43c-4.16,1-8.56,1.33-12.5,2.85-4.66,1.79-6.87-1.56-9.08-3.85-5.5-5.66-10.45-11.86-15.69-17.92-4.06,3.3-6.21,5.12-8.42,6.86-8.88,6.94-19.44,8.64-30.1,11.31-10.2,2.55-18.29-.35-27-3.35-1-.34-2.48-.87-2.74-1.64-2.41-7.31-6.2-2.95-10.1-1.63-11,3.74-21.91,7.74-33.16,10.31-10.32,2.35-27.5-10.28-28.56-20.9-.58-5.68,1.17-11.74,2.74-17.4.37-1.36,4.33-2.68,6.35-2.34,1.69.28,3.83,2.84,4.23,4.72.65,3.12.29,6.52-.06,9.75-.59,5.46,1.22,8.37,6.71,10.66,11.62,4.85,21.28-1,31.5-4.17,1.69-.53,3.14-1.79,4.81-2.46,13.13-5.32,10.87-17.43,7.08-25.39-1.55-3.26-2-7.06-2.79-10.65-.6-2.77-.68-5.68-1.45-8.39-1.08-3.84-.38-6.78,3.2-8.81s6.1-.41,7.78,2.51a25.54,25.54,0,0,1,2.68,7.53c1,4.77.56,10.07,2.51,14.33,4.64,10.11,3.32,20.12,1.34,30.59,14.17,6.28,27.44,3.21,40.37-3.72.63-.34,1.11-1,1.76-1.28,12-4.5,11.31-14.84,10.92-24.66-.37-9.55-2.1-19.06-2.22-28.6-.1-7.91,1.22-15.83,2-23.74,1.79-18.45-.43-36.52-4.78-54.43a17.8,17.8,0,0,0-22-13.27,36.71,36.71,0,0,0-9.42,3.8c-4.67,2.71-6.93,6.49-6.59,12.54.52,9-2.1,17.57-6.66,25.48-2.48,4.29-5.61,6-11.28,3.34,1.08-7.45,2.37-15.1,3.25-22.8a95.75,95.75,0,0,0,.51-14.07,4.33,4.33,0,0,0-3-3c-6.85-.25-13.82-.78-20.53.25-3.47.53-6.4.57-7-2.37-.72-3.25-.65-8.35,3.77-9,7.76-1.2,15.86-2.24,23.54-1.23,7.53,1,14.05,2,21.36-2,12.26-6.66,25.11-4.56,37.16,1.38,4.59,2.27,7.2,6.88,8.12,12.17C311.36,78,312.13,78.81,313.31,81Zm195,158.19c5.28,1.79,11.15,4.5,17.32,5.71,11.08,2.17,20.24-4,29.59-8.5,11.61-5.58,8.18-7.3,7.67-16.91-.47-8.79-1.18-17.59-1.09-26.37.05-4.89,3.35-6.76,8.19-6.5a68.25,68.25,0,0,0,10.1-.39c4.24-.4,7.12.18,6.79,5.6a56.46,56.46,0,0,0,.74,11.37c1.15,8.17,2.77,16.27,3.78,24.44.66,5.24,2.92,7.45,8.18,6.66,11.85-1.75,22-7.3,31.45-14.3a5,5,0,0,0,2-3c.51-4.85,1.76-9.93.87-14.56-4-21-6.22-42.35-14.41-62.33-5.83-14.21-11.49-28.5-17.77-42.51-5.06-11.28-14.2-13.3-23.66-10.84-7.41,1.93-14.58,4.81-21.77,7.54a5.7,5.7,0,0,0-2.84,3.45c-4.61,16.4-9.06,32.84-13.58,49.26-2.49,9-4.81,18.16-7.66,27.1-2.63,8.24-5.09,16.68-9,24.31S521.26,216,513.07,221.6c-.49.34-.59,1.31-.77,2C511.06,228.38,509.85,233.16,508.32,239.15Zm-194.21-21c8.71-4.7,12.66.79,17.24,4.62,1.54,1.29,2.89,3,4.65,3.75,2.57,1.09,5.57,2.41,8.14,2,10.61-1.62,20.45-11,20.16-22.72-.41-16.64-.3-33.29-.28-49.94,0-17,.51-34,.18-51-.14-7.66-1.7-15.3-2.74-22.93-.5-3.62-2.78-5.71-6.43-5.09-4.18.71-8.23,2.13-12.38,3.09-9.39,2.2-18.81,4.3-29.18,6.66a38.9,38.9,0,0,0,.59,5.87c2.15,9.73,4.57,19.31,3.49,29.53-.79,7.52.73,15.35-.5,22.76-1.86,11.24-2.56,22.32-.55,33.52C318.8,191.09,320,203.81,314.11,218.14Z"/><path d="M854.52,123.17c2.9-3.09,6.16-5.91,8.63-9.3a67.38,67.38,0,0,1,26.18-21.39c7-3.37,14.21-6.43,20.88-3.12,9.89,4.9,21.38,7.85,28.51,17.07,4,5.22,6.9,11.41,9.74,17.43,2.45,5.22,4.15,10.79,6.11,16.22,2.45,6.79,4.82,13.6,7.25,20.39.3.85,1.1,1.7,1,2.48-1.13,10.53-2.18,21.07-3.67,31.54-.71,5-2.32,9.8-3.63,15.16,1.53.2,3-.05,3.78.59,1.78,1.47,4.53,3.35,4.55,5.09.1,11.17-.62,22.36-.58,33.54,0,1.84,2.08,4.61,3.84,5.28a18.25,18.25,0,0,0,9,.79c12.68-2,25.31-4.38,37.93-6.76,8-1.5,16-3.18,23.9-4.92,7.27-1.59,12.89-7.13,13.47-14.48a226.71,226.71,0,0,0,.41-25.81c-.27-7.37-1.42-14.71-2.18-22.06-1.16-11.09-11-12.5-17.15-8.59-10.7,6.76-20.84,14.43-31.22,21.71-1,.72-2,1.77-3.13,2-2.23.5-5.76,1.58-6.62.59-1.93-2.24-3.66-5.65-3.55-8.5.54-13.56,1.67-27.1,2.7-40.64a68.87,68.87,0,0,1,1.42-9.12,89.72,89.72,0,0,0-.06-37.7c-1.74-8.13-5.41-9.08-11.55-3.8-1.66,1.43-4.81,1.12-8.51,1.84.28,5.25.9,11.81.94,18.37,0,8.72,0,17.47-.79,26.14-.25,2.88-2.85,5.55-4.38,8.31l-2.77-.36c-.91-3.61-2.54-7.22-2.6-10.85-.21-14-.29-27.95.32-41.89.34-8,4.06-10.08,11-7.17,2.13-7.47,8.76-8.59,14.89-9.85,7.32-1.51,12.18,1.64,13.91,8.79a120.31,120.31,0,0,1,1.38,49c-2.05,12.14-1.71,24.68-2.44,37.05l1.59.57c3.64-2.44,7.08-5.25,11-7.24,7.19-3.7,14.36-7.95,22.06-10,5.25-1.38,11.5.09,17.11,1.24,5.78,1.18,7.59,6.34,8.5,11.51,2.77,15.92,5.36,31.84,3.61,48.15-.51,4.79.94,9.76.56,14.58-.28,3.58-2.06,7-3.31,11,4.93-.76,9.1-.83,8.33,6-.1.9,3.37,3.13,5.21,3.16,7.92.12,24.19-11.48,26.46-19a23.9,23.9,0,0,0,.33-10.65c-1.12-6.34-3.91-12.5-4.24-18.83-.21-4.06,2.27-8.54,4.5-12.27.73-1.21,5.09-1.62,6.62-.61s2.14,4.18,2.49,6.5c.84,5.54.65,11.3,2.06,16.67,1.8,6.89,5.41,13.22.78,20.58-1.66,2.64-1.09,6.67-1.61,10.68,3.18.18,5.86.68,8.47.42,9.16-.92,18.4-1.57,27.4-3.34,8.34-1.65,14.41-7.6,20.14-13.56.69-.72.61-2.44.48-3.65-1.23-11.67-2.13-23.39-4-35-2-12.51-5-24.72-11.3-36.07-9.32-16.66-17.79-33.8-26.64-50.73-3.44-6.59-6.65-13.32-10.48-19.67-1.92-3.19-5.29-5.2-9.34-3.37-3.28,1.48-6.38,3.34-9.64,5.08-4.6-3.69-4.79-8.31,0-11.77,8.5-6.08,22.56-7.07,30.59,5.24,8.28,12.69,12.81,27,20.36,39.84,5.49,9.35,11.21,18.58,16.17,28.2a131.34,131.34,0,0,1,15,56.64c.3,9.3,2,18.56,3.1,28.61,3.55-1.52,5.94-2.76,8.46-3.56,4.11-1.31,6.68.9,6.41,5.25-.46,7.3,3.76,11.24,10.58,8.45a297.42,297.42,0,0,0,34.43-16.41c8.73-5,9.15-13,4.39-21.74-3.29-6-4.87-13-7.16-19.55-1-2.88-1.84-5.82-2.81-8.72-1.11-3.33-2.52-6.83,1.56-9.09a7,7,0,0,1,10,3.77c2,5.33,2.8,11.18,4.9,16.49,2.17,5.47,5.53,10.45,7.9,15.86a20.56,20.56,0,0,1,1.94,9.09c-.27,4.45-1.84,8.8-2.5,13.24-1.35,9.08-9.89,10.89-15.59,15.37-12.72,10-28.17,12.71-43.65,14.73-6.51.85-16-4.56-17.49-9.56-.84-2.79-.66-5.89-1-9.18-1.17.41-2.15.44-2.42.9-6.1,10.25-17.42,12.67-27,17.28-5.3,2.54-12,2.34-18.07,3.05-4.49.52-9.06.34-13.57.78-9.17.89-12-1.53-11.73-10.81-6.55,3.66-12.74,7.51-19.27,10.63a91.52,91.52,0,0,1-18.21,6.93c-8.85,2.08-17.67-7.66-15.45-16.27.31-1.2.56-2.42,1.13-5-2.3,1.27-4.15,1.72-5.08,2.9-3.86,4.89-9.35,6-14.94,7-14.85,2.7-29.65,5.71-44.57,8a332.82,332.82,0,0,1-33.21,3.18c-4.52.22-9.63-1.05-11.37-6.37-.81-2.5-.5-5.4-.52-8.11,0-10.29,0-20.58,0-31.47a46.57,46.57,0,0,0-4.22,3.43c-5.71,5.8-10.52,13-17.17,17.24-9.89,6.37-20.52,12.73-32.78,13-15.35.39-27.1-6.88-34.89-20.05a226.49,226.49,0,0,1-10.33-20.24c-1.77-3.83.59-9.43,3.94-9.87,4.36-.57,6.3,2.25,7.69,6.07a40.48,40.48,0,0,0,5,9.54c3.17,4.48,6.09,9.69,10.43,12.69,16.33,11.28,26.66,7.45,41.73-1.48,2.47-1.46,4.53-3.63,6.77-5.47,6.74-5.53,12.83-11.14,16.14-19.93,6.73-17.89,12-35.47,3.34-54.17a20.66,20.66,0,0,1-1.7-6.29c-1.48-12.65-10.48-21.58-15.77-32.34-.08-.16-.15-.41-.28-.45-10.3-2.81-17.29-13.75-29.41-12a19,19,0,0,0-5.23,1.37c-18.81,8.58-31.47,23.39-38.85,42.05-4,10.1-1.48,21.17,2.66,31.45a21.65,21.65,0,0,1-6.24,25c-3.57,3.05-7.49,5.68-11,8.77a5.6,5.6,0,0,0-1.43,4,123.7,123.7,0,0,0,1.25,14.66c1.55,9.37-4.87,15.64-12.82,18.09A189.8,189.8,0,0,1,807,252.41a146.46,146.46,0,0,1-16.76,1.77c-1.15.09-3.06-.3-3.43-1.06-3.36-6.83-8.9-3.19-12.66-1.83-18.17,6.62-36.93-5.29-44.89-21-7.51-14.83-5.18-29.21-2.18-44,2-9.89,3.86-19.95,7.37-29.34,4.53-12.14,10.5-23.75,16.12-35.45,6.55-13.66,19.08-22.17,29.59-32.15,8.06-7.67,19.14-7.14,29.67-2.73,8.38,3.51,17.3,5.84,25.42,9.83a76.3,76.3,0,0,1,17.49,12.35c1.75,1.6.95,6.12,1.09,9.31a18.18,18.18,0,0,1-.78,4.1ZM809.18,173c-1.31,8.83-1.32,8.85-7.39,14.64-4.43,4.21-14.38,2.41-16.3-3.24-1.32-3.88-2.68-8.12-2.39-12.08.41-5.66,2.57-11.17,3.55-16.82,2.09-12.05,9.63-19.26,20.12-24.56,7.87-4,13.89-1.26,19.87,3.51.93.75,1.84,1.55,3.59,3,3.82-5.78,7.35-11.17,10.92-16.54,2-3.07,1.15-5.91-1.54-7.59a95.09,95.09,0,0,0-13-6.6c-5.76-2.48-12.2-3.75-17.46-7-12.37-7.62-19.11-4.09-26.69,1-15.33,10.24-24.83,25.09-32.26,41.48a160.94,160.94,0,0,0-13.07,46.36c-1.34,10.62-4.76,21.17-.16,32.11,3.68,8.78,15,19,24,19.19,11.1.22,19.58-4.71,24.72-14.61,2-3.88,5.35-3.86,8.27-3.09,3.52.92,4.27,4.1,3.07,7.54-.42,1.2-.92,2.38-1.24,3.61-1.59,6,0,8,6.15,6.93A187.63,187.63,0,0,0,820.56,236c3.63-1,8.06-2.51,7.52-7.31-.61-5.43-2.32-10.76-3.74-16.08-.65-2.42-2.1-4.64-2.61-7.08-1.14-5.52,1.49-8.55,7.17-9A78.81,78.81,0,0,0,839.64,195c4.65-1.06,7.51-4.22,6.63-9.06-1.17-6.51-3.27-12.84-4.68-19.3-1.2-5.47-4.87-8.14-9.92-8.67a134.46,134.46,0,0,0-20.14-1c-12.3.57-14.84,3.92-12,14.82,1.48.08,3.09.1,4.68.28S807.29,172.64,809.18,173Zm27.63-27.18c5.72,1.42,8-1.75,7.81-10.42Z"/><path d="M182.16,148.41c4.59-12.2,11.69-21.54,11.58-33.8-.05-5.41,3.25-10.76,4-16.28,1.36-9.57,1.83-19.27,2.94-28.88.26-2.17,1.63-4.21,2.48-6.32,2.31,1,5.3,1.48,6.73,3.21a11.22,11.22,0,0,1,2.35,7.6c-1.64,13.67-3.42,27.35-5.82,40.91a231.14,231.14,0,0,1-6.55,25.81c-1.45,4.82-3.81,9.39-6,14-2.08,4.39-5.54,6.53-10.58,4.91-1.8,7.3-3.56,14.1-5.15,20.95a80.28,80.28,0,0,1-22.46,40.1c-2.57,2.52-4.56,5.7-7.3,8a32.38,32.38,0,0,1-8.72,5.16c-8.82,3.47-17.57,8.26-26.74,9.41-13,1.63-26.69,2.12-39.61.09-16.17-2.55-31.86-8.07-42.81-21.94-2.2-2.78-5.4-4.75-7.76-7.43C15,205,14,194.41,15.81,183.26c.72-4.4,1-8.94,2.31-13.14a50,50,0,0,1,5.93-12.56c3.79-5.61,8.35-10.71,12.53-16.07a12.09,12.09,0,0,0,1.83-3.27c2.66-7.3,8.37-11.58,15-14.63,3.32-1.53,4.22-3.62,2.57-6.41-6.1-10.33-3-20.85-.58-31.18,1.68-7.21,4.68-13.93,11.11-18.74,2.39-1.79,3.37-5.38,5.25-8,12.46-17.07,41.45-28.91,61.78-22.63a87.08,87.08,0,0,1,21.7,9.87c7.47,4.85,15.7,9.22,20.51,17.39,2.73,4.65,5.79,9.14,8.18,14a125.8,125.8,0,0,1,7.13,16.86c2.12,6.51-2.09,11.53-5.58,16.27A170.1,170.1,0,0,1,173.7,124.6c-2.28,2.49-2.67,4.45-.47,7.53,2.58,3.6,4.13,7.93,6.18,11.91C180,145.18,180.78,146.22,182.16,148.41ZM100.5,231.69c8.11-2.29,15.78-4.22,23.28-6.67,4.79-1.57,10.41-2.82,13.78-6.12,11.1-10.84,21.75-22.1,26.85-37.53,3.54-10.74,7.2-21,3.65-32.6-2.3-7.49-6.3-11.34-14-11.61-1.71-.06-4.15-.4-5-1.53-4.1-5.74-10.27-7.69-16.33-10.2a41.12,41.12,0,0,1-10.13-6.29c-4.25-3.48-4.08-8.86-.09-12.64,8.73-8.27,18.23-7.13,25.07,3,1.94,2.87,3.87,5.75,6,8.49,2.34,3.06,5,4.06,8.09.78,2.48-2.61,5.08-5.11,7.71-7.57,9.28-8.67,11-15.38,6.87-25.09-4.53-10.66-11.86-19.2-20.67-26.24-9.05-7.24-19.87-11-31.37-12.9-8.57-1.46-16.2,1.26-23.68,4.33-9.69,4-15.92,11.74-22.27,20A54.33,54.33,0,0,0,67.13,98.52c-.39,3.11-.25,6.78,1.07,9.5,6.12,12.65,15.3,22.11,29,26.81,4.26,1.45,8.78,3.58,9.18,9.49.43,6.53-2.13,10.27-9,12.27-14.07,4.09-23.72-.58-29-13.87A52.81,52.81,0,0,0,65,136.56c-2.25-4-4.89-4.36-8.21-1.12-14.25,13.93-26.16,29-28.14,50-.6,6.45,0,12.84,3.44,17.12,8.65,10.66,18,21.53,32.45,24.32C76.36,229.17,88.45,230.14,100.5,231.69Z"/><path d="M1194.24,91.94l-4.52-5.59c-.53,3.36-1.09,5-1,6.66.57,9.76,1.48,19.51,1.88,29.29s.35,19.57.49,29.36a4.89,4.89,0,0,1,0,.54c-.39,5.68-3.45,10.56-6.7,9.86-5.68-1.24-4.58-6.2-4.64-10.23-.26-18.65-.54-37.31-.53-56,0-3.34.6-7.12,2.29-9.85,1-1.57,4.69-1.45,7.87-2.26.33-4.64,4.33-5.48,9.23-6,16.25-1.71,31.76-6.45,46.89-12.5,8.24-3.29,14.3.35,15.73,9.1.54,3.33,2,6.51,3.13,9.75,1,3,2.08,6,3.57,10.24.61-3.47,1-5.68,1.38-7.9,2.59-17.23,6.1-16.45,21-18.71,6.06-.92,12.25-.94,18.29-1.95,8.69-1.44,17.31-.85,25.09,2.7,5,2.29,10.06,5.61,11,12.78,1.08,8.13-.08,15.73-1.44,23.65-1.52,8.9-1,18.13-2.19,27.11-1.51,11.83-3.85,23.55-5.66,35.35-1.88,12.19-3.33,24.45-5.4,36.6-.75,4.41-2.87,8.57-4.14,12.92-.75,2.58-1.69,5.37-1.4,7.95.54,4.88-2.24,7.12-5.92,8.54-6.74,2.6-13.66,4.74-20.45,7.24-3,1.1-5.73,3.44-8.72,3.72-4.64.43-9.66,1.05-13.17-3.94a11.94,11.94,0,0,0-6.7-4.43c-5.83-1.23-3.84-5.34-3.63-8.59a5.21,5.21,0,0,1,6.51-5c4.28.91,8.2,3.37,12.43,4.68,2.55.79,5.55,1.35,8.07.77,4.56-1.06,8.83-3.33,13.37-4.58,7-1.93,6.25-8.74,8.68-13.43a37.44,37.44,0,0,0,3.26-11.44c1.39-8.92,2.13-18,3.61-26.86,1.81-10.92,4.66-21.7,6-32.66,1.62-12.93,2.15-26,3.18-39a28.87,28.87,0,0,1,.64-5.35c2.79-10.15-2.24-17.59-12.67-17.11A292.61,292.61,0,0,0,1286.37,81c-2,.32-4.95,3.67-5.11,5.8-.75,9.55-.08,19.23-1,28.75-.8,7.94-2.91,15.8-5,23.52-.43,1.55-3.78,3.4-5.51,3.16s-3.32-2.86-4.14-4.8c-3.29-7.74-7.74-15-8.44-23.8a207.2,207.2,0,0,0-3.48-23.47,32.19,32.19,0,0,0-4.34-11c-.84-1.31-4.49-1.82-6.44-1.25-7.43,2.17-14.6,5.27-22,7.37-6.94,2-14.13,3-21.18,4.63A42.64,42.64,0,0,0,1194.24,91.94Z"/><path d="M460.75,116.37c-.21,9.12-7.49,12-12.37,16.6-3.29,3.07-6.71,6-10.07,9-2.95,2.62-6.27,4-9.86,1.59-3.22-2.2-2.59-4.91-1.32-8.46s2.38-7.91-1.31-11.3c-3.4-3.12-2.56-6.73-.37-9.84,6.6-9.35,22.36-11.37,31.09-3.95C458.4,111.59,459.37,114.22,460.75,116.37Z"/><path d="M1062.54,147.08c2.32-7,5-15.08,7.63-23.13,3.51-10.61,7-21.2,10.51-31.81.94-2.89,1.63-5.48,5.84-4.73s5,3.39,4,6.67c-2.76,9.37-5.9,18.61-8.72,28-2.72,9-5.52,17.94-7.7,27.05-1,4-1.32,9-5.78,8.94C1063,158,1063.32,152.43,1062.54,147.08Z"/><path d="M911,173.6c1,8-9.92,19.3-17.14,20.72a6.93,6.93,0,0,1-5.34-1.5c-6.51-6.37-6-23.47,1.67-28.46,4-2.6,10.44-3.09,15.34-2.18C910,163,911,168.4,911,173.6Z"/><path d="M1106.05,127.6c1.25.93,3.22,1.8,4.3,3.31a95.66,95.66,0,0,1,6.44,10.51c2.25,4.16-2.46,10.66-8.6,12.19-3.61.91-7.22,1.84-10.77,2.95-4.08,1.27-6.67-1.17-7.82-4.13-2.55-6.53,3.35-19.89,9.8-23.09C1101.13,128.49,1103.19,128.32,1106.05,127.6Z"/><path d="M581.38,154.63c-5.33.45-10.68,1.38-16,1.14a9.35,9.35,0,0,1-6.68-4.09c-1-1.72,0-5,1-7.22A115.58,115.58,0,0,1,567.31,129c1.5-2.45,4.34-5.49,6.75-5.65,4.2-.28,9.28-.17,10.88,5.82,1.56,5.84,3.61,11.54,5.42,17.31C591.54,150.27,586.26,155.56,581.38,154.63Zm-11.26-9.49c2.91-.78,5.64-1.09,5.67-1.59.15-2.06-.52-4.17-.9-6.26l-1.54.23Z"/></svg>