<svg id="Layer_1" data-name="Layer 1" xmlns="http://www.w3.org/2000/svg" viewBox="0 0 1230.5 252.36"><path d="M752,65.66c-.56,11.35-4.26,13.52-15,12.65-12.53-1-23.78-5-34.82-10.51-1.51-.76-5.14.21-6.18,1.58a18.19,18.19,0,0,0-3.56,8.85c-.9,9-6.13,15.4-11.89,21.69-5.2,5.68-5.5,14-2,20.87,8.23,15.94,19.66,29.34,32.2,42,2.08,2.09,3.68,4.66,6.28,8,14-15.28,21.42-34,32.21-53-5.67.37-9.84.32-13.91,1-11.11,1.76-15.45-2.32-11.7-12.68,1-2.85,6.58-5.52,10.18-5.69,7.55-.38,15.19,1,22.79,1.58,3.67.31,7.36.47,11,1,5.35.71,8.45-.74,8.46-6.84,0-1.75,1.61-3.73,2.92-5.23,10.24-11.72,20.76-23.19,30.79-35.08,3.31-3.94,5-9.18,8.27-13.21,1.8-2.24,5.14-3.33,7.9-4.72,2-1,4.78-1,6.14-2.48,7.44-8,13.75-7.87,20.25,1.25s12.44,18.8,19.09,27.9c6.93,9.48,14.44,18.54,21.65,27.82,4.64,6,4.76,12,.55,18.42-10.88,16.64-22.47,32.75-29.05,52-3.22,9.42-10,17.58-14.27,26.72-2.32,5-3.15,10.2-8.52,13.5-9.2,5.64-16.59,3.4-18-7.35-2.84-21.46-13.19-39.19-25.39-56.35-5-7-8.76-14.87-13.4-22.15-1.53-2.39-4.06-4.13-6.13-6.18-1.43,1.86-3,3.62-4.26,5.58-2.86,4.44-5.54,9-8.32,13.48-10.25,16.53-18.44,34.33-31.58,49.1-2.85,3.21-3.2,8.54-5.12,12.7-1.69,3.65-3.31,7.73-6.13,10.39-6.49,6.1-12.89,4.69-17.79-2.77-10.44-15.88-21.2-31.56-31.5-47.52q-11.34-17.56-21.8-35.68c-3.41-5.89-1-12.27,4.3-16.17,3-2.23,6.19-5,7.85-8.28,6.17-12.17,11.75-24.64,17.5-37,.47-1,.4-2.26.78-3.34,1.2-3.35,1.55-7.9,4-9.74A11,11,0,0,1,702,43.18c11.89,14.92,28.35,18.77,45.82,21A22.37,22.37,0,0,1,752,65.66ZM841.3,166c2.76-5.33,5-9.48,7.07-13.75,6.59-13.86,13.06-27.78,19.66-41.63a13.5,13.5,0,0,1,2.67-3.12c3.95-4.15,3.85-8.73.67-13s-7.2-7.82-10.41-12c-7.22-9.44-14.32-19-21.13-28.7-2.25-3.22-3.57-3.34-6.33-.67-13.59,13.17-18.76,32.68-33.9,44.71-.8.64-.64,3.43,0,4.74,1.34,2.67,3.44,4.94,5,7.49,10.43,16.62,20.78,33.28,31.25,49.87C837.07,161.76,838.81,163.23,841.3,166Z"/><path d="M394,134.43c16.86,10.8,32.91,21.22,49.11,31.39,7,4.38,14.29,8.21,21.41,12.35,3.06,1.78,8.09,1.65,6.31,7.85-1.91,6.66-5.92,11.59-11.35,11a30.36,30.36,0,0,1-11.61-3.78c-8.28-4.79-16.22-10.17-24.25-15.39-7.68-5-15.09-10.41-23-15a253.18,253.18,0,0,0-23.46-11.63c-10.12-4.51-13.63-2-12.69,8.84.76,8.71,1.87,17.38,2.88,26.06a14.22,14.22,0,0,1-9.14,15.35c-5.78,2.17-11.75-1.61-11.93-8.62-.47-19.23-1-38.5-.28-57.72.69-19.67,3.12-39.27,4-58.94.3-6.69-1.49-13.57-3-20.22s-.37-9.68,6.28-9.94c5.6-.22,11.74.41,16.85,2.56,22.21,9.35,44.15,19.33,66.12,29.23a51.64,51.64,0,0,1,10,6c3.58,2.71,2.79,9.76-2.39,13.93C432.1,107.14,420,116,408,125,403.51,128.32,398.66,131.28,394,134.43Zm-28.86-4.3c4-1.62,7.81-2.52,10.88-4.51,9.73-6.32,19.2-13,28.74-19.63,5-3.43,9.83-7,14.75-10.46l-.2-2.62c-19.22-5.57-33.6-21.2-54.17-25.31Z"/><path d="M1132.92,104c.63,11.4,1.81,22.81,1.73,34.22-.08,12.5-.91,25-2.23,37.47-.72,6.8-5,9.2-11.24,8s-9.7-5.3-8.43-11.09c3.58-16.29,2.76-32.7,2.32-49.18s0-32.95,0-49.44c0-2.28-.52-4.63-.16-6.85.63-3.81.67-9.58,3-10.82,3.46-1.86,8.88-1.36,13-.24,2.8.76,5.7,3.91,7,6.71,7.61,15.94,14.64,32.15,22.11,48.16q8.46,18.09,17.62,35.85c.83,1.62,3.39,2.37,5.16,3.52.63-1.82,1.73-3.6,1.84-5.45a510,510,0,0,0-1.65-81c-1.15-12,4.44-22.74,10.18-33,2-3.6,11.15-3,15.64.83,3.56,3.05,4.6,6,.88,10.52-5.93,7.17-5.48,16.39-5.22,25.06.46,15.62,2,31.21,2.32,46.83.52,22.49-4.75,44.27-9.49,66.05-1.91,8.75-14.33,12.08-20.62,5.54-3.44-3.58-6-8.1-8.58-12.4-4.08-6.75-8.54-13.39-11.63-20.59-5.86-13.64-10.78-27.69-16.28-41.49-1.16-2.91-3.15-5.5-4.75-8.23Z"/><path d="M183.55,122.38c3,0,6,.42,8.8-.07,10-1.74,20-3.79,29.93-5.71,5.61-1.08,8.32-3.66,8.95-10.1,2.05-20.85,5-41.62,7.88-62.38.85-6,9.28-9.31,13.83-5.34a10.84,10.84,0,0,1,3.22,8.1c-2.07,19-4.76,37.92-7,56.9-.34,3,.91,6.11,1.17,9.19a27.58,27.58,0,0,1,0,7.43c-1.31,6.89-3.92,13.66-4.3,20.57-.95,17.39-2.13,34.91-.87,52.21.65,9-1.25,15-7.5,20.57-10.48-5.49-13.21-14.18-12.4-25.12,1.22-16.48,1.77-33,2.59-49.5.06-1.32,0-2.64,0-4.64-10.68,1.26-21,2-31,3.8-15.74,2.85-16,3.16-16.93,19.05-.8,13.55-.45,27.16-1.35,40.69a14.2,14.2,0,0,1-5.34,9.56c-1.56,1.08-6.44-1.09-8.84-3-4.38-3.5-6.74-8-6-14.37Q164.94,135.66,170.64,81c1.25-11.9,1.46-23.9,2.17-35.86.35-5.93,1.88-10.1,9.54-8.94,6.62,1,10,5.2,9.12,12.84q-4.18,35.31-8.22,70.62A16.35,16.35,0,0,0,183.55,122.38Z"/><path d="M125.18,140.17c-8.42-3.82-17.14-7.71-25.8-11.72-7.5-3.48-14.92-7.13-22.4-10.63-4.38-2-8.69-4.38-13.27-5.85C52,108.23,50.09,102,57.63,92c7-9.29,14.68-18.33,20.17-28.49,7-12.94,11.89-27,18.16-40.32,1.18-2.54,4.6-5.8,6.84-5.7,4.18.2,9.33,1.57,12.11,4.38,3.74,3.79,5.63,9.39,8.28,14.23,5.31,9.69,16,12,24.38,17.46,4.07,2.64,5.23,6,3.41,9-1.11,1.8-6.5,2.87-8.72,1.76A304.35,304.35,0,0,1,113.5,47.91c-4.26-2.74-6.46-2.59-8.5,2-2.34,5.23-4.49,10.6-7.41,15.51-5.17,8.68-10.79,17.1-16.34,25.54-4.79,7.27-4.44,8.29,3.56,11.88,14.66,6.57,29.16,13.5,43.88,19.93,4.13,1.81,8.81,2.38,13.23,3.57,7.47,2,10.25,9.08,5.85,15.53-5.27,7.73-11.67,14.81-16.1,23-7.09,13-13,26.71-19.3,40.17-1.9,4.05-3.18,8.41-5.22,12.39-3.08,6-12.81,6.22-18.69.56-10.61-10.2-20.36-20.83-25.93-35-2.31-5.88-7.85-10.47-11.68-15.81-3.31-4.61-2.13-7.49,3.65-8.69,12.84-2.67,12.8-2.76,19.45,8.94,4.32,7.6,8.46,15.32,13.17,22.68,3.56,5.56,6.37,5.14,9.62-.37,9.31-15.79,18.75-31.49,28.12-47.24A9.12,9.12,0,0,0,125.18,140.17Z"/><path d="M510.45,51.9c-.42-2.48-1.56-4.77-.94-6.41,1.25-3.3,2.79-7.94,5.41-9,4.15-1.6,8.72-1.29,12.75,3.51,10.69,12.74,12.23,28.5,16,43.51,4.35,17.59,7.63,35.43,11.73,53.09,3.48,15,7.31,29.88,11.28,44.73,2.1,7.86.16,13.65-5.81,15.17-7,1.77-14.83-3-16.43-10.05-2.74-12.06-5.4-24.13-8.29-36.15-.38-1.57-2.22-4.22-2.84-4.07-5.56,1.32-11.27,2.6-16.33,5.1-1.94,1-3,5-3.31,7.7-.9,8.89-.66,17.94-2.07,26.73-.75,4.74-2.81,10.68-6.35,13.23-4.93,3.55-10.77-.42-14.92-3.94-1.6-1.35-1.47-5.41-1.19-8.14,1.48-14.64,3.28-29.25,4.92-43.88q3.6-32.22,7.11-64.45c.46-4.34.77-8.72.85-13.08C502.09,59.24,502.82,53.44,510.45,51.9Zm12.23,36.37-2.54.26c-1.61,13.67-3.24,27.33-4.76,41a5.34,5.34,0,0,0,1,2.94c3.72-.65,7.65-1,11-2.58,1.66-.77,3.49-4,3.15-5.78C528.22,112.11,525.36,100.2,522.68,88.27Z"/><path d="M1066.76,133.61c-10,5.28-19.86,8.51-26.82,14.92-5,4.63-6.08,13.5-8.89,20.48-1.09,2.71-1.76,5.67-3.3,8.1-3,4.72-9.22,5.61-14,2.41s-5.17-7.88-3.13-13.36c3.62-9.76,6.38-19.85,9.42-29.83,2.29-7.5,5-14.93,6.56-22.59,4.24-20.66,8-41.41,11.9-62.15,2.25-12.1,4.09-14.58,12.12-14.07,5,.32,9,2,10.75,7.87a105.91,105.91,0,0,0,8.19,18.86c8.34,15.71,9.93,33.21,13.84,50.1,4.28,18.47,6.29,37.5,14.32,55.06,2.47,5.38-4.87,13.43-10.87,12.76-3-.33-8,.27-8.59-1.11-2.42-5.32-3.65-11.22-5-17C1071.05,154.34,1069.08,144.54,1066.76,133.61Zm-10.57-51.08-3.1-.19c-2.37,12.78-4.74,25.56-7.29,39.33,6.06-2.81,10.14-4.54,14-6.62a4,4,0,0,0,1.73-3.23C1059.91,102,1058,92.28,1056.19,82.53Z"/><path d="M936.8,179.59c10.08-2.11,18.8-4,27.57-5.72,2.65-.51,5.91-1.44,8-.41,3.55,1.72,6.4,4.85,9.54,7.39-3.63,3.07-6.84,7.91-11,8.87-14.55,3.4-29.23,5.73-42.47,13.61-3.35,2-9.67,2.2-13,.33C911,201.16,910,195.12,912,190c9-22.85,9.55-46.84,10.46-70.86.52-14,2.27-27.95,2.62-41.94.16-6.66-1.41-13.42-2.65-20-.85-4.54.87-7.28,4.92-8.42,6.56-1.84,13.67,2.48,14,9.19.85,15,1.56,30.16,1.26,45.22-.4,20.14-1.68,40.27-2.89,60.39C939.44,168.49,938,173.35,936.8,179.59Z"/><path d="M313.37,71.43C310.58,91,307.7,110.5,305,130.06s-4.75,39.15-1.9,58.89c.7,4.79-.43,9.12-4.71,11.28-3,1.51-8.78,3-9.91,1.61-3.42-4.1-7.49-9.72-7.2-14.49,1.22-19.68,3.92-39.26,6.15-58.88,2.36-20.72,4.94-41.43,7.11-62.18.49-4.72-.1-9.6-.58-14.37-.62-6.15,3.93-7,7.86-6.9s8.88.2,8.68,7.07c-.19,6.36,1.1,12.75,1.74,19.13Z"/></svg>