<svg id="Layer_1" data-name="Layer 1" xmlns="http://www.w3.org/2000/svg" viewBox="0 0 1075.28 226.48"><path d="M900.5,155c-6.52,5.52-12.71,10.94-19.1,16.11-7.23,5.86-23.82,5.59-31.92-3.5a17.46,17.46,0,0,1-3.38-18.2c6.14-17.16,16-32.18,28.28-45.7a24.89,24.89,0,0,1,12.78-7.92c6.38-1.57,11.42-.21,14.78,5.76,3.56,6.32,7.55,12.43,5.48,20.79-1.51,6.13-.78,12.85-.76,19.3,0,4.26,4.57,8.39,9.16,9.09,7.36,1.11,13.24-2.16,18.89-6.12a4.45,4.45,0,0,0,1.66-2.91c.91-10.85,1.78-21.71,2.38-32.58.15-2.71-1.09-5.5-1-8.22.09-1.67,1.32-4.37,2.51-4.65,1.9-.45,5.28.05,6.09,1.35a31.54,31.54,0,0,1,4,10.7c.65,3.49.14,7.2,1.33,11.5,3.15-3.78,6.23-7.63,9.48-11.32,6.21-7,12.36-14.17,18.85-21,4.55-4.75,10.13-5.21,16-2.22,5.36,2.73,6.52,7.51,6.54,12.93,0,11.1-.36,22.22.36,33.27.68,10.26,2.31,20.8,9.76,28.62,12.93,13.55,26.74,19,46.28,11,1.07-.44,2.14-1.22,3.22-1.23,1.29,0,3,.27,3.74,1.12s.68,3.2,0,3.7c-3.71,2.86-7.36,6.6-11.66,7.79-17.91,5-34,0-47.56-11.94-8.52-7.51-13.18-18-14.24-29.25-1.26-13.3-1.11-26.73-1.79-40.09-.24-4.71-2.15-5.47-6-2.6-10.65,8-18.35,18.52-24.77,29.88-4.93,8.72-8.66,18.12-13,27.18a15.42,15.42,0,0,1-2.69,4.09c-3.69,3.74-5.93,3.54-8.55-1-1.41-2.46-2.55-3.61-5.37-1.81-10.23,6.51-20.08,5.39-29.5-1.85C900.69,154.9,900.3,154.91,900.5,155Zm-37.77,7.8c12.79.29,18.51-5.27,24.28-10.78,3.73-3.56,6-7.59,6-13,.12-9.05.73-18.1,1.27-27.14.24-4.18-2-6.4-6-5.08a15.17,15.17,0,0,0-5.77,3.65c-11,11.22-19.9,23.88-25.49,38.65C854,157.07,858,162.68,862.73,162.76Z"/><path d="M605.06,146.56c1.24-9,1.52-18.3,3.92-27,4.6-16.65,10.74-32.7,19.81-47.74a178.25,178.25,0,0,1,31.77-39.59c6.23-5.73,13.34-11.38,21.1-14.4,12-4.67,23.82-3.29,30.62,10.87a83.51,83.51,0,0,1,5,13.43c.49,1.72-.6,3.88-1,5.85-1.57-.89-3.67-1.41-4.6-2.74a121.78,121.78,0,0,1-6.53-11.1c-5.45-9.92-12-11.85-22.36-7.06-13.5,6.22-23.2,16.67-32.33,27.9a166.35,166.35,0,0,0-28.2,49.42c-5.9,16.66-9.32,34.21-7.17,51.81,2.34,19.2,12,28.44,31.8,32.4,14.59,2.9,28.82.86,42.37-5.36,8.29-3.79,14.25-10.43,18.94-17.78,2.41-3.77,3.2-9.21,3.05-13.84a127.24,127.24,0,0,0-3-25.56c-3-12.26-12.72-16.3-25.24-11.91A54.8,54.8,0,0,1,671,116.87c-3.12.35-6.58-.14-7.2-4.32C663,107.38,665,104,669.28,103a49.63,49.63,0,0,1,8.37-1.34c11.9-.63,22-5.61,31.61-12.21,3.52-2.43,7.49-4.21,11.15-6.44,2.82-1.72,5.7-1.13,6.86,1.32.68,1.41-.65,4.73-2.11,6-4.6,4-9.63,7.61-14.62,11.19-3.45,2.47-3.93,4.31-.7,7.83,6.8,7.42,8.6,17.08,10.31,26.63,2,11.07,2.68,22.19-2,32.71-6.43,14.55-18.24,23.18-33.16,27.78-14.37,4.42-29.07,5.78-43.73,2.07-20.43-5.17-33.84-18.09-35.2-40.5-.23-3.8-.42-7.61-.62-11.41Z"/><path d="M63.35,103.22c4.72-.63,9.46-1.28,14.21-1.88,16.18-2,32.38-1.94,47.65,4,18.64,7.31,28.15,26,20.53,45.79a87.84,87.84,0,0,1-36.58,44.24,92.77,92.77,0,0,1-35.25,12.44c-8.55,1.29-16.93,2.11-25.66.54-9.64-1.73-15.56-7.81-20.6-15.12-3.13-4.52-2-13.59,1.82-17.17a7.9,7.9,0,0,1,6-1.71c.93.17,2,3.47,1.82,5.2-1.09,9,2.31,14.21,10.67,17.47,8.9,3.48,17.78,2.25,26.49.42,13.68-2.87,26.94-7,37.79-16.59,10.58-9.39,18.93-20.17,23.72-33.65,6.5-18.31-3.34-29.31-19-34.43-15.93-5.21-32.06-4.06-48.34-1.53-8,1.23-16.12,1.31-24-2.16-5.8-2.57-9.09-6.56-9.18-12.85-.2-14,2.78-27,11.45-38.56,9.12-12.13,19.93-22.08,34-28a21.36,21.36,0,0,1,10.54-1.35c12.87,1.62,22.24,8.85,28.8,19.72a27.2,27.2,0,0,1,3,8.85c.27,1.4-.8,3.06-1.26,4.6-1.73-.64-3.9-.85-5.07-2-1.93-2-2.9-4.92-4.84-6.89-4.36-4.4-8.65-9.06-13.74-12.5-7.27-4.91-14.7-3.14-21.59,1.72-12.91,9.11-24.94,19.16-29.3,35.07-1.65,6-1.42,12.79-.82,19.1.21,2.23,3.75,4.91,6.34,6C56.05,103.14,59.77,102.84,63.35,103.22Z"/><path d="M797.6,121.88c-2.48,1.12-4.09,1.7-5.54,2.55-1.86,1.08-3.49,2.57-5.39,3.55-7.24,3.77-7.48,4-4.24,11.24,5,11.29-1.2,19.86-7,28.18s-14.58,10.69-24.3,8.84c-9-1.71-14.78-9.85-14.42-19.89a69.33,69.33,0,0,1,14.77-40.85,66.57,66.57,0,0,1,9.12-10.25c4.27-3.65,9.57-2.93,13.32,1.26a42.79,42.79,0,0,1,5.93,8c1.68,3.1,3.83,2.84,6.11,1.52a99.31,99.31,0,0,0,11.22-7.29,9,9,0,0,0,3.23-5.17c2.81-18.5,5.33-37,8-55.54.55-3.69-.22-8.66,5.71-8.75,3.92-.07,6.07,3.48,5.13,9.6-2.08,13.42-.43,26.67.68,40a25.13,25.13,0,0,1-7.51,20.8,14.49,14.49,0,0,0-3.81,7.79c-2,14-1.89,28.1,1.32,42,2.25,9.76,8.29,14.77,17.82,15.27,1,.05,2.5.55,2.77,1.23s-.26,2.18-.86,3c-3.7,5-11.46,5.66-17.09,2.43-8.35-4.79-10.67-12.85-13.11-21.17-3.29-11.24-2.85-22.59-1.86-34C797.67,125.21,797.6,124.24,797.6,121.88Zm-26-2.92c-1.3-1.22-2.62-3.14-3.29-2.94-2.39.71-5.31,1.58-6.68,3.4-7.24,9.63-11.62,20.7-14.41,32.32-1.2,5,1.59,11,4.92,12.67,4,2,10,.22,13.86-4,8.52-9.36,8.87-17.2,1.19-26.92C760.25,124.71,760.66,123,771.57,119Z"/><path d="M468.19,102.75c-.35,4.63-.37,9.31-1.12,13.87-1.76,10.56,3.74,18,10.81,24.28,7.43,6.63,16.14,11.07,26.52,11.25a18.51,18.51,0,0,1,5.42.71,4.31,4.31,0,0,1,2.61,2.48c.21.82-.78,2.17-1.56,3-6.6,6.76-14.34,4.8-21.82,2.3-10.39-3.48-19.55-9.09-26.34-17.88-2.41-3.13-3.7-2.34-5.41.48-7.86,13-17.43,24.62-30.36,32.7-10.43,6.51-22.3,8.35-33.84,3.05-7.91-3.63-12.14-11-14-19.49-2.44-11.2.63-21.44,4.59-31.84C388.88,114,395,100.78,403,88.72a116.29,116.29,0,0,1,19.63-22c7.55-6.73,17-5.22,24,2.19A45,45,0,0,0,450,72.51c3.14,2.67,5.5,5.79,10.05,7.34,5.51,1.89,7.5,8,7.76,13.94.13,3,0,6,0,8.95ZM388.92,147c-.42,14.58,5.46,22,16.6,23.33,8.84,1.09,16-3.28,22.62-8.45,10.23-8,17-18.84,23.72-29.62a17.3,17.3,0,0,0,2.13-9.82c-.57-8.37-1.84-16.71-2.95-25-.43-3.25-.38-6.88-1.88-9.62-6.17-11.3-15.87-20.48-27.43-6.64a205.17,205.17,0,0,0-16.9,23.75C396.23,118.83,390.52,133.91,388.92,147Z"/><path d="M176.88,142c6.31-12.59,11.38-24.66,18.19-35.66,5.6-9,12.9-17.11,20.16-25,4.48-4.84,14.32-.27,16.42,7.64a69.6,69.6,0,0,1,1.81,15.21c.42,11.24-.72,22.68,1,33.69,2.07,13.26,6.72,26,19.39,33.67,5,3.06,10.33,4.45,16.09,2.51,2.55-.85,5.72-1.66,5.81,1.71.06,2.21-2.46,5.94-4.5,6.49-11.58,3.14-21.2.17-30.08-8.66-11.34-11.29-15.24-25.28-17.59-40-1-5.93.48-12.21.5-18.34a165.27,165.27,0,0,0-.71-18.36c-.23-2.1-1.9-4.84-3.68-5.7-1.28-.61-4.33.91-5.74,2.33-12.32,12.34-19.68,27.7-25.36,43.81-3.13,8.84-5.16,18.1-7.19,27.28-.88,4-.54,8.22-.7,12.35-.2,5.62-3.23,8.13-8,7.12-3.43-.72-3.44-3.07-3.59-5.59-.69-11.54-1.41-23.09-2.06-34.63q-2.35-41.62-4.7-83.24A34.84,34.84,0,0,0,161,54.83c-.82-3.57-1.2-7.2,2.84-9,2.31-1,6.85,4,7.08,7.76.88,14.53,1.64,29.07,2.45,43.61.7,12.74,1.37,25.48,2.16,38.21A48.53,48.53,0,0,0,176.88,142Z"/><path d="M336.61,131.09c.8-3.29,1.77-6.55,2.38-9.87,2.24-12.09,5.14-23.92,13.16-33.72a23.48,23.48,0,0,1,31.74-4.58c1.77,1.24,2.29,4.24,3.38,6.43-2,.39-4.24,1.46-6.11,1.05-15.72-3.45-22.85,3.34-27.36,16.29-3.71,10.68-5.46,22.06-7.76,33.19-1.8,8.72-3.08,17.54-4.69,26.3-.29,1.6-.59,3.85-1.68,4.52a13.5,13.5,0,0,1-7,2c-1,0-2.86-2.91-2.7-4.3,1.48-12.24-4.26-23.24-5.78-35-1.17-9-3.42-17.83-5.38-26.7a25.43,25.43,0,0,0-2.68-6.3c-1.54-2.86-.62-7.62,1.94-9,3.95-2.07,6.71-1.46,8,3.23,2.78,9.85,4.76,19.92,7.09,29.89.51,2.17,1.14,4.32,1.71,6.47Z"/><path d="M275.36,121.47c0-4.31.14-8.63,0-12.94-.15-3.64,1.8-5.17,5-5.5,3.69-.39,4.54,2.2,4.64,5,.25,7.13.52,14.27.44,21.4-.13,12.48,3.95,23.75,9.56,34.59.86,1.66,2.72,2.79,3.89,4.33.93,1.23,2.45,3.15,2.05,4a6.41,6.41,0,0,1-4.1,3.22c-4.62.77-7.77-1.23-9.63-5.79-2.38-5.8-6.29-11.13-7.77-17.1-2.53-10.17-3.67-20.68-5.4-31Z"/><path d="M285.69,77.06a27.74,27.74,0,0,1-4.51,3,44.93,44.93,0,0,1-8.62,2.86,10.13,10.13,0,0,1-6-.57c-.7-.33-.72-3.23-.24-4.71,2.18-6.77,12.8-9.13,17.7-4C284.67,74.3,284.89,75.35,285.69,77.06Z"/></svg>