<svg id="Layer_1" data-name="Layer 1" xmlns="http://www.w3.org/2000/svg" viewBox="0 0 1493 354"><path d="M948.47,172.76c1.86-4.31,3.77-8.59,5.56-12.93a226.29,226.29,0,0,1,24.8-44.23,77.91,77.91,0,0,0,8.94-16.78c1.49-3.85.8-8.48,1.63-12.65a23.06,23.06,0,0,1,14.12-17.42c6.45-2.51,14.17-3.49,21,.91,5.55,3.58,11.21,7,16.73,10.61,4.15,2.73,2.65,6.49,1.65,10.22a32.56,32.56,0,0,0-1.51,8.56c.09,10.51.73,21,.78,31.54,0,13.31,0,26.63-.5,39.93-.5,14.34-1.7,28.64-2.27,43-.36,8.89,0,17.81-.15,26.71-.14,9.35-1,18.73-.51,28.05.23,4.61,2.35,9.22,4.1,13.63,3.43,8.66,1.73,16.17-4.95,22.33-2,1.86-5.43,2.14-7.86,3.69-8.45,5.4-17.42,4.29-26.3,2.07-7.4-1.85-15.24-15.53-13.06-22.73.84-2.77,3.41-5,5.29-7.45a63,63,0,0,1,5.29-6.3c3.26-3.19,3.79-6.52,2.07-10.78-.73-1.83.22-4.31.26-6.49.31-15.57.44-31.15.94-46.72.24-7.26,1.61-14.48,1.7-21.74.13-10.76-.49-21.52-.66-32.29-.12-7.63,0-15.26-.78-23.25q-5.71,10-11.43,20.06c-.88,1.55-1.82,3.1-2.56,4.72-1,2.11-1.79,4.27-2.6,6.43-2,5.43-4,10.9-6,16.32-2.23,5.91-5.22,11.64-6.6,17.74-1.09,4.83.27,10.16-.35,15.15-.8,6.41-2.19,13.18-8.84,16.26-10.12,4.69-20.38,9.4-32,4.49-7.44-3.14-13-13-13-21.28,0-5.24-2-10.55-3.59-15.67-2.21-7.07-5-14-7.37-21-1.81-5.39-3.44-10.85-5-16.32-1.94-6.86-3.71-13.76-5.89-21.91-2.94,11.6-5.46,21.88-8.16,32.12-2.87,10.92-5.88,21.82-8.91,32.7-.6,2.15-1.7,4.15-2.37,6.29-1.7,5.45-3.2,11-4.93,16.4q-3.46,11-7.16,21.85c-1.91,5.63-4.25,11.13-5.88,16.84-1.26,4.4-1.55,9.07-2.59,13.55-.85,3.68-2.37,7.21-3.18,10.9a6.57,6.57,0,0,0,.8,4.75c7.64,10.49,4.1,26.27-7.47,32.58-.28.16-.68.24-.85.48-5.66,8.17-13.86,4.65-21.23,4.43a26.25,26.25,0,0,1-9.9-1.92c-9.08-4.16-13.36-11.46-8.18-21a4.55,4.55,0,0,0,.85-2.23c-.43-4.81,1.85-7.8,5.65-10.6,6-4.43,6.06-12.06,8.33-18.39,5.17-14.41,9.85-29,14.6-43.54,3.21-9.87,6.23-19.79,9.26-29.71,3.33-11,6.89-21.84,9.74-32.91,2.6-10.12,4.21-20.5,6.59-30.69,2.76-11.79,5.78-23.53,8.88-35.24,1.73-6.49,4.22-12.79,5.65-19.33.82-3.73,0-7.78.27-11.66.69-10.66,3.53-13.81,14.08-16.29,3.77-.89,7.56-2.9,11.26-2.73,6.21.3,12.62,1.29,17.33,6.23,5.32,5.58,5.9,12.7,6.33,19.87.39,6.31.31,12.73,1.47,18.91,2.43,13,5.39,25.83,8.42,38.67,2.78,11.8,5.94,23.52,8.94,35.27Z"/><path d="M697.26,122.37c-9.41,2-19.76-.55-28.89,5.14-1.09.68-2.86.17-4.29.41-3.08.51-6.15,1.06-9.19,1.75-3.62.82-7.16,2.21-10.81,2.63-16.36,1.9-32.74,3.55-49.12,5.26-6,.63-8.39,5.39-8.15,13.41a149.44,149.44,0,0,1-1.27,22.56c-1.59,12.88-3.78,25.7-5.42,38.58-.11.87,2.38,3,3.49,2.94,10-1,19.91-2.2,29.83-3.58,6.92-1,14-1.6,20.61-3.68,4.39-1.38,8-5.21,12.06-7.64,5.47-3.23,10.82-7.14,17.85-5a6.36,6.36,0,0,0,3,.17c11.21-2.16,16.55,5.39,19.67,15.5s-1.26,16.31-9.86,22.47c-5.65,4-10.51,1.35-15.6,2.33-5.53,1-10.45-.25-15.78-1.86-4.33-1.31-9.58.08-14.37.68-12.41,1.56-24.84,3.08-37.17,5.17-5.14.87-10.09,3-15,4.94-.83.32-1.27,2.53-1.28,3.88-.09,10.44.16,20.89-.08,31.33-.17,7.53-1.3,15-1.3,22.55,0,7.25,4.16,11.5,11.32,11.63,5.75.1,11.52-1,17.29-1.3,6.46-.29,13-.37,19.42-.26,8.51.13,17,.39,25.51.88,6.07.36,12.1,1.54,18.17,1.75,9.21.31,9.31.12,12.64-8.73,2.05-5.41,5.39-10.4,10.4-12.41,5.56-2.22,11.59-4.76,18.13-3.09,2.71.69,5.76.31,8.33,1.28,3.38,1.28,8,2.64,9.32,5.32,3.34,6.91,7.61,14.21,5.58,22.32-2.07,8.3-6.57,15.37-14.8,19.1-5.3,2.4-10.65,5-16.26,6.34-3.78.9-8.11.08-12.09-.59-5.06-.85-9.95-2.87-15-3.41-7.59-.8-15.28-.91-22.93-1.05-12.35-.23-24.75-.86-37.06-.18-14.34.8-28.83,1.79-42.85,4.66-10.09,2.07-18.9-1-28.16-2.63-5.5-1-12.15-10.5-12-16.1.14-6,1-11.25,5.55-16.31,3-3.3,3.41-9.45,3.75-14.41,1-13.86,1.26-27.77,1.83-41.66.48-11.77.35-23.61,1.61-35.3,1.44-13.38,4.16-26.61,6.24-39.93.71-4.55,1.29-9.13,1.68-13.71.74-8.65,1.27-17.31,2-26,.27-3.36.27-6.44-4.18-6.94a1.25,1.25,0,0,1-.83-.5c-2.69-4.58-6.59-8.91-7.7-13.85-1.23-5.51,3-9.29,7.31-13.3,7.76-7.16,16.71-5.85,25.5-6.13,6.83-.23,10.59,5.08,14.17,10,2.42,3.3,4.78,4.26,9.22,3.3,5.36-1.17,11.15-.28,16.76-.35a29.75,29.75,0,0,0,5.16-.48q10.73-2.07,21.42-4.31c9-1.9,18-4.65,27.07-5.6,11.49-1.19,22.77-5.2,34.68-2.53,4.74,1.06,9.82,1.42,14.7-1.47,2.15-1.27,5.59-.53,8.43-.45a83.81,83.81,0,0,1,8.36.79c4.69.63,9.39.34,12.35,5.86,1.69,3.16,5.8,4.63,5.67,9.56s-3.76,13.7-7.92,16.52c-6.68,4.52-14.43,7.47-22,7.44s-16.6.84-21.67-7.55C699.25,126.92,698.57,125.11,697.26,122.37Z"/><path d="M433.17,227.33c-7.38-2.18-14.52-4.75-21.88-6.29-4.66-1-9.65-.56-14.48-.46-9.39.19-18.77.8-28.16.86-7.53.06-15.07-.62-22.6-.59-3.25,0-5.54.9-5.56,5.59,0,8.92-1.5,17.83-2.12,26.76-.27,3.91.26,7.87.13,11.8-.13,4.52-.6,9-.9,13.54-.27,4.21-.58,8,1.8,12.29a64.35,64.35,0,0,1,6.43,18.62c1.11,5.51-.4,10.6-5.15,15-7.88,7.33-17.18,9.57-27.33,9.75a71.88,71.88,0,0,1-14.15-.88c-7.38-1.37-12.34-7.91-12.64-15.33-.43-10.23,4-18.29,10.7-25.61a14.39,14.39,0,0,0,3.41-8.15c1.53-20.34,2.62-40.7,4-61.05.86-12.32,1.78-24.65,3.15-36.92,1.3-11.58,3.7-23.06,4.73-34.67.79-9,.23-18,.22-27.07,0-2.72-1.62-2.49-3.94-3.2a29.7,29.7,0,0,1-12.61-7.74c-3-3.26-.28-7.57,2-10.86,3.62-5.25,7.39-10.23,7.91-17.08.13-1.73,3.53-4.07,5.8-4.63,9.05-2.25,18.21-3,27,1.22,8.68,4.18,13,11.65,10.74,23.48-.45,2.34.34,4.93.58,7.4a24.53,24.53,0,0,1,.44,3.88c-.57,9.66,1.51,19.4-.95,29a108,108,0,0,0-2.44,11.54c-.58,4-.61,8-1,12-.79,7.37-1.74,14.72-2.53,22.09-.36,3.45,1.56,5.09,4.8,4.59,10.92-1.68,21.93.47,32.69-.39,11.11-.9,22,.85,32.92.46,6.33-.23,12.7-.27,19-1.09,2-.26,5.17-2.5,5.43-4.19,1.74-11.24,2.68-22.6,4.21-33.88,1-7.44,2.49-14.83,4-22.2.52-2.61.15-3.72-2.44-5.38s-5.19-5.41-5.31-8.34c-.69-16.51,5.23-31.2,26.61-31.4a14.35,14.35,0,0,0,1.95.11c9.94-1.58,16,1.2,20.92,9.62,4.08,7,2.84,15.19-2.95,21.79a9.89,9.89,0,0,0-1.82,5c-.68,4.68-2.35,9.71-1.29,14,1.27,5.2-2.17,8.63-2.54,13-.4,4.71-1.53,9.35-2.23,14-2.76,18.49-5.56,37-8.13,55.49-.47,3.37.24,6.9.12,10.34-.23,6.27-.52,12.54-1.06,18.79-.73,8.44-1.82,16.85-2.47,25.29-.1,1.26,1.14,2.91,2.21,3.89,2,1.86,4.55,3.19,6.59,5.05,5.06,4.61,5.35,11.11,1.25,16.57-1.7,2.26-2.67,5.05-4.22,7.44-6.12,9.49-16.56,11.24-26.21,12.38-6.05.72-13.57-1.47-18.61-5-3.39-2.35-4.57-9.2-4.92-14.17s2-9.77,6.42-13.23c1.34-1,1.86-3.69,2-5.66,1-12.68,1.85-25.36,2.48-38.06C433.44,240.08,433.17,233.56,433.17,227.33Z"/><path d="M1310.12,157.37c0,7.17,2,12.58,4.54,18.5,5.4,12.65,16.55,13.91,27.06,17.42a98.58,98.58,0,0,1,17,7.07c8.88,5,17.85,10.07,25.8,16.36a40.52,40.52,0,0,1,15.38,27.79c1.22,10.93,1.76,22,2,33,.11,5-.31,10.4-2.21,14.9-1.46,3.47-5.31,6.23-8.63,8.56-6.19,4.36-12.65,8.35-19.2,12.14-4,2.33-8.28,4.71-12.74,5.75s-9,.19-13.56.42a80.69,80.69,0,0,0-12.73,1.2c-9.81,2.07-19.4,2.25-29.17-.57-7.26-2.1-14.92-2.81-22.16-5s-11.87-7-14.36-14.4c-3.61-10.62-7.91-21-11.81-31.54a32.71,32.71,0,0,1-1.89-7.32c-.57-4.76-4.51-6.24-7.46-9-5-4.64-2.06-18.43,4-22.26a76.53,76.53,0,0,1,8.68-5.19,18.77,18.77,0,0,1,15.25-.34c3.55,1.36,7.75.93,11.44,2a9.89,9.89,0,0,1,5.08,4.22c1.87,3.19,4.14,6.79,4.17,10.23,0,3.79-2.26,7.6-3.58,11.39-.62,1.8-2.25,3.8-1.86,5.3,2.5,9.66,5.46,19.2,8.21,28.79,1.17,4.08,3.56,6.35,8,6.89,4.15.51,8.23,2.64,12.29,2.49,12.64-.46,25.66,1.27,37.64-4.14,3-1.36,5.64-4.6,7.41-7.59,5.42-9.15,3.89-19,1.66-28.66a112.76,112.76,0,0,0-3.55-11.8c-2.49-7.07-7.44-12-13.86-15.72-3.09-1.78-5.7-4.5-8.91-5.92-6.73-3-13.66-5.52-20.62-7.94-7.46-2.59-15.1-4.67-22.54-7.34-1.63-.58-3-2.52-4-4.16-4.8-8.3-10.24-16.36-13.9-25.15-4-9.52-1.62-19.78-.41-29.73.34-2.83,0-5.82.81-8.5.6-2,2.95-3.5,3.72-5.53,4.06-10.6,12.88-16.83,21.16-23.6,2.9-2.37,5.55-5.22,8.78-7A54,54,0,0,1,1324.5,98c6.89-1.61,14.14-1.74,21-3.47,9.1-2.3,16.43.82,24.14,5,6.72,3.67,14.05,7.54,21.43,8.31,6.77.71,11.67,3.57,16.48,7.12,4.56,3.36,5.32,8.75,2.84,13.79a41.65,41.65,0,0,1-4.73,7.67c-2.27,2.83-5.44,3.54-9.2,3.7-5.48.24-10.92,2.31-16.37,2.27-5,0-10-1.48-14.84-2.94-4-1.21-5.83-4.42-6.14-8.74-.1-1.42-1.7-3-3-4-2.64-2-5.61-3.56-8.36-5.42-6.15-4.18-11.76-1.22-16.49,2.16-5.51,3.94-11.21,8.42-14.84,14C1312.46,143.42,1308.64,150.27,1310.12,157.37Z"/><path d="M248.1,105q-13.69-3.31-27.4-6.62a17.21,17.21,0,0,0-3.86-.69c-8.72-.07-17.44-.17-26.15.09-1.28,0-3.51,1.86-3.6,3-.69,7.94-.64,16-1.39,23.88-1,10.77-2.7,21.48-3.78,32.25-2,20.43-4,40.87-5.71,61.33-.57,6.88-.15,13.83-.37,20.75-.18,6-.67,12-.93,18-.39,8.67-.31,17.38-1.15,26-.62,6.35,2.64,10.47,6.23,14.79,4.92,5.94,4.82,8.6.62,15.25-2.05,3.26-3.41,6.95-5.23,10.37a7.92,7.92,0,0,1-2.77,3.34c-5.54,2.86-10.1,8.09-17.45,6.74-2.29-.42-4.85.94-7.31,1.14a62.75,62.75,0,0,1-11.45.34,42.2,42.2,0,0,1-12.07-2.73c-6-2.52-8.13-7.66-5.19-13.5C122,313.1,125.8,308,129.63,303c2.09-2.73,5.62-4.4,7.52-7.21,1.48-2.18,1.89-5.35,2-8.12.67-13.83,1.16-27.67,1.56-41.51.21-7.37-.33-14.79.26-22.12,1.69-20.8,3.81-41.58,5.71-62.36,1.11-12.1,2.2-24.2,3.18-36.31.56-6.87,1.21-13.76,1.2-20.64,0-5.66-1.69-6.7-7.37-6-5.22.63-10.42,1.6-15.66,1.86-4.39.22-8.88-.93-13.23-.47-8.76.91-17.45,2.51-26.18,3.8-1.12.17-2.85.67-3.31.15-4.59-5.19-11.43-2.89-16.85-5.25C58.08,94.26,58,95.48,59.77,84.3c.47-2.9-.38-6,.3-8.86a105.69,105.69,0,0,1,4.48-13.12A4.34,4.34,0,0,1,67,60.06c8.61-2.59,17.17-6.4,25.81.4,2.33,1.83,5.62,2.64,8.59,3.41,5.1,1.33,7.36,5.39,9.4,9.44,1.54,3,3.67,3.33,6.52,3.09,7.06-.61,14.12-1.33,21.2-1.56,15.37-.5,30.76-.54,46.13-1.11,11.49-.41,23-.94,34.41-2.29,3.75-.45,7.34-3.41,10.72-5.64,9-5.95,19.07-7.12,29.18-5.54,4,.62,7.95,4.24,10.83,7.47,2,2.28,2.7,6.16,3.06,9.42.22,2-1.16,4.29-2,6.36-2.05,4.86-3.84,9.87-6.46,14.41-2.1,3.65-6.83,5.7-16,5.75Z"/><path d="M1162.14,311.11c-7.39.59-11.55-2.19-14-8.26-2.19-5.52-5.73-10.62-7.14-16.29-.85-3.39,1-7.58,2.11-11.27.85-2.78,3.26-5.24,3.6-8,.92-7.37,1-14.85,1.59-22.27.78-9,1.88-18,2.75-26.95q1.65-17.17,3.14-34.37c.36-4.11.58-8.24.83-12.36.31-5.06-.91-9.22-5.15-12.76-3.68-3.08-5-7.64-3.8-12.63.26-1,.61-2.4.16-3.17-3.88-6.65-1.16-11.24,3.85-16,4.33-4.13,8.64-7.19,14.83-7.63,2.71-.19,5.53-2.93,7.94-2.51a22.09,22.09,0,0,1,10.34,4.83A70.1,70.1,0,0,1,1195.3,135c1.41,2.11.69,6,.18,8.95-.78,4.44-2.78,8.71-3.28,13.15-1,8.92-1.06,17.94-2,26.86-1.8,16.58-4.28,33.09-5.85,49.69-.8,8.52-.44,17.17-.12,25.74.06,1.62,2.08,3.94,3.73,4.6,10.6,4.28,15.1,17.73,9,27.42-2.44,3.86-3.9,8.89-7.28,11.46-4.85,3.67-10.86,6.14-16.72,8C1169.35,312,1165.13,311.11,1162.14,311.11Z"/><path d="M1179.76,5.83c5.71.11,12.84.71,19.3,6,10.17,8.27,9.31,29.73-2.52,34.69-5.67,2.37-12.43,2.59-18.74,2.88-4.27.2-8.65-1-12.92-1.88-5.42-1.13-9.11-5-11.22-9.62-3.06-6.74-.86-13.49,2.14-19.77C1161.33,6.48,1166.68,6.09,1179.76,5.83Z"/></svg>