<svg id="Layer_1" data-name="Layer 1" xmlns="http://www.w3.org/2000/svg" viewBox="0 0 888 525"><path d="M217.57,421c3.47-12.28,7.05-24.53,10.4-36.84,7.27-26.79,13-54,23.07-80,3.84-9.92,8.67-19,17.38-26.05,9.49-7.7,11.29-8,21.09-1.19a35.72,35.72,0,0,1,14.33,19.88c2.07,6.79,3.88,13.66,6.13,20.4,1.12,3.36,2.94,6.48,5,10.87,1.57-4.68,3.24-8,3.78-11.57,2.74-18,9.91-34.61,16.94-51.14a143.37,143.37,0,0,1,15-26.52c4-5.68,9.85-10.17,15.28-14.69,3.44-2.87,7.57-4.95,11.51-7.15,4.93-2.75,9.81-2.07,14,1.72,3.43,3.1,7.07,6,10.11,9.48a15.44,15.44,0,0,1,3.91,7.64c1,8.58,2.36,17.32,1.75,25.86a365.29,365.29,0,0,1-5.59,43.37,59.42,59.42,0,0,1-8.89,21.41c-6.24,9.23-13.8,17.67-21.47,25.8-6.49,6.89-15.12,10.36-24.44,12.17-10.59,2.06-9,.48-10.4,11.13-2.34,18.42-2.68,36.89,2.88,54.9,1,3.18,3.47,8,5.63,8.23,3.31.31,8-1.85,10.23-4.53,7.66-9.2,14.13-19.38,21.75-28.62,9.64-11.7,14.12-26,20.89-39.13,5.81-11.26,10.45-23.14,15.17-34.93,5.74-14.36,11.08-28.89,16.48-43.39,4.68-12.56,8.75-25.38,13.95-37.73,3.78-9,10.27-16.38,18-22.39,3-2.33,8.74-.75,12.8,3,6.28,5.85,9.1,12.23,6.27,21.3-3.72,11.94-5.79,24.38-8.94,36.51-3.06,11.75-6.7,23.35-9.89,35.06q-5.48,20.07-10.58,40.23c-3.37,13.4-6.92,26.79-9.55,40.34-1.78,9.21-2.11,18.7-3.09,28.06l1.47.78c1.19-.85,2.71-1.47,3.5-2.6,6.6-9.45,13.8-18.58,19.39-28.6,8.34-14.94,15.55-30.5,23.15-45.83,7-14.16,14-28.33,20.8-42.6,3.46-7.29,6.08-15,9.7-22.19,4.21-8.37,8.39-16.93,13.93-24.41,3.9-5.27,10-8.94,15.28-13.13a4.24,4.24,0,0,1,3.72-.17c12.6,6.19,17.16,14.74,14.42,28.32-2.49,12.36-5.47,24.64-8.6,36.86-2.62,10.22-6,20.26-8.62,30.47-3.21,12.32-6.39,24.66-8.91,37.13-2.18,10.83-3.45,21.85-5.05,32.79a55.92,55.92,0,0,0,0,6.42c2.85-2.27,4.94-3.49,6.44-5.21,9.79-11.32,19.33-22.73,26.23-36.26,9-17.63,19.29-34.59,28.32-52.2C600.88,318,607,303.36,613.75,289c3.11-6.67,6.34-13.27,9.63-19.85q3.4-6.78,7.15-13.38a12.06,12.06,0,0,1,3.2-3.55c2.71-2,5.4-4.29,8.48-5.54,2.06-.84,5.27-1,7.1.05,11.15,6.4,14.13,13.81,12.06,26.66-2,12.37-3.45,24.83-5.33,37.23-3.16,20.9-6.9,41.72-9.52,62.68-1.34,10.75-.79,21.73-1.12,32.61a21.25,21.25,0,0,0,.45,6.68,17.19,17.19,0,0,0,1.67-2.46c3.7-8.28,7.8-16.42,10.89-24.93,4-11.13,7.15-22.6,10.87-33.85,3.1-9.4,6.58-18.67,9.77-28,4.37-12.84,8.6-25.74,12.94-38.59,4.06-12,8.24-24,12.27-36,1.28-3.86,1.81-8,3.5-11.67,1.12-2.42,4.17-3.89,5.51-6.27a48.83,48.83,0,0,0,4.16-10.39c3.44-11.86,6-24,10.15-35.62,4-11.24,12-19.8,23.63-23.35,4.71-1.43,10.33.3,15.54.35,11.7.1,23.53,1.1,35.08-.22,13.18-1.52,17.26.62,23.82,12.49,3.71,6.71,1.42,10.21-2.27,15-9.34,12.1-18.78,24.17-27.29,36.84-5.65,8.42-9.77,17.86-14.56,26.84a51.67,51.67,0,0,0-5.88,23.6c-.26,10.67,3.86,19.36,11.33,26.51,10.32,9.89,21.09,19.31,31.32,29.29a29.58,29.58,0,0,1,9,21.23c.05,3.74.33,7.59-.41,11.2-2.79,13.47-11.78,23-22.18,30.79a203,203,0,0,1-30,18.48c-9.06,4.59-18.83,9.18-29.27,8.08-6.12-.64-13.2.3-18.39-5-2.49-2.55-3.14-5.85-1.39-8,2.54-3.15,6.18-7.12,9.68-7.47a59,59,0,0,0,30.83-12.25,230,230,0,0,0,24-21.1c8.81-9,6.88-19.41-2.81-27.47-13.23-11-25.52-23.06-35-37.38-10.14-15.27-11.51-31.87-4.37-49.06,6.17-14.83,12.73-29.41,21.91-42.68,3.55-5.12,7-10.3,10.51-15.48,1.07-1.58,2-3.24,3.35-5.44-7.89-.71-14.93-1.78-22-1.73-2.36,0-5.75,2.34-6.86,4.53a206.26,206.26,0,0,0-9.46,22.23c-1.41,3.81-1.82,8-2.58,12-.49,2.64-.74,5.4-5.48,3.52.41,3.21.89,5.84,1.07,8.49.2,3.11.83,6.4.11,9.33-4.39,17.88-9.6,35.57-13.58,53.54-4.36,19.73-7.93,39.64-11.34,59.57-1.86,10.9-2.78,22-3.92,33-.41,3.92.18,8-.44,11.83-.59,3.61-2.14,7.1-7.06,6.41-.48-.07-1.15-.2-1.44.05-8.36,7-15.14-.11-23-2.62-1.89,4.35-3.65,8.91-5.82,13.25-4.19,8.37-8.5,16.69-13.06,24.86a8.57,8.57,0,0,1-4.73,3.36,103.49,103.49,0,0,1-14.75,3.65c-9,1.36-18.07-6.33-20.62-14.93-6.26-21.15-4.49-42.7-4.18-64.17.09-6.91,1.67-13.8,2.5-20.7.16-1.25,0-2.53,0-5.31-2,2-3.38,2.87-4,4.12-5.23,10.81-10.22,21.74-15.48,32.54a196.34,196.34,0,0,1-27.8,42c-5.73,6.67-12.36,13.31-20,17.41-8.16,4.39-17.7,7.69-27.54,5.38a34,34,0,0,1-11.68-5c-7.54-5.33-9.8-13.27-9.09-22.19.72-9.21,1.35-18.43,2.31-27.62.45-4.3,1.59-8.53,2.42-12.79l-1.72-.6c-1.44,2.92-3,5.8-4.31,8.76C492.19,410.4,483.46,427.86,471,443c-5.26,6.43-11.14,12.67-20.24,14.25-3,.52-5.73,2.52-8.68,3.6-8.9,3.27-17-1.24-24.93-3.67-4.54-1.38-6.64-7.22-7.52-12.57a125.83,125.83,0,0,1-.08-38c-.89,1.52-1.75,3.05-2.65,4.55-9.54,15.88-19.66,31.51-34.44,42.93-5.83,4.52-13.78,7-21.16,8.68-12.43,2.86-23.07-1.07-32.08-10.56-2.29-2.41-3.06-5-4.65-7.44-6-9.26-6.91-19.88-7.71-30.24-.83-10.62-.06-21.39.3-32.08.21-6.06,1.19-12.11,1.37-18.17,0-1.35-1.58-3.16-2.91-4.06-10.24-7-17.57-16.43-23.08-27.26-2.49-4.89-3.74-10.41-6.66-15.8-1.62,4.51-3.6,8.92-4.81,13.54-4.54,17.41-8.53,35-13.3,52.31-5.11,18.58-10.54,37.08-16.46,55.42-2.71,8.38-6.9,16.28-10.45,24.38-3,6.93-10,7.53-15.93,8.89-3.79.87-8.79,3.56-12.33-1.38-10.8,1.49-10.25-7.49-11.48-13.52a173.28,173.28,0,0,1-3.57-29.49c-.52-17.45-.36-34.94.08-52.39.26-10.22,1.39-20.44,2.55-30.61q2.89-25.58,6.37-51.09c2.66-19.46,5.45-38.9,8.53-58.3,2.84-17.89,6.19-35.69,9.18-53.56.79-4.67,1.08-9.42,1.6-14.14l-1.24-.22c-2.08,4.52-4.34,9-6.21,13.56-5.54,13.68-11.08,27.36-16.32,41.15-3.16,8.33-5.67,16.9-8.63,25.31-1.12,3.17-2.67,6.19-4,9.27-.53,1.2-1.67,2.42-1.58,3.56.63,8.59-4.19,15.7-6.11,23.57-1.61,6.64-3.07,13.31-4.79,19.91-4.2,16.14-8.76,32.19-12.7,48.39-2.73,11.24-4.54,22.71-7,34-2.67,12.37-5.79,24.64-8.27,37-.94,4.68-.59,9.62-.93,14.43-.64,8.87-4.13,16.42-11.76,21.22-2.84,1.78-6.7,2.15-10.16,2.71-3,.48-6,.18-9,.44-2.75.25-7.39-3.49-7.61-7.25-.47-8.09-.69-16.23-.45-24.34.26-8.76,1.08-17.51,1.84-26.25.35-4,1.09-8.06,1.75-12.08,1.55-9.56,3.27-19.09,4.72-28.66,1.74-11.55,3.08-23.16,5-34.69,1.81-11.06,4.22-22,6.11-33.05,2.21-13,4-26,6.21-39,3.16-18.72,6.52-37.42,9.74-56.13,2.1-12.18,4.11-24.37,6.13-36.56a18.37,18.37,0,0,0,0-2.41c-4.51,1.77-8.74,3.11-12.69,5-15.06,7.32-30.31,14.09-46.67,18.08-9.11,2.22-18.06,5.46-27.29,6.65-5.58.72-11.86-.79-17.27-2.79-4.73-1.76-3.08-11,2.74-14.57a78.15,78.15,0,0,1,13.34-6.28c5.79-2.23,11.84-3.78,17.64-6q13.19-5,26.17-10.5c9.85-4.17,19.67-8.44,29.36-13,8.2-3.84,16.16-8.16,24.28-12.18,5.4-2.67,5.6-8.56,8.15-13,5.71-9.89,10.64-20.08,20.38-27.21,7.71-5.66,15.3-11.37,24.52-14,4.44-1.27,9.35-.88,13.68-1.21,1.46,6.14-.83,8.62-5.42,11.56-7.43,4.76-13.77,11.29-20.33,17.33-1.68,1.54-2.47,4-3.67,6.09l.88,1a24.81,24.81,0,0,0,4.43-1.38c8.86-4.75,17.67-9.61,26.51-14.41,4.74-2.56,9.59-4.94,14.22-7.69.94-.56,1.6-2.38,1.58-3.6,0-1.92-.77-3.83-1.42-6.71,6.27-1.46,12.31-3.52,18.47-4,2.9-.23,6.22,2.28,9,4,8.57,5.38,10.22,16.61,2,22.15-8.79,6-9.42,13-9.32,22.52.13,12.26-2.31,24.57-3.91,36.82-1.47,11.31-3,22.61-5,33.84-2.39,13.64-5.46,27.16-7.83,40.81-2.14,12.33-3.59,24.78-5.63,37.13-1.5,9.08-3.75,18-5.13,27.14-1.6,10.6-2.57,21.3-3.9,31.94C222,329,221,333,220.71,337.06c-1.47,18.25-3,36.5-4,54.77-.55,9.62-.1,19.29-.1,28.94ZM142.74,312.88C155,295,154,273.5,162.84,254.11l.38-.17c.46-3.81.39-6.68,1.2-9.29,2.08-6.67,4-13.26,7.52-19.6,4-7.07,5.31-15.6,7.9-23.46,2.18-6.61,4.22-13.27,6.83-19.7,6.47-15.9,13.23-31.67,19.89-47.49,1-2.34,2-4.65,3.29-7.47-1.37.06-2.09-.11-2.59.15-9,4.52-18.1,8.73-26.7,13.84-2.9,1.72-5,5.51-6.44,8.8-1.7,3.85-2.43,8.15-3.33,12.31-2.82,13-5.77,26-8.22,39.13-4.3,23-8.19,46.06-12.44,69-2.07,11.2-4.66,22.29-6.82,33.47C142.74,306.59,142.91,309.65,142.74,312.88Zm199.68,25.47c1.46-.52,2-.56,2.33-.86,6.18-6.3,12.65-12.36,18.38-19.05a40.75,40.75,0,0,0,7.63-13,199.82,199.82,0,0,0,6.35-24.65,117.82,117.82,0,0,0,1.69-16.71c.27-4.49.06-9,.06-13.52l-1.43-.4C357.38,275.78,349.74,306.45,342.42,338.35Z"/><path d="M674.74,116.76c7.68-.27,10.76,6.78,16.19,9.79-.92,4.71-1.22,9.7-3.14,14-.56,1.25-6.22,1.54-8.61.37-4.43-2.16-8.17-5.71-12.17-8.72a14.18,14.18,0,0,1-2.13-2c-1.27-1.45-3.8-3.43-3.47-4.36.93-2.61,2.59-5.5,4.83-7S671.87,117.4,674.74,116.76Z"/></svg>