<svg id="Layer_1" data-name="Layer 1" xmlns="http://www.w3.org/2000/svg" viewBox="0 0 847.17 310.56"><path d="M460.05,149c3.16-3.92,6.28-7.88,9.54-11.73a12.87,12.87,0,0,1,3.39-2.68q6.43-3.71,13-7.21a5.79,5.79,0,0,1,2.82-.8c8.65.31,17.31.88,23.12,8.6,3.44,4.57,6.67,9.3,9.73,14.13,2.68,4.23,3.55,4.15,7.14.48,6.21-6.35,12.58-12.59,19.33-18.35,5.65-4.82,12.19-4.24,18.29.71a28.49,28.49,0,0,1,10.66,23.11c-.13,15-1.61,29.91-2.16,44.87-.47,12.47-.44,25-.58,37.44,0,4,1.11,8.26-.06,11.83-1.92,5.87-8.46,6.37-13.36,7.87-3.79,1.17-8.35.24-12.5-.25-5.5-.66-7.83-3.37-7.53-9.05.69-13.33,1.9-26.64,2.48-40,.39-8.86.08-17.76.08-26.46-5.18,5-7.58,12-9.43,19-2.45,9.35-4.09,18.91-6.29,28.33a86.68,86.68,0,0,1-3.49,10.3,2.71,2.71,0,0,1-1.64,1.61c-8.29,1.14-16.52,3.54-24.88-.15-3.84-1.7-5.47-4.37-4.94-8.14,1-7.2,2.43-14.34,3.73-21.49a98.92,98.92,0,0,0-3.94-50.91c-.4-1.12-1.63-2.82-2.37-2.77a5.23,5.23,0,0,0-3.39,2.24c-9.87,14.81-17.31,30.66-20.28,48.38-1.44,8.62-3.15,17.18-4.69,25.78a12.56,12.56,0,0,0-.37,4.45c1.51,7.63-2.52,12.66-8.73,15.05-5.09,2-10.88,4.65-16.68,1.18a3.37,3.37,0,0,0-1.4-.52c-7-.38-6.9-4.9-6.62-10.31.9-18.18,2.35-36.42,1.75-54.57-.51-15.32-3.56-30.56-5.53-45.83-.5-3.84-1.58-7.64-1.67-11.48-.09-4.33,2-7.63,6.17-9.7,2.43-1.22,4.27-3.78,6.76-4.7,5.88-2.17,15.87,3.35,18.28,10.4,1.69,4.94,2.17,10.3,3.22,15.47.36,1.81.79,3.6,1.2,5.41Z"/><path d="M250.36,151.06c-2.9,6.17-6.73,12.08-8.51,18.55-4.77,17.28-8.74,34.78-12.84,52.24-1.08,4.62-1.37,9.43-2.2,14.12-.22,1.24-.72,2.9-1.65,3.48-3.86,2.41-7.93,4.49-11.95,6.64a2,2,0,0,1-1.47.15c-5.48-1.91-11.35-3.21-16.22-6.15-2-1.19-3-6.28-2.32-9.14,7-31.37,6.16-63.16,5.84-95-.21-21,.18-42,1-63,.17-4.2,2.57-10.07,5.81-11.93,3.76-2.16,5.82-6,9.5-7.53,1.94-.83,5.12-.92,6.77.14,6.13,4,9,9.55,7.92,17.26-2.75,19.1-2.41,38.31-1.22,57.51.08,1.26.33,2.51.64,4.76,4.34-4.73,7.69-9.24,11.89-12.72a60.23,60.23,0,0,1,14.23-8.89c6.15-2.67,14,1.09,19.2,7.9a47.65,47.65,0,0,1,9.48,26.22c1.18,17.69,1.67,35.43,2.25,53.16.61,18.7,1.09,37.4,1.34,56.1a11.68,11.68,0,0,1-2.71,7.1c-4.87,5.69-16.75,7.76-23.76,5.19-6.11-2.24-7.58-6.66-7.42-12.44.43-16.07,1.14-32.15,1-48.22-.09-14.71-1.1-29.41-1.67-44.12-.07-1.82.23-3.66,0-5.46a52.24,52.24,0,0,0-1.3-5.74Z"/><path d="M133.78,89.77c-.82,12.55-1.6,25.1-2.48,37.64-1,14.34-2,28.68-3.22,43-.93,10.56-2.37,21.07-3.55,31.6-1.27,11.46-2.42,22.94-3.75,34.39s-11.32,25.24-24.63,25.65c-5.56.18-7.75-1.64-7-7.22,1.59-12.13,3.55-24.23,4.88-36.39q3.54-32.22,6.46-64.49c1-11,1.39-22.14,2.13-33.21q1.07-15.75,2.29-31.49c.39-5.1-1-6.26-6.11-4.73-17.45,5.23-34.85,10.64-52.37,15.59-4.9,1.39-10.16,1.56-15.28,2a4.57,4.57,0,0,1-3.7-1.56c-.46-.76.51-2.49,1-3.72C33.3,84.7,44.69,82,55.38,78.16c11.19-4,22.28-8.24,33.55-12s22.41-7,33.7-10.19c15-4.28,30-8.32,45.06-12.48,7.32-2,14.58-4.3,21.95-6.09,5.07-1.23,11.72,2.23,13.83,6.61,1.95,4.05.43,11.48-3.78,14.11A38.89,38.89,0,0,1,188,62.69c-8.14,1.92-16.45,3.09-24.61,5-8.68,2-17.29,4.29-25.85,6.75a5.46,5.46,0,0,0-3.26,3.51,113.88,113.88,0,0,0-.77,11.85Z"/><path d="M341.77,210.29c-.27,7.09,4.79,12.48,12.8,14.55,5.87,1.52,10.88,1.11,15.1-4,5.5-6.72,11.28-13.22,17.2-19.56a78.89,78.89,0,0,1,10.6-9.49c3.67-2.71,6.3-1,6.71,3.68.81,9.44-3.07,17.71-5.8,26.4-2.42,7.7-6.92,13.9-11.91,19.71-3,3.5-7.32,7-11.64,8-7.39,1.79-15.51,3.24-22.83,2-12-2.08-23.59-6.36-32.38-15.63-5.95-6.28-8.93-14.15-11.37-22.23a9.72,9.72,0,0,0-5.88-6.77c-4.41-1.88-5.95-6.31-2.66-9.4,8.06-7.56,5.88-17.65,7.86-26.71,2-9.31,3.74-18.65,9.74-26.65a57.86,57.86,0,0,1,34.76-22.65c2.09-.47,4.14-1.2,6.25-1.55,5.82-1,10.68.32,16.37,3.1,14.45,7,17.92,17.75,16.2,32.56-1.18,10.2-6.23,18.65-9.58,27.86-1.78,4.88-3.32,10.28-6.55,14.11a34.17,34.17,0,0,1-27.22,12.71Zm-5.68-32c-.14,7.19,2.84,9.07,8.36,6.16a11.87,11.87,0,0,0,4.48-3.62,82.76,82.76,0,0,0,5.67-10.69c2.29-5.09,4.77-10.19,6.18-15.55A10.29,10.29,0,0,0,359,146.4c-.94-1.09-5.05,0-7.48.83a18.76,18.76,0,0,0-12.85,14.5C337.4,167.54,336.81,173.48,336.09,178.32Z"/><path d="M729,277.53c-4.89-.78-9.88-1.19-14.6-2.53-2.09-.6-4.06-2.83-5.22-4.82-.43-.74,1.59-2.93,2.54-4.43.35-.54,1.22-1.07,1.17-1.52-1.2-9.48,7.2-7.58,11.44-8.36,14.94-2.77,24-11.77,30-24.83.14-.3.22-.63.36-.93,4.8-10.64,4.71-10.61-6.41-14.58-9.88-3.54-19.91-6.91-28.35-13.44-4.51-3.5-9.57-6.7-12.95-11.12-4.1-5.35-4.27-12.18-3.49-19a92.08,92.08,0,0,1,7.31-28c3.72-8.1,9.85-15.12,15.06-22.51,1.42-2,3.41-3.61,5.07-5.46,6.64-7.42,14.68-12.89,24.33-15.18,4.17-1,8.93-.43,13.24.38,15.66,3,25.92,12.09,29.56,27.8,1.17,5,1.4,10.26,2,15.42.81,7.35-5.11,9.39-10,11.8-2.82,1.4-6.86,3.05-9.28,2.05-6.58-2.74-7.75-1.92-8.35-10.23-.52-7.07-3.22-14.06-5.54-20.89-1.27-3.73-4.32-3.8-8.16-1.49-15.07,9.08-20,24.36-24.61,39.81a33.74,33.74,0,0,0-.92,5.86c-1.15,9.75,6.09,12.6,13,15.53,8.64,3.64,17.4,7,26.07,10.61,12.79,5.31,18.82,16.25,16.48,29.83-1.84,10.66-8,18.94-14.66,27.1a64.08,64.08,0,0,1-20.06,16C746.21,274.59,738.23,278.06,729,277.53Z"/><path d="M628.26,152.26c-8.5,6-16.39,11.58-24.2,17.22-4.7,3.39-15.4,2.58-19-1.86-.84-1-.8-3.05-.64-4.56.7-6.68,4.19-12,8.91-16.46,9.63-9.11,19.38-17.87,32.39-22.44,16.51-5.79,29-.45,34.38,14,2.52,6.71,2.74,14.7,2.33,22-.87,15.17-3.17,30.25-4.26,45.41a247.57,247.57,0,0,0-.11,28.18c.16,3.61,1.71,7.24,3.09,10.69s-1.43,11-4.4,12.81c-7,4.35-14.23,3.59-21.6,1.88-5.07-1.17-7.81-5.16-7.94-10.46-.24-9.94-1.28-19.9-.93-29.82.51-14.55,2-29.06,2.94-43.61.39-6.42.36-12.86.39-19.3C629.61,154.89,628.87,153.87,628.26,152.26Z"/><path d="M669.57,88.5c1.34,5-2.79,7.55-6.14,9.39-4.18,2.29-9,4.62-14,1.23-1.74-1.17-3.77-1.91-5.61-2.93-2.32-1.29-6.26-.67-5.84-5.2.47-5.06-.22-10.5,5.75-13.16,3.29-1.47,6.39-3.41,9.78-4.55a11.21,11.21,0,0,1,6.56-.16C663.92,74.35,669.52,83.77,669.57,88.5Z"/></svg>