<svg id="Layer_1" data-name="Layer 1" xmlns="http://www.w3.org/2000/svg" viewBox="0 0 1762 547"><path d="M1744.29,335.55c.62,10.35,1.6,20.69,1.73,31.05.08,5.94-1.18,11.91-1.89,17.86-.29,2.43-.86,4.83-1.1,7.26-1.2,12.12-6.93,22.31-13.22,32.38-3.64,5.83-6.06,12.42-9.76,18.2a122,122,0,0,1-13,17.14A257.73,257.73,0,0,1,1668.76,493c-6.5,4.73-12.84,9.8-19.83,13.68-6.41,3.55-13.52,5.94-20.46,8.44-11.49,4.15-23,8.2-34.69,11.8-4,1.22-8.55.44-12.6,1.52-8.53,2.26-17,.86-25.54.73a115.1,115.1,0,0,1-38.51-6.73c-10.3-3.79-21.05-6.4-31.59-9.57A92.22,92.22,0,0,1,1455,496.68c-3.13-2.46-7.26-3.61-10.66-5.79-8-5.12-15.88-10.46-19.48-19.93a12.3,12.3,0,0,0-1.67-3.34c-4.83-6.11-6.73-13.22-8.45-20.69-1.68-7.29-5.28-14.11-7.6-21.28-1-3.13-1-6.6-1.28-9.93-.14-2.12.35-4.28.28-6.41-.38-10.32,1.94-19.58,10.5-26.24a8.89,8.89,0,0,1,5.05-1.45c10.42-.22,19.12-5.47,28.36-9.24,5.82-2.38,11.87-6.4,18.27-3,7.92,4.19,16.06,8,18.41,18.68,1.29,5.9,6,11.28,9.81,16.37a127.18,127.18,0,0,0,15.28,17.45c5.11,4.67,9.36,11.1,16.82,12.4,5.56,1,11.38.46,17,1.39,11,1.83,20.34-3.79,29.76-7.27,11.93-4.4,22.78-11.68,34.23-17.46,8.48-4.28,14.61-11.18,19.29-18.87,3.86-6.34,6.09-13.89,7.89-21.19,1.17-4.74.57-10,.26-15a164.71,164.71,0,0,0-2.14-19.46c-.63-3.45-2-7.27-4.27-9.82-7.11-8-13.72-16.15-24.66-20.29-8.25-3.12-15.6-4.06-24.13-2.56-6.58,1.16-13.54,0-20.31.25-13.94.59-26-5.85-38.3-10.68-11.52-4.53-22.51-11.43-29.53-22a198.78,198.78,0,0,1-15.78-30c-2-4.64-1.52-10.37-2.25-15.6-1-7.31-2.67-14.58-3.05-21.92a63.87,63.87,0,0,1,1.67-16.61c1.57-7.32,4.09-14.41,8.59-20.6a15.41,15.41,0,0,0,2.05-4c2.14-5.95,3.51-12,8.72-16.72,3.57-3.25,5.13-8.72,7.55-13.22,5.45-10.11,11.38-19.73,20.67-27,10-7.83,19.09-16.76,29.28-24.28,9.63-7.12,20.23-13,32.13-15.64,7.46-1.64,15.14-2.21,22.63-3.73,12.84-2.6,25.23-.44,37.46,3.11a193.64,193.64,0,0,1,21.45,7.59c6.52,2.76,13.12,5.73,18.91,9.73,4.13,2.84,7.1,7.43,10.36,11.43,4,4.86,7.78,9.85,11.49,14.91,1.43,2,2.13,4.48,3.62,6.37,5.39,6.82,4.79,15.09,6.09,22.95,1,6.26,2.16,12.66,4.44,18.53,3.81,9.86-1.46,16.83-12,16.84-8,0-16.06,1.89-23.88,3.82-10.91,2.69-21.54,6.49-32.43,9.28-9.52,2.43-19.16,4.51-28.86,6-6.13.93-10.66-3.14-12.58-8.74-1.18-3.44-1.36-9.4-6.49-8.06-2.09.54-3.49,6.83-3.75,10.61-.48,6.87,3.28,12.1,8.55,16.33s10.61,8.47,18.23,8.53c2.94,0,5.87,2.57,8.81,4,4.85,2.31,9.64,4.75,14.57,6.87,7.64,3.28,15.15,7.31,23.14,9.23,8.87,2.12,15.46,7.7,22.62,12.28,6.4,4.1,11.76,9.86,17.39,15.09a45.61,45.61,0,0,1,6.67,7.81c4.84,7.17,9.75,14.33,14,21.87,1.94,3.49,2.36,7.84,3.4,11.81,2.42,9.22,4.87,18.43,7.15,27.69a65.36,65.36,0,0,1,1,7.7Zm-33.13,11-.57-.12c-1.06-5.13-1.87-10.32-3.24-15.37-3.4-12.62-5-25.75-11-37.64a85.31,85.31,0,0,0-21.1-27.05,94.2,94.2,0,0,0-11.9-8.07c-2.71-1.67-5.67-2.93-8.52-4.36a55.71,55.71,0,0,0-6.13-3c-3.92-1.4-8.06-2.22-11.88-3.83-7.19-3-13.95-7.43-21.38-9.47-12.75-3.5-23.57-10.05-34.45-17.19-11.44-7.51-13.3-19.33-16.59-30.8-1.45-5,1.17-9.15,2.15-13.74,3.53-16.43,13.26-27.35,28.18-34.17a6.89,6.89,0,0,1,3.8-.33c3.25.53,6.46,1.31,9.69,2,3,.65,6.56.51,8.91,2.12,6.64,4.55,12.68,10,19.21,14.7,1.87,1.35,4.89,2.55,6.91,2,10.06-2.63,20-5.78,29.92-8.92,3-1,7.26-1.67,8.52-3.88,1.36-2.39-.11-6.39-.35-9.68a2.77,2.77,0,0,0,0-.5c-1.33-5.5-2.59-11-4.06-16.47a15.41,15.41,0,0,0-2.24-4.7c-4.19-6.1-8.48-12.12-12.8-18.12-.32-.45-1.2-.49-1.8-.75-6.58-2.87-13.39-5.31-19.69-8.7a41,41,0,0,0-26.35-4c-18.54,3.1-36.77,8-51.07,21.65-7.06,6.75-15.47,12.36-21.4,20-13.44,17.17-22.89,36.84-31.84,56.64a32.36,32.36,0,0,0-3.2,13.41c.16,7.86,1.6,15.69,2.58,23.52.56,4.41.46,9.12,2,13.14a188.22,188.22,0,0,0,10.76,22.13c3.3,5.91,7.6,11.13,14.55,13.31q9.86,3.11,19.62,6.49c8.65,3,17.51,2.5,26.34,1.5,11.33-1.27,22.52-2.89,33.43,2.54,4.83,2.4,10.41,3.29,15.32,5.58,5.43,2.54,11.53,4.92,15.47,9.12,5.58,6,11.41,11.76,15.82,19.06,4.59,7.58,7.8,14.76,7.23,23.64-.18,2.9,1,5.87,1,8.8-.16,9.35.51,18.9-1.22,28-2.16,11.37-8.57,21.2-15.26,30.69-8.21,11.63-19.31,19.55-31.64,26.14-3,1.62-5.56,4.1-8.47,5.94-4,2.52-8,5.3-12.34,7.09-8.7,3.58-17.67,6.52-26.51,9.8-7.07,2.63-14.08,5.41-21.16,8a8.22,8.22,0,0,1-3.32,0c-8.34-.68-16.7-1.16-25-2.15-6.85-.82-14.28,1.22-20.28-4.33-3.48-3.21-7.71-5.59-11.32-8.67a115.22,115.22,0,0,1-9.22-9.14c-3.67-3.95-7.34-7.92-10.69-12.14-4-5-8.38-10-11.21-15.63-5.27-10.55-4.37-13.7-17.46-8.21a2.26,2.26,0,0,1-.44.22c-3.54.9-5.46,3.29-5.23,6.79a125.4,125.4,0,0,0,2,17.45c3.6,17,10,32.54,25.25,42.64,8.11,5.38,16.07,11.29,24.86,15.27,9.34,4.22,19.72,6.07,29.41,9.61,15.35,5.63,31.06,9.05,47.41,8.52a168.39,168.39,0,0,0,25.47-2.62c7.59-1.43,15-4,22.32-6.54,6-2.07,12.39-4,17.6-7.43a341.13,341.13,0,0,0,28.18-21.39c7.53-6.24,15.14-12.64,21.43-20.05,5.38-6.34,8.27-14.74,13.45-21.3,11.65-14.79,12.44-32.25,13.49-49.68C1711.61,364.9,1711.16,355.72,1711.16,346.57Z"/><path d="M1009.5,412.48c-2.54,3-4.57,6.82-7.76,8.67-4,2.32-8.9,3.13-13.48,4.34-6.09,1.61-10.32-1.2-13.91-5.92-5.89-7.73-14.8-7.93-23.31-8.22-2-.07-3.88,3.27-6.16,4.23-1.77.74-4.07.27-6.13.22-2.43-.07-4.85-.31-7.28-.41-5.7-.22-9.23-4.5-8.81-10.15.48-6.59.57-13.2.85-19.8.32-7.46.24-15,1.09-22.38,1.75-15,4.16-29.95,6-45,1.5-12.23,2.54-24.53,3.87-36.79,2.25-20.86,4.87-41.7,6.75-62.6,1.57-17.39,2.27-34.85,3.4-52.28.36-5.6,1.1-11.18,1.13-16.77,0-2.78-1.26-5.54-1.76-8.35-.4-2.21-1.12-4.61-.63-6.68,1.1-4.61,1.6-9.18,5-13.43,2.78-3.51,2.92-9.2,4-14a46.7,46.7,0,0,0,1.2-8.8c.25-7.68,6.6-10.16,11.4-14.15,6.53-5.43,12.8-1,19.23-.2a54.3,54.3,0,0,0,9.46.13c10.62-.64,21.27-2.18,31.83-1.71,3.68.16,8.19,4.55,10.41,8.17a24.56,24.56,0,0,1,3.16,13.58c-.55,9.1-.55,17.94,2.16,26.76.94,3.07.27,6.6.87,9.82,1.82,9.67,4,19.28,5.83,28.95.86,4.5.92,9.17,1.9,13.64s2.71,9.08,4.5,14.87c3.41-7.36,6.29-13.83,9.39-20.19,5-10.22,10.23-20.3,15.11-30.56,1.94-4.1,3-8.6,4.8-12.8,5.5-13.15,11.42-26.14,16.57-39.43,1.78-4.58,1.93-9.83,2.54-14.8,1-8.19,7-12,13.46-15a10,10,0,0,1,7.54.2c5.19,2.47,10.83,4.92,14.72,8.91,3.46,3.55,6.78,4.67,10.92,3.8,5.06-1.06,9.88-3.25,15-4.31a21.72,21.72,0,0,1,26.34,18.79c.58,5.14-1.32,10.55-2,15.86-2.09,17-4.3,34.08-6.12,51.16-1.12,10.51-1.7,21.09-2.37,31.64q-1.93,30.59-3.69,61.18c-.83,14.69-1.38,29.41-2.31,44.1-.57,9-1.66,17.95-2.44,26.94-.25,2.95-.24,5.94-.39,8.91-1,20.34-2.14,40.68-3,61a62,62,0,0,0,.75,10.86c.62,4.76-1.74,7.64-4.82,11.06-5.83,6.46-12.76,8.06-20.79,7.39a23.09,23.09,0,0,1-4.3-.78c-6.42-1.86-12.73-4.37-19.27-5.45-3.43-.56-7.5.81-10.85,2.29-5.8,2.55-20.9-.23-24.78-5.24a4.05,4.05,0,0,1-.72-2.7c.45-3.58,1.14-7.12,1.69-10.69.5-3.32,1.34-6.66,1.32-10,0-9.86-.44-19.72-.74-29.58,0-.9-.38-1.79-1.84-3.26q-7.25,11-14.48,22c-2.24,3.38-4.49,6.75-6.82,10.07-5.26,7.51-10.67,14.92-15.81,22.51-2.39,3.54-4.15,7.49-6.45,11.09s-5.56,5.11-10.08,3.69a12,12,0,0,0-6.31.29c-10.26,2.75-14.06-.14-13.49-10.5.07-1.23.19-2.46.28-3.68Zm30.5-40.57c3.55-4.43,6.75-7.9,9.32-11.78,2.36-3.57,3.6-7.91,6.1-11.34,6.37-8.74,13.34-17,19.71-25.78,2.21-3,3.41-6.83,5-10.32,1.39-3.14,2.31-6.52,4-9.45s4.85-5.34,6.16-8.46c1.74-4.12,4.5-4.73,8.18-4.23,1.78.24,3.54.67,5.31,1,11.26,2,16.42,8.81,15.72,20.18-.6,9.57-4.52,18.51-3.43,28.59,1.51,14,.85,28.25,1.47,42.38.09,2,1.79,5.28,3.37,5.72,4.06,1.13,8.47,1.07,12.76,1.31.52,0,1.52-.94,1.58-1.52.61-5.48,1.18-11,1.52-16.46.43-6.86.5-13.74.94-20.6.77-12.18,1.94-24.33,2.49-36.52.47-10.53.18-21.1.52-31.64.12-3.75,1.31-7.46,1.61-11.22.88-10.95,1.6-21.9,2.3-32.86.94-14.77,1.8-29.54,2.72-44.31.71-11.43,1.34-22.86,2.19-34.27q1.8-24.15,3.88-48.28c.32-3.78-1.32-4.74-4.87-5.06-4.53-.4-9-2.07-13.47-2.48-1.86-.17-4.87,1-5.65,2.46-2.52,4.69-4.24,9.82-6.28,14.77-2.21,5.38-4.62,10.7-6.64,16.15-2.58,7-4.54,14.23-7.37,21.11-1.72,4.17-4.84,7.74-6.89,11.79-4.79,9.5-9.53,19.05-13.91,28.75-3.44,7.63-6.5,15.46-9.37,23.34-3.37,9.24-7.07,18.35-7.39,28.5-.26,8.41-7.78,16.33-14.88,16.88-14.07,1.11-21.49-3-24-13.65-.74-3.09-.28-6.46-1.05-9.54-1.5-6.05-3.48-12-5.26-17.95-2.64-8.81-5.85-17.49-7.78-26.45-3.44-15.9-6.13-32-9.08-48-2.06-11.19-4.2-22.38-5.93-33.63-.55-3.59-1-6.61-5.21-7.21s-11,2.1-12,5c-3.14,9-6.85,18-9,27.27-1.72,7.5-1.74,15.45-2,23.21-.31,9.26.58,18.59-.22,27.79-1.18,13.64-3.5,27.17-5.09,40.78-.52,4.52,0,9.15-.43,13.69-1.33,14.69-2.82,29.37-4.36,44-.89,8.51-2,17-3,25.52-1.42,11.74-3.1,23.45-4.26,35.22-.86,8.76-1.07,17.59-1.59,26.8l26.58,9.63c1.44-5.92,3.11-11.65,4.19-17.49,1.47-7.91,2.2-15.95,3.78-23.83,2.14-10.73,5.25-21.28,7.05-32.06,1-6.09,3.42-11.3,9-12.66a42.17,42.17,0,0,1,18.17-.14c7.34,1.54,10.75,9,10.74,16.42,0,8.59-3.83,17-.72,25.76,1.46,4.13,1.39,8.78,2.18,13.16C1038.13,363.71,1039,367.46,1040,371.91Z"/><path d="M509.76,276.13l-32.88-1.91c0,5.21.12,11.21,0,17.2-.15,5.11-.73,10.21-.95,15.32-.46,11.17-.79,22.34-1.22,33.51-.36,9.27-.91,18.53-1.17,27.81-.17,6.11,0,12.23.06,18.34a4.15,4.15,0,0,0,.65,2.37c3,3.79,4.73,7.72,1.45,12.16-2.6,3.54-5.37,6.95-8.13,10.37S461.4,414.72,457,414a203.51,203.51,0,0,0-28-2.57c-5.83-.15-11.73,1-17.53,2-5.46.94-10.78,2.67-16.24,3.54-2.13.34-4.47-.72-6.73-1.09-3.09-.52-6.2-.94-9.29-1.5-8.83-1.62-13.48-11.25-9.88-19.44a30.41,30.41,0,0,0,2.3-10.81q1-24.09,1.35-48.19c.18-10.62-.29-21.26,0-31.87.22-9.54,1.17-19,1.54-28.58.54-14.25.77-28.52,1.29-42.78.57-15.51,1.28-31,2-46.51.6-12.94,1.36-25.88,1.93-38.83.15-3.4-.33-6.83-.12-10.23a5.19,5.19,0,0,1,2.1-3.53c3-1.88,6.38-3.09,9.26-5.08a6.62,6.62,0,0,0,2.34-4.51c.82-12.84,1.53-25.69,2-38.54.16-4.53-1.36-9.25-.53-13.58,1.42-7.37,13.1-13.08,20.45-11.52,11.89,2.52,23.72,3.07,34.79-3.54,3.2-1.91,6.74-3.26,9.91-5.21,1.24-.76,1.73-2.67,2.9-3.65,4.29-3.6,8.64-7.16,13.2-10.42.88-.63,2.82,0,4.19.35,1.71.45,3.45,2,5,1.73,5.45-.86,7.29,2.73,9.65,6.43,2.58,4.07,2,7.62.22,11.71A21.41,21.41,0,0,0,493.73,66c-.08,23.18.13,46.36-.06,69.53-.11,13.87-.67,27.74-1.32,41.6-.14,3,.74,4.62,3.47,4.86,7.78.69,15.58,1.42,23.37,1.46,1.65,0,4.43-2.6,4.81-4.39,2.52-12,4.68-24.14,6.66-36.28,2.18-13.4,3.94-26.87,6.08-40.28,1.35-8.51,12.08-14.42,20.18-11.85,4.42,1.4,9.15,1.84,13.77,2.58,7.33,1.18,14.7,2.15,22,3.41,2.18.37,4.21,1.52,6.35,2.15,3.71,1.1,7.24-.59,10.77-.81,6.78-.43,13,2.53,17.93,7.53,4.34,4.37,4.88,9.24,4.25,15.39-1.06,10.28-.35,20.73-.53,31.11-.13,7.55-.66,15.09-.68,22.63,0,5.36.69,10.73.75,16.1s-.14,10.5-.5,15.73c-.43,6.44-1.13,12.87-1.73,19.3-.52,5.59-1.2,11.16-1.56,16.76-.58,9.16-.91,18.35-1.44,27.52-.72,12.16-1.58,24.31-2.27,36.48-.28,5.05,0,10.13-.46,15.16-1.25,14.64-2.81,29.26-4,43.9a17.87,17.87,0,0,0,1.07,8.16c2.69,6.44.24,13.42-6.12,16-.44.18-1.1.37-1.23.72-2.44,6.27-7.62,5.29-12.6,4.79q-24.71-2.48-49.42-5c-1.31-.13-2.65.11-4,.06-8-.34-16.08-.66-24.12-1.11a16.89,16.89,0,0,1-4.29-1.08c-4.67-1.56-9.83-2.42-13.79-5.08-2.16-1.44-3.39-6.07-3.09-9.06,1.2-11.9,3.09-23.74,4.89-35.58.63-4.14,2.08-8.17,2.55-12.33a118.89,118.89,0,0,0,.3-13.09C509.78,300.81,509.76,288.58,509.76,276.13ZM428.27,86.48c-.51,5.22-1.17,10.6-1.55,16-.54,7.41-.68,14.86-1.33,22.26q-2,22.78-4.35,45.54c-1.14,10.83-1.85,21.79-6.72,31.86-.9,1.87-2.2,3.74-2.44,5.72-.8,6.54-1.46,13.13-1.7,19.72-.45,12.15-.48,24.31-.86,36.46-.39,12.37-1.15,24.72-1.41,37.08-.13,5.94.9,11.91.7,17.84-.3,9.39-1.53,18.75-1.76,28.14-.32,13-.08,26-.08,39.08,8.27-.76,16.39-1.39,24.48-2.28,8.9-1,8.89-1.1,8.85-10,0-.82-.25-1.65-.18-2.46,1.26-14.33,2.83-28.64,3.75-43,.75-11.87.85-23.79,1.05-35.69.16-9.92.53-19.92-5.45-28.71a6.17,6.17,0,0,1-.49-2.41c-1.43-8.89,2.26-16.06,8.75-21.37,7.26-5.95,19.77-8.21,27.33.21,1.89,2.1,4.33,4.54,6.88,5.06,13.71,2.8,27.49,5.11,41.11-1,2-.92,5.13-.42,7.39.38,2.68,1,4.89,3.16,7.5,4.42,7.52,3.64,11.71,11.72,9.69,18.46a38.79,38.79,0,0,0-1.59,9.64c-.55,15.25-.39,30.51-3,45.66-1.92,11.16-3.1,22.44-4.76,33.65-.65,4.39,1.22,6.2,5.39,6.29,1.16,0,2.32.12,3.48.22,8.22.7,16.45,1.31,24.66,2.16,3.4.35,6.75,1.76,10.1,1.65,2-.06,4.87-1.67,5.67-3.37a30.49,30.49,0,0,0,2.23-10.09c1.78-19.7,3.64-39.4,5-59.13,1.36-19.89,2.25-39.81,3.23-59.73.89-18.32,2-36.64,2.33-55,.31-15.36-.66-30.75-.35-46.12.17-8.8-3.28-14-13.81-14.57-4.63-.28-9.47.42-13.86-.7-4-1-5.31.45-6,3.55-1.6,7.52-3.23,15.06-4.44,22.65-2,12.29-3.75,24.61-5.26,37-.42,3.48-.46,7.46.81,10.62,3.58,9-5.65,19.44-13.73,18.5s-16-1.08-24.06-1.67c-5.27-.39-10.52-1.34-15.78-1.37-6.83,0-13.68.39-20.48,1-5.61.5-10.46-1.57-15.64-3.13-6.75-2.05-10.75-6.14-8.77-12.82A55.54,55.54,0,0,0,461,174.42c-.23-6.86,1.3-13.76,1.7-20.66.9-15.54,1.74-31.1,2.29-46.66.32-9.2.06-18.42.06-26.9Z"/><path d="M797.59,183.74c10.14,0,20,1.29,29.33-.35,10.12-1.79,16.31,4.33,23.79,8.13,3.93,2,2.56,8.32-.33,13.37-.88,1.53-2.22,3-2.47,4.65-1.51,9.85-2.91,19.73-4,29.63-.2,1.84,1,4.15,2.17,5.74,3.7,4.9,3.2,11.73-1.54,15.46-6,4.71-12.72,5.37-20,3.9-1.93-.39-4.07.38-6.12.38-12,0-24.05.18-36.06,0-7.91-.16-10,1.29-9.77,9,.38,10.87,1.28,21.72,1.78,32.6.11,2.4-.49,4.83-.89,8.42,3.71-1.22,7.12-1.68,9.78-3.35,7.39-4.66,14.39-3.37,21.39.49,4.76,2.63,8,13.4,5.83,18.7-3.91,9.41-4.62,19.18-4.16,29.26.45,9.69,0,19.41.16,29.12.08,6-1.06,11.94,1.49,18,2.43,5.81-5.27,16.41-11.74,16.35-7.34-.07-15.3.09-21.81-2.65a39.54,39.54,0,0,0-18.14-3.36c-9.46.58-18.86,2.08-28.3,3-6,.56-11.95.7-17.92,1.07-4.3.26-8.6.9-12.88.79a55.35,55.35,0,0,1-11.05-1.65c-4.6-1.08-9.09-2.61-13.63-3.91-3-.86-4.39-2.66-3.94-5.86,1.09-7.75,2.28-15.49,3.1-23.27.93-8.95,1.53-17.94,2.23-26.91.6-7.6,1.26-15.2,1.65-22.82.77-15.06,1.48-30.14,2-45.22s.5-30.07,1.23-45.09c1-20.65,2.53-41.28,3.77-61.93.41-6.85.42-13.73,1-20.57.6-7.29,1.79-14.53,2.39-21.81.42-5,.11-10.09.46-15.12.11-1.59.94-4.05,2.08-4.49,6.68-2.62,7.87-8,8.09-14.17.14-3.95,1-7.9.94-11.85,0-4.12.62-8.16-2.49-12.15-3.37-4.33-1.52-9.42,3.2-12.8,3.55-2.54,6.93-5.38,10.71-7.51,5.47-3.07,10.82-2.88,17.21-.92,7.79,2.38,16.46,1.75,24.7,2.8,4.32.56,8.55,1.9,12.81,2.93.63.15,1.25.79,1.81.71,8.42-1.12,16,3,24.29,3.49,15.14.83,30.21,2.88,45.34,4.07,3.66.29,7.43-1.07,11.15-1.11,3,0,6.94-.24,8.88,1.45,5.14,4.47,12.35,7,14.71,14.24.55,1.7-.22,3.8-.2,5.72,0,7.57-7.53,13.62-4,22.11,1.16,2.78-.25,6.55-.07,9.84.31,5.7-.58,11.49,2.45,17,1.59,2.87.57,5.81-1.39,9.1-2.57,4.33-4.55,7.3-10.21,7.61-4.65.25-8.95.87-13.44-1.18-11.2-5.12-23.06-3.25-34.77-2.76-2.76.12-5.63.05-8.25.8-1.33.38-3.12,2.36-3.13,3.63C796.78,170.63,797.27,176.86,797.59,183.74ZM774.68,391.27c.56-4.53,1.43-8.7,1.55-12.9.3-10.35,0-20.71.44-31,.33-7.4.19-8-7.24-6.88-1.37.2-2.55,1.5-3.93,1.82a13.13,13.13,0,0,1-5,.26c-3.19-.55-6.29-1.91-9.48-2.14-12-.83-13.84-9-9.9-17.5a22.68,22.68,0,0,0,2.38-8c.35-6.19-.12-12.43.2-18.62.26-5.19,1.48-10.33,1.73-15.52.29-6.11,1.78-13-.49-18.18-3.3-7.47-1.55-12.12,3.44-17.19,1.57-1.59,2-5.35,3.54-5.71,5.64-1.33,11.55-2.41,17.3-2.19,9.41.36,18.77,2,28.19,2.68a35.41,35.41,0,0,0,11.25-1.24c1.77-.46,4.11-2.5,4.4-4.14,1.53-8.66,2.48-17.42,3.59-25.86-15.38-3.87-31.94,1.35-46.69-6.64a1.9,1.9,0,0,0-.48-.14c-5.09-1.19-10.22-9-7.43-13,4-5.77,4.33-11.85,4.38-18.17.05-5.57,1.07-11.84-1.09-16.54-2.83-6.14-1.11-10.44,1.7-15.22a13.71,13.71,0,0,1,12.51-7.06c12.22.11,24.43.72,36.65.87,5.66.07,11.33-.46,18.37-.78,0-8.94,0-17.41,0-25.88,0-3-1.4-4.4-4.52-4.63-7.69-.57-15.38-1.27-23-2.18-9.76-1.15-19.48-2.61-29.23-3.85-8-1-16.06-2.57-24.1-2.64-6.3-.06-12.61,2.43-18.94,2.55-4.94.09-5.2,2.66-5.58,6.1-1.28,11.75-2.3,23.53-4.06,35.21a146.57,146.57,0,0,1-5,22.87c-3,9.43-2.63,20-3.45,30-.59,7.25-.5,14.57-1.14,21.81-.71,8-2.37,16-2.78,24-.74,14.21-.83,28.46-1.22,42.68-.13,4.58-.29,9.16-.58,13.73-1,15.23-2,30.46-3,45.7-1,16.91-2,33.81-3,50.72-.25,4.29,1.61,6.25,5.92,5.81,11.71-1.21,23.4-2.58,35.11-3.82a80.36,80.36,0,0,1,11.76-.88C763.15,389.75,768.47,390.6,774.68,391.27Z"/><path d="M300.59,127.75a3.64,3.64,0,0,0,2.31.88c5.8-.73,11.56-1.8,17.36-2.67a21.87,21.87,0,0,1,4.36-.08c1.47.09,3.44,1.07,4.3.44,5-3.67,7.36.27,10.29,3.1,3.68,3.54,9.42,4.86,11.3,10.33a9.91,9.91,0,0,1,.84,4.5c-1.4,8.15-3.73,16.21-4.43,24.42-1.22,14.3-1.67,28.68-2,43a18.93,18.93,0,0,0,2.88,9.59c4.45,7.4,4,17.19-5,22.62a3.9,3.9,0,0,1-1.81.55c-10.71.27-21.42.41-32.12.78-11.12.39-22.23.92-33.34,1.52-11.69.64-23.38,1.89-35.07,2-10.69.1-21.39-1-31.59-1.5-6,17.64-3.53,34.41-4.24,51-.69,16,2.54,31.73,4.12,47.57.92,9.28,1.11,18.64,2.19,27.89a17.42,17.42,0,0,0,3.88,9.23c4.15,4.57,5.34,9,3.35,14.72-2.11,6.07-7.24,7.4-12.24,7.5-6.66.14-13.37-1-20-2-2-.28-4.42-1.27-5.56-2.76-4.8-6.27-11.49-6-18.25-6.15-7.07-.16-14.14-1-21.19-.8-4.89.13-9.78,1.31-14.59,2.39-4.46,1-8.82,3.5-13.21,3.48s-9-2.24-13.53-3.61c-.9-.27-1.61-1.12-2.49-1.54-9.3-4.49-9.59-5.43-6.91-15a51.83,51.83,0,0,0,2.29-13.35c.09-14.23-.18-28.46-.58-42.68-.61-22.45-1.46-44.89-2.15-67.33-.1-3.14.2-6.28.15-9.42s-.8-5.74-5-3.89c-3.56,1.54-6.72,0-10.31-.88-8.5-2.14-15.38-7.84-23.74-9.82-6.5-1.53-7.64-6.45-8.1-11.54-1.32-14.35-.21-28.58,2.29-42.81a162.06,162.06,0,0,0,2.45-27c0-9.55,4.13-12.64,15.64-12,9.43.51,18.91,1.17,28.32.69,14.29-.73,28.53-2.59,42.81-3.58,9.48-.66,19-.86,28.52-.88,17.69,0,35.39.5,53.08.2,17.13-.29,34.25-1.11,51.35-2.16,7-.42,14-2.1,20.94-3.1,2-.28,4,0,5.94-.28C295.77,129.1,297.44,128.52,300.59,127.75ZM178.05,370.22c-.47-6.68-.81-14.09-1.54-21.46-1.08-11-2.94-21.93-3.5-32.94-.47-9.37.66-18.82.68-28.23,0-11.69-.72-23.38-1.18-35-.53-13.78,3.5-27.74,5.56-41.63,3.32-.52,5.9-1.11,7.5-2.69a11.87,11.87,0,0,1,11.76-3.3,28.79,28.79,0,0,1,9.22,3.92c1.8,1.23,2.66,3.85,3.9,5.87s2.38,5.75,3.64,5.78c7.87.21,15.75-.48,23.64-.72,4.84-.15,10.48-1.61,14.37.32,8.26,4.1,16.47,2.74,24.81,2.48,6.35-.21,12.7-.51,19-1.07a64.74,64.74,0,0,0,9.29-1.95,2.32,2.32,0,0,0,1.4-1.22c.85-2.13,2-4.28,2.24-6.5,1.05-10.3,2.33-20.62,2.58-31,.2-8.58-.9-17.19-1.44-25.92-17,1.73-34.3,3.5-51.61,5.24a49.57,49.57,0,0,1-5.44.29c-5.56,0-11.13-.37-16.69-.22-10.28.29-20.56,1.15-30.85,1.19-12.23.05-24.49-1-36.71-.69-16.76.47-33.51,1.85-50.26,2.83-6.78.39-13.56.73-20.34,1.11-5.7.32-11.39.92-17.08.9-3.08,0-3.61,1.47-3.82,3.86-.7,8.07-1.59,16.13-2.1,24.21-.17,2.72-.1,5.81,1,8.18,2.36,4.94,5.5,9.51,8.51,14.55a13.62,13.62,0,0,1,1.43,0c11.5.85,23-3,34.64,2.54,6,2.85,7.64,7.29,9.38,12.09.95,2.63.92,7-.68,8.88-3.83,4.52-4,9.75-4.26,14.79q-1,20.38-.78,40.83c.14,12.08,1.23,24.16,1.56,36.25.28,10.41.07,20.83.1,31.25,0,3,.32,5.3,4.5,5.41,6.69.18,13.35,1.43,20,1.66C159.51,370.45,168.48,370.22,178.05,370.22Z"/><path d="M1391.09,203c-1.77,5.94-3.59,11.87-5.26,17.84a26.52,26.52,0,0,0-.74,5.35c-1,16.52-2,33-3.11,49.57-1.19,17.51-2.8,35-3.71,52.53-.89,17.23-1.13,34.49-1.62,51.73a5.11,5.11,0,0,0,.58,2.39c3.4,6.46.61,12.49-2.85,17.27-2.11,2.91-7.17,4.42-11.14,5-3.58.56-7.46-1.31-11.24-1.48-8.46-.37-16.94-.44-25.42-.47-5.73,0-11.47.22-17.2.44a16.13,16.13,0,0,0-4.3.72c-6.25,2-12.34,4.71-18.72,6-10.74,2.11-27.25-10-21.74-22.25,2.22-4.94.93-8.9-1.72-13.2s-3.73-8.78-.39-13.83c1.65-2.5,1.41-6.34,1.74-9.6,1.29-12.6,2.62-25.2,3.65-37.82,1.23-15.21,2.39-30.43,3.17-45.67.64-12.47.74-25,.94-37.46,0-3.45-.6-6.9-.6-10.36,0-2.77.89-5.57.62-8.29s-.82-5.9-2.43-8c-3.5-4.48-3.17-9.16,1.4-12.73,2.66-2.08,4.5-5.55,7.4-6.9a32.71,32.71,0,0,1,12.07-2.58c5.82-.26,11.68.38,17.53.55,18,.51,36,1.51,54,1.21,7.49-.13,13.65,1.13,19.94,5.11C1387.66,191.74,1390.05,196.36,1391.09,203Zm-91.8,162.8-.3.06c.12,2.79-.08,5.65.52,8.34.26,1.15,2.25,2.81,3.34,2.73,11.79-.85,23.54-2.32,35.34-2.94,4.9-.26,5.82-2.68,6-6.55.67-12,1.31-24.06,2.09-36.09q1.4-21.78,3-43.55c.53-7.06,1.39-14.08,2-21.13.56-6.51,1-13,1.48-19.55.72-10.69.81-21.36-2.28-31.74-.5-1.68-2.47-4.11-3.86-4.18-13.13-.65-26.27-.94-39.42-1.07-.81,0-2.34,2.11-2.36,3.26-.1,7.24.48,14.49.17,21.71-.71,16.79-1.55,33.59-2.8,50.35-1.22,16.44-3.18,32.82-4.47,49.26a203.82,203.82,0,0,0-.19,21.41C1297.72,359.38,1298.71,362.6,1299.29,365.82Z"/><path d="M1256.76,112.42c1.31-9.1,2.39-18.25,4-27.29,1.06-5.76,2.31-11.67,4.68-17a105.4,105.4,0,0,1,10.36-17.37c4.36-6.16,8.88-12.37,14.26-17.6,4.29-4.16,10-6.91,15.06-10.22,11.94-7.73,24.9-12.6,38.87-7.6,8,2.87,15,8.59,22.5,13a33.86,33.86,0,0,0,3.88,2c5.9,2.5,12.1,4.45,17.66,7.54,9.17,5.1,18.81,10.62,22.25,21.15,4.42,13.52,7.34,27.53,10.84,41.35.76,3,1.13,6.11,1.88,9.12,1.64,6.51-.59,12.59-3.07,18.14a75.76,75.76,0,0,1-39.42,39.05c-29.15,12.59-59.21,12.62-88.14-2.16-6-3.06-11-7.94-16.67-11.77-10.61-7.23-16.06-17.41-17.55-29.92-.4-3.42-.47-6.88-.7-10.32Zm131.67-3.14c-.25-3-.26-6-.8-8.85-1.71-9.24-3.5-18.46-5.48-27.64s-7.89-14.4-16.54-17.09c-11-3.41-22.45-5.9-32.85-10.64-6.64-3-10-.1-14.53,2.82-5.71,3.7-9.11,9.25-13,14.6-11.92,16.36-16.09,34.41-13.83,54.35,1.57,14,10.4,22.08,21.71,28.26,8.31,4.54,17.3,5.14,26.62,3.67,14.92-2.35,29.74-3.66,39.88-17.83C1384.52,124.08,1388.45,117.75,1388.43,109.28Z"/><path d="M1301.11,124.28c1-8.88,10.27-14.11,17.94-10.25,3.74,1.88,7.73,3.29,11.56,5s7-.43,9.33-2.6c3.89-3.69,6.48-8.83,10.55-12.24,3.57-3,8.31-5.79,12.76-6.2,5.71-.53,7.83,7.75,4.5,14.72-4,8.33-10.79,13.57-17.9,19.11-5.73,4.47-11.7,7.35-18.48,8.34-4.7.68-9.68,0-14.46-.63-5.3-.7-9.24-4-12.2-8.28A57.58,57.58,0,0,1,1301.11,124.28Z"/><path d="M1324,73.85c1.81,1.35,5,2.6,6.17,4.87,1.78,3.37-.63,10.92-3.46,12A113.61,113.61,0,0,1,1312,94.85a4.46,4.46,0,0,1-3.52-1.44c-2.7-3,.08-14.51,4-16.11C1315.72,76,1319.19,75.25,1324,73.85Z"/><path d="M1361,78.34c.77,6.54-5.39,5.59-8.12,8.12-1.39,1.3-4,1.32-6,1.88-4.72,1.28-8.51-2.06-7.92-7,.84-7,10-13.4,16.89-11.69C1359.29,70.54,1360.79,73.17,1361,78.34Z"/></svg>