<svg id="Layer_1" data-name="Layer 1" xmlns="http://www.w3.org/2000/svg" viewBox="0 0 915.22 244.06"><path d="M117.44,162.07c-1.73,5.29-3.43,10.58-5.22,15.84-1.89,5.58-5.26,7.37-9.62,4.66a7,7,0,0,1-2.82-5c-.09-7.57.45-15.15.46-22.73,0-1.4-1.38-2.81-2.12-4.21-1.45,1-2.94,2-4.31,3.18-.32.26-.21,1-.3,1.56-1.32,7.57-3,8.53-9,6.24l-10,6.62-1.44-1.36c-1.25,6.63-2.25,13.33-3.88,19.86-.49,1.95-2.93,3.35-4.14,5.21a23.66,23.66,0,0,0-3.36,6.6c-1.19,4.52-1.45,9.31-2.89,13.72-.68,2.08-3.47,5.18-4.86,5-3-.46-5.65-2.23-4.29-6.88s1.16-9.73,1.73-15.46A29.48,29.48,0,0,1,48.25,196c-2.16.41-5.19,1.78-6.32.86-1.54-1.25-2.3-4.29-2.23-6.52.24-7,1-13.9,1.57-20.85a8.32,8.32,0,0,0-.63-2.34c-1,.13-1.79.18-2.59.37-4.37,1-7.38-2-6.3-6.27a106.18,106.18,0,0,0,2.86-12.45c.69-5.23,1.9-10.56-3.28-14.94-1.9-1.6-2.74-5.12-3-7.85-.29-3.55.73-7.15-3.25-9.52-.69-.41-.51-2.67-.37-4q2.51-23.9,5.15-47.78a47.13,47.13,0,0,1,1.76-9.56,5.83,5.83,0,0,1,3.81-3.13c.74-.17,2.81,2,2.93,3.24.57,5.94,5.61,9.2,7.78,13.58C49.36,75.18,53,82.83,50.83,91a95.55,95.55,0,0,0-1.59,9.45c8.94,3.46,8.61,4,6.91,14-2.26,13.24-3.47,26.67-5.07,40a4.89,4.89,0,0,0,1.5,3.93c1-3.07,2.14-6.13,3.09-9.23,1.2-3.91,2.15-7.91,3.46-11.78a5,5,0,0,1,2.52-2.53c3.34-1.49,6.86-2.59,10.17-4.13.87-.41,1.48-1.82,1.78-2.89,1.71-6.24,3.27-12.52,4.92-18.77A31.31,31.31,0,0,1,79.83,105c2.54-6,4.12-6.62,11-3.44.28-9,10.34-6.8,14.17-12.63,1.92-2.93,7.38-.42,6.46,3.41-2.2,9.15,2.64,17.5,1.48,26.41s-1.51,17.62-2.17,26.45a8.44,8.44,0,0,0,1.14,5.18c.76-1,1.62-1.91,2.27-2.95,9.77-15.66,12.19-33.23,13.4-51.12a10.59,10.59,0,0,1,.41-3.21c1.36-3.35,1.31-5.39-3-6.77-1.64-.54-3.46-4.71-3-6.75,2.62-12.08,5.6-24.1,9.07-36,1.34-4.58,4-8.86,6.57-13,1.72-2.78,4.71-5.64,8-3.4,1.64,1.11,2.3,5,1.94,7.45C145.75,46.89,143,59,141.42,71.22c-2.47,18.74-4,37.59-6.45,56.34-2.92,22.65-6.26,45.24-9.56,67.84-.52,3.51-2.16,7.36-6.51,6.21-3.53-.93-4.6-4.27-3.89-8.28,1.64-9.18,2.84-18.43,4.12-27.67a13.13,13.13,0,0,0-.45-3.47Z"/><path d="M566.28,110c2-5.28,3.18-10.65,9.18-14.38,3.45-2.14,3.85-9.16,5.61-14a7.45,7.45,0,0,0,.14-1.07c1.3-6.77,4.72-11.32,7.88-10.5,7.86,2,12.57,9.24,10.76,16.06-2.08,7.8-3.94,15.66-5.89,23.5,8.68,2.52,8.68,2.52,9.1,17.72,5.1-7.7,6.22-15.13,3.74-23.46-.3-1,.23-2.31.62-3.38Q615,80.09,622.71,59.7a5.36,5.36,0,0,1,2.18-2.89c7.09-3.26,8.37-10.13,10.82-16.41A107.58,107.58,0,0,1,642.56,26c.69-1.2,3.42-2,5-1.67,1,.19,2.39,2.82,2.16,4.1a61.72,61.72,0,0,1-3.16,10.74c-4.57,12.21-9.13,24.43-14,36.52-2.51,6.25-6.23,12.06-8.35,18.41-3.1,9.33-5.25,19-7.8,28.47,5.83,12.19-5,21.63-5.53,32.87-.23,5-2.69,9.93-4.1,14.9-1,3.72-11.69,11-14.35,8.93s-5.5-6.48-5.44-9.81c.16-8.57,1.87-17.12,3-25.68.2-1.56.43-3.11.8-5.78-8.71,4.57-13,1.24-14-7.38-1.26.78-1.94,1-2.11,1.34-5,11.53-11.08,22.59-14,35A29.39,29.39,0,0,1,556,177.19c-1.21,1.67-4.66,3.28-6.31,2.7-2-.71-3.57-3.58-4.6-5.84-.69-1.5-.13-3.57-.13-5.56-9.32,2.28-11.84-.43-9.77-9.36,1.42-6.15,2.73-12.34,3.76-18.57.2-1.15-.92-3.51-1.78-3.7-6.71-1.42-5-6.15-4-10.17,1.66-6.78,3.86-13.43,5.78-20.16a17.68,17.68,0,0,0,.21-3.06c-1.56.23-2.69.47-3.82.55a6.39,6.39,0,0,1-6.75-7.59c2.52-11.18,5.14-22.34,7.77-33.49.91-3.84,2.76-6.39,7.4-6.16,1.12,0,2.45-2,3.47-3.28.38-.45.08-1.41.21-2.11.74-4.12,5-8.2,7.63-6.85,3.81,2,3.83,5.72,2.8,9.41a39.31,39.31,0,0,1-1.78,4.5c-1.4,3.31-2.41,5.87,2.42,8,1.75.76,2.13,5.85,2.14,9,0,2.77-1.14,4.92,1.25,7.9,1.68,2.09,1,6.79.12,10-1.45,5.63-3.81,11-5.86,16.7Z"/><path d="M868.88,82.94l9.31-13.58c1-1.47,1.84-3.06,2.94-4.45,1.76-2.24,4-4.26,6.79-2s4.41,5,2.48,9c-3.5,7.2-6.63,14.57-10,21.86-3.25,7.1-6.72,14.11-9.74,21.31-1.13,2.69-1.29,5.78-2,9.06a20.86,20.86,0,0,0,3.2.43c5.89-.4,9.35,2.62,8.39,8.52-1.54,9.58-3.82,19-5.77,28.56-.72,3.53-1.8,7.06-1.93,10.62a13,13,0,0,0,2.08,6.93c2.63,4.17,2.52,8.17-.91,10.28-3.1,1.91-9.28.39-10.7-3.3s-2.62-7.69-2.15-11.35c1.37-10.64,3.65-21.17,5.54-31.76.24-1.4.26-2.84.38-4.18-12.14-7.1-12.14-7.1-6.42-27.29-4.81-.53-9.89,6.38-14.07.18-1.63-2.4-1.43-6-2-8.69-8.55-2.23-15.22,4.42-23.59,7.16,1,1.47,2.74,3.06,3.11,4.93.41,2-.27,4.38-.82,6.5s-2.62,4.53-2.17,6.35c1.43,5.77-1.28,10.21-3.35,15.08-5.52,13-10.76,26-16.09,39.07-2.1,5.13-4,10.34-6.29,15.39-1.61,3.6-4.68,5.14-8.43,3.51-4-1.72-4.9-5.13-3.38-9,1.31-3.34,3-6.51,4.56-9.77a1.93,1.93,0,0,0,.05-1.07c-1.63-8.37.49-16.09,3.84-23.67.35-.78-.43-2.41-1.15-3.24-3.43-3.92-3.14-8.19-1.3-12.52,1.54-3.63,3.42-7.13,5.16-10.68,1.56-3.17,1.89-5.56-1.71-8.18-1.82-1.32-3-5.52-2.37-7.84,2.65-9.75,6.32-19.21,9.18-28.91,2.57-8.71,4.36-17.65,7-26.33.59-1.95,3.12-3.79,5.19-4.64,1.25-.51,3.8.52,5,1.66,7.22,7.15,15.13,6,20.58-3a28.23,28.23,0,0,1,5.24-6.55c1.18-1,4.22-1.93,4.84-1.31,1.61,1.6,3.35,4.16,3.18,6.18-.28,3.38-2,6.64-2.3,10.45,2.61-3.31,5.42-6.48,7.77-10,2.52-3.7,5.54-4.44,9.36-2.49a6.92,6.92,0,0,0,5.65.11c3.06-1.75,5.07-1.76,7.41,1.12s2.14,5.21.32,8.25c-2.18,3.66-3.61,7.75-5.58,11.54-1.85,3.57-4,7-6,10.49Z"/><path d="M723.47,191.46c-2.59,2.41-4.13,4.51-6.2,5.58-1.73.89-5.24,1.48-5.92.62-1.53-2-3.12-5.42-2.37-7.37,3.88-10,8.46-19.73,12.84-29.54,2-4.56,5-8.95.45-13.86-.74-.81-.37-3.11.12-4.49,3-8.49,6.38-16.87,9.17-25.43.47-1.43-.82-4-2.09-5.32-3.1-3.11-3-5.71-1.06-9.59,3.28-6.74,5.47-14,8.33-20.94,2.78-6.76,5.44-13.61,8.85-20.05,5-9.44,10.56-18.59,16-27.78.85-1.43,2.46-3.5,3.67-3.46,5.91.15,7.66-4.42,10.29-8.1.83-1.16,1.6-2.65,2.78-3.2,2.42-1.15,6.57-3.16,7.36-2.33,2.06,2.17,3.93,5.83,3.61,8.64-.76,6.74-2.82,13.33-4.37,20a6.59,6.59,0,0,0,1.53.91c2.07.48,5.67.42,5.95,1.38a16.25,16.25,0,0,1,.21,8.93c-2,6.51-5,12.7-7,19.2-.67,2.14.62,4.81.58,7.23a34,34,0,0,1-1,9.09c-3.57,11.66-7.43,23.23-11.24,34.82-3.45,10.49-6.72,21-10.59,31.38a170.65,170.65,0,0,1-9.06,19.45c-1.15,2.18-3.55,3.76-5.49,5.47s-4.61,3.17-6.3,5.25c-2.5,3.05-4.12,6.83-6.71,9.77-1.58,1.8-4.74,4-6.37,3.52-2.25-.72-3.82-3.78-5.5-6C723.51,194.66,723.71,193.56,723.47,191.46ZM777.41,40.8l-2.55-1.21c-2.9,4.84-5.67,9.76-8.74,14.49C760.5,62.76,754.65,71.29,749,80c-.75,1.17-1.38,3.71-.81,4.21,5.79,5.09,2.52,10.07.69,15.54-1.45,4.33-5.64,9.09.25,13.91,1.31,1.07.86,5.15.18,7.55-1.13,4-3.08,7.8-4.81,12l7.73.71c3.52-19.22,17-34,21.33-52.58a11.25,11.25,0,0,0-1.86-.85c-6.73-1.74-8.56-5-6.09-11.26.86-2.16,2.1-4.17,3-6.33C771.6,55.52,774.49,48.15,777.41,40.8Z"/><path d="M670.77,85.35c3.93,1.84,9,1.69,8.62,7.55,0,.34.72.77,1.15,1.09,8,5.84,7.34,6.8,2.1,18.53-2.07,4.62-4,9.29-6,13.94l2,.93c1.82-3.33,4.12-6.51,5.34-10,1.37-4,4.28-5.27,7.35-4.15s5.8,4.08,4.56,8.09c-2.06,6.63-4.46,13.15-6.94,20.37,3.58,2.47,6.88,6,4.34,11.61-1.39,3.06-3.14,6-4.54,9-5.25,11.41-10.54,22.8-15.56,34.31-1.4,3.21-1.36,7.11-3,10.12-1.15,2.06-4.11,3.12-6.26,4.63-1.4-2-4-4.11-4-6.08.19-5.32,1.54-10.59,2.45-16-4.94-2-5.87,1.85-7.46,4.34-1.91,3-3.37,6.3-5.4,9.22-3.72,5.38-4.88,5.4-9.5,1-.89-.84-1.94-1.53-3.16-2.49-1.94,3-3.42,6.2-5.69,8.63-1.57,1.7-4.22,2.4-6.39,3.54-.25-2.4-1.43-5.2-.59-7.13a179.62,179.62,0,0,1,9.6-18.73,115.78,115.78,0,0,1,10.87-16.15,10.73,10.73,0,0,1,8.29-3.32c2.1.28,3.76,3.84,6.43,6.85l5.47-1c1.39-4.85,2.66-9.23,3.91-13.56-9.25-5.59-9.31-5.74-7.43-16.82.17-1,.51-2.51,0-3.08-3.37-3.74-7.21-7.07-10.37-11-2.3-2.83-3.42-6.6-5.7-9.44-2.63-3.26-2.56-6-1.19-9.87,4-11.25,7.47-22.71,11.22-34.06.44-1.33,1.05-3,2.11-3.66,6.24-4.1,8.57-10.6,11.15-17a10.78,10.78,0,0,1,3.3-4.69c5.26-3.72,10.86-7,16.13-10.65,3.73-2.61,7.09-5.75,10.73-8.48a5.87,5.87,0,0,1,3.8-1.32c7.3,1,13.59,8.55,11.29,15.09-3,8.54-7.48,16.62-11.94,24.55-.64,1.14-4.83.84-7.17.29-1.73-.4-3.12-2.28-4.3-3.21l-8.78,2.3C678.33,73.11,675,76.65,672,80.5,671,81.73,671.13,83.76,670.77,85.35Z"/><path d="M499,133.47c-9.14.9-7.29-6.8-10.22-12.35-1.83,5.65-3.17,9.89-4.58,14.1s-2.95,8.45-4.34,12.7c-1.8,5.47-5.77,6.06-10.24,2.85-2.81-2-7.62-3.54-10.6-2.54-5.17,1.73-7.57-.79-10.85-4-1,1.9-1.44,4.32-2.91,5.4a14.75,14.75,0,0,1-7.77,3.12c-.94,0-2.54-4-2.86-6.35s.53-5,.87-7.48c.3-2.33,1.54-4.52-1.48-6.58-1.11-.75-.89-4.45-.28-6.51,3.19-10.79,6.86-21.43,10.06-32.21,3-10,8.43-18.9,12.38-28.4,3.2-7.7,9.7-11.08,14.76-16.38,1.69-1.78,2.2-4.7,3.18-7.13,1.26-3.11,1.81-7.16,6.39-6.75s5.54,4,5.57,7.91c0,.54.13,1.08.15,1.62.31,11.41.77,11.63,11.1,7.4,1.67-.68,5-.55,5.75.48,1.61,2.33,3.1,5.63,2.69,8.22-.63,3.94-1.09,6.42,3.16,8.89,1.79,1,2.15,5.68,2,8.62-.16,3.25-1.66,6.42-2.58,9.65,8.07,1.1,10.14,4.76,8.21,12.67-2.37,9.65-4.28,19.42-6.46,29.12-1.4,6.26-3.28,12.44-4.31,18.75a66.59,66.59,0,0,0-.65,14.53c.13,2.23,1.81,4.43,3,6.54,1.27,2.29,3.77,4.43,3.83,6.7.05,1.52-3.33,4.56-4.95,4.41-2.9-.27-6.58-1.71-8.23-3.92-4.11-5.52-3.34-12.31-2.72-18.76C496.8,150,497.91,142.13,499,133.47Zm-47-21.8c3-.85,4.94-2.13,6.32-1.68,6.55,2.12,12.95,1.72,19.65.74,3-.44,4.1-1.36,4.6-3.93.69-3.51.41-7.78,2.36-10.36,5.18-6.85-.72-13.64,2.45-20.93-10.81,4.73-11.65,4.31-15.61-7.63-1.16,3-1.62,5.2-2.73,6.94-1.44,2.26-3.19,5.63-5.2,5.94-4.19.65-5.28,3.71-6.48,6.35a68.6,68.6,0,0,0-4.21,13.18C452.37,103.75,452.4,107.39,452,111.67Z"/><path d="M287.4,92.6c-2.9,5.83-5,10.24-7.28,14.57a9.66,9.66,0,0,1-8,5.54c-2.19.3-4,3.22-7,5.83,12.46,2.86,7.83,11,7.35,18.13,3.49-2.8,6.27-6.75,9.62-7.33,5.45-.94,5.07,4.69,5.8,8.4,7.69-2.38,10.16-.34,9.06,7.73-.75,5.48-3.35,11-3,16.31,1.22,16.92-7.32,30.95-12.36,46-1.74,5.23-3.66,10.41-4.74,13.47-4.86,4.13-8.15,7.29-11.84,9.9-2,1.4-4.92,2.91-6.92,2.39-1.63-.41-3.09-3.62-3.59-5.82-.61-2.73-.14-5.71-.89-8.89-1.74,4.09-3.66,8.12-5.17,12.3-1.15,3.18-3,5.16-6.42,4.29s-3.93-3.73-3.35-6.94a39.7,39.7,0,0,0,.28-5.13l-1.38-.65a91.88,91.88,0,0,1-6.38,8.09,13,13,0,0,1-5.91,3.58c-1,.22-3.57-2-3.58-3.17a11.18,11.18,0,0,1,2.13-6.54c4.79-6.2,9.85-12.2,15-18.09,2.49-2.84,4.86-6.12,9.71-5.24,1.15.22,2.92-1.35,4-2.5,2.18-2.38,3.92-5.17,6.12-7.53,2.79-3,5.79-2.3,6.3,1.76.48,3.82-.29,7.8-.53,11.7-.1,1.68-.25,3.35-.38,5l1.36.34,14.85-30c-4.14-.31-8.39.58-9.83-1-1.92-2.16-1.65-6.25-2.33-9.52-.58.15-1.14.17-1.19.34-1.23,3.93-3.79,6.84-7.92,5.29s-4.53-5.41-3.29-9.55c.8-2.67.89-5.54,1.33-8.52-8.31,1.55-10.21-.41-9-8.45.15-1.07.62-2.48.13-3.19-4.07-5.94-.94-11.22,1.07-16.76,4-10.94,7.53-22,11.56-32.92.64-1.74,2.62-4,4.24-4.19,4.8-.67,6.33-3.86,7.86-7.65,2.37-5.87,3.66-6.29,9.08-3.72,2.8-2.56,5.22-6.44,8.49-7.39,4.87-1.41,5.46,3.48,6.15,8.57,1.25-2.13,2.12-3,2.28-4,.84-5.34,5-6.9,9.28-7.66a4.26,4.26,0,0,1,5.06,4.94c-1.19,9.63-2.79,19.23-4.68,28.75-.14.75-3.74,1-5.76,1.15-1.08.1-2.43-.84-3.29-.47-5.68,2.49-8.2,1.42-10.06-4.62C288.88,97.68,288.35,95.83,287.4,92.6Z"/><path d="M395.73,188.13a62.05,62.05,0,0,0-2.54,6.8c-1.87,7.51-4.33,9.29-12,8.39a7.71,7.71,0,0,0-3.21.27c-4.86,1.59-7-1.19-8.45-5.1-1.13-3-2.19-5.19-5.66-7.29-3.62-2.19-5.4-8.39-6.72-13.19-2.92-10.65,1.19-20.88,2.73-31.3,1.17-7.87.5-16,1-24a103.12,103.12,0,0,1,2-15.27c1.61-7.45,3.75-14.8,5.65-22.19a2.5,2.5,0,0,0,.1-1.08C365,67.28,374.33,52,375,35.67c.15-3.75,10-8.68,13.35-7a2.94,2.94,0,0,1,1.5,2c.42,6.46,3.26,12.56.46,19.47-4.5,11.11-5.76,23.09-7.2,35-.39,3.29-1.66,6.46-2.56,9.83,8.23-.67,9.65,1.19,7.45,9.44-.68,2.56-1.69,5-2.56,7.56-1.09,3.12-.53,5.56.77,8.92,2.52,6.51,3.38,13.87,3.67,20.94.14,3.41-.44,6.26,2,9.32,1.45,1.85,1.37,4.93,1.84,7.48.36,2,.51,4,1,7.73,3.87-4.67,4.93-11.86,11.25-8.77,6,3,1.66,9,2.44,13.77,3.39-3.9,6.53-7.78,9.95-11.39,4.49-4.76,8.63-4.06,11.43,1.88.83,1.75.93,3.82,1.51,5.7,1.09,3.49,2.37,6.91,3.41,10.41.93,3.14,1.85,6.44-1.57,8.75-3.25,2.18-6.14.87-7.93-1.95-2.15-3.36-3.65-7.14-5.7-11.29a14,14,0,0,0-2.42,3c-2.66,5.9-5.23,11.85-7.66,17.85-1.23,3-2.74,6.4-6.38,4.88-2.28-1-3.77-4.12-5.25-6.51-.67-1.1-.46-2.73-.65-4.12Z"/><path d="M203.61,126.89l7.55-6.93c3.05,4.81-.25,16.14-5.26,19.92-4.24,3.2-8.51,2.65-12.76-1.64-6.66,8.65-6.57,6.35-13.53,2.31-1.51,4.23-4.9,8-1.5,12.86,8.36-4.26,8.36-4.26,11.95,7.4,5.05-2.53,8.56-1.67,9.84,4.46.2,1,2.37,2.17,3.6,2.13,6.34-.16,9.26,2,9.66,8.38.3,4.67.23,9.38.08,14.07-.11,3.49-1.49,7.31-5.46,6.27-2.52-.67-4.47-4.26-6.18-6.85-.7-1.07-.12-3-1-4.87a68.7,68.7,0,0,0-3.73,6.7c-1.66,3.86-5.23,6.27-8.46,5.19-2.69-.9-4.29-5-6.53-7.92-.06.1-1,1.4-1.74,2.79-5.42,10-5.86,10.08-14.43,4.41-2.65,1.36-5.83,4.21-7.33,3.5-2.81-1.33-6.07-4.47-6.54-7.29-.54-3.28,1.47-7.12,2.82-10.55,4.14-10.55,8.88-20.9,12.58-31.6,1.49-4.31.69-9.37,1.27-14,1.25-10.16,5.48-19.17,10.13-28.25,4.14-8.07,6.22-17.17,9.44-25.73,1.16-3.07,2.27-6.85,4.65-8.65,5.14-3.86,11.08-6.66,16.72-9.85.6-.34,1.42-.29,2-.63,6.74-3.73,6.58-3.64,10.79,2.23.81,1.14,3.38,1.69,5,1.47,8.71-1.19,17.38-2.72,26.07-4.09a15.9,15.9,0,0,1,2.93.14c-.24,1.23-.23,2.67-.59,2.77-6,1.67-8.52,9.26-15.76,8.81-7.69-.47-13.55,3-17.79,9.27-.4.59-.91,1.72-1.24,1.67-5.77-.83-7.07,4.78-10.49,7.27-1.32,1-1.82,2.95-3,4.18a18,18,0,0,1-4.41,3.41c-1.2.66-2.74.71-4.56,1.72,9.2,3.12,7.87,9.48,6.3,16.08C204.07,120,204.06,122.68,203.61,126.89Z"/></svg>