<svg id="Layer_1" data-name="Layer 1" xmlns="http://www.w3.org/2000/svg" viewBox="0 0 663.36 368.69"><path d="M580.7,220.88c-5.31,11.94-10.22,24.08-16.11,35.73-2.29,4.53-6.07,9.83-10.43,11.48-7.54,2.85-14.41-3.08-15.23-12.69-.7-8.08.25-16.31.52-24.47.07-2.09.34-4.17-.77-6.91-1.51,1.88-3.17,3.67-4.51,5.66-5.73,8.49-11.27,17.12-17.08,25.55-3.83,5.56-10.59,6.85-13.64,1.34-4.18-7.54-11.85-8.91-18.35-14.19-1.29,3.29-2.84,6.19-3.55,9.28-1.28,5.52-4.24,9.42-10,9.51-4.93.09-8.54-2.64-9.68-8-.28-1.28-1.51-2.35-2.61-4a36.1,36.1,0,0,0-2.91,2.25c-3.55,3.4-8.27,6.4-12.05,2.63-3.3-3.28-5.49-8.77-6-13.51-.93-8.75-.27-17.68-1.44-27.1-2.06,4.27-4.1,8.54-6.18,12.8a52.76,52.76,0,0,1-2.59,4.87c-5.47,8.7-8.94,10.48-15.31,8C407,236.87,405.48,232,408,221c-4.38,3.75-8.2,6.24-11,9.55q-29,33.93-57.55,68.18C329.43,310.66,320,323,310.15,335c-1.95,2.38-4.4,5.1-7.13,5.91-4,1.18-9.5,2.38-12.51.55-2.53-1.54-4-7.72-3.23-11.28,2.82-13.5,6.86-26.74,10.17-40.14,2.05-8.34,3.43-16.84,5.4-25.19,6.75-28.66,13.85-57.24,20.35-85.95,2.54-11.22,3.56-22.79,5.8-34.09,3.29-16.65,6.93-33.22,10.67-49.78,3.88-17.19,8-34.33,12.16-51.46.78-3.18,1.61-6.78,3.65-9.12,2.18-2.51,5.83-3.75,8.83-5.54,1.65,3.62,5.18,7.59,4.59,10.79-1.55,8.41-5.09,16.43-7.5,24.7-4,13.74-8.3,27.44-11.53,41.37-7,30.32-13.64,60.74-20.1,91.19-6.06,28.59-11.66,57.29-17.56,85.92-2,9.77-4.34,19.48-4.95,30.07,4.36-4.88,8.83-9.65,13.05-14.64,20.25-23.92,39.81-48.46,60.92-71.59,10.2-11.18,23.52-19.46,34.9-29.64,4.33-3.87,7.4-9.25,10.64-14.21,4.43-6.75,8-14.15,12.9-20.47,2.32-3,7.44-6,10.56-5.43,2.92.58,6.61,5.84,6.9,9.3.67,7.91-.57,16-1,24-.12,2.44,0,4.88,0,7.32l2.42.41c1.14-4.38,2.37-8.74,3.37-13.14.54-2.33.42-4.83,1.07-7.11,1.29-4.58,3.35-8.77,9.23-7.76,5.59,1,9.26,4.1,8.64,10.27-.89,8.83-2.12,17.63-3.1,26.46a56.77,56.77,0,0,0,0,6.12l2.36.31c1.68-9.1,3.36-18.2,5.38-29.16,4.23,0,9.2.25,14.12-.14,1.61-.13,4-1.62,4.44-3,1.08-3.37.51-7.37,1.95-10.49a19.5,19.5,0,0,1,7.23-8.51c1.48-.85,5.75,1.31,7.56,3.23,2.43,2.57,4.29,4,7.87,2.49,9.84-4.24,13.59-1.93,14.65,8.76.12,1.14.15,2.29.23,3.46,10.94-1.57,15.2,2.21,14.64,13.15-.81,15.83-1.93,31.64-3,48.52,6-12.08,11.36-23.19,17-34.14,3-5.87,7.94-9.82,14.86-9,7.23.84,8.8,7.58,10.82,12.92,3.21,8.47,5.34,17.34,8.2,26,2.8,8.4,11.67,12.17,20.16,10,4.17-1.08,8.41-1.92,12.5-3.25,4.93-1.59,8.51.92,8,6.13-.64,6-4.79,9.66-10,11.15-23,6.62-38.79-1.13-48.95-26-1.86-4.56-3.13-9.35-4.67-14Z"/><path d="M48.07,216.63c4.47-16.81,9.06-33.58,13.36-50.43Q68.12,140,74.3,113.61c.82-3.45,0-7.38,1.2-10.62a12.21,12.21,0,0,1,6-6.48c1.43-.59,5.22,1.72,6.24,3.63a18.35,18.35,0,0,1,1.82,9.53c-2.17,30.15-5.29,60.25-6.69,90.43-.91,19.38.5,38.88,1.14,58.32.1,3.16,1.57,6.28,2.41,9.42l2.54.28c1.3-4.65,3-9.24,3.85-14,2.7-15.47,5.15-31,7.56-46.5,1.51-9.68,1.91-19.62,4.37-29,4.11-15.78,4.81-31.88,6.52-47.92,1.6-15.06,4-30,5.48-45.11,1.13-11.64,1.74-23.36,1.77-35,0-6.17,2.34-10.18,8.09-9.92,6.16.27,6.06,6.1,5.58,10.57-1.74,16.21-3.77,32.4-5.84,48.58-3.91,30.67-7.77,61.35-11.95,92q-5,36.63-10.76,73.15a81.13,81.13,0,0,1-4.74,16.52c-2.31,5.93-8.55,8-12.71,3.44-5-5.45-11-12.14-11.78-18.83-2.13-19.41-2-39.09-2.43-58.67-.3-14-.06-28.11-1.17-42.39-1.15,5.75-2.26,11.51-3.47,17.24-5.55,26.2-11.19,52.37-16.59,78.6-.71,3.47.19,7.26-.46,10.75-.44,2.37-1.86,5.74-3.64,6.35s-5.13-1.12-6.71-2.82c-1.82-2-3.52-5-3.45-7.59.63-22.25,1.55-44.49,2.63-66.73.65-13.34,1.66-26.66,2.65-40,1.4-18.85,3-37.69,4.4-56.54,1-14.1,1.9-28.2,2.84-42.3.19-2.88-.36-6.1.78-8.55s3.93-4,6-6c1.73,2.32,5,4.67,4.92,7C60.57,62.55,59.2,70.75,58.45,79q-3.27,35.69-6.39,71.4c-1.75,20.31-3.33,40.64-5,61-.15,1.79,0,3.59,0,5.39Z"/><path d="M169.42,213c6.62-4.91,7.5-12.89,10-19.93a96,96,0,0,0,4.26-15.86,146.08,146.08,0,0,0,1.55-17.75c.3-6.9,3.5-10.57,9.9-10.77,5.41-.17,8.37,4.16,9.76,10.32,1.67,7.41,5.23,14.38,7.48,21.69a69.08,69.08,0,0,1,2.4,13.35c.29,3-.28,6-.55,10.52,3.16-2.35,5-4.18,7.18-5.24,2.48-1.19,5.29-1.7,8-2.5.11,3.32,1.36,7.22.06,9.84-2.19,4.41-5.72,8.28-9.2,11.88-6.36,6.58-12.87,13-19.74,19.09-7.8,6.87-13.72,7.2-22.46,2a15.22,15.22,0,0,0-2.62,2c-5.87,6.61-14,6-18.14-1.9-2.85-5.41-4.45-11.08-11.78-13-4.4-1.16-6.2-13.53-2.13-17.11,13.62-12,12.82-29.18,17-44.5,1.58-5.72,5.11-8.58,10.06-7.51,4.77,1,8.53,5.06,7.33,10.76-1.43,6.76-3.79,13.32-5.4,20-1.89,7.94-3.42,16-5.11,23.95Zm27.28-25.76-12.37,35.09C193.9,219.33,201.86,196.66,196.7,187.27Z"/></svg>