<svg id="Layer_1" data-name="Layer 1" xmlns="http://www.w3.org/2000/svg" viewBox="0 0 547 331"><path d="M66.57,251.91c-5.51-4.2-3.9-10.44-4.51-15.76-2-17.71-3.55-35.49-5.07-53.25-1.3-15.28-2.32-30.57-3.5-45.86-.12-1.5-.45-3-.69-4.47l-1.42-.14A36.1,36.1,0,0,0,50,137.2c-2,12.66-4.78,25.27-5.74,38-1.86,24.67-4.51,49.4-.77,74.15a51.63,51.63,0,0,0,2.37,10.11c1.33,3.6.4,6-3.54,8.87-1.28-3.14-3.1-5.81-3.38-8.63C37.68,247.2,36.76,234.65,36,222.1c-1.38-22.6-2.43-45.23-3.89-67.84q-1.61-24.57-4-49.1c-.47-4.84-2.26-9.54-3.19-14.36a7.93,7.93,0,0,1,1-4.72c5,5.19,5.52,11.51,6.06,17.69,1.95,22.45,3.66,44.93,5.5,67.39a24.9,24.9,0,0,0,.85,3.74l1.41.08c.82-6.23,1.52-12.47,2.47-18.67,1.73-11.21,3.6-22.4,5.42-33.6a89.45,89.45,0,0,1,1.94-10.62,6.81,6.81,0,0,1,3.5-3.91c.69-.28,3,1.65,3.53,3a21.22,21.22,0,0,1,1.21,6.64c1.49,20.26,2.89,40.53,4.37,60.79a8.39,8.39,0,0,0,2.1,5c.48-3.1,1.22-6.19,1.4-9.31,1-17.38,1.43-34.8,2.86-52.14,1.35-16.28,3.45-32.51,5.68-48.69C75.6,63.24,77.88,53.16,79.76,43c.67-3.66,1.87-6.91,6.15-8.18,4.36,5.89,3,12.31,1.77,18.43-.57,2.88-5.05,3.06-5.47,7.46C81,73.7,78.39,86.54,76.84,99.5c-1.44,12-2.39,24-3.23,36.07-1,14.49-1.8,29-2.52,43.52-.71,14.33-1.45,28.66-1.74,43-.15,7.19.73,14.39,1,21.59C70.52,246.88,72.31,250.91,66.57,251.91Z"/><path d="M320.81,169c-5.06,21.67-5.42,43.75-5.78,65.84,0,3.13-.58,6.28-.27,9.36s-1,5.57-3.67,5c-2.13-.48-5.16-3.36-5.27-5.32-.56-9.9-.22-19.86-.36-29.8-.21-15.24-.29-30.49-.95-45.71-.44-10-1.82-20-2.73-30-.12-1.31-.47-3,.17-3.88,1.38-1.83,3.35-3.22,5.08-4.79,1.33,1.68,3.7,3.29,3.83,5.06.65,8.74.68,17.51,1,26.27a11.8,11.8,0,0,0,1.69,6,27.44,27.44,0,0,0,1.31-3.65c1.75-8,3-16.12,5.38-23.94.67-2.24,4.19-4.76,6.68-5.08,3.48-.44,4.11,3.09,4.11,6.09q0,21.81-.12,43.62,0,14.17,0,28.35l2.15,0c.63-5.06,1.17-10.13,1.9-15.17q3.39-23.43,6.91-46.85c.66-4.42,1.22-8.89,2.31-13.22a23.3,23.3,0,0,1,3.39-6.78c1.67-2.55,4.58-3.83,6.65-1.4,1.49,1.75,2.61,5.88,1.59,7.37-8.92,13.1-9.95,28.35-11.77,43.16-2.39,19.48-3.53,39.12-5.09,58.7-.34,4.28-.19,8.59-.2,12.89,0,3.36-2.05,4.81-5,5-3.4.24-5.19-1.73-5.73-5-4.13-24.73-5.34-49.64-4.9-74.67a69.89,69.89,0,0,0-.68-7.75Z"/><path d="M509.79,279c-2.72-.37-5.22-.38-7.46-1.15-1-.34-1.91-2.19-2-3.43-.84-10.17-1.88-20.35-2.05-30.54-.14-9,.71-18,1.22-27,.8-14.19,2.3-28.38,2.35-42.58,0-12.5-1.42-25-2.45-37.5-.18-2.17-1.54-4.23-2.47-6.65-5.16,1.57-7.68,5.35-9.68,9.17a65.37,65.37,0,0,0-7.48,27.93c-.64,16.51-1.42,33-2,49.52-.21,5.71,0,11.43-.1,17.14a45.13,45.13,0,0,1-.54,4.89c-.35,2.74-1.62,5.48-4.56,4.46a7.93,7.93,0,0,1-4.36-5.54c-.51-5.08.38-10.28.13-15.4-1.1-23-2.42-45.9-3.62-68.86-.27-5.13-.39-10.27-.49-15.41-.07-3.55,1.58-6.65,5.11-6.75,4.07-.12,4,3.38,3.85,6.59a45.34,45.34,0,0,0,1,12.68,13,13,0,0,0,1.72-2.22c3.42-7,6.25-14.45,10.39-21,2-3.16,6.13-5.74,9.83-6.87,5.16-1.58,11,4.85,11.9,11,3.83,25.2.82,50.35,0,75.53-.65,19.75-1.07,39.5-1.46,59.25,0,1.44.6,3.55,1.65,4.23C511.7,272.72,511.28,275.47,509.79,279Z"/><path d="M216.65,66.69c-3,27.38-6,54.75-8.79,82.14-1.42,14.11-2.31,28.27-3.32,42.41-1,14.48-2.09,29-2.76,43.47-.24,5.24.51,10.55,1,15.8.29,3.12,1.91,4.51,5.12,3,5.19-2.52,10.28-5.27,15.62-7.42,8.58-3.45,17.27-6.63,26-9.62,3.93-1.35,8.66.82,9.17,3.57.53,2.91-2.79,8.11-5.94,7.9-15.1-1-26.42,8.29-39.12,13.8-3.48,1.5-6.67,3.74-10.23,5-1.89.66-5.22.74-6.22-.39-1.55-1.75-2.19-4.76-2.26-7.26-.16-5.9.09-11.82.46-17.72,1.69-27.12,3.4-54.25,5.29-81.35q1.33-19.2,3.39-38.33c1.36-12.54,3.5-25,4.73-37.55.79-8,.7-16.13.69-24.21,0-2.81.5-5.38,3.35-5.35,1.1,0,2.65,3.28,3.1,5.27.48,2.15-.09,4.53-.2,6.81Z"/><path d="M278.16,187.79c-1.29,4.4-2.59,8.8-3.87,13.21a13.9,13.9,0,0,0-.25,1.46c-.75,4.73-3.27,7.95-8.15,8.66-5.69.83-7.37-4.17-8-7.65a71.59,71.59,0,0,1-.39-19.07c1.25-12.09,3.14-24.15,8.9-35.12,1.89-3.6,3.64-7.69,6.61-10.19s7.41-3.83,11.41-4.81c1.07-.27,3.87,2.36,4.23,4,1.92,8.68,3.8,17.3-.23,26.22-1.67,3.68-1.16,8.44-1.22,12.71-.14,9.42-.23,18.85.12,28.26a35.4,35.4,0,0,0,2.44,11.14c1.82,4.85-.06,11.15-.76,16.77-.09.67-3.57,1.86-4.16,1.34-1.81-1.62-4-3.86-4.21-6-.64-7.89-.56-15.85-.67-23.79-.08-5.67,0-11.34,0-17Zm-12.08,9.89c6.36-15.72,9.66-32.21,12.65-49C269.71,150.47,261.87,186.31,266.08,197.68Z"/><path d="M451.68,193.39c-1.46,8.1-3.47,20.58-6.09,32.93-.85,4-3.09,7.81-5,11.51-3.37,6.38-10.17,7-15.25,1.91-5.94-5.94-5.9-13.36-5.29-20.69,1.16-13.92,2.73-27.81,4.42-41.67.77-6.34,2.28-12.59,3.35-18.9.93-5.49,1.3-10.83-1.76-16.06-.9-1.56-.63-5.12.55-6.26a9.39,9.39,0,0,1,6.94-2.13c6.62.88,15.34,11.65,15.85,21.29C449.94,166.49,450.71,177.64,451.68,193.39Zm-12.48-42.3-2.46.27c-2.6,20.83-5.29,41.66-7.73,62.52a42.66,42.66,0,0,0,.47,11.33,6.39,6.39,0,0,0,3.25,4.21c.79.35,3.26-1.43,3.91-2.76a54.05,54.05,0,0,0,3.39-9.72c5.24-19.79,4.41-39.78,1.62-59.78C441.36,155.06,440,153.11,439.2,151.09Z"/><path d="M381.86,135.86c3.91,4.79,7.87,9.42,11.58,14.22,6.54,8.46,8.31,18.57,7.74,28.67-.79,14-2.06,28-4.9,41.69-2.43,11.7-7,23-11.33,34.24-2.07,5.36-7.21,7.47-13.05,7.12a28.52,28.52,0,0,0-4-.43c-4.13.36-7.17-2.24-6.95-5.43.21-2.87,3.28-5.65,5.41-8.2.4-.48,2.56-.11,3.45.52,4.33,3.05,8.17,2.22,10.35-3.06a178.65,178.65,0,0,0,6.69-18.93c4.35-15.26,7-30.81,6.42-46.76-.48-12.81-5.49-23.39-15.18-32.08-3.5-3.15-5.63-7.89-8.13-12.05a3.81,3.81,0,0,1,.43-3.56c6.52-6.92,14.34-11.5,24.16-9.76,8.25,1.47,13.61,9.17,10.66,16.27-.66,1.61-2.4,2.78-3.65,4.14l-4.16-4.23c-1.84-1.88-3.41-4.86-5.58-5.37C388.47,132.07,384.14,131.28,381.86,135.86Z"/><path d="M115.55,230.75c4.4-1,5.79-.12,4.88,4.67a136.11,136.11,0,0,1-4.8,17.92c-1.49,4.43-4.61,8.29-9.6,8.12-5.14-.18-10.23-2.8-11.71-7.91-2.18-7.53-4-15.43-4.2-23.22a431.23,431.23,0,0,1,1.07-45.62c1.14-13.65,1.94-27.6,8.15-40.31a19,19,0,0,1,4.13-5.41c3-2.76,6.26-1.49,7.15,1.66a128.67,128.67,0,0,1,4.83,23.53c.28,3.08-2.76,6.64-4.73,9.69a27.75,27.75,0,0,1-5.36,5.69,5.53,5.53,0,0,1-3.68,1.36c-3-.3-4.56.79-4.57,3.72-.08,18.19-.39,36.39.13,54.57.1,3.61,3.08,7.45,5.51,10.58,1.77,2.3,4.82,1.87,6.06-1.06C111.19,243.1,113.13,237.28,115.55,230.75ZM105.27,153.3l-1.67-.4c-1.37,4.78-2.73,9.56-4.18,14.63C107,167.2,109.19,161,105.27,153.3Z"/><path d="M143.46,157.84c-1.43-2.42-2.75-4.65-4.62-7.83-1.25,2.09-2.64,3.64-3.19,5.44-2.53,8.26-1.39,16.34,1.76,24.22,3.06,7.65,6.93,15.07,9.08,23a130.63,130.63,0,0,1,4.13,25.72,76.7,76.7,0,0,1-3.39,29.16c-3,9.12-5.74,13.08-11.65,12.56-6.47-.57-12.91-4.28-14.59-13.73a41.17,41.17,0,0,1-.2-9.42c0-.9,1.3-2.49,1.84-2.43a4,4,0,0,1,2.86,1.92c.79,1.77.86,3.83,1.44,5.71.52,1.65.87,3.9,2.08,4.68,2.5,1.63,6.79,4.2,8.08,3.27,2.9-2.1,5.9-6,6.21-9.36.94-10.3,1.79-20.86.44-31-1.11-8.3-5.4-16.18-8.31-24.24-4.21-11.66-10.09-23.07-7.69-36,1.3-7,2.4-14.35,8.71-19.31,4.41-3.45,8.07-2.79,10.16,2.17C148.53,146.85,147.34,154,143.46,157.84Z"/></svg>