<svg id="Layer_1" data-name="Layer 1" xmlns="http://www.w3.org/2000/svg" viewBox="0 0 1052.83 294.57"><path d="M630.39,90.74c11.17.22,12,1.36,11.75,11.09-.06,2,2,4.08,3.07,6.13l1.72-.29c.75-2.25,1.9-4.46,2.2-6.77q3.6-27.78,6.9-55.59c.61-5.09,8.36-8.79,14.36-6.7,3.83,1.33,7.92,2,11.58,3.7,5.45,2.49,6.83-.66,8-4.82,1.13-4,7.5-7.5,11.12-6.22s4.8,6.09,2.93,10.81c-1.54,3.9-1.41,9.11-4,11.82-12.1,12.51-10.93,28.78-13.5,43.93-2.83,16.68-4.66,33.53-7.56,50.2a330,330,0,0,1-8.44,38c-2.06,6.87-6.12,13.49-10.59,19.19-5.21,6.64-12.51,5-16.35-2.55-3.25-6.34-6.86-12.49-10.59-19.22-.81.91-2,1.68-2.36,2.74-2.06,5.41-3.73,11-5.93,16.32a16.87,16.87,0,0,1-4.49,6.68c-5.7,4.55-11.88,1.66-13.24-6.67-2.68-16.36-4.61-32.84-7.14-49.22-1.39-9-3.46-17.88-5.09-26.84-1.14-6.28-2-12.61-3.07-18.91-.19-1.1-.44-2.55-1.2-3.15-7.07-5.51-9.28-13.1-9-22.38-5.12,2.54-9.62,4.31-13.51,7-1.45,1-2.33,4.25-2,6.2q5.34,29.53,11.26,59c1.88,9.36,4.22,18.63,6.34,27.94,1.21,5.31-.65,9.57-4.83,12.76-3.7,2.81-7.79,5.14-11.47,8-4.26,3.27-8.15,7-12.44,10.25-2.45,1.84-5.59,4.54-8.06,4.2A10.26,10.26,0,0,1,538,209c-2-8.74-4.34-17.4-6.59-26.07-.68-2.6-1.54-5.15-2.39-8-4.95,3.12-9.25,5.76-15.1,3.58-1.58-.58-4.86,1.27-6.34,2.92-4.14,4.63-8.62,3.82-12.52.74-3.33-2.64-4.77-6.3-3.26-11.34a86,86,0,0,0,3.67-21.11c.72-18.39.73-36.82.92-55.24,0-2.66-.77-5.33-.72-8,.11-6.67-.36-13.55,1.18-19.9.62-2.52,5.87-5.33,9.17-5.53,11.19-.68,20.75-4.72,29.68-11.14a202.42,202.42,0,0,1,18.68-12.15,9.9,9.9,0,0,1,7.83-.21c3.54,1.61,3.81,5.19,2.22,8.63-4,8.7-1.31,17.62-.72,26.41.27,4.07,3.57,3.43,6.27,2q13.93-7.48,27.79-15.13a35.71,35.71,0,0,1,25.36-4.07c5.52,1.16,8.23,8.6,7.37,17.06C629.9,78.42,630.39,84.43,630.39,90.74Zm21.17,99.9,2.49-.52c2.65-5.47,6.33-10.7,7.76-16.48,4.23-17.12,8.12-34.37,11.13-51.75,3.45-20,5.78-40.2,8.68-60.3.79-5.48-5.6-10.8-11-8.77a4.4,4.4,0,0,0-2,3.11q-4.44,30.84-8.61,61.72c-.62,4.57-3.13,6.94-7.36,7.9-7.76,1.74-12.21.2-16.43-6.49-2-3.26-4-4.46-8-3.93-4.28.56-9.19-1.26-9.58-5.85a271.1,271.1,0,0,1-.85-33.84c.28-7.23-.8-9.27-8-8a37.33,37.33,0,0,0-8.28,2.88c-2.76,1.21-3.84,3.08-3,6.48,1.61,6.71,2.72,13.55,3.74,20.37,4,26.81,7.93,53.64,11.94,80.45a14.56,14.56,0,0,0,1.45,3.4l1.61,0c1.33-8.14,3.79-16.28,3.7-24.4-.11-8.64,4.88-11.18,14.13-10.54,4,.27,6.66,2.44,7.16,7.09a210.25,210.25,0,0,0,3.72,24C647,181.88,649.61,186.18,651.56,190.64ZM506.07,165.46c5.76.71,7.86-1.64,7.94-6.12.27-15.94.54-31.89.69-47.83,0-4.19,5.14-10.53,8.92-9.29,2.73.9,5.46,4.85,6.25,7.93,1.47,5.8,1.14,12,2.26,17.94,4.48,23.67,9.24,47.29,14.08,71.9,6.22-3.36,11.16-5.93,16-8.67,6.48-3.67,8.41-9,6.37-16.24A133,133,0,0,1,565,157.36c-2.56-18.56-5.26-37.12-7.14-55.76-.78-7.76-5.72-11.06-11-14.94-2.42,3.75-4.29,7.19-6.68,10.23-3.17,4-10.11,5.5-14.46,3.17C521,97.5,521.71,93,522.34,88.71c.49-3.28,1.24-6.51,1.91-9.75,1-4.63,8.58-11,13.48-10.53,5.18.55,8.23,4.06,9.21,9.24.44,2.36,1,4.7,1.51,7.14,6.88-4.58,6.88-4.58.08-28.74a34.55,34.55,0,0,0-4.28,1.58c-9.31,4.79-18.27,10.46-28,14.21-6.43,2.49-6.95,6.47-7.18,11.85-.92,21.47-2.06,42.93-3,64.4C505.86,153.88,506.07,159.67,506.07,165.46Z"/><path d="M972.16,121c-.68,3.45-1.84,6.89-1.95,10.36-.73,21.61-1.09,43.22-1.84,64.83-.5,14.38-1.12,28.78-2.44,43.1-.27,3-3.28,7.11-6,8.18a49,49,0,0,1-16.63,2.92c-8.31.13-14.94-7.94-14.52-18.55.79-20,2.65-40,3.67-60,1.24-24.38,2.14-48.78,3-73.17.26-7.2,0-14.42-.16-21.62-.19-6.78,6-11.11,12.9-9.1s13.88,5.23,20.79,5.14c8.79-.11,17.69-2.52,26.28-4.88,7.7-2.12,15-2.45,22.32.75,3.36,1.47,5.59,4.56,4.17,8.09-4.49,11.14-4.57,22.57-3.47,34.23,2.14,22.64,4.09,45.3,6.14,67.94.95,10.53,2.12,21,2.87,31.59.7,9.68-4,13.8-13.61,16.11-5.66,1.36-10.59,5.86-15.73,9.14-2.37,1.52-4.23,4.4-6.73,5-2.93.71-7.05.62-9.27-1-2.06-1.51-3.35-5.55-3.18-8.37,1.35-22.1,3.27-44.11-.3-66.25-1.69-10.55-1.37-21.41-2.2-32.12-.31-4.1-1.3-8.16-2-12.24Zm-22.3-39.15c-.43,5.15-.78,8.58-1,12-.85,14.41-1.56,28.82-2.51,43.21-.88,13.56-2.09,27.1-3,40.65-.79,12-1.56,24.05-1.92,36.09a111.4,111.4,0,0,0,1.1,18.52c.21,1.56,3,3.81,4.7,3.83s3.94-2,4.88-3.76a17.31,17.31,0,0,0,1.73-7.32c1.45-29.22,2.73-58.45,4.14-87.67.64-13.19.26-26.85,11.8-36.43,2.47-2.05,6.14-4.38,8.8-3.93,2.18.38,4.47,4.45,5.35,7.3,4.43,14.43,5.8,29.29,6.23,44.38.54,18.88,2.18,37.72,3.09,56.6.25,5.15-.42,10.34-.73,16.8,6-3.23,10.87-6.44,16.17-8.44,4.3-1.62,4.93-4.2,4.69-8-.85-13.82-1.4-27.66-2.41-41.46-1.5-20.56-3.48-41.09-4.85-61.66-.44-6.5.44-13.09.62-19.65a33.7,33.7,0,0,0-.56-4.74c-8.71,2-16.92,4-25.17,5.9C970.75,86.39,960.37,92.29,949.86,81.88Z"/><path d="M101.88,123.2c2.06-10.13,3.88-19.45,5.87-28.74,1.72-8.06,3.61-16.09,5.49-24.12,2-8.65,4.48-17.22,6.11-25.94,1.1-5.82,5.12-7.16,9.66-7.21a90.2,90.2,0,0,1,17,1.51c2.09.38,4.88,2.44,5.46,4.31.87,2.8,1.31,5.7-1.26,9.12C146,57.73,142.1,64.31,140.53,71c-3.75,16.15-6.15,32.62-9,49-2.38,13.77-4.6,27.56-6.87,41.34-4,24.53-8,49.07-12.15,73.58-.41,2.47-1.77,4.76-2.29,7.23-.72,3.49-2.48,6.52-6.11,5.46-2.68-.79-5.95-3.34-6.85-5.86-6.61-18.63-12.69-37.45-19-56.19-.62-1.86-1.58-3.6-2.38-5.39l-1.49.27c-.83,5.2-1.85,10.38-2.46,15.61-1.5,12.73-2.81,25.49-4.23,38.23-.1.95-.93,2-.7,2.78,1.14,4-.9,5.4-4.32,5.71-3.8.33-5.61-2-5.36-5.35,1.63-22.25-6-43.2-8.94-64.81q-4.29-32.05-7.85-64.22C38.44,89.22,36.81,70,34.86,50.74c-.14-1.4-1-2.72-1.57-4.07-1.2.77-2.42,1.5-3.58,2.33s-2,2.13-3.2,2.45c-1.88.51-4.35,1.08-5.77.26-1.13-.65-2-3.75-1.38-5.07A146.82,146.82,0,0,1,27,32.47a25.78,25.78,0,0,1,4.55-6C33,25.13,35.21,24.67,37,23.67Q40.1,21.89,43,19.8c3.1-2.19,5.83-5.16,9.22-6.59,5.2-2.18,8.66-.2,9,5.42.53,8.32-.4,16.73,0,25.06C62,56.94,63,70.2,64.6,83.38c.68,5.7,3,11.22,4.8,16.75a4.47,4.47,0,0,0,2.8,2.3c.5.14,1.85-1.22,2.18-2.14,2.74-7.38,5.53-14.76,7.86-22.27,1.09-3.5,3.22-6.46,6.36-5.21,2.33.92,5,5.06,4.8,7.51C92,94.69,96,108.05,100,121.45,100.17,121.89,100.8,122.19,101.88,123.2ZM52.58,25.89c-8.75,6-13.34,12.35-11.15,21.92a27.67,27.67,0,0,1,.63,4c1.5,19.29,2.37,38.66,4.62,57.86,2.68,22.79,6.5,45.44,9.89,68.14,1,6.38,2.14,12.72,3.21,19.07,1.78-1.42,2.8-2.78,2.91-4.21,1.09-13.37,2.17-26.75,2.94-40.14.25-4.48,4.3-10.4,8-10.68,3.34-.26,8.36,5.21,7.68,10.27a25.72,25.72,0,0,0,.71,10.41c4.53,15.36,9.4,30.62,14.24,45.89,1.72,5.44,3.7,10.79,5.56,16.18l1.54,0a22.87,22.87,0,0,0,1.46-3.82c4.56-24.13,9.31-48.22,13.5-72.41,3.39-19.54,6-39.22,9.15-58.8,1.65-10.13,3.78-20.19,5.88-30.24a86.37,86.37,0,0,1,2.93-9l-1.76-1.48c-2,1.29-5.1,2.14-5.86,4A105.85,105.85,0,0,0,122.84,71c-3.17,14.6-5.91,29.29-8.71,44-1.67,8.75-3.17,17.54-4.62,26.33-.63,3.86-2.08,6.71-6.44,7s-6.25-2.5-7.24-6c-2.32-8.37-4.46-16.8-6.72-25.19-1.29-4.81-2.65-9.6-4.29-15.5-3.43,5.53-5.79,9.72-8.56,13.62-1.52,2.16-4.45,5.73-5.52,5.34-2.7-1-5.85-3.46-6.79-6.07-2.66-7.39-5.08-15-6.17-22.77C55.55,76,54.1,60.19,52.66,44.38,52.15,38.7,52.58,32.94,52.58,25.89Z"/><path d="M401,52.28c-3.68,1.45-7,2.84-10.34,4.07-4.7,1.72-9.36,3.74-14.21,4.79-2,.44-4.54-1.28-6.88-2,1.32-7.17,5.23-10.36,11.36-11.8a121.89,121.89,0,0,0,13.92-4.6c2.43-.88,4-2,3.82-5.5-.11-2.32,2.55-6,4.81-6.85s5.34,1.32,8.1,2.06c2.36.63,4.92,2,7.09,1.53,5.92-1.2,11.58-3.86,17.52-4.71,12-1.71,21.16,3.29,16.89,18-7.34,25.22-10.36,51.15-11.51,77.31-1.28,29-2.53,57.94-3.35,86.92-.22,7.6-1.47,10.18,8.79,8.05,8.37-1.74,17-2.29,25.6-2.82,13.34-.82,24.89-5.33,34.89-14.31,2.07-1.85,6.85-3.46,8.5-2.37,2.33,1.55,3.86,5.66,4,8.78.43,7.48-.39,14.86,3.6,22a7.73,7.73,0,0,1-3.68,11c-8.59,4-17.38,7.68-26.07,11.51-11,4.87-22,9.87-33.14,14.63s-22.28,9.34-33.45,13.94c-3.79,1.57-7.63,3-11.47,4.48-4.25,1.6-8.17,2-11.89-1.73-3-3-2.09-5.71-1.5-9.27.91-5.52.53-11.26.53-16.91,0-29.62.08-59.23-.07-88.84-.19-37.61-.56-75.22-.9-112.82A27.11,27.11,0,0,0,401,52.28ZM505.18,219.93c-7.32,2.52-14,5.73-21,7-12.54,2.3-25.31,3.39-38,5.12a31.73,31.73,0,0,0-8.48,2.15c-8.18,3.62-13.06,1.08-13.13-7.82-.05-6.77,1-13.54,1.53-20.32,2.1-27.15,4.06-54.32,6.32-81.47,1.5-18,3.35-36.06,5.18-54.08.81-8,2.3-15.86,2.84-23.83.38-5.52-1.52-6.65-6.69-5.13-4.13,1.21-8.14,3.14-12.34,3.68-6.92.88-7.53,5.24-7.52,10.75q0,26.35-.32,52.72c-.45,34-1.38,68-1.41,102.06,0,18.33,1.43,36.67,2.14,55,.19,4.84,2,6.87,7,5,8.55-3.26,17.32-6,25.73-9.54,16.83-7.13,33.42-14.82,50.23-22C507,235.05,510.1,227.64,505.18,219.93Z"/><path d="M766.49,162.2c.27-7.9.52-15.79.83-23.68.19-4.66.19-9.36.79-14,1.07-8.31-1.92-12.61-10.4-13-9.73-.41-16-6.17-20.6-13.47s-1.47-15.49.65-23.18c.31-1.13.87-2.18,1.2-3.3,3.24-11,9.74-15.11,21.52-13.74q15.4,1.81,30.88,3.23c5.31.49,9.18-2,12.6-6.09,1.76-2.09,5-2.93,7.61-4.33,1.56,2.86,4.28,5.66,4.45,8.61.4,6.71-.31,13.5-.85,20.24C814.65,86,810.51,90,804,90.63c-4.45.42-9.08,0-13.35,1.06-6.52,1.63-6.95,4.36-2.57,9.41,5.07,5.85,11,9.31,19.06,7.94a25.32,25.32,0,0,1,5.29,0c5.54.22,7.92,3.27,7.47,8.72-1,12.27-2,24.54-2.55,36.84-.73,17.74-4.67,34.52-13,50.31-2.82,5.36-11.65,6.11-16.75,5-4.49-1-8.94-2.23-13.48-2.86q-18.57-2.61-37.23-4.72c-4.43-.5-8.95-.31-13.43-.49-7.41-.29-9.94-5.19-7.54-11.93,3.11-8.73,6-17.75,7.17-26.88.74-5.68,2.39-9.81,7.51-10.8,4-.78,8.74.09,12.64,1.55,7.21,2.7,14,6.38,21,9.65ZM785,116.65c-.56,5.93-1,10.81-1.49,15.69-1.31,12.51-2.55,25-4,37.51-.61,5.11-4.75,8.56-9.7,7.29a250.54,250.54,0,0,1-26.6-8.46c-5-1.89-6.82-.6-7.41,4.25-.38,3.09-.53,6.39-1.77,9.14-1.91,4.24-.34,5.86,3.55,6.36,15.88,2,31.74,4.16,47.65,5.82,8.56.9,10.79-1,13.42-9.33,5.79-18.35,7-37.32,7.06-56.35,0-2-3.34-4.46-5.66-5.74-3.34-1.84-7.19-2.75-10.79-4.14C787.71,118.09,786.26,117.25,785,116.65ZM770.77,99.37c-.13-1.79,0-3-.33-4-1.94-5.58,0-10.07,5.08-12,6-2.33,12.62-3.28,18.9-5,1.8-.49,3.39-1.69,5.08-2.56-1.7-.69-3.36-1.84-5.1-2-10.87-1-21.78-1.5-32.64-2.57-7.18-.71-9.09.53-9.89,7.69a19.67,19.67,0,0,1-1.1,5.11c-2.67,6.69.54,12.89,7.71,14.17C762.28,98.78,766.18,98.92,770.77,99.37Z"/><path d="M266.54,112.85c5.52,4.93,9.92,9.35,14.83,13.12,7.06,5.42,10.64,13.4,12.31,21.08,3,13.55,4.18,27.6,4.65,41.5.2,6-3.33,12.18-5,18.32a54.45,54.45,0,0,0-1.42,7.83c-1.13,9.68-13.21,13.25-20.2,9.93-8.9-4.23-16.86-10.36-25.45-15.28-7.44-4.26-15.08-8.22-22.87-11.78-2.42-1.1-5.68-.2-8.48-.67-3.08-.52-7.37-.66-8.75-2.62-1.52-2.17-.66-6.27-.25-9.46.8-6.32,2.15-12.57,2.95-18.89a45.56,45.56,0,0,0-.15-8.73c-.31-4.55,2.7-6.79,6.28-6.81,3,0,7.68,1.23,8.77,3.36,6.54,12.78,19,11.93,30.12,13.62,4.29.66,7.57-2.57,5.4-7.06-4.1-8.5-8.14-17.29-13.86-24.69-6.87-8.86-15.64-16.23-23.2-24.61a13.47,13.47,0,0,1-3.28-8.46c.28-11.9.49-24.23,12.08-31.69,3.89-2.51,8.94-5.13,13.19-4.76,8,.71,15.81,3.56,23.69,5.52,1.61.41,3.26,1.34,4.8,1.17,6.8-.75,9.45,1.24,10.11,8.27.19,1.93-.25,3.92-.05,5.86C284,99.07,279.06,107.63,266.54,112.85Zm-44.67,61.06c-3.52,7.48-3.14,7.73,2.22,10.49,11.23,5.78,22.16,12.14,33.25,18.19,5.59,3.06,11.2,6.11,17,8.77,1.15.53,4.34-.44,4.55-1.24,2.51-9.71,6-19.45,6.46-29.31.46-9.63-1.41-19.64-3.91-29-1.55-5.8-5.45-11.47-9.61-16-7.34-7.93-15.79-14.83-23.6-22.35-3.91-3.77-2.46-9.78,2.33-11.26s9.61-3,14.29-4.79c5-1.93,6-5.34,2.94-8.91a26.58,26.58,0,0,0-24.62-9.35c-6.91.9-10.12,6.2-11.57,12.44-1.23,5.25-1.11,9.88,3.68,14.24a157.52,157.52,0,0,1,19.87,21.37,278.85,278.85,0,0,1,19.45,30.21c3.15,5.58,2.91,11.48-1.91,16.15-6,5.79-13.26,8.36-21.23,7.05C241.52,179,231.8,176.2,221.87,173.91Z"/><path d="M180.17,100.59c8.78-2.1,13.17,4,18.48,8.33,5.82,4.81,6,10,.61,15.21-5.1,4.86-11.07,9.16-14.9,14.88-2.83,4.22-2.85,10.32-4.22,16,6.26.4,11,.21,15.48,1.16,2.64.57,6.18,2.45,7,4.62a11.83,11.83,0,0,1-1,9.2c-4.25,6.85-9.48,13.09-14.09,19.72-6.23,9-12.45,18-18.28,27.19a105.72,105.72,0,0,0-8.25,16c-2.27,5.49-5.86,8.52-9.71,6.94-5.31-2.16-6.33-6.08-3.75-12,.94-2.16.92-4.81,1-7.25.83-23.55,2-47.11,2.26-70.67.25-19.22.85-38.61-1.35-57.62-1.14-9.8,1.1-14.27,8.78-19.24,8.46-5.49,15.7-12.85,23.48-19.39a5.63,5.63,0,0,1,.45-.38c12.07-8.39,19.22-7.86,27.85,5.8,3.54,5.62,9.44,12.76,3.26,19.2-7.58,7.89-14.78,17.42-27.63,17.71-1.82,0-3.61,1.32-5.41,2Zm4.25,68.21c-2.66,0-4.38-.07-6.09,0-8.19.41-10.49-1.37-9.83-9.55.76-9.28,2.52-18.48,3.76-27.72.22-1.62.69-3.75-.07-4.88-9.38-13.8-6-27.5.84-40.7,1.24-2.4,6.71-4.06,9.95-3.68,6.5.76,16.64-3.79,18.41-9.77a4.51,4.51,0,0,0,0-2.86C198,61.73,192.86,58.92,186,64c-5.93,4.42-12.2,8.72-17,14.22-3.7,4.23-6.89,10-7.61,15.49-1.39,10.54-.86,21.34-1.15,32-.59,21.25-1.25,42.49-1.79,63.75-.16,6.31,0,12.62,0,18.94C167.5,195.65,179.05,184.67,184.42,168.8Z"/><path d="M840.44,168.49A267.32,267.32,0,0,1,854,97.84,97.27,97.27,0,0,0,858.48,72c.27-5.91,2.91-8.43,7.64-9.14,10.61-1.61,21.29-3,32-3.72,7.77-.51,12.41,5,13.8,13.6,2.51,15.49.85,30.75-.45,46.25-1.79,21.44-9.15,41.33-13.61,62-2.85,13.19-9.7,23.09-17.75,32.87-9,10.91-20.18,9.56-27.35-2.5C844.84,198.06,839.56,184.25,840.44,168.49Zm12.35-1.08,1.44.08c-1,12.39,1.28,23.94,7.93,34.55,3.4,5.42,7.63,6.09,10.5.7a239.45,239.45,0,0,0,11.68-24.41c4.2-10.62,8.49-21.36,11-32.44,2.64-11.67,3.59-23.76,4.59-35.73.8-9.66.79-19.41.65-29.11a14.8,14.8,0,0,0-2.85-8.5c-2.23-2.79-19.12-2-20,1.11-1.65,5.59-5.69,9.74-7.64,14.5-4.71,11.54-7.37,24-9.93,36.31C857.17,138.68,855.19,153.09,852.79,167.41Z"/><path d="M890.29,108.88c-1.48,9.77-2.4,19.67-4.73,29.24-.86,3.51-4.54,7.45-7.91,8.87-2.27.95-6.37-2-9.43-3.59-.93-.49-1.66-2.39-1.57-3.57.77-10.38,2.41-20.55,7.56-29.85a9.06,9.06,0,0,0,1-3.78c.34-6.38,3.72-10.51,8.43-10.08,4.13.37,6.52,4.68,6,10.92,0,.58-.13,1.16-.19,1.74Z"/></svg>