<svg id="Layer_1" data-name="Layer 1" xmlns="http://www.w3.org/2000/svg" viewBox="0 0 1600 333"><path d="M1014.63,287.3c-15.68,0-31.4.69-47-.27-9.26-.56-19.23-2.15-26.43-8.73a70.62,70.62,0,0,1-13.85-17.86c-4.36-7.92-7.18-16.69-10.64-25.1-3.67-8.94-2.23-18.3-2.08-27.52.08-5.59.53-11.19,1-16.76,1.27-14,3.15-27.88,3.86-41.86a108,108,0,0,1,7.21-34.74c3-7.61,7.4-14.72,11.59-21.82a81.91,81.91,0,0,1,9.91-14c6.49-7,11.49-15.85,21-19.61,4.73-1.87,9.73-3.06,14.62-4.53,6.14-1.85,12.21-3.95,18.44-5.43,4.5-1.08,9.2-1.32,13.81-1.95a7.43,7.43,0,0,0,2.33-.47c9.52-4.74,19.54-4.92,29.9-4,9.22.85,18.52.69,27.78,1.18,14.69.79,29.39,1.59,44.06,2.66,21,1.52,41.76,4.29,61.51,11.78,8.77,3.33,17,8.08,25.35,12.48,9.32,4.91,18.79,9.66,27.6,15.4,8,5.22,15.29,11.57,22.73,17.63,4.1,3.34,8.62,6.55,11.65,10.76,11.41,15.89,11.79,32.46,2.86,49.95-5,9.77-12.35,17.19-19.61,25-5.91,6.33-10.9,13.53-16.86,19.81-11.66,12.27-26.53,20.26-40.63,29.23a213.57,213.57,0,0,1-46.43,21.75c-16.28,5.53-32.48,10.88-49.51,13.69-8.42,1.39-16.58,4.29-24.94,6.14-11.11,2.46-22.24,4.94-33.47,6.68-8.47,1.31-17.12,1.48-25.68,2.16Zm3.15-19.93c12.3.69,26-1.43,39.54-4.77,10.86-2.69,21.64-5.78,32.59-8.07,19.94-4.16,39.71-8.82,58.57-16.61a289.8,289.8,0,0,0,27.26-12.57c9.4-5.09,18.4-10.95,27.33-16.85,8.18-5.4,16.23-10.9,22.4-18.92s13.58-14.79,19.81-22.62c6.07-7.64,12.87-15.33,11.17-26.31-.37-2.44-1-5.33-2.64-7-4.7-4.87-10-9.16-15-13.8a107.08,107.08,0,0,0-27.15-18c-13.48-6.49-26.26-14.92-40.33-19.56-15.23-5-31.51-7.28-47.51-9.5-14.14-2-28.55-2-42.81-3.29-15.17-1.34-30.27-3.37-45.45-4.6-7-.57-14.45-1.18-21.17.42-10.47,2.5-20.52,6.8-30.7,10.45-6.44,2.31-12.4,5.37-16.52,11.18-5.33,7.55-11,14.89-16.07,22.59-3.27,4.93-6.88,10-8.47,15.6a161.76,161.76,0,0,0-5.25,28.06c-1.81,18.44-3.06,36.94-4.07,55.43-.4,7.31-.75,15,1.08,21.95,2,7.47,6.77,14.14,9.89,21.35,3.76,8.73,10.7,12.77,19.56,14.18a88,88,0,0,0,12.86,1.24C989.85,267.47,1003,267.37,1017.78,267.37Z"/><path d="M91.24,265.34c3-13.08,6.11-26.16,9.1-39.26,5.1-22.32,10.26-44.61,15.17-67A234.09,234.09,0,0,0,120.46,94c-.6-9.62-.14-19,3.83-28,1.69-3.83,8.86-5.74,12.55-3.5,5.65,3.45,6.73,9,7.12,14.77,1,15.47,1.63,31,2.77,46.44,1.23,16.68,2.77,33.33,4.36,50,.92,9.55,2.28,19,3.27,28.59.65,6.21,1,12.45,1.5,18.68l1.62.19c.78-3.31,1.73-6.6,2.31-9.95,2.92-16.7,6.28-33.33,8.43-50.13,1.69-13.24,1.55-26.7,2.77-40s2.87-26.67,4.78-39.94c2-14.05,4.53-28,6.91-42,.69-4,2.83-6.49,7.39-6.39,8.14.19,13.31,8.61,10.35,17.38-5.58,16.52-7.71,33.71-9.49,50.9-2.46,23.69-3.66,47.51-6.48,71.15-2.07,17.32-6,34.42-8.89,51.65-2,11.88-3.58,23.84-5.74,35.7A230.34,230.34,0,0,1,164.43,282a8,8,0,0,1-8.58,6.21,10,10,0,0,1-9.43-7.72,67,67,0,0,1-.8-9.73c-.34-7.05-.3-14.13-.92-21.15-1.35-15.16-2.91-30.31-4.57-45.45-1.39-12.65-3.06-25.27-4.57-37.91a72.25,72.25,0,0,0-1.93-11.77q-4.35,18.71-8.71,37.43c-2.69,11.53-5.55,23-8.08,34.59-2.18,10-3.83,20.13-6,30.13-2.38,10.79-5.2,21.49-7.71,32.25-1.14,4.88-.94,10.13-5.95,13.46a9.16,9.16,0,0,1-12-2.32c-10.83-15.94-11.66-34.48-14.1-52.62-1.4-10.34-2.76-20.69-4.54-31-3.44-20-4.37-40.08-5-60.32-.7-23.79-2.81-47.55-4.83-71.28-1.44-16.9-3.89-33.72-5.55-50.61-.48-4.89-.72-10.16.63-14.76.9-3,4.43-6.1,7.52-7.46,2.54-1.11,5.94,4.77,6.23,8.75,1.42,18.79,2.91,37.58,4.7,56.34,1.26,13.15,3.62,26.21,4.48,39.38,1.4,21.43,1.51,43,3.07,64.37,1,13.32,3.63,26.53,5.5,39.79,1.92,13.57,3.8,27.14,5.73,40.7.21,1.42.63,2.8.95,4.2Z"/><path d="M433.19,208.86c-2.12,8.27-3.89,16.66-6.46,24.79-2.93,9.3-7.14,18.08-14.27,25.06-12.08,11.83-24,23.83-36.39,35.34A79.55,79.55,0,0,1,331.28,315c-17.92,2.3-36,4.35-54,4.79-18.57.46-33.4-7.53-43.73-23.74-11.19-17.57-17.63-36.54-21.73-56.88-5.84-28.94-3.74-57.64-.83-86.54,2.31-22.87,3.63-45.83,5.94-68.7,1.47-14.55,3.72-29,6.07-43.47,1.29-7.89,7.43-10.94,13.62-6.34,2.39,1.78,3.71,7.62,2.76,10.8-4.22,14.16-3.95,28.75-5.28,43.17-1.71,18.48-3.18,37-4.75,55.46-1.48,17.43-3.61,34.84-4.28,52.3-.66,17.21,1.86,34.22,6.18,51a137.64,137.64,0,0,0,15.61,36.75c10,16.65,25.15,19.22,42.49,17.27,11.29-1.27,22.64-2,33.89-3.51,17.44-2.3,33.24-8.35,45.7-21.42,10.82-11.35,21.9-22.46,32.48-34,6.16-6.73,9.05-15.25,11.11-24.07,3.84-16.42,7.76-32.83,11.9-49.17,3.36-13.24,7.83-26.24,10.45-39.61s3.76-27,5.09-40.63c.71-7.21.22-14.52.65-21.77.31-5.3,5.1-6,8.92-7,1.36-.34,3.35,1.47,4.94,2.47.79.5,1.2,1.69,2,2.07,4.62,2.13,5.07,6.07,4.95,10.42-.35,13.7-.36,27.4-1,41.08-.83,17.84-1.78,35.69-3.34,53.48-1.31,14.91-3.21,29.79-5.47,44.59-2.87,18.73.35,37.24,1.17,55.84.16,3.42,1.5,6.81,1.43,10.2-.16,7.31-9.15,11.86-15.81,8.53-4.65-2.33-6.09-5.44-5.5-10.72.9-8,.82-16.05.88-24.08.11-14.79,0-29.58,0-44.36Z"/><path d="M1535.89,192.17c-7.59,2.45-15,4.76-22.3,7.21-8.15,2.72-16.35,5.33-24.35,8.45a124.34,124.34,0,0,0-15.8,7.66c-3.53,2-9.34.21-10-3.8a108.12,108.12,0,0,1-1.28-13.06c-.21-5.8,3.65-9.45,11.81-12.06,9.13-2.91,18.3-5.73,27.29-9,13.91-5.1,27.7-10.55,41.52-15.91,5.6-2.17,11.45,1.93,14.34,7.93,4.13,8.57.39,16.8.53,25.15.12,7.42-.35,14.86-.11,22.28.62,18.52,2.06,37,2,55.55,0,8.24-5.91,14.63-13.53,17.52-7.41,2.82-12.9,7.48-18.66,12.57a31.55,31.55,0,0,1-15.66,7.31c-10.23,1.4-20.85,2.18-31.06,1.05-14.55-1.62-25.27-10.9-34.6-21.62-11.06-12.71-19.31-27.28-26.67-42.24a222.24,222.24,0,0,1-13.5-34.15c-6.56-21.85-11.89-44-11.31-67.18.38-15.08,1.52-30.05,6.8-44.27,2.82-7.61,7.14-14.66,10.55-22.07,4.32-9.35,10.87-17,18.72-23.36a89.78,89.78,0,0,1,41.5-19,113.25,113.25,0,0,1,23.2-2c15.4.5,29.09,5.17,39,18.2,2.86,3.78,6.38,7,5.52,12.1-.48,2.79-1.61,7-3.5,7.65-2.46.91-6.28-.42-9-1.83-5.22-2.76-9.7-7.2-15.12-9.26-17.12-6.5-33.87-3.41-50.41,3.17-14,5.56-24.49,15.42-32.56,27.44-8.91,13.27-13.87,28.37-16.12,44.34-3.29,23.2,1.34,45.61,7.43,67.61,5,18.19,13.79,35,23.48,51.31,5.9,9.92,12.44,19.22,21.78,26.11,9.66,7.13,20.82,9.05,32.56,8.11,7.2-.58,13.53-2.64,19-8.12,4.47-4.48,10.35-7.61,15.75-11.1,5-3.23,6-8.3,6-13.4,0-9.9-.48-19.8-1-29.69-.54-10.71-1.31-21.4-2-32.1C1536.18,194.6,1536,193.63,1535.89,192.17Z"/><path d="M703.81,56.26c0,13.53-.29,26.23.07,38.92.54,18.7,1.31,37.39,2.42,56.06,1.21,20.46,3.31,40.87,4.27,61.34a354.35,354.35,0,0,1-.61,38c-.38,6.1-2.17,12.23-4.1,18.09-1.77,5.39-6.93,7.17-13,5.42-3.62-1-7.2-6.49-6.44-10.75.59-3.28,2.69-6.35,3-9.63,1.23-12.18,3.11-24.43,2.7-36.59-.73-21.17-3.54-42.26-4.46-63.42-1.19-27.28-1.65-54.61-1.87-81.92-.09-12.23.57-11.76-11.39-10.85-28.95,2.19-57.94,3.76-86.9,5.85-11.41.82-22.77,2.27-34.14,3.62-16.42,2-32.81,4.23-49.24,6.07-5.27.59-12-5-12.43-10.11-.35-4.08,1.68-7.27,5.86-8,7.62-1.4,15.33-2.31,23-3.58,7.31-1.21,14.55-3,21.9-3.86,14-1.66,28-3.22,42.06-4.14,16.2-1.06,32.49-.89,48.68-2.16,18.11-1.42,36.14-3.89,54.21-5.82,19.56-2.1,39.09-4.93,58.71-5.9,19.33-.95,38.76-.2,58.13.2,20.88.44,41.74,1.87,62.61,1.84,12.15,0,24.37-1.59,36.43-3.4,5-.75,9.6-4,14.44-6,3.35-1.37,6.75-3.28,10.23-3.51,2.65-.18,7,1.16,7.92,3.1,3.76,7.7,2.89,12-1.32,15.07-10,7.36-21.92,10.14-33.54,12.26-27.58,5-55.62,3.13-83.36,1.83-28.9-1.36-57.75-2.14-86.64-1.1C721.93,53.48,712.93,55.18,703.81,56.26Z"/><path d="M1314.55,107.68c1.38,11.55,2.47,22.35,4,33.1a291.86,291.86,0,0,1,.81,76.71,293.09,293.09,0,0,0-2.1,38.39c.07,7.62,2.6,15.2,3.73,22.84,1.06,7.22-4,11.25-11.33,9.29-2.08-.56-4.28-.72-6.32-1.38a12.74,12.74,0,0,1-6.9-18.65c1.22-2.14,1.38-5,1.51-7.62.44-9.19.42-18.4,1-27.58,1.26-20,4-39.94,3.82-59.89-.19-18.12-3.12-36.26-5.61-54.29a322.85,322.85,0,0,1-2.8-51.51c.07-3.11,0-6.22-.15-9.33-.22-5.8,4.37-9.45,9.45-6.79,3.19,1.67,6.62,4.46,8.08,7.61Q1326.36,90,1340,121.87c4.76,11.08,8.79,22.49,12.88,33.85,2.39,6.64,4.22,13.49,6.35,20.23a5.55,5.55,0,0,0,2.62,3.27c.27-4.13.87-8.26.75-12.37-.42-14.35-.41-28.76-1.91-43-1-9.23-4.28-18.22-6.49-27.33s-4.51-18.14-6.49-27.26c-1.46-6.73-2.23-13.62-3.77-20.32-1-4.36,2-6.37,4.56-7.93,1.81-1.13,5.07-.85,7.36-.15,8.35,2.56,9.76,9.95,11.33,17.17,3.09,14.19,5.91,28.46,9.5,42.53,4.83,18.92,6.34,38.1,6.21,57.51-.15,21.35-.39,42.7-.08,64a131.91,131.91,0,0,0,2.7,26c1.59,7.29,4.7,14.37,8,21.12,2.53,5.15,3.81,10.2,2.49,15.63-.66,2.72-2.43,4.73-6.08,4.48-8-.57-13.27-4.87-15.86-12-6.31-17.4-12.52-34.85-18.23-52.45-7.87-24.24-14.94-48.73-23-72.91-4.64-14-10.47-27.55-15.84-41.27C1316.71,109.74,1315.71,109,1314.55,107.68Z"/></svg>