<svg id="Layer_1" data-name="Layer 1" xmlns="http://www.w3.org/2000/svg" viewBox="0 0 1587 369"><path d="M1200.67,133.13c1.35-2.06,2.38-4.45,4.11-6.13,13.29-12.91,25.78-26.88,40.32-38.23,22.14-17.3,47.5-20.48,73.73-9.72,14.07,5.78,22.55,17.35,28.07,31.25,9.92,25,10.9,50.61,5.48,76.57-3,14.17-6,28.44-10.59,42.12-4.41,13.08-10.37,25.73-16.7,38a192,192,0,0,1-17,26.5c-7.1,9.53-17.69,14.37-28.48,18.8-12.15,5-24.71,3.53-36.93,1.82-11-1.54-21.85-5-32.55-8.33-8-2.48-14.21-15.15-11.2-22.83,1.7-4.31,5.15-8,8-11.77,13.08-17.1,22.68-36,29.85-56.25,1.1-3.11,3-6,3.59-9.21.42-2.13,0-5.48-1.37-6.63a8.64,8.64,0,0,0-7.27-1.3c-9.35,3.56-18.92,6.95-27.55,11.89a48,48,0,0,0-20.87,23.8c-6.22,15-6.49,31-8.93,46.59-2.07,13.23-7.26,18.87-19.76,21-10.53,1.84-20.48-.4-29.8-5.34a111.29,111.29,0,0,1-14-8.34c-7.81-5.74-12.31-13.49-10.86-23.46,2.51-17.18,4.19-34.63,8.55-51.36,3.74-14.38,10.91-27.85,16.2-41.86,2.62-6.93,5.6-14.06,6.32-21.3,1.13-11.51-3-22.12-9.81-31.46-3.25-4.44-6.88-8.53-6.73-14.53.14-5.73,2.33-7.14,7.8-5.44a7.48,7.48,0,0,0,5.79-.72C1143.68,86.06,1161,83,1179.2,87.72c9,2.36,15.5,9.49,19.1,18.29,3.38,8.27,2,16.88.21,25.38Zm-59.56-17.28c3.21,10.9,6.93,20.7,8.88,30.85,2.87,14.92-2.15,28.57-8.51,42-5,10.54-9.66,21.41-12.81,32.6-3.61,12.87-5.6,26.21-7.89,39.41-1.78,10.27-.88,12,9.33,14.29,17.71,4,23,1.47,25.41-15.23,1.46-10,3-20,5.11-29.84,3.08-14.28,9.88-26.31,21.76-35.55A109.67,109.67,0,0,1,1222.06,175c6.68-1.78,13.2-1.86,19.81.94,8.35,3.53,11.82,11.1,16.22,18,2.71,4.25,2.9,8.61,2.4,13.56-1.71,16.85-10.57,31.21-16,46.73-2.36,6.71-7.1,12.62-10.93,18.79-3.07,5-6.39,9.77-10.4,15.86,9.15,1.07,17.3,2.14,25.47,3,13.83,1.4,25.52-3.08,36.15-12a79.15,79.15,0,0,0,16.79-19.9,233.82,233.82,0,0,0,25.22-56.43c4.29-14.65,6.4-30,8.74-45.13a81.73,81.73,0,0,0-3.17-36.82c-2.83-9.18-6.79-17.54-17.07-21.09a54.71,54.71,0,0,0-36.53,0,46.31,46.31,0,0,0-5.93,2.56c-6.14,3.12-13.34,5.15-18.15,9.69-12.88,12.17-24.45,25.73-37.13,38.13-6.38,6.25-13.8,11.56-21.24,16.58-3.23,2.17-7.36,1.6-11.09-1.05-11-7.83-12.45-24-10.09-34.73,1.16-5.3,3.18-10.4,4.58-15.65,1.44-5.43.47-6.69-5.08-7.54C1162.15,106.54,1151.37,111.66,1141.11,115.85Z"/><path d="M111.71,130.16c-13.8-3.74-27.26-1.81-40.68,1.67-4,1-8.1,1.77-12.18,2.41-6,.94-11.13-.05-13.49-6.7-.35-1-1.5-1.69-2.23-2.46,1.59-7.84,8.32-9,14.11-10.81,16.58-5.31,33.49-7.62,50.9-4.71a75.13,75.13,0,0,0,12.19.79c8.35,0,16.27,10.18,14.4,19-1.33,6.26-2.81,12.51-4.67,18.63-3.73,12.27-3.31,25-.4,36.84,2,8.18,7.32,16.4,15.51,21,1.83,1,5.89.33,7.54-1.13A69.52,69.52,0,0,0,165,191.18a104.05,104.05,0,0,0,10.4-20.1c3.67-9.64-.54-18.85-3.3-28-1.32-4.38-2.68-8.77-3.6-13.24a9.46,9.46,0,0,1,5-10.58c9.12-4.93,18.15-10.64,28-13.5,8.31-2.43,17.78-4.45,26.41,1.14,10.43,6.77,13.33,17.13,14.2,28.55.2,2.73.31,5.46.46,8.15,18-3.62,26-16.32,31.62-31.19,1.1-2.89,1.39-6.1,2-9.18,1.09-6,6.06-7.84,10.68-9.67,14.65-5.83,29.39-7.25,43.17,2.11,7.78,5.28,13.78,12.46,16.51,21.69,4.5,15.15,1.51,29.75-3.73,44.14-2.86,7.84-5.59,15.73-8.33,23.61-2.43,7-4.85,13.93-7.2,20.92-4.83,14.39-9.82,28.73-14.35,43.21-4,12.91-9.69,24.74-19.13,34.7-8.27,8.73-17.85,13.12-30.16,12.85-13.36-.3-25.81-3-37.23-9.88-4.29-2.56-8.17-5.81-11.3-8.07-7.51,5.79-14.25,12.05-22,16.7-17.11,10.31-35.39,14.77-55.44,9.14-12.68-3.55-23.48-10.49-34.24-17.48s-21.44-14.09-31.44-22.05c-16.21-12.9-30.24-27.42-36.09-48.47-3.48-12.52-4.42-24.6-1-37C39,165.06,46.69,152.22,54.77,139.6c1.63-2.54,10.6-1.71,12.75,1.35,3.19,4.54,5.26,9.06,2,15a254.25,254.25,0,0,0-12.85,26.66c-4.52,10.92-5.53,21.83-1.52,33.72,6.6,19.56,21.23,31.33,37.27,42.06,11.48,7.68,23,15.41,35.08,22.06,11.32,6.23,23.43,6.15,35.91,2.08,8.54-2.8,16.58-6.33,23.51-11.78a64.08,64.08,0,0,0,12.68-13.62c3.94-5.66,6.8-12.07,9.93-18.25,1.94-3.84,5.17-6.39,9-5.33a15.61,15.61,0,0,1,8.16,6.27c4,6.15,5,12.76,1.35,19.93-.75,1.47,1.55,5.82,3.56,7.16,10.87,7.21,23,10,35.5,5.65,9.25-3.19,15.47-10.75,19.37-19.6,4.52-10.26,8.83-20.66,12.35-31.3,4.39-13.29,7.61-27,11.87-40.32a262.7,262.7,0,0,1,10.18-26.72,80,80,0,0,0,6.87-30.17c.23-7.39-9.36-13.74-17.87-12.43-6.49,1-10.77,3.16-13.84,10.4-4.88,11.53-11.93,22.33-19.3,32.56-4.07,5.65-9.88,10.42-18.14,10.74-3.6.14-7.3,2.29-10.61,4.14-7,3.9-16.48.38-20.27-7.61-4.89-10.35-5.63-21.6-7.64-32.6-.21-1.17-2-2.94-3.05-2.93-9.08.11-17,3.77-23.91,9.34-1.59,1.28-2.41,4.75-2,7,1,5.83,3.44,11.44,4.09,17.27s.87,12.12-.56,17.74c-4.51,17.74-14.67,32.16-28.05,44.57-6.71,6.22-14.27,5.66-21.92,3.76-7.15-1.78-12.87-6.21-17.13-12.29-3.37-4.81-7-9.54-9.77-14.68-10.31-19-10.22-39.24-7.17-59.85C111,136.45,111.31,133.36,111.71,130.16Z"/><path d="M1458.78,185.39c-5.28.6-10.57,1.09-15.82,1.82-5.76.81-11.38,3.89-17.32,1.26-3.76-1.66-7.78-3.15-10.94-5.66-7.91-6.27-15.3-13.42-19.93-22.39a78.7,78.7,0,0,1-9.14-35.6c-.18-13.83,3.17-26.55,8.86-38.66a85.75,85.75,0,0,1,27.88-33.68C1442,38.42,1464,35.26,1487.15,39.72c6.22,1.2,12.19,4.2,17.93,7.05,2.91,1.45,4.54,1.83,7.39-.28,6.62-4.91,13.76-9.12,20.62-13.72,4-2.65,7.8-1,10.6,1.27,9.19,7.39,13.73,17.41,14.59,29.12.43,6,1,11.91,1.16,17.88.21,9.37-4.07,16.47-11.82,21.6-6.34,4.2-9.41,10.1-10.61,17.64a106.34,106.34,0,0,1-5.54,20.57c-3.39,9.07-1.74,17.81-.09,26.78,2.42,13.14,5.28,26.29,6.27,39.56.57,7.61-2.49,15.43-3.39,23.21-1.42,12.22-5.68,23.52-9.52,35.09-3.43,10.32-7.35,20.33-13.67,28.91-9.35,12.69-19.93,24.74-35,30.82a85.07,85.07,0,0,1-39.51,5.95,160.61,160.61,0,0,1-33.84-6.62c-13.6-4.34-24.33-13.44-31.51-25.93-9.4-16.32-10.92-33.82-7.78-52.28,2.87-16.84,12.35-28.46,26.14-37.34,6.67-4.31,13.34-4.7,20.67-.86a185.41,185.41,0,0,0,21.9,9.3A14.12,14.12,0,0,0,1449,211c4.29-7.48,7.69-15.47,11.47-23.24Zm-13.11-25.23,0,.3c1.33-.07,2.65-.21,4-.2,14.07.11,28.77,12.08,30.82,25.14,2.75,17.49-3,33-14.34,46.58-9.69,11.59-21.49,12.94-34.82,7.91-6.92-2.61-13.73-5.55-20.7-8-1.85-.65-4.49-.87-6.14,0-7.64,3.81-13.89,9.24-17.06,17.43-3.65,9.41-4.46,19.13-3.56,29.18,1.06,11.94,7.44,19.64,18.28,23.53,14.23,5.11,29,6.88,43.9,3.62,7.89-1.71,16.56-2.73,23.2-6.79,17.26-10.56,28.9-26,35.35-45.52,5.32-16.07,8.38-32.58,11.67-49.08,2.29-11.43-1.74-22.2-3.93-33.16-1.85-9.33-4.78-18.76-4.59-28.09.18-8.79,4.18-17.43,5.8-26.26,1.24-6.73,6.16-14.07-2.13-20.16-1.44-1.06-1.18-4.31-2-6.45-.7-1.92-1.29-4.26-2.73-5.47-5.44-4.61-8.4-10.17-8.2-17.33.08-2.87-1.21-4.61-4.1-5.34-17.25-4.3-34.09-3.13-50,5-13.38,6.83-23.06,17.79-30,30.89-8.37,15.68-12.32,32.11-6.31,49.7,3.6,10.54,9,18.29,23.22,14.54C1436,160.81,1440.89,160.75,1445.67,160.16Zm91.65-98.8c-10.79,4.38-13,7.75-11,16.44.89,3.85,3,4.51,6.22,1.92C1537.56,75.67,1539.5,68.47,1537.32,61.36Z"/><path d="M754.3,162c2.72,4.69,4.84,8.9,7.46,12.76,9.74,14.31,11.58,30.52,10.64,47-1.44,25.2-10.25,47.79-27.54,66.46a62.42,62.42,0,0,1-46.25,20.69c-6.74.11-13.57.53-20.19-.4-14-2-24.74-9.56-32.81-21-7.8-11.08-11.53-23.59-8.49-36.62,2-8.42,6.78-16.39,11.32-24,8.16-13.57,21.32-23.76,27.29-38.78,2.58-6.5,3.64-13.61,5.29-20.47,2.17-9-4.39-11.52-12.82-11.4-10.65.15-20.19,4.54-29.8,8.53-4.37,1.81-8.76,4.72-13.2,4.83A20.64,20.64,0,0,1,612.74,165c-13.46-11.09-10.39-29.88-3.93-41.18a30.07,30.07,0,0,1,2.79-4.69c4.57-5.4,5.69-10.36,2.24-17.52-3.82-7.92-.2-15.32,6-16.85,4.5-1.1,9-2.08,13.61-2.85,8.28-1.4,16.56-3.36,24.89-3.7a241.86,241.86,0,0,1,31.61,1c15.61,1.42,29.74-2.21,43.41-9.61a132.06,132.06,0,0,1,25.4-10.55,266.76,266.76,0,0,1,31.9-6.79,70.12,70.12,0,0,1,39.94,4.64c10.9,4.74,21.47,10,29.78,19.08C870,86.45,874.1,98.49,872.23,112.2a113.32,113.32,0,0,1-6.2,24.23c-5,13.37-15.69,19.51-29.56,21.4-16.94,2.3-33.68-.38-50.52-1A78.55,78.55,0,0,0,754.3,162ZM624,143.69a21.75,21.75,0,0,0,3.88-.66c13.29-5.93,26.79-10.21,41.77-8.63,13,1.37,21.77,8.69,27.33,19.43,8.92,17.27,4.73,34.4-2.69,51.12-4.48,10.09-11.82,18.1-18.66,26.54-6.29,7.78-13.05,15.29-16.61,25-3.63,9.86-1.39,24.63,12.91,28.47a49.73,49.73,0,0,0,12.54,1.46c16.22.07,30.89-4.81,43-15.63,14.75-13.2,22.84-30.19,25.67-49.6,1.42-9.71,1.89-19.94-2.45-28.79-4.54-9.27-11-17.64-17-26.12-4.09-5.76-3-11.86-2.19-18,.18-1.3,1.91-2.71,3.26-3.51,13.62-8.05,28.55-11.12,44.18-10.77,13.39.31,26.78,1.86,40.15,1.62,23.72-.42,32.46-12.15,34.72-33.68a16,16,0,0,0-1.66-7.65c-5-11.2-15.12-15.73-25.87-19.16-19.31-6.16-37.72.71-56,5.1-9.33,2.25-18,7.71-26.56,12.53-16.75,9.46-34.83,10.1-53.09,8.24-14.87-1.52-29.4-.31-43,1.67-1.89,4.56-2.58,9-5.13,11.84C634.79,122.89,629.36,132.46,624,143.69Z"/><path d="M461.18,248.42c-4.35,6.13-8.11,11.7-12.14,17.05-9.92,13.19-21.83,23.83-37.81,29.32-8.71,3-17.23,4.68-26.49,1.76-12.14-3.83-19.47-12.3-23.62-23.52-5.22-14.11-7-29-6.23-44,.72-14.79,2.51-29.49,7.79-43.48a161.4,161.4,0,0,1,25.15-44.33c-3.07-2.49-3.71-5.24-1.33-8.23,8.72-10.92,18.86-20.35,32.87-23.38,14.57-3.15,26.91,2.54,32.29,17a14.82,14.82,0,0,0,1.22,2.14c4.65-4.36,9.45-8.2,13.43-12.75,6-6.93,14.3-10.07,22.14-13.88,5.8-2.82,12-4.77,17.93-7.37,7.43-3.27,14.18-1.53,21.18,1.65,9.12,4.13,14.41,12,20.23,19.33,8.31,10.52,16.67,21,24.65,31.79,13.57,18.33,17.38,38.34,10.83,60.53-6.84,23.14-19.47,42.49-37.08,58.54-12.35,11.25-26.57,19.9-43.45,22.46-7.92,1.2-15.45-1.3-22-6.38C469.62,274.13,465.16,261.84,461.18,248.42ZM428.47,131.31c-6.8,1-10.54,3.39-18.61,9.71-3,2.32-2.76,4.16-2.15,7.34.49,2.49-.1,6.23-1.74,7.91-9.69,9.88-16.5,21.63-21.45,34.2-6.62,16.83-10.63,34.47-9.19,52.74a167.35,167.35,0,0,0,4.57,26.63c.54,2.17,4.58,5,6.94,4.93,13.19-.37,24.33-6.61,33.59-15.25a127.85,127.85,0,0,0,29.14-40.82c2.33-5.11,6.51-7.57,11.52-5.39,4.2,1.83,8.8,4.73,11.13,8.45,4,6.33,6.48,13.6,9.21,20.62,2.2,5.65,3.55,11.62,5.74,17.27,2,5.05,5.87,7,10.8,5.42,9.47-3,18.62-6.88,26.49-13.11,16.46-13,29.6-28.44,37.54-48.31,6.4-16,5.82-30.6-4.61-44.42-9.45-12.53-19.08-24.91-28.74-37.28-4.53-5.81-8.47-7.21-15.21-4.24-9.18,4-18.4,8.23-26.89,13.5-11.15,6.93-18.14,16.94-19.26,30.65-1,12.81-3.58,25.29-13.19,35-3.91,3.94-6.55,9.33-13.78,8.84-5.91-.41-10.31-2.56-15.18-5.85-11-7.46-14.88-17.93-13.13-30C414,156.05,418.67,142.8,428.47,131.31Zm5.21,48.89c10.9-8.33,11.76-20.28,12.69-32.2C439.8,157.87,433.44,167.81,433.68,180.2Z"/><path d="M833,241a129.5,129.5,0,0,1,13.85-55.46c8.54-17.4,20.53-32.23,34.41-45.25a107.07,107.07,0,0,1,29.45-19.59c16-7,32.66-13.32,49.68-16.79,14.5-2.95,29.6-6.55,44.84-3.21,19.06,4.18,36.09,12.06,49.38,26.79,9.8,10.85,19,22.46,24.46,35.88s9.57,27.69,7.73,42.47a173.13,173.13,0,0,1-6.31,28.37c-4.65,15.51-14.09,28.58-23.43,41.5-7.47,10.33-17,18.71-27.69,25.94-10,6.77-20.86,11-32.26,14.68-13.62,4.41-27.52,6.08-41.61,7.35a245.22,245.22,0,0,1-47.08-.07c-20.65-2.09-39.06-8.85-53.27-24.43-10.87-11.92-18.5-25.61-20.31-42C834.13,250.76,833.38,244.37,833,241Zm73.76-90.47c-19.69,13.61-34,32.71-44.93,54.51-7.67,15.23-11.24,31.27-9.5,48.42,1.76,17.36,9.23,30.75,25.31,38.78,9.86,4.92,20.45,6,31.2,7.29,20.15,2.35,40.14.14,60-2.14a105.17,105.17,0,0,0,45.92-16.55c21.68-14.22,36.77-33.7,47-57.51,6.31-14.66,8.66-29.53,3.36-44.26-4.12-11.49-10.37-22.5-17.23-32.68-11.41-17-28.85-24.11-48.72-23.94-10.63.08-21.36,2.54-31.84,4.85-6.86,1.52-14.55,2.59-18.12,10.82-3-3.4-5.88-2.64-8.44-.15-5.16,5-10.48,9.95-15.19,15.38-3.22,3.72-7.2,5.67-11.46,3.34C911.47,155.22,909.4,152.77,906.76,150.5Z"/><path d="M1463.08,100.76c2.48-1.13,5.33-3.19,6-2.62,3.33,2.7,7.8,5.69,8.71,9.36,3.43,13.74-3.42,24.22-12.51,33.88-8.33,8.88-24.26,5.53-30.29-3.54-1.18-1.78-2.8-3.25-4.1-5-7.47-9.8-8-20.94-6.15-32.48,1.51-9.28,7.83-15.35,14.81-20.63,3.09-2.34,6.66-2.27,10.62,0C1458.51,84.67,1463.47,91.11,1463.08,100.76Zm-6.95.9c-1.26.06-3.25-.32-4.84.32-5,2-9.58,12.23-8.1,17.45.89,3.14,3.26,3.07,4.93,1.42,5-4.91,9.68-10.11,14.24-15.41.38-.45-.78-2.91-1.8-3.65C1459.7,101.16,1458,101.66,1456.13,101.66Z"/><path d="M946.1,264.88c-14.77.05-26.17-15.33-29.75-26.16-4.65-14.11-1.53-27,5.88-39.66,7.68-13.08,18.55-22,32-28.47,11.34-5.45,27.11-3.76,35,4.22a22.92,22.92,0,0,1,3.07,4.42c1.69,2.83,2.82,6.12,5,8.51,7.82,8.71,9.44,18.72,6.29,29.48-4.48,15.27-14.87,26.3-27.1,35.9-6.08,4.76-12.65,8.37-20.21,10C952.86,263.9,949.47,264.32,946.1,264.88Zm-2-25.8a42,42,0,0,0,4.76-1.12c16.17-5.22,27-16.7,35.73-30.58,2.1-3.36.91-5.92-3.14-7.17-6.16-1.91-12.38-3.64-18.6-5.33a3.76,3.76,0,0,0-2.77.32C948.32,203.26,938.47,213,934,227,931.33,235.48,934,239,944.13,239.08Z"/></svg>