<svg id="Layer_1" data-name="Layer 1" xmlns="http://www.w3.org/2000/svg" viewBox="0 0 739.97 243"><path d="M54.43,149.49c1.09-11.45,1.8-23,3.4-34.33a266.35,266.35,0,0,1,5.65-27.49C65,81.53,70,78.2,75.76,76.41c4.83-1.51,10,2.22,13.59,8.68,8.42,15,16.32,30.33,25.72,44.69,6.94,10.59,15.91,19.86,24,29.7a23.33,23.33,0,0,0,3.09,2.42c.38-6.4,1.24-12,.94-17.43-1.26-23-2.4-46-4.58-68.9-.77-8-4.13-15.88-6.81-23.64-1.34-3.9.22-6.7,3-7.9,3.21-1.39,6.55-4.25,10.83-.45,7.13,6.33,8.28,15,9.56,23.21,2.34,15,3.33,30.26,4.57,45.43.94,11.53,1.9,23.1,1.9,34.65a127.83,127.83,0,0,1-2.51,25.59c-2.22,10.92-14.76,14.31-23.42,7-10.69-9-19.06-20-27.66-31C97,134.58,88.6,119.36,81.28,103.39c-.69-1.51-1.67-2.89-2.51-4.33l-1.39.2c-1.41,6.36-3.4,12.67-4.12,19.11-1.86,16.54-3.07,33.15-4.74,49.72a27.47,27.47,0,0,1-2.44,8.51c-2.63,5.76-9.27,7-13,1.77-5.72-8.05-11.25-16.44-15.37-25.36-11-23.9-13.91-49.58-14.5-75.55-.09-3.82-.8-8.71,5.91-9.34,5.61-.53,8,.82,8.64,6.83,1.08,10.85,1.85,21.75,3.49,32.52a233.31,233.31,0,0,0,5.83,26.16c1.51,5.52,4.06,10.75,6.15,16.11Z"/><path d="M692.71,115.38c-2.6,3.69-5.11,7.46-7.82,11.06-7.11,9.46-16.1,16.86-27.56,19.81-16.1,4.14-31.14-6.38-33.48-23.14-1.58-11.35,2.88-20.83,10-29.14,8.51-9.88,18.14-18.52,31.3-21.59,4.72-1.1,9.79-1,14.69-.9,4.13.11,7.06,2.62,8.65,6.5s3.09,6.17,8.4,3.86c6.84-3,14.29,2.34,15.38,11.48a197.58,197.58,0,0,1,.88,31.16c-.87,21.71-8.75,41.43-19.34,60-6.17,10.84-12.16,22.06-22.63,29.7a27.32,27.32,0,0,1-7.49,3.82c-4.83,1.58-12.21-1.94-13.44-6.87a9.25,9.25,0,0,1,1.92-7.55c14.88-14.88,24.81-32.91,32.61-52,4.25-10.4,6-21.81,8.88-32.78a12.91,12.91,0,0,0,0-3.11Zm-19.47-22a5.31,5.31,0,0,0-1.6.26c-11.73,5.12-21.37,12.54-26.43,24.69a8.72,8.72,0,0,0-.24,6.05c1.51,3.65,4.89,4,9.76,1.51,10.6-5.32,17.94-14,24-23.79C681.15,98.24,678.07,93.24,673.24,93.37Z"/><path d="M426.19,72.09c-7.05.53-13.39,1.13-19.74,1.48-12.21.66-24.42,1.35-36.64,1.69-4.65.13-10-4.05-11.16-7.93C357.18,62.43,358,58,362.39,55a10.47,10.47,0,0,1,5.34-1.66c16.2-.61,32.42-.93,48.62-1.6,15.4-.64,30.78-1.84,46.18-2.34,14.27-.45,28.56-.32,42.84-.38,4.94,0,8.92,3.45,9.53,8.88.52,4.63-2.21,7.87-6.64,8.36-9,1-18.07,1.41-27.12,1.92-9.76.56-19.54.75-29.27,1.62-1.72.15-4.08,2.61-4.67,4.47-5.25,16.49-10.48,33-15.06,49.68-2.27,8.25-3.22,16.86-4.63,25.33a4.65,4.65,0,0,0,.75,3.53c4.83,5,5,13.24.09,18-3.75,3.7-9.61,4-13.35.19a24.89,24.89,0,0,1-7.22-14.83c-1.88-15.36,1.69-29.94,5.7-44.4C416.73,100,421,88.57,424.81,77,425.21,75.77,425.51,74.53,426.19,72.09Z"/><path d="M233.15,147c2.93-12,5.42-24.1,9-35.9,1.74-5.76,4.12-11.8,11.2-14.06,5.81-1.85,9.76-.49,13.56,4.37,8.38,10.72,9.47,23.64,11.86,36.22,1.33,7,2.72,14.06,8.14,19.32,1.21,1.18,3,2.55,4.52,2.51,4.32-.12,6,2,6.58,5.83.62,4.29-.22,7.91-4.75,9.65-6.79,2.6-12.87.83-18-3.74-9.88-8.79-14.34-20.37-16.25-33.14-.46-3-1.18-6.06-1.78-9.09l-1.27-.06L252.29,145c-1.66,7.39-2.93,14.9-5.11,22.13-2.65,8.83-10,13.27-17.91,9.62-4.84-2.22-9.11-7.29-11.85-12.09-6.68-11.66-7.62-24.83-7.15-38,.28-7.56,1.33-15.1,2.19-22.63.81-7.08,8.61-12.24,13.93-9.34,4,2.16,7.85,10.25,7.48,15q-1.32,16.77-2.38,33.57a16,16,0,0,0,.74,4Z"/><path d="M578.9,97.58c-11.16,12.72-14.55,28.75-18.75,44.42-1,3.82-1.73,7.73-2.47,11.61-.8,4.2-2.93,7.42-7.11,8.62-4.85,1.4-8.55-1-11.75-4.38-5.53-5.82-4.77-13.44-5.1-20.38-.6-12.69,3.51-24.63,7.85-36.41.57-1.55.94-3.17,1.37-4.76,1.94-7.23,5.74-9.61,13.39-9,1.61.13,3.54-1.08,5-2.11,3.34-2.36,6.13-5.9,9.79-7.35,11.89-4.71,16.2-4,24,8.47,5.25,8.39,7.7,17.82,8.56,27.66.59,6.74,1.35,13.46,1.87,20.2.27,3.54,1.63,5.17,5.37,4.16,3.18-.85,4.34.72,4.86,3.77,1.38,8.08-.13,11.19-6.15,15-7.24,4.58-15.78-.17-19-6.5-6.2-12.31-6-25.8-7.57-39-.55-4.76-1.43-9.48-2.16-14.22Z"/><path d="M494.76,170.65c-18.84-3.12-32.43-11.36-40.3-27.88-8-16.79-2.88-32.1,6-46.47,4.78-7.74,11.89-12.18,22.13-9.5,4.26,1.11,9.35-1.14,13.69-.19,11.5,2.55,19.89,9.34,24.23,20.6,6,15.66,6.17,31.49,1.1,47.35-1.84,5.73-5.68,10.16-11.55,12.07C504.76,168.36,499.28,169.49,494.76,170.65Zm-18.44-61.56c-1.27,2.57-2.3,4.26-3,6.08-2.95,8.13-4.43,16.08.88,24.11,4.83,7.3,11.57,10.07,19.94,10.72,5.46.42,8.77-1.33,10.62-6.57,2.88-8.17,2.8-16.49,1.49-24.85-.85-5.46-6.94-10.55-12.21-10.44a4.12,4.12,0,0,0-3,1.62c-2.41,4-6.27,5.07-10.23,2.49C479.4,111.29,478,110.25,476.32,109.09Z"/></svg>