<svg id="Layer_1" data-name="Layer 1" xmlns="http://www.w3.org/2000/svg" viewBox="0 0 1061.19 221"><path d="M608.22,31.91c-.6,4.7,2.24,5.51,6.33,5.33,12.19-.53,24.39-1,36.59-1.17,1.72,0,4.82,1.58,5,2.7.38,3.16,1.79,6.65-1.73,9.59-5.35,4.47-11.79,5.21-18.07,5.46-24.21,1-48.44,2-72.65,1.84-10.49-.07-19.11,4-27.46,8.57a204.42,204.42,0,0,0-29.53,19.86c-11.31,9.14-21.9,19.42-25.2,34.46-.73,3.33.73,7.13,1.18,10.71l1.66.51c5-4.64,9.65-9.67,15-13.83,7.89-6.14,16.15-11.85,24.5-17.38,4.52-3,10.24-.63,11.79,4.66a56.86,56.86,0,0,1,2.31,12c.35,5,2.61,7,7.27,5.26,8.21-3.09,14.14-8.77,16.66-17.11,1-3.26,2.75-4.11,5.34-4.67,8.66-1.89,11.3-.33,13.19,8.65.85,4,2.57,4.78,6.24,3.65,7.85-2.41,15.68-5,23.71-6.67a24.05,24.05,0,0,1,12.19.86c16.35,5.72,32.55,3.68,48.41-1,9.79-2.88,18.92-8,28.46-11.77,4.59-1.82,4.63-4.64,3.54-8.7-2.08-7.71-2.66-15.52.56-23.13S714.36,49.35,722.29,52c6.57,2.16,13.08,4.58,19.4,7.35,8.76,3.84,9.44,7.68,9.23,17.12s-7.24,13.72-14,18.11c-2.33,1.51-4.93,2.62-8,4.22,2.06,4,3.84,8.09,6.17,11.79.61,1,3,1.49,4.41,1.18,13.24-3,26.27-7.31,39.65-9.25,18-2.62,36.2-4,54.37-5a359.39,359.39,0,0,1,39.93.2c12.43.71,24.78,2.76,37.17,4.15,8.24.92,16.51,1.53,24.73,2.59,15.75,2,31.45,4.53,47.23,6.42,11.65,1.39,23.39,2.14,35.09,3.13.61.05,1.25-.38,1.89-.42,2.25-.17,5.43-1.22,6.54-.16a11,11,0,0,1,2.86,7.31c0,2.5.6,6.25-3.69,7a2,2,0,0,0-1.1,1.53c.56,6.06-4.17,5.29-7.36,5.07-16.69-1.16-33.38-2.35-50-4.19-19.29-2.14-38.46-5.62-57.79-7.31-24-2.1-48-4-72.06-4-17.62,0-35.3,2.73-52.83,5.12-11.38,1.56-22.55,4.67-33.8,7.16a22.1,22.1,0,0,0-3.86,1.65c2.85,7.33,6.11,14.34,8.29,21.68,3.9,13.09,4.7,26.52-.49,39.41-3.7,9.2-11.53,13.89-21.29,15.68-14.33,2.63-28.63,2-42.92,0-7.8-1.1-15.59-2.42-23.27-4.11-16.09-3.55-26.88-24.18-20-39.07,2-4.25,6.29-7.61,10-10.84,9.58-8.33,19.82-15.65,31.49-21.05,8.75-4,16.88-9.42,25.33-14.1,1.1-.61,2.52-.65,4.88-1.22-2-3.53-3.75-6.66-5.74-10.21-4.15,2.36-7.72,4.37-11.27,6.4a132,132,0,0,1-49.64,16.15,72.5,72.5,0,0,1-31.59-3.46c-6.27-2-12,.07-17.77,1.6-7.1,1.88-14.06,4.37-21.25,5.76-2.57.5-5.76-1.08-8.38-2.32s-4.16-1.35-6.63,1.21c-7.07,7.36-16.29,11.51-26.39,9.8-7.33-1.24-13.45-6.19-17-13.33-.58-1.17-1.22-2.32-1.86-3.46-.07-.13-.27-.18-1.39-.84-6.43,6.3-13.13,12.76-19.72,19.33-4.87,4.85-10.37,9.17-17.44,6.39-7.41-2.91-13.17-7.75-16.22-16.05-7.11-19.36-1.86-35.57,10-51.25,7-9.29,15.53-16.58,24.71-23.36,2-1.51,4.53-2.44,7.15-4.8-2-.36-4-1.11-5.91-1-17.07.64-34.15,1.15-51.19,2.26-13.69.89-27.38,2.15-41,4.06-5.44.76-10.74,3.34-15.73,5.83-1.57.79-2.82,4.08-2.67,6.1a117.1,117.1,0,0,1-7,48.92c-3.9,10.82-12.35,17.86-24.81,18.45-5.77.28-11.56.51-17.32,1-7.62.66-14.27,3.86-20.5,8.18-7.06,4.89-14.07,9.93-21.51,14.18-9.32,5.32-21.85,2.2-28.54-6.39-1.11-1.42-2.18-2.88-3.76-5-15.13,17.1-31.38,19.52-48.62,3.44-4.32,5.62-7.94,11.87-13,16.53-5.49,5-11.83,10.38-18.74,12.35-14.42,4.12-30.24-3.68-35.69-19.61-1.94-5.67-2.56-11.79-4.07-19.11-1.6,2.68-3,4.72-4.08,6.9C137.17,167,129,179,116.18,187.4c-12.61,8.22-30.6,5.83-41.75-4.78S58.74,158.37,55.9,143.91c-3.54-18.06-2.41-36.22-1.07-54.39a55.85,55.85,0,0,0,.1-10.89C54.16,72.25,56.19,67.4,62,63.7c6.24,3.94,8.88,10.07,9,17.32.15,16.2-.39,32.42.17,48.6.38,11.08,2,22.26,8.69,31.65,8.66,12.08,19.32,15.74,30.87,4.12,13.89-14,22.63-31.25,31.7-48.34,3-5.66,5.63-11.56,9-17,4.08-6.63,10.53-8.33,14.86-1.08a29.05,29.05,0,0,1,4.13,18c-1,10.67-1.85,21.37-2.32,32.07a22.25,22.25,0,0,0,2,9.53c3.16,7.21,7.93,8.76,14.15,3.86A101.53,101.53,0,0,0,199.55,147c4.27-5.21,7.66-11.17,11.18-17,4.2-6.93,10.88-7.9,15.91-1.59,2.72,3.42,4.44,7.63,6.6,11.5,3.16,5.69,6.1,6.85,11.77,3.63,3.24-1.83,5.93-4.66,8.77-7.15,2.49-2.19,4.65-4.78,7.28-6.76,9.58-7.24,18.62-4.34,22.51,7.07.21.62.21,1.32.4,1.95,1.71,5.73,3.12,6.77,8.53,4A133.49,133.49,0,0,0,311,131.12c8.08-6,17.35-7.73,26.92-8.74,4.21-.44,8.46-.67,12.7-.71,11.46-.12,18.07-6.17,20.92-16.8,3.08-11.43,4.28-22.93,1.14-34.61-3.21-12,1.44-20.23,13.65-24.36a157.24,157.24,0,0,1,47.34-8.26c18.47-.41,36.92-1.34,55.39-1.86q18.33-.51,36.67-.48c5.25,0,10.62,1.47,15.73.78,9.24-1.24,18.37-3.46,27.48-5.54A73.23,73.23,0,0,1,608.22,31.91ZM728,137.79c-8.06,4-15.29,8-22.75,11.36a128.16,128.16,0,0,0-38.34,27.39c-3.79,3.85-3.28,5.79,1.19,9,7.81,5.66,16.9,7.37,26.08,8.77,13.16,2,25.9,1.6,37.74-6,6.38-4.08,9-9.36,8.44-16.59C739.37,159.67,733.65,149.29,728,137.79Zm.05-62.55c-.19-.49-.38-1-.58-1.47h-8.41l1.6,5.6Z"/></svg>