<svg id="color_two" data-name="color_two" xmlns="http://www.w3.org/2000/svg" viewBox="0 0 694 706"><defs><style>.cls-1{opacity:0.35;}.cls-2{fill:#aad0ff;}.cls-3{fill:#7fe1ff;}.cls-4{fill:#0070d4;}.cls-5{fill:#94c7ff;}.cls-6{fill:#949cff;}.cls-7{fill:#94d8ff;}.cls-8{fill:#55bcff;}.cls-9{fill:#0087d4;}.cls-10{fill:#6ae8ff;}.cls-11{fill:#15d6ff;}.cls-12{fill:#bfe0ff;}.cls-13{fill:#00b0ff;}.cls-14{fill:#6ac4ff;}.cls-15{fill:#94d2ff;}</style></defs><g class="cls-1"><ellipse class="cls-2" cx="339.5" cy="279" rx="89.5" ry="155"/></g><g class="cls-1"><ellipse class="cls-3" cx="265.91" cy="332.74" rx="89.5" ry="155" transform="translate(-127.11 496.93) rotate(-74.04)"/></g><g class="cls-1"><ellipse class="cls-4" cx="289.93" cy="440.34" rx="155" ry="89.5" transform="translate(-229.88 352.23) rotate(-47.02)"/></g><g class="cls-1"><ellipse class="cls-5" cx="331.55" cy="461.56" rx="155" ry="89.5" transform="translate(-210.62 631.88) rotate(-71.75)"/></g><g class="cls-1"><ellipse class="cls-6" cx="429.21" cy="348.39" rx="155" ry="89.5" transform="translate(-110.7 229.67) rotate(-26.67)"/></g><g class="cls-1"><ellipse class="cls-7" cx="439.53" cy="368.94" rx="155" ry="89.5" transform="translate(-107.72 196.23) rotate(-22.49)"/></g><g class="cls-1"><ellipse class="cls-8" cx="261.21" cy="355.26" rx="89.5" ry="155" transform="translate(-139.91 538.39) rotate(-78.21)"/></g><g class="cls-1"><ellipse class="cls-9" cx="386.5" cy="289" rx="155" ry="89.5" transform="translate(-46.56 501.98) rotate(-62.98)"/></g><g class="cls-1"><ellipse class="cls-10" cx="374.1" cy="463.39" rx="89.5" ry="155" transform="translate(-128.48 143.86) rotate(-18.64)"/></g><g class="cls-1"><ellipse class="cls-11" cx="316.77" cy="288.55" rx="89.5" ry="155" transform="translate(-81.16 129.63) rotate(-20.56)"/></g><g class="cls-1"><ellipse class="cls-12" cx="417.1" cy="440.77" rx="89.5" ry="155" transform="translate(-189.66 431.05) rotate(-45.66)"/></g><g class="cls-1"><ellipse class="cls-13" cx="386.02" cy="453.22" rx="89.5" ry="155" transform="translate(-203.39 369.49) rotate(-41.49)"/></g><g class="cls-1"><ellipse class="cls-14" cx="441.36" cy="394.88" rx="89.5" ry="155" transform="translate(43.72 833.75) rotate(-89.64)"/></g><g class="cls-1"><ellipse class="cls-15" cx="277.49" cy="417.51" rx="155" ry="89.5" transform="translate(-146.59 150.17) rotate(-24.16)"/></g></svg>