<svg id="Layer_1" data-name="Layer 1" xmlns="http://www.w3.org/2000/svg" viewBox="0 0 694 706"><defs><style>.cls-1{opacity:0.35;}.cls-2{fill:#ffe7ab;}.cls-3{fill:#ff6d00;}.cls-4{fill:#d36e00;}.cls-5{fill:#ffad80;}.cls-6{fill:#d37d00;}.cls-7{fill:#ffb96c;}.cls-8{fill:#ffdc97;}.cls-9{fill:#ffed97;}.cls-10{fill:#ff9797;}.cls-11{fill:#ffc217;}.cls-12{fill:#ff996c;}.cls-13{fill:#ffb757;}.cls-14{fill:#ffdec0;}.cls-15{fill:#fff297;}</style></defs><g class="cls-1"><ellipse class="cls-2" cx="339.5" cy="279" rx="89.5" ry="155"/></g><g class="cls-1"><ellipse class="cls-3" cx="386.02" cy="453.22" rx="89.5" ry="155" transform="translate(-203.39 369.49) rotate(-41.49)"/></g><g class="cls-1"><ellipse class="cls-4" cx="386.5" cy="289" rx="155" ry="89.5" transform="translate(-46.56 501.98) rotate(-62.98)"/></g><g class="cls-1"><ellipse class="cls-5" cx="265.91" cy="332.74" rx="89.5" ry="155" transform="translate(-127.11 496.93) rotate(-74.04)"/></g><g class="cls-1"><ellipse class="cls-6" cx="289.93" cy="440.34" rx="155" ry="89.5" transform="translate(-229.88 352.23) rotate(-47.02)"/></g><g class="cls-1"><ellipse class="cls-7" cx="441.36" cy="394.88" rx="89.5" ry="155" transform="translate(43.72 833.75) rotate(-89.64)"/></g><g class="cls-1"><ellipse class="cls-8" cx="439.53" cy="368.94" rx="155" ry="89.5" transform="translate(-107.72 196.23) rotate(-22.49)"/></g><g class="cls-1"><ellipse class="cls-9" cx="429.21" cy="348.39" rx="155" ry="89.5" transform="translate(-110.7 229.67) rotate(-26.67)"/></g><g class="cls-1"><ellipse class="cls-10" cx="331.55" cy="461.56" rx="155" ry="89.5" transform="translate(-210.62 631.88) rotate(-71.75)"/></g><g class="cls-1"><ellipse class="cls-11" cx="316.77" cy="288.55" rx="89.5" ry="155" transform="translate(-81.16 129.63) rotate(-20.56)"/></g><g class="cls-1"><ellipse class="cls-12" cx="374.1" cy="463.39" rx="89.5" ry="155" transform="translate(-128.48 143.86) rotate(-18.64)"/></g><g class="cls-1"><ellipse class="cls-13" cx="261.21" cy="355.26" rx="89.5" ry="155" transform="translate(-139.91 538.39) rotate(-78.21)"/></g><g class="cls-1"><ellipse class="cls-14" cx="417.1" cy="440.77" rx="89.5" ry="155" transform="translate(-189.66 431.05) rotate(-45.66)"/></g><g class="cls-1"><ellipse class="cls-15" cx="277.49" cy="417.51" rx="155" ry="89.5" transform="translate(-146.59 150.17) rotate(-24.16)"/></g>
</svg>